<?xml version="1.0" encoding="UTF-8" standalone="no"?>
<!DOCTYPE svg PUBLIC "-//W3C//DTD SVG 1.1//EN"
 "http://www.w3.org/Graphics/SVG/1.1/DTD/svg11.dtd">
<!-- Generated by graphviz version 5.0.0 (20220707.1540)
 -->
<!-- Title: dependencies Pages: 1 -->
<svg width="1726pt" height="247pt"
 viewBox="0.00 0.00 1726.00 246.80" xmlns="http://www.w3.org/2000/svg" xmlns:xlink="http://www.w3.org/1999/xlink">
<g id="graph0" class="graph" transform="scale(1 1) rotate(0) translate(4 242.8)">
<title>dependencies</title>
<polygon fill="white" stroke="transparent" points="-4,4 -4,-242.8 1722,-242.8 1722,4 -4,4"/>
<text text-anchor="middle" x="859" y="-8.2" font-family="sans-serif" font-size="14.00">dependencies</text>
<g id="clust1" class="cluster">
<title>cluster_RoomTypesModule</title>
<polygon fill="none" stroke="black" stroke-dasharray="1,5" points="8,-32.8 8,-230.8 1710,-230.8 1710,-32.8 8,-32.8"/>
</g>
<g id="clust7" class="cluster">
<title>cluster_RoomTypesModule_exports</title>
<polygon fill="none" stroke="black" points="678,-170.8 678,-222.8 1024,-222.8 1024,-170.8 678,-170.8"/>
</g>
<g id="clust6" class="cluster">
<title>cluster_RoomTypesModule_imports</title>
<polygon fill="none" stroke="black" points="648,-40.8 648,-92.8 1702,-92.8 1702,-40.8 648,-40.8"/>
</g>
<g id="clust9" class="cluster">
<title>cluster_RoomTypesModule_providers</title>
<polygon fill="none" stroke="black" points="496,-40.8 496,-92.8 640,-92.8 640,-40.8 496,-40.8"/>
</g>
<g id="clust2" class="cluster">
<title>cluster_RoomTypesModule_declarations</title>
<polygon fill="none" stroke="black" points="16,-40.8 16,-92.8 488,-92.8 488,-40.8 16,-40.8"/>
</g>
<!-- RoomComponent -->
<g id="node1" class="node">
<title>RoomComponent</title>
<polygon fill="#ffffb3" stroke="black" points="479.56,-84.8 364.44,-84.8 364.44,-48.8 479.56,-48.8 479.56,-84.8"/>
<text text-anchor="middle" x="422" y="-62.6" font-family="Times,serif" font-size="14.00">RoomComponent</text>
</g>
<!-- RoomTypesModule -->
<g id="node4" class="node">
<title>RoomTypesModule</title>
<polygon fill="#8dd3c7" stroke="black" points="913.99,-149.8 910.99,-153.8 889.99,-153.8 886.99,-149.8 786.01,-149.8 786.01,-113.8 913.99,-113.8 913.99,-149.8"/>
<text text-anchor="middle" x="850" y="-127.6" font-family="Times,serif" font-size="14.00">RoomTypesModule</text>
</g>
<!-- RoomComponent&#45;&gt;RoomTypesModule -->
<g id="edge1" class="edge">
<title>RoomComponent&#45;&gt;RoomTypesModule</title>
<path fill="none" stroke="black" d="M422,-84.91C422,-104.14 422,-131.8 422,-131.8 422,-131.8 775.92,-131.8 775.92,-131.8"/>
<polygon fill="black" stroke="black" points="775.92,-135.3 785.92,-131.8 775.92,-128.3 775.92,-135.3"/>
</g>
<!-- RoomDetailsComponent -->
<g id="node2" class="node">
<title>RoomDetailsComponent</title>
<polygon fill="#ffffb3" stroke="black" points="346.71,-84.8 191.29,-84.8 191.29,-48.8 346.71,-48.8 346.71,-84.8"/>
<text text-anchor="middle" x="269" y="-62.6" font-family="Times,serif" font-size="14.00">RoomDetailsComponent</text>
</g>
<!-- RoomDetailsComponent&#45;&gt;RoomTypesModule -->
<g id="edge2" class="edge">
<title>RoomDetailsComponent&#45;&gt;RoomTypesModule</title>
<path fill="none" stroke="black" d="M269,-85.08C269,-106.12 269,-137.8 269,-137.8 269,-137.8 775.88,-137.8 775.88,-137.8"/>
<polygon fill="black" stroke="black" points="775.88,-141.3 785.88,-137.8 775.88,-134.3 775.88,-141.3"/>
</g>
<!-- RoomTypesComponent -->
<g id="node3" class="node">
<title>RoomTypesComponent</title>
<polygon fill="#ffffb3" stroke="black" points="173.77,-84.8 24.23,-84.8 24.23,-48.8 173.77,-48.8 173.77,-84.8"/>
<text text-anchor="middle" x="99" y="-62.6" font-family="Times,serif" font-size="14.00">RoomTypesComponent</text>
</g>
<!-- RoomTypesComponent&#45;&gt;RoomTypesModule -->
<g id="edge3" class="edge">
<title>RoomTypesComponent&#45;&gt;RoomTypesModule</title>
<path fill="none" stroke="black" d="M99,-85.05C99,-107.82 99,-143.8 99,-143.8 99,-143.8 775.97,-143.8 775.97,-143.8"/>
<polygon fill="black" stroke="black" points="775.97,-147.3 785.97,-143.8 775.97,-140.3 775.97,-147.3"/>
</g>
<!-- RoomDetailsComponent  -->
<g id="node13" class="node">
<title>RoomDetailsComponent </title>
<polygon fill="#fb8072" stroke="black" points="1016.21,-214.8 857.79,-214.8 857.79,-178.8 1016.21,-178.8 1016.21,-214.8"/>
<text text-anchor="middle" x="937" y="-192.6" font-family="Times,serif" font-size="14.00">RoomDetailsComponent </text>
</g>
<!-- RoomTypesModule&#45;&gt;RoomDetailsComponent  -->
<g id="edge12" class="edge">
<title>RoomTypesModule&#45;&gt;RoomDetailsComponent </title>
<path fill="none" stroke="black" stroke-dasharray="5,2" d="M885.82,-149.91C885.82,-149.91 885.82,-168.79 885.82,-168.79"/>
<polygon fill="black" stroke="black" points="882.32,-168.79 885.82,-178.79 889.32,-168.79 882.32,-168.79"/>
</g>
<!-- RoomTypesComponent  -->
<g id="node14" class="node">
<title>RoomTypesComponent </title>
<polygon fill="#fb8072" stroke="black" points="839.77,-214.8 686.23,-214.8 686.23,-178.8 839.77,-178.8 839.77,-214.8"/>
<text text-anchor="middle" x="763" y="-192.6" font-family="Times,serif" font-size="14.00">RoomTypesComponent </text>
</g>
<!-- RoomTypesModule&#45;&gt;RoomTypesComponent  -->
<g id="edge13" class="edge">
<title>RoomTypesModule&#45;&gt;RoomTypesComponent </title>
<path fill="none" stroke="black" stroke-dasharray="5,2" d="M812.82,-149.91C812.82,-149.91 812.82,-168.79 812.82,-168.79"/>
<polygon fill="black" stroke="black" points="809.32,-168.79 812.82,-178.79 816.32,-168.79 809.32,-168.79"/>
</g>
<!-- BootstrapModule -->
<g id="node5" class="node">
<title>BootstrapModule</title>
<polygon fill="#8dd3c7" stroke="black" points="1693.99,-84.8 1690.99,-88.8 1669.99,-88.8 1666.99,-84.8 1580.01,-84.8 1580.01,-48.8 1693.99,-48.8 1693.99,-84.8"/>
<text text-anchor="middle" x="1637" y="-62.6" font-family="Times,serif" font-size="14.00">BootstrapModule</text>
</g>
<!-- BootstrapModule&#45;&gt;RoomTypesModule -->
<g id="edge4" class="edge">
<title>BootstrapModule&#45;&gt;RoomTypesModule</title>
<path fill="none" stroke="black" d="M1637,-85.05C1637,-107.82 1637,-143.8 1637,-143.8 1637,-143.8 924.07,-143.8 924.07,-143.8"/>
<polygon fill="black" stroke="black" points="924.07,-140.3 914.07,-143.8 924.07,-147.3 924.07,-140.3"/>
</g>
<!-- CoreModule -->
<g id="node6" class="node">
<title>CoreModule</title>
<polygon fill="#8dd3c7" stroke="black" points="1562.27,-84.8 1559.27,-88.8 1538.27,-88.8 1535.27,-84.8 1475.73,-84.8 1475.73,-48.8 1562.27,-48.8 1562.27,-84.8"/>
<text text-anchor="middle" x="1519" y="-62.6" font-family="Times,serif" font-size="14.00">CoreModule</text>
</g>
<!-- CoreModule&#45;&gt;RoomTypesModule -->
<g id="edge5" class="edge">
<title>CoreModule&#45;&gt;RoomTypesModule</title>
<path fill="none" stroke="black" d="M1519,-85.08C1519,-106.12 1519,-137.8 1519,-137.8 1519,-137.8 924.15,-137.8 924.15,-137.8"/>
<polygon fill="black" stroke="black" points="924.15,-134.3 914.15,-137.8 924.15,-141.3 924.15,-134.3"/>
</g>
<!-- CutStringPipe -->
<g id="node7" class="node">
<title>CutStringPipe</title>
<polygon fill="#8dd3c7" stroke="black" points="1457.85,-84.8 1454.85,-88.8 1433.85,-88.8 1430.85,-84.8 1362.15,-84.8 1362.15,-48.8 1457.85,-48.8 1457.85,-84.8"/>
<text text-anchor="middle" x="1410" y="-62.6" font-family="Times,serif" font-size="14.00">CutStringPipe</text>
</g>
<!-- CutStringPipe&#45;&gt;RoomTypesModule -->
<g id="edge6" class="edge">
<title>CutStringPipe&#45;&gt;RoomTypesModule</title>
<path fill="none" stroke="black" d="M1410,-84.91C1410,-104.14 1410,-131.8 1410,-131.8 1410,-131.8 924.24,-131.8 924.24,-131.8"/>
<polygon fill="black" stroke="black" points="924.24,-128.3 914.24,-131.8 924.24,-135.3 924.24,-128.3"/>
</g>
<!-- MaterialModule -->
<g id="node8" class="node">
<title>MaterialModule</title>
<polygon fill="#8dd3c7" stroke="black" points="1344.47,-84.8 1341.47,-88.8 1320.47,-88.8 1317.47,-84.8 1237.53,-84.8 1237.53,-48.8 1344.47,-48.8 1344.47,-84.8"/>
<text text-anchor="middle" x="1291" y="-62.6" font-family="Times,serif" font-size="14.00">MaterialModule</text>
</g>
<!-- MaterialModule&#45;&gt;RoomTypesModule -->
<g id="edge7" class="edge">
<title>MaterialModule&#45;&gt;RoomTypesModule</title>
<path fill="none" stroke="black" d="M1291,-84.82C1291,-102.17 1291,-125.8 1291,-125.8 1291,-125.8 924.13,-125.8 924.13,-125.8"/>
<polygon fill="black" stroke="black" points="924.13,-122.3 914.13,-125.8 924.13,-129.3 924.13,-122.3"/>
</g>
<!-- MessageModalAutoclosableComponent -->
<g id="node9" class="node">
<title>MessageModalAutoclosableComponent</title>
<polygon fill="#8dd3c7" stroke="black" points="1219.24,-84.8 1216.24,-88.8 1195.24,-88.8 1192.24,-84.8 978.76,-84.8 978.76,-48.8 1219.24,-48.8 1219.24,-84.8"/>
<text text-anchor="middle" x="1099" y="-62.6" font-family="Times,serif" font-size="14.00">MessageModalAutoclosableComponent</text>
</g>
<!-- MessageModalAutoclosableComponent&#45;&gt;RoomTypesModule -->
<g id="edge8" class="edge">
<title>MessageModalAutoclosableComponent&#45;&gt;RoomTypesModule</title>
<path fill="none" stroke="black" d="M997.49,-85.04C997.49,-100.37 997.49,-119.8 997.49,-119.8 997.49,-119.8 924.26,-119.8 924.26,-119.8"/>
<polygon fill="black" stroke="black" points="924.26,-116.3 914.26,-119.8 924.26,-123.3 924.26,-116.3"/>
</g>
<!-- PrimengModule -->
<g id="node10" class="node">
<title>PrimengModule</title>
<polygon fill="#8dd3c7" stroke="black" points="960.49,-84.8 957.49,-88.8 936.49,-88.8 933.49,-84.8 853.51,-84.8 853.51,-48.8 960.49,-48.8 960.49,-84.8"/>
<text text-anchor="middle" x="907" y="-62.6" font-family="Times,serif" font-size="14.00">PrimengModule</text>
</g>
<!-- PrimengModule&#45;&gt;RoomTypesModule -->
<g id="edge9" class="edge">
<title>PrimengModule&#45;&gt;RoomTypesModule</title>
<path fill="none" stroke="black" d="M883.75,-84.91C883.75,-84.91 883.75,-103.79 883.75,-103.79"/>
<polygon fill="black" stroke="black" points="880.25,-103.79 883.75,-113.79 887.25,-103.79 880.25,-103.79"/>
</g>
<!-- ReplacePipe -->
<g id="node11" class="node">
<title>ReplacePipe</title>
<polygon fill="#8dd3c7" stroke="black" points="835.97,-84.8 832.97,-88.8 811.97,-88.8 808.97,-84.8 750.03,-84.8 750.03,-48.8 835.97,-48.8 835.97,-84.8"/>
<text text-anchor="middle" x="793" y="-62.6" font-family="Times,serif" font-size="14.00">ReplacePipe</text>
</g>
<!-- ReplacePipe&#45;&gt;RoomTypesModule -->
<g id="edge10" class="edge">
<title>ReplacePipe&#45;&gt;RoomTypesModule</title>
<path fill="none" stroke="black" d="M810.99,-84.91C810.99,-84.91 810.99,-103.79 810.99,-103.79"/>
<polygon fill="black" stroke="black" points="807.49,-103.79 810.99,-113.79 814.49,-103.79 807.49,-103.79"/>
</g>
<!-- TimerPipe -->
<g id="node12" class="node">
<title>TimerPipe</title>
<polygon fill="#8dd3c7" stroke="black" points="731.6,-84.8 728.6,-88.8 707.6,-88.8 704.6,-84.8 656.4,-84.8 656.4,-48.8 731.6,-48.8 731.6,-84.8"/>
<text text-anchor="middle" x="694" y="-62.6" font-family="Times,serif" font-size="14.00">TimerPipe</text>
</g>
<!-- TimerPipe&#45;&gt;RoomTypesModule -->
<g id="edge11" class="edge">
<title>TimerPipe&#45;&gt;RoomTypesModule</title>
<path fill="none" stroke="black" d="M708.96,-85.04C708.96,-100.37 708.96,-119.8 708.96,-119.8 708.96,-119.8 775.67,-119.8 775.67,-119.8"/>
<polygon fill="black" stroke="black" points="775.67,-123.3 785.67,-119.8 775.67,-116.3 775.67,-123.3"/>
</g>
<!-- RoomService -->
<g id="node15" class="node">
<title>RoomService</title>
<ellipse fill="#fdb462" stroke="black" cx="568" cy="-66.8" rx="63.71" ry="18"/>
<text text-anchor="middle" x="568" y="-62.6" font-family="Times,serif" font-size="14.00">RoomService</text>
</g>
<!-- RoomService&#45;&gt;RoomTypesModule -->
<g id="edge14" class="edge">
<title>RoomService&#45;&gt;RoomTypesModule</title>
<path fill="none" stroke="black" d="M568,-84.82C568,-102.17 568,-125.8 568,-125.8 568,-125.8 775.66,-125.8 775.66,-125.8"/>
<polygon fill="black" stroke="black" points="775.66,-129.3 785.66,-125.8 775.66,-122.3 775.66,-129.3"/>
</g>
</g>
</svg>
