<?xml version="1.0" encoding="UTF-8" standalone="no"?>
<!DOCTYPE svg PUBLIC "-//W3C//DTD SVG 1.1//EN"
 "http://www.w3.org/Graphics/SVG/1.1/DTD/svg11.dtd">
<!-- Generated by graphviz version 5.0.0 (20220707.1540)
 -->
<!-- Title: dependencies Pages: 1 -->
<svg width="1726pt" height="247pt"
 viewBox="0.00 0.00 1726.00 246.80" xmlns="http://www.w3.org/2000/svg" xmlns:xlink="http://www.w3.org/1999/xlink">
<g id="graph0" class="graph" transform="scale(1 1) rotate(0) translate(4 242.8)">
<title>dependencies</title>
<polygon fill="white" stroke="transparent" points="-4,4 -4,-242.8 1722,-242.8 1722,4 -4,4"/>
<text text-anchor="middle" x="859" y="-8.2" font-family="sans-serif" font-size="14.00">dependencies</text>
<g id="clust1" class="cluster">
<title>cluster_RoomTypesModule</title>
<polygon fill="none" stroke="black" stroke-dasharray="1,5" points="8,-32.8 8,-230.8 1710,-230.8 1710,-32.8 8,-32.8"/>
</g>
<g id="clust2" class="cluster">
<title>cluster_RoomTypesModule_declarations</title>
<polygon fill="none" stroke="black" points="1230,-40.8 1230,-92.8 1702,-92.8 1702,-40.8 1230,-40.8"/>
</g>
<g id="clust7" class="cluster">
<title>cluster_RoomTypesModule_exports</title>
<polygon fill="none" stroke="black" points="698,-170.8 698,-222.8 1044,-222.8 1044,-170.8 698,-170.8"/>
</g>
<g id="clust6" class="cluster">
<title>cluster_RoomTypesModule_imports</title>
<polygon fill="none" stroke="black" points="168,-40.8 168,-92.8 1222,-92.8 1222,-40.8 168,-40.8"/>
</g>
<g id="clust9" class="cluster">
<title>cluster_RoomTypesModule_providers</title>
<polygon fill="none" stroke="black" points="16,-40.8 16,-92.8 160,-92.8 160,-40.8 16,-40.8"/>
</g>
<!-- RoomComponent -->
<g id="node1" class="node">
<title>RoomComponent</title>
<polygon fill="#ffffb3" stroke="black" points="1693.56,-84.8 1578.44,-84.8 1578.44,-48.8 1693.56,-48.8 1693.56,-84.8"/>
<text text-anchor="middle" x="1636" y="-62.6" font-family="Times,serif" font-size="14.00">RoomComponent</text>
</g>
<!-- RoomTypesModule -->
<g id="node4" class="node">
<title>RoomTypesModule</title>
<polygon fill="#8dd3c7" stroke="black" points="933.99,-149.8 930.99,-153.8 909.99,-153.8 906.99,-149.8 806.01,-149.8 806.01,-113.8 933.99,-113.8 933.99,-149.8"/>
<text text-anchor="middle" x="870" y="-127.6" font-family="Times,serif" font-size="14.00">RoomTypesModule</text>
</g>
<!-- RoomComponent&#45;&gt;RoomTypesModule -->
<g id="edge1" class="edge">
<title>RoomComponent&#45;&gt;RoomTypesModule</title>
<path fill="none" stroke="black" d="M1636,-85.05C1636,-107.82 1636,-143.8 1636,-143.8 1636,-143.8 944.32,-143.8 944.32,-143.8"/>
<polygon fill="black" stroke="black" points="944.32,-140.3 934.32,-143.8 944.32,-147.3 944.32,-140.3"/>
</g>
<!-- RoomDetailsComponent -->
<g id="node2" class="node">
<title>RoomDetailsComponent</title>
<polygon fill="#ffffb3" stroke="black" points="1560.71,-84.8 1405.29,-84.8 1405.29,-48.8 1560.71,-48.8 1560.71,-84.8"/>
<text text-anchor="middle" x="1483" y="-62.6" font-family="Times,serif" font-size="14.00">RoomDetailsComponent</text>
</g>
<!-- RoomDetailsComponent&#45;&gt;RoomTypesModule -->
<g id="edge2" class="edge">
<title>RoomDetailsComponent&#45;&gt;RoomTypesModule</title>
<path fill="none" stroke="black" d="M1483,-85.08C1483,-106.12 1483,-137.8 1483,-137.8 1483,-137.8 944.15,-137.8 944.15,-137.8"/>
<polygon fill="black" stroke="black" points="944.15,-134.3 934.15,-137.8 944.15,-141.3 944.15,-134.3"/>
</g>
<!-- RoomTypesComponent -->
<g id="node3" class="node">
<title>RoomTypesComponent</title>
<polygon fill="#ffffb3" stroke="black" points="1387.77,-84.8 1238.23,-84.8 1238.23,-48.8 1387.77,-48.8 1387.77,-84.8"/>
<text text-anchor="middle" x="1313" y="-62.6" font-family="Times,serif" font-size="14.00">RoomTypesComponent</text>
</g>
<!-- RoomTypesComponent&#45;&gt;RoomTypesModule -->
<g id="edge3" class="edge">
<title>RoomTypesComponent&#45;&gt;RoomTypesModule</title>
<path fill="none" stroke="black" d="M1313,-84.91C1313,-104.14 1313,-131.8 1313,-131.8 1313,-131.8 944.42,-131.8 944.42,-131.8"/>
<polygon fill="black" stroke="black" points="944.42,-128.3 934.42,-131.8 944.42,-135.3 944.42,-128.3"/>
</g>
<!-- RoomDetailsComponent  -->
<g id="node13" class="node">
<title>RoomDetailsComponent </title>
<polygon fill="#fb8072" stroke="black" points="1036.21,-214.8 877.79,-214.8 877.79,-178.8 1036.21,-178.8 1036.21,-214.8"/>
<text text-anchor="middle" x="957" y="-192.6" font-family="Times,serif" font-size="14.00">RoomDetailsComponent </text>
</g>
<!-- RoomTypesModule&#45;&gt;RoomDetailsComponent  -->
<g id="edge12" class="edge">
<title>RoomTypesModule&#45;&gt;RoomDetailsComponent </title>
<path fill="none" stroke="black" stroke-dasharray="5,2" d="M905.82,-149.91C905.82,-149.91 905.82,-168.79 905.82,-168.79"/>
<polygon fill="black" stroke="black" points="902.32,-168.79 905.82,-178.79 909.32,-168.79 902.32,-168.79"/>
</g>
<!-- RoomTypesComponent  -->
<g id="node14" class="node">
<title>RoomTypesComponent </title>
<polygon fill="#fb8072" stroke="black" points="859.77,-214.8 706.23,-214.8 706.23,-178.8 859.77,-178.8 859.77,-214.8"/>
<text text-anchor="middle" x="783" y="-192.6" font-family="Times,serif" font-size="14.00">RoomTypesComponent </text>
</g>
<!-- RoomTypesModule&#45;&gt;RoomTypesComponent  -->
<g id="edge13" class="edge">
<title>RoomTypesModule&#45;&gt;RoomTypesComponent </title>
<path fill="none" stroke="black" stroke-dasharray="5,2" d="M832.82,-149.91C832.82,-149.91 832.82,-168.79 832.82,-168.79"/>
<polygon fill="black" stroke="black" points="829.32,-168.79 832.82,-178.79 836.32,-168.79 829.32,-168.79"/>
</g>
<!-- BootstrapModule -->
<g id="node5" class="node">
<title>BootstrapModule</title>
<polygon fill="#8dd3c7" stroke="black" points="1213.99,-84.8 1210.99,-88.8 1189.99,-88.8 1186.99,-84.8 1100.01,-84.8 1100.01,-48.8 1213.99,-48.8 1213.99,-84.8"/>
<text text-anchor="middle" x="1157" y="-62.6" font-family="Times,serif" font-size="14.00">BootstrapModule</text>
</g>
<!-- BootstrapModule&#45;&gt;RoomTypesModule -->
<g id="edge4" class="edge">
<title>BootstrapModule&#45;&gt;RoomTypesModule</title>
<path fill="none" stroke="black" d="M1157,-84.82C1157,-102.17 1157,-125.8 1157,-125.8 1157,-125.8 944.05,-125.8 944.05,-125.8"/>
<polygon fill="black" stroke="black" points="944.05,-122.3 934.05,-125.8 944.05,-129.3 944.05,-122.3"/>
</g>
<!-- CoreModule -->
<g id="node6" class="node">
<title>CoreModule</title>
<polygon fill="#8dd3c7" stroke="black" points="1082.27,-84.8 1079.27,-88.8 1058.27,-88.8 1055.27,-84.8 995.73,-84.8 995.73,-48.8 1082.27,-48.8 1082.27,-84.8"/>
<text text-anchor="middle" x="1039" y="-62.6" font-family="Times,serif" font-size="14.00">CoreModule</text>
</g>
<!-- CoreModule&#45;&gt;RoomTypesModule -->
<g id="edge5" class="edge">
<title>CoreModule&#45;&gt;RoomTypesModule</title>
<path fill="none" stroke="black" d="M1015.99,-85.04C1015.99,-100.37 1015.99,-119.8 1015.99,-119.8 1015.99,-119.8 944.03,-119.8 944.03,-119.8"/>
<polygon fill="black" stroke="black" points="944.03,-116.3 934.03,-119.8 944.03,-123.3 944.03,-116.3"/>
</g>
<!-- CutStringPipe -->
<g id="node7" class="node">
<title>CutStringPipe</title>
<polygon fill="#8dd3c7" stroke="black" points="977.85,-84.8 974.85,-88.8 953.85,-88.8 950.85,-84.8 882.15,-84.8 882.15,-48.8 977.85,-48.8 977.85,-84.8"/>
<text text-anchor="middle" x="930" y="-62.6" font-family="Times,serif" font-size="14.00">CutStringPipe</text>
</g>
<!-- CutStringPipe&#45;&gt;RoomTypesModule -->
<g id="edge6" class="edge">
<title>CutStringPipe&#45;&gt;RoomTypesModule</title>
<path fill="none" stroke="black" d="M908.16,-84.91C908.16,-84.91 908.16,-103.79 908.16,-103.79"/>
<polygon fill="black" stroke="black" points="904.66,-103.79 908.16,-113.79 911.66,-103.79 904.66,-103.79"/>
</g>
<!-- MaterialModule -->
<g id="node8" class="node">
<title>MaterialModule</title>
<polygon fill="#8dd3c7" stroke="black" points="864.47,-84.8 861.47,-88.8 840.47,-88.8 837.47,-84.8 757.53,-84.8 757.53,-48.8 864.47,-48.8 864.47,-84.8"/>
<text text-anchor="middle" x="811" y="-62.6" font-family="Times,serif" font-size="14.00">MaterialModule</text>
</g>
<!-- MaterialModule&#45;&gt;RoomTypesModule -->
<g id="edge7" class="edge">
<title>MaterialModule&#45;&gt;RoomTypesModule</title>
<path fill="none" stroke="black" d="M835.24,-84.91C835.24,-84.91 835.24,-103.79 835.24,-103.79"/>
<polygon fill="black" stroke="black" points="831.74,-103.79 835.24,-113.79 838.74,-103.79 831.74,-103.79"/>
</g>
<!-- MessageModalAutoclosableComponent -->
<g id="node9" class="node">
<title>MessageModalAutoclosableComponent</title>
<polygon fill="#8dd3c7" stroke="black" points="739.24,-84.8 736.24,-88.8 715.24,-88.8 712.24,-84.8 498.76,-84.8 498.76,-48.8 739.24,-48.8 739.24,-84.8"/>
<text text-anchor="middle" x="619" y="-62.6" font-family="Times,serif" font-size="14.00">MessageModalAutoclosableComponent</text>
</g>
<!-- MessageModalAutoclosableComponent&#45;&gt;RoomTypesModule -->
<g id="edge8" class="edge">
<title>MessageModalAutoclosableComponent&#45;&gt;RoomTypesModule</title>
<path fill="none" stroke="black" d="M722.87,-85.04C722.87,-100.37 722.87,-119.8 722.87,-119.8 722.87,-119.8 795.89,-119.8 795.89,-119.8"/>
<polygon fill="black" stroke="black" points="795.89,-123.3 805.89,-119.8 795.89,-116.3 795.89,-123.3"/>
</g>
<!-- PrimengModule -->
<g id="node10" class="node">
<title>PrimengModule</title>
<polygon fill="#8dd3c7" stroke="black" points="480.49,-84.8 477.49,-88.8 456.49,-88.8 453.49,-84.8 373.51,-84.8 373.51,-48.8 480.49,-48.8 480.49,-84.8"/>
<text text-anchor="middle" x="427" y="-62.6" font-family="Times,serif" font-size="14.00">PrimengModule</text>
</g>
<!-- PrimengModule&#45;&gt;RoomTypesModule -->
<g id="edge9" class="edge">
<title>PrimengModule&#45;&gt;RoomTypesModule</title>
<path fill="none" stroke="black" d="M427,-84.82C427,-102.17 427,-125.8 427,-125.8 427,-125.8 795.58,-125.8 795.58,-125.8"/>
<polygon fill="black" stroke="black" points="795.58,-129.3 805.58,-125.8 795.58,-122.3 795.58,-129.3"/>
</g>
<!-- ReplacePipe -->
<g id="node11" class="node">
<title>ReplacePipe</title>
<polygon fill="#8dd3c7" stroke="black" points="355.97,-84.8 352.97,-88.8 331.97,-88.8 328.97,-84.8 270.03,-84.8 270.03,-48.8 355.97,-48.8 355.97,-84.8"/>
<text text-anchor="middle" x="313" y="-62.6" font-family="Times,serif" font-size="14.00">ReplacePipe</text>
</g>
<!-- ReplacePipe&#45;&gt;RoomTypesModule -->
<g id="edge10" class="edge">
<title>ReplacePipe&#45;&gt;RoomTypesModule</title>
<path fill="none" stroke="black" d="M313,-84.91C313,-104.14 313,-131.8 313,-131.8 313,-131.8 795.83,-131.8 795.83,-131.8"/>
<polygon fill="black" stroke="black" points="795.83,-135.3 805.83,-131.8 795.83,-128.3 795.83,-135.3"/>
</g>
<!-- TimerPipe -->
<g id="node12" class="node">
<title>TimerPipe</title>
<polygon fill="#8dd3c7" stroke="black" points="251.6,-84.8 248.6,-88.8 227.6,-88.8 224.6,-84.8 176.4,-84.8 176.4,-48.8 251.6,-48.8 251.6,-84.8"/>
<text text-anchor="middle" x="214" y="-62.6" font-family="Times,serif" font-size="14.00">TimerPipe</text>
</g>
<!-- TimerPipe&#45;&gt;RoomTypesModule -->
<g id="edge11" class="edge">
<title>TimerPipe&#45;&gt;RoomTypesModule</title>
<path fill="none" stroke="black" d="M214,-85.08C214,-106.12 214,-137.8 214,-137.8 214,-137.8 795.91,-137.8 795.91,-137.8"/>
<polygon fill="black" stroke="black" points="795.91,-141.3 805.91,-137.8 795.91,-134.3 795.91,-141.3"/>
</g>
<!-- RoomService -->
<g id="node15" class="node">
<title>RoomService</title>
<ellipse fill="#fdb462" stroke="black" cx="88" cy="-66.8" rx="63.71" ry="18"/>
<text text-anchor="middle" x="88" y="-62.6" font-family="Times,serif" font-size="14.00">RoomService</text>
</g>
<!-- RoomService&#45;&gt;RoomTypesModule -->
<g id="edge14" class="edge">
<title>RoomService&#45;&gt;RoomTypesModule</title>
<path fill="none" stroke="black" d="M88,-85.05C88,-107.82 88,-143.8 88,-143.8 88,-143.8 796.01,-143.8 796.01,-143.8"/>
<polygon fill="black" stroke="black" points="796.01,-147.3 806.01,-143.8 796.01,-140.3 796.01,-147.3"/>
</g>
</g>
</svg>
