<?xml version="1.0" encoding="UTF-8" standalone="no"?>
<!DOCTYPE svg PUBLIC "-//W3C//DTD SVG 1.1//EN"
 "http://www.w3.org/Graphics/SVG/1.1/DTD/svg11.dtd">
<!-- Generated by graphviz version 5.0.0 (20220707.1540)
 -->
<!-- Title: dependencies Pages: 1 -->
<svg width="831pt" height="174pt"
 viewBox="0.00 0.00 831.00 173.80" xmlns="http://www.w3.org/2000/svg" xmlns:xlink="http://www.w3.org/1999/xlink">
<g id="graph0" class="graph" transform="scale(1 1) rotate(0) translate(4 169.8)">
<title>dependencies</title>
<polygon fill="white" stroke="transparent" points="-4,4 -4,-169.8 827,-169.8 827,4 -4,4"/>
<text text-anchor="middle" x="411.5" y="-8.2" font-family="sans-serif" font-size="14.00">dependencies</text>
<g id="clust1" class="cluster">
<title>cluster_MatriculaModule</title>
<polygon fill="none" stroke="black" stroke-dasharray="1,5" points="8,-32.8 8,-157.8 815,-157.8 815,-32.8 8,-32.8"/>
</g>
<g id="clust7" class="cluster">
<title>cluster_MatriculaModule_imports</title>
<polygon fill="none" stroke="black" points="580,-40.8 580,-92.8 807,-92.8 807,-40.8 580,-40.8"/>
</g>
<g id="clust2" class="cluster">
<title>cluster_MatriculaModule_declarations</title>
<polygon fill="none" stroke="black" points="16,-40.8 16,-92.8 572,-92.8 572,-40.8 16,-40.8"/>
</g>
<!-- DetalleComponent -->
<g id="node1" class="node">
<title>DetalleComponent</title>
<polygon fill="#ffffb3" stroke="black" points="563.75,-84.8 442.25,-84.8 442.25,-48.8 563.75,-48.8 563.75,-84.8"/>
<text text-anchor="middle" x="503" y="-62.6" font-family="Times,serif" font-size="14.00">DetalleComponent</text>
</g>
<!-- MatriculaModule -->
<g id="node5" class="node">
<title>MatriculaModule</title>
<polygon fill="#8dd3c7" stroke="black" points="492.97,-149.8 489.97,-153.8 468.97,-153.8 465.97,-149.8 379.03,-149.8 379.03,-113.8 492.97,-113.8 492.97,-149.8"/>
<text text-anchor="middle" x="436" y="-127.6" font-family="Times,serif" font-size="14.00">MatriculaModule</text>
</g>
<!-- DetalleComponent&#45;&gt;MatriculaModule -->
<g id="edge1" class="edge">
<title>DetalleComponent&#45;&gt;MatriculaModule</title>
<path fill="none" stroke="black" d="M467.56,-84.91C467.56,-84.91 467.56,-103.79 467.56,-103.79"/>
<polygon fill="black" stroke="black" points="464.06,-103.79 467.56,-113.79 471.06,-103.79 464.06,-103.79"/>
</g>
<!-- ListaComponent -->
<g id="node2" class="node">
<title>ListaComponent</title>
<polygon fill="#ffffb3" stroke="black" points="423.82,-84.8 314.18,-84.8 314.18,-48.8 423.82,-48.8 423.82,-84.8"/>
<text text-anchor="middle" x="369" y="-62.6" font-family="Times,serif" font-size="14.00">ListaComponent</text>
</g>
<!-- ListaComponent&#45;&gt;MatriculaModule -->
<g id="edge2" class="edge">
<title>ListaComponent&#45;&gt;MatriculaModule</title>
<path fill="none" stroke="black" d="M401.34,-84.91C401.34,-84.91 401.34,-103.79 401.34,-103.79"/>
<polygon fill="black" stroke="black" points="397.84,-103.79 401.34,-113.79 404.84,-103.79 397.84,-103.79"/>
</g>
<!-- MatriculaComponent -->
<g id="node3" class="node">
<title>MatriculaComponent</title>
<polygon fill="#ffffb3" stroke="black" points="295.75,-84.8 160.25,-84.8 160.25,-48.8 295.75,-48.8 295.75,-84.8"/>
<text text-anchor="middle" x="228" y="-62.6" font-family="Times,serif" font-size="14.00">MatriculaComponent</text>
</g>
<!-- MatriculaComponent&#45;&gt;MatriculaModule -->
<g id="edge3" class="edge">
<title>MatriculaComponent&#45;&gt;MatriculaModule</title>
<path fill="none" stroke="black" d="M228,-84.82C228,-102.17 228,-125.8 228,-125.8 228,-125.8 368.89,-125.8 368.89,-125.8"/>
<polygon fill="black" stroke="black" points="368.89,-129.3 378.89,-125.8 368.89,-122.3 368.89,-129.3"/>
</g>
<!-- NuevoComponent -->
<g id="node4" class="node">
<title>NuevoComponent</title>
<polygon fill="#ffffb3" stroke="black" points="142.16,-84.8 23.84,-84.8 23.84,-48.8 142.16,-48.8 142.16,-84.8"/>
<text text-anchor="middle" x="83" y="-62.6" font-family="Times,serif" font-size="14.00">NuevoComponent</text>
</g>
<!-- NuevoComponent&#45;&gt;MatriculaModule -->
<g id="edge4" class="edge">
<title>NuevoComponent&#45;&gt;MatriculaModule</title>
<path fill="none" stroke="black" d="M83,-85.08C83,-106.12 83,-137.8 83,-137.8 83,-137.8 368.89,-137.8 368.89,-137.8"/>
<polygon fill="black" stroke="black" points="368.89,-141.3 378.89,-137.8 368.89,-134.3 368.89,-141.3"/>
</g>
<!-- CoreModule -->
<g id="node6" class="node">
<title>CoreModule</title>
<polygon fill="#8dd3c7" stroke="black" points="799.27,-84.8 796.27,-88.8 775.27,-88.8 772.27,-84.8 712.73,-84.8 712.73,-48.8 799.27,-48.8 799.27,-84.8"/>
<text text-anchor="middle" x="756" y="-62.6" font-family="Times,serif" font-size="14.00">CoreModule</text>
</g>
<!-- CoreModule&#45;&gt;MatriculaModule -->
<g id="edge5" class="edge">
<title>CoreModule&#45;&gt;MatriculaModule</title>
<path fill="none" stroke="black" d="M756,-85.08C756,-106.12 756,-137.8 756,-137.8 756,-137.8 503.21,-137.8 503.21,-137.8"/>
<polygon fill="black" stroke="black" points="503.21,-134.3 493.21,-137.8 503.21,-141.3 503.21,-134.3"/>
</g>
<!-- PrimengModule -->
<g id="node7" class="node">
<title>PrimengModule</title>
<polygon fill="#8dd3c7" stroke="black" points="694.49,-84.8 691.49,-88.8 670.49,-88.8 667.49,-84.8 587.51,-84.8 587.51,-48.8 694.49,-48.8 694.49,-84.8"/>
<text text-anchor="middle" x="641" y="-62.6" font-family="Times,serif" font-size="14.00">PrimengModule</text>
</g>
<!-- PrimengModule&#45;&gt;MatriculaModule -->
<g id="edge6" class="edge">
<title>PrimengModule&#45;&gt;MatriculaModule</title>
<path fill="none" stroke="black" d="M641,-84.82C641,-102.17 641,-125.8 641,-125.8 641,-125.8 503.1,-125.8 503.1,-125.8"/>
<polygon fill="black" stroke="black" points="503.1,-122.3 493.1,-125.8 503.1,-129.3 503.1,-122.3"/>
</g>
</g>
</svg>
