<?xml version="1.0" encoding="UTF-8" standalone="no"?>
<!DOCTYPE svg PUBLIC "-//W3C//DTD SVG 1.1//EN"
 "http://www.w3.org/Graphics/SVG/1.1/DTD/svg11.dtd">
<!-- Generated by graphviz version 5.0.0 (20220707.1540)
 -->
<!-- Title: dependencies Pages: 1 -->
<svg width="1008pt" height="174pt"
 viewBox="0.00 0.00 1008.00 173.80" xmlns="http://www.w3.org/2000/svg" xmlns:xlink="http://www.w3.org/1999/xlink">
<g id="graph0" class="graph" transform="scale(1 1) rotate(0) translate(4 169.8)">
<title>dependencies</title>
<polygon fill="white" stroke="transparent" points="-4,4 -4,-169.8 1004,-169.8 1004,4 -4,4"/>
<text text-anchor="middle" x="500" y="-8.2" font-family="sans-serif" font-size="14.00">dependencies</text>
<g id="clust1" class="cluster">
<title>cluster_MatriculaModule</title>
<polygon fill="none" stroke="black" stroke-dasharray="1,5" points="8,-32.8 8,-157.8 992,-157.8 992,-32.8 8,-32.8"/>
</g>
<g id="clust2" class="cluster">
<title>cluster_MatriculaModule_declarations</title>
<polygon fill="none" stroke="black" points="428,-40.8 428,-92.8 984,-92.8 984,-40.8 428,-40.8"/>
</g>
<g id="clust7" class="cluster">
<title>cluster_MatriculaModule_imports</title>
<polygon fill="none" stroke="black" points="16,-40.8 16,-92.8 420,-92.8 420,-40.8 16,-40.8"/>
</g>
<!-- DetalleComponent -->
<g id="node1" class="node">
<title>DetalleComponent</title>
<polygon fill="#ffffb3" stroke="black" points="975.75,-84.8 854.25,-84.8 854.25,-48.8 975.75,-48.8 975.75,-84.8"/>
<text text-anchor="middle" x="915" y="-62.6" font-family="Times,serif" font-size="14.00">DetalleComponent</text>
</g>
<!-- MatriculaModule -->
<g id="node5" class="node">
<title>MatriculaModule</title>
<polygon fill="#8dd3c7" stroke="black" points="551.97,-149.8 548.97,-153.8 527.97,-153.8 524.97,-149.8 438.03,-149.8 438.03,-113.8 551.97,-113.8 551.97,-149.8"/>
<text text-anchor="middle" x="495" y="-127.6" font-family="Times,serif" font-size="14.00">MatriculaModule</text>
</g>
<!-- DetalleComponent&#45;&gt;MatriculaModule -->
<g id="edge1" class="edge">
<title>DetalleComponent&#45;&gt;MatriculaModule</title>
<path fill="none" stroke="black" d="M915,-85.09C915,-107.01 915,-140.8 915,-140.8 915,-140.8 562.08,-140.8 562.08,-140.8"/>
<polygon fill="black" stroke="black" points="562.08,-137.3 552.08,-140.8 562.08,-144.3 562.08,-137.3"/>
</g>
<!-- ListaComponent -->
<g id="node2" class="node">
<title>ListaComponent</title>
<polygon fill="#ffffb3" stroke="black" points="835.82,-84.8 726.18,-84.8 726.18,-48.8 835.82,-48.8 835.82,-84.8"/>
<text text-anchor="middle" x="781" y="-62.6" font-family="Times,serif" font-size="14.00">ListaComponent</text>
</g>
<!-- ListaComponent&#45;&gt;MatriculaModule -->
<g id="edge2" class="edge">
<title>ListaComponent&#45;&gt;MatriculaModule</title>
<path fill="none" stroke="black" d="M781,-84.91C781,-104.14 781,-131.8 781,-131.8 781,-131.8 562.19,-131.8 562.19,-131.8"/>
<polygon fill="black" stroke="black" points="562.19,-128.3 552.19,-131.8 562.19,-135.3 562.19,-128.3"/>
</g>
<!-- MatriculaComponent -->
<g id="node3" class="node">
<title>MatriculaComponent</title>
<polygon fill="#ffffb3" stroke="black" points="707.75,-84.8 572.25,-84.8 572.25,-48.8 707.75,-48.8 707.75,-84.8"/>
<text text-anchor="middle" x="640" y="-62.6" font-family="Times,serif" font-size="14.00">MatriculaComponent</text>
</g>
<!-- MatriculaComponent&#45;&gt;MatriculaModule -->
<g id="edge3" class="edge">
<title>MatriculaComponent&#45;&gt;MatriculaModule</title>
<path fill="none" stroke="black" d="M640,-84.83C640,-101.2 640,-122.8 640,-122.8 640,-122.8 562.31,-122.8 562.31,-122.8"/>
<polygon fill="black" stroke="black" points="562.31,-119.3 552.31,-122.8 562.31,-126.3 562.31,-119.3"/>
</g>
<!-- NuevoComponent -->
<g id="node4" class="node">
<title>NuevoComponent</title>
<polygon fill="#ffffb3" stroke="black" points="554.16,-84.8 435.84,-84.8 435.84,-48.8 554.16,-48.8 554.16,-84.8"/>
<text text-anchor="middle" x="495" y="-62.6" font-family="Times,serif" font-size="14.00">NuevoComponent</text>
</g>
<!-- NuevoComponent&#45;&gt;MatriculaModule -->
<g id="edge4" class="edge">
<title>NuevoComponent&#45;&gt;MatriculaModule</title>
<path fill="none" stroke="black" d="M495,-84.91C495,-84.91 495,-103.79 495,-103.79"/>
<polygon fill="black" stroke="black" points="491.5,-103.79 495,-113.79 498.5,-103.79 491.5,-103.79"/>
</g>
<!-- CoreModule -->
<g id="node6" class="node">
<title>CoreModule</title>
<polygon fill="#8dd3c7" stroke="black" points="412.27,-84.8 409.27,-88.8 388.27,-88.8 385.27,-84.8 325.73,-84.8 325.73,-48.8 412.27,-48.8 412.27,-84.8"/>
<text text-anchor="middle" x="369" y="-62.6" font-family="Times,serif" font-size="14.00">CoreModule</text>
</g>
<!-- CoreModule&#45;&gt;MatriculaModule -->
<g id="edge5" class="edge">
<title>CoreModule&#45;&gt;MatriculaModule</title>
<path fill="none" stroke="black" d="M369,-84.83C369,-101.2 369,-122.8 369,-122.8 369,-122.8 427.9,-122.8 427.9,-122.8"/>
<polygon fill="black" stroke="black" points="427.9,-126.3 437.9,-122.8 427.9,-119.3 427.9,-126.3"/>
</g>
<!-- MatriculaRoutingModule -->
<g id="node7" class="node">
<title>MatriculaRoutingModule</title>
<polygon fill="#8dd3c7" stroke="black" points="307.59,-84.8 304.59,-88.8 283.59,-88.8 280.59,-84.8 148.41,-84.8 148.41,-48.8 307.59,-48.8 307.59,-84.8"/>
<text text-anchor="middle" x="228" y="-62.6" font-family="Times,serif" font-size="14.00">MatriculaRoutingModule</text>
</g>
<!-- MatriculaRoutingModule&#45;&gt;MatriculaModule -->
<g id="edge6" class="edge">
<title>MatriculaRoutingModule&#45;&gt;MatriculaModule</title>
<path fill="none" stroke="black" d="M228,-84.91C228,-104.14 228,-131.8 228,-131.8 228,-131.8 427.72,-131.8 427.72,-131.8"/>
<polygon fill="black" stroke="black" points="427.72,-135.3 437.72,-131.8 427.72,-128.3 427.72,-135.3"/>
</g>
<!-- PrimengModule -->
<g id="node8" class="node">
<title>PrimengModule</title>
<polygon fill="#8dd3c7" stroke="black" points="130.49,-84.8 127.49,-88.8 106.49,-88.8 103.49,-84.8 23.51,-84.8 23.51,-48.8 130.49,-48.8 130.49,-84.8"/>
<text text-anchor="middle" x="77" y="-62.6" font-family="Times,serif" font-size="14.00">PrimengModule</text>
</g>
<!-- PrimengModule&#45;&gt;MatriculaModule -->
<g id="edge7" class="edge">
<title>PrimengModule&#45;&gt;MatriculaModule</title>
<path fill="none" stroke="black" d="M77,-85.09C77,-107.01 77,-140.8 77,-140.8 77,-140.8 427.76,-140.8 427.76,-140.8"/>
<polygon fill="black" stroke="black" points="427.76,-144.3 437.76,-140.8 427.76,-137.3 427.76,-144.3"/>
</g>
</g>
</svg>
