<?xml version="1.0" encoding="UTF-8" standalone="no"?>
<!DOCTYPE svg PUBLIC "-//W3C//DTD SVG 1.1//EN"
 "http://www.w3.org/Graphics/SVG/1.1/DTD/svg11.dtd">
<!-- Generated by graphviz version 5.0.0 (20220707.1540)
 -->
<!-- Title: dependencies Pages: 1 -->
<svg width="342pt" height="174pt"
 viewBox="0.00 0.00 342.00 173.80" xmlns="http://www.w3.org/2000/svg" xmlns:xlink="http://www.w3.org/1999/xlink">
<g id="graph0" class="graph" transform="scale(1 1) rotate(0) translate(4 169.8)">
<title>dependencies</title>
<polygon fill="white" stroke="transparent" points="-4,4 -4,-169.8 338,-169.8 338,4 -4,4"/>
<text text-anchor="middle" x="167" y="-8.2" font-family="sans-serif" font-size="14.00">dependencies</text>
<g id="clust1" class="cluster">
<title>cluster_GastosModule</title>
<polygon fill="none" stroke="black" stroke-dasharray="1,5" points="8,-32.8 8,-157.8 326,-157.8 326,-32.8 8,-32.8"/>
</g>
<g id="clust4" class="cluster">
<title>cluster_GastosModule_imports</title>
<polygon fill="none" stroke="black" points="160,-40.8 160,-92.8 318,-92.8 318,-40.8 160,-40.8"/>
</g>
<g id="clust2" class="cluster">
<title>cluster_GastosModule_declarations</title>
<polygon fill="none" stroke="black" points="16,-40.8 16,-92.8 152,-92.8 152,-40.8 16,-40.8"/>
</g>
<!-- GastosComponent -->
<g id="node1" class="node">
<title>GastosComponent</title>
<polygon fill="#ffffb3" stroke="black" points="143.94,-84.8 24.06,-84.8 24.06,-48.8 143.94,-48.8 143.94,-84.8"/>
<text text-anchor="middle" x="84" y="-62.6" font-family="Times,serif" font-size="14.00">GastosComponent</text>
</g>
<!-- GastosModule -->
<g id="node2" class="node">
<title>GastosModule</title>
<polygon fill="#8dd3c7" stroke="black" points="209.66,-149.8 206.66,-153.8 185.66,-153.8 182.66,-149.8 112.34,-149.8 112.34,-113.8 209.66,-113.8 209.66,-149.8"/>
<text text-anchor="middle" x="161" y="-127.6" font-family="Times,serif" font-size="14.00">GastosModule</text>
</g>
<!-- GastosComponent&#45;&gt;GastosModule -->
<g id="edge1" class="edge">
<title>GastosComponent&#45;&gt;GastosModule</title>
<path fill="none" stroke="black" d="M127.94,-84.91C127.94,-84.91 127.94,-103.79 127.94,-103.79"/>
<polygon fill="black" stroke="black" points="124.44,-103.79 127.94,-113.79 131.44,-103.79 124.44,-103.79"/>
</g>
<!-- GastosRoutingModule -->
<g id="node3" class="node">
<title>GastosRoutingModule</title>
<polygon fill="#8dd3c7" stroke="black" points="310.28,-84.8 307.28,-88.8 286.28,-88.8 283.28,-84.8 167.72,-84.8 167.72,-48.8 310.28,-48.8 310.28,-84.8"/>
<text text-anchor="middle" x="239" y="-62.6" font-family="Times,serif" font-size="14.00">GastosRoutingModule</text>
</g>
<!-- GastosRoutingModule&#45;&gt;GastosModule -->
<g id="edge2" class="edge">
<title>GastosRoutingModule&#45;&gt;GastosModule</title>
<path fill="none" stroke="black" d="M188.72,-84.91C188.72,-84.91 188.72,-103.79 188.72,-103.79"/>
<polygon fill="black" stroke="black" points="185.22,-103.79 188.72,-113.79 192.22,-103.79 185.22,-103.79"/>
</g>
</g>
</svg>
