<?xml version="1.0" encoding="UTF-8" standalone="no"?>
<!DOCTYPE svg PUBLIC "-//W3C//DTD SVG 1.1//EN"
 "http://www.w3.org/Graphics/SVG/1.1/DTD/svg11.dtd">
<!-- Generated by graphviz version 5.0.0 (20220707.1540)
 -->
<!-- Title: dependencies Pages: 1 -->
<svg width="537pt" height="174pt"
 viewBox="0.00 0.00 537.00 173.80" xmlns="http://www.w3.org/2000/svg" xmlns:xlink="http://www.w3.org/1999/xlink">
<g id="graph0" class="graph" transform="scale(1 1) rotate(0) translate(4 169.8)">
<title>dependencies</title>
<polygon fill="white" stroke="transparent" points="-4,4 -4,-169.8 533,-169.8 533,4 -4,4"/>
<text text-anchor="middle" x="264.5" y="-8.2" font-family="sans-serif" font-size="14.00">dependencies</text>
<g id="clust1" class="cluster">
<title>cluster_VerModule</title>
<polygon fill="none" stroke="black" stroke-dasharray="1,5" points="8,-32.8 8,-157.8 521,-157.8 521,-32.8 8,-32.8"/>
</g>
<g id="clust2" class="cluster">
<title>cluster_VerModule_declarations</title>
<polygon fill="none" stroke="black" points="395,-40.8 395,-92.8 513,-92.8 513,-40.8 395,-40.8"/>
</g>
<g id="clust4" class="cluster">
<title>cluster_VerModule_imports</title>
<polygon fill="none" stroke="black" points="16,-40.8 16,-92.8 387,-92.8 387,-40.8 16,-40.8"/>
</g>
<!-- VerComponent -->
<g id="node1" class="node">
<title>VerComponent</title>
<polygon fill="#ffffb3" stroke="black" points="505.32,-84.8 402.68,-84.8 402.68,-48.8 505.32,-48.8 505.32,-84.8"/>
<text text-anchor="middle" x="454" y="-62.6" font-family="Times,serif" font-size="14.00">VerComponent</text>
</g>
<!-- VerModule -->
<g id="node2" class="node">
<title>VerModule</title>
<polygon fill="#8dd3c7" stroke="black" points="318.04,-149.8 315.04,-153.8 294.04,-153.8 291.04,-149.8 237.96,-149.8 237.96,-113.8 318.04,-113.8 318.04,-149.8"/>
<text text-anchor="middle" x="278" y="-127.6" font-family="Times,serif" font-size="14.00">VerModule</text>
</g>
<!-- VerComponent&#45;&gt;VerModule -->
<g id="edge1" class="edge">
<title>VerComponent&#45;&gt;VerModule</title>
<path fill="none" stroke="black" d="M454,-84.91C454,-104.14 454,-131.8 454,-131.8 454,-131.8 328.38,-131.8 328.38,-131.8"/>
<polygon fill="black" stroke="black" points="328.38,-128.3 318.38,-131.8 328.38,-135.3 328.38,-128.3"/>
</g>
<!-- CoreModule -->
<g id="node3" class="node">
<title>CoreModule</title>
<polygon fill="#8dd3c7" stroke="black" points="379.27,-84.8 376.27,-88.8 355.27,-88.8 352.27,-84.8 292.73,-84.8 292.73,-48.8 379.27,-48.8 379.27,-84.8"/>
<text text-anchor="middle" x="336" y="-62.6" font-family="Times,serif" font-size="14.00">CoreModule</text>
</g>
<!-- CoreModule&#45;&gt;VerModule -->
<g id="edge2" class="edge">
<title>CoreModule&#45;&gt;VerModule</title>
<path fill="none" stroke="black" d="M305.44,-84.91C305.44,-84.91 305.44,-103.79 305.44,-103.79"/>
<polygon fill="black" stroke="black" points="301.94,-103.79 305.44,-113.79 308.94,-103.79 301.94,-103.79"/>
</g>
<!-- PrimengModule -->
<g id="node4" class="node">
<title>PrimengModule</title>
<polygon fill="#8dd3c7" stroke="black" points="274.49,-84.8 271.49,-88.8 250.49,-88.8 247.49,-84.8 167.51,-84.8 167.51,-48.8 274.49,-48.8 274.49,-84.8"/>
<text text-anchor="middle" x="221" y="-62.6" font-family="Times,serif" font-size="14.00">PrimengModule</text>
</g>
<!-- PrimengModule&#45;&gt;VerModule -->
<g id="edge3" class="edge">
<title>PrimengModule&#45;&gt;VerModule</title>
<path fill="none" stroke="black" d="M256.11,-84.91C256.11,-84.91 256.11,-103.79 256.11,-103.79"/>
<polygon fill="black" stroke="black" points="252.61,-103.79 256.11,-113.79 259.61,-103.79 252.61,-103.79"/>
</g>
<!-- VerRoutingModule -->
<g id="node5" class="node">
<title>VerRoutingModule</title>
<polygon fill="#8dd3c7" stroke="black" points="149.66,-84.8 146.66,-88.8 125.66,-88.8 122.66,-84.8 24.34,-84.8 24.34,-48.8 149.66,-48.8 149.66,-84.8"/>
<text text-anchor="middle" x="87" y="-62.6" font-family="Times,serif" font-size="14.00">VerRoutingModule</text>
</g>
<!-- VerRoutingModule&#45;&gt;VerModule -->
<g id="edge4" class="edge">
<title>VerRoutingModule&#45;&gt;VerModule</title>
<path fill="none" stroke="black" d="M87,-84.91C87,-104.14 87,-131.8 87,-131.8 87,-131.8 227.96,-131.8 227.96,-131.8"/>
<polygon fill="black" stroke="black" points="227.96,-135.3 237.96,-131.8 227.96,-128.3 227.96,-135.3"/>
</g>
</g>
</svg>
