<?xml version="1.0" encoding="UTF-8" standalone="no"?>
<!DOCTYPE svg PUBLIC "-//W3C//DTD SVG 1.1//EN"
 "http://www.w3.org/Graphics/SVG/1.1/DTD/svg11.dtd">
<!-- Generated by graphviz version 5.0.0 (20220707.1540)
 -->
<!-- Title: dependencies Pages: 1 -->
<svg width="537pt" height="174pt"
 viewBox="0.00 0.00 537.00 173.80" xmlns="http://www.w3.org/2000/svg" xmlns:xlink="http://www.w3.org/1999/xlink">
<g id="graph0" class="graph" transform="scale(1 1) rotate(0) translate(4 169.8)">
<title>dependencies</title>
<polygon fill="white" stroke="transparent" points="-4,4 -4,-169.8 533,-169.8 533,4 -4,4"/>
<text text-anchor="middle" x="264.5" y="-8.2" font-family="sans-serif" font-size="14.00">dependencies</text>
<g id="clust1" class="cluster">
<title>cluster_VerModule</title>
<polygon fill="none" stroke="black" stroke-dasharray="1,5" points="8,-32.8 8,-157.8 521,-157.8 521,-32.8 8,-32.8"/>
</g>
<g id="clust4" class="cluster">
<title>cluster_VerModule_imports</title>
<polygon fill="none" stroke="black" points="142,-40.8 142,-92.8 513,-92.8 513,-40.8 142,-40.8"/>
</g>
<g id="clust2" class="cluster">
<title>cluster_VerModule_declarations</title>
<polygon fill="none" stroke="black" points="16,-40.8 16,-92.8 134,-92.8 134,-40.8 16,-40.8"/>
</g>
<!-- VerComponent -->
<g id="node1" class="node">
<title>VerComponent</title>
<polygon fill="#ffffb3" stroke="black" points="126.32,-84.8 23.68,-84.8 23.68,-48.8 126.32,-48.8 126.32,-84.8"/>
<text text-anchor="middle" x="75" y="-62.6" font-family="Times,serif" font-size="14.00">VerComponent</text>
</g>
<!-- VerModule -->
<g id="node2" class="node">
<title>VerModule</title>
<polygon fill="#8dd3c7" stroke="black" points="320.04,-149.8 317.04,-153.8 296.04,-153.8 293.04,-149.8 239.96,-149.8 239.96,-113.8 320.04,-113.8 320.04,-149.8"/>
<text text-anchor="middle" x="280" y="-127.6" font-family="Times,serif" font-size="14.00">VerModule</text>
</g>
<!-- VerComponent&#45;&gt;VerModule -->
<g id="edge1" class="edge">
<title>VerComponent&#45;&gt;VerModule</title>
<path fill="none" stroke="black" d="M75,-84.91C75,-104.14 75,-131.8 75,-131.8 75,-131.8 229.5,-131.8 229.5,-131.8"/>
<polygon fill="black" stroke="black" points="229.5,-135.3 239.5,-131.8 229.5,-128.3 229.5,-135.3"/>
</g>
<!-- CoreModule -->
<g id="node3" class="node">
<title>CoreModule</title>
<polygon fill="#8dd3c7" stroke="black" points="505.27,-84.8 502.27,-88.8 481.27,-88.8 478.27,-84.8 418.73,-84.8 418.73,-48.8 505.27,-48.8 505.27,-84.8"/>
<text text-anchor="middle" x="462" y="-62.6" font-family="Times,serif" font-size="14.00">CoreModule</text>
</g>
<!-- CoreModule&#45;&gt;VerModule -->
<g id="edge2" class="edge">
<title>CoreModule&#45;&gt;VerModule</title>
<path fill="none" stroke="black" d="M462,-84.91C462,-104.14 462,-131.8 462,-131.8 462,-131.8 330.39,-131.8 330.39,-131.8"/>
<polygon fill="black" stroke="black" points="330.39,-128.3 320.39,-131.8 330.39,-135.3 330.39,-128.3"/>
</g>
<!-- PrimengModule -->
<g id="node4" class="node">
<title>PrimengModule</title>
<polygon fill="#8dd3c7" stroke="black" points="400.49,-84.8 397.49,-88.8 376.49,-88.8 373.49,-84.8 293.51,-84.8 293.51,-48.8 400.49,-48.8 400.49,-84.8"/>
<text text-anchor="middle" x="347" y="-62.6" font-family="Times,serif" font-size="14.00">PrimengModule</text>
</g>
<!-- PrimengModule&#45;&gt;VerModule -->
<g id="edge3" class="edge">
<title>PrimengModule&#45;&gt;VerModule</title>
<path fill="none" stroke="black" d="M306.89,-84.91C306.89,-84.91 306.89,-103.79 306.89,-103.79"/>
<polygon fill="black" stroke="black" points="303.39,-103.79 306.89,-113.79 310.39,-103.79 303.39,-103.79"/>
</g>
<!-- VerRoutingModule -->
<g id="node5" class="node">
<title>VerRoutingModule</title>
<polygon fill="#8dd3c7" stroke="black" points="275.66,-84.8 272.66,-88.8 251.66,-88.8 248.66,-84.8 150.34,-84.8 150.34,-48.8 275.66,-48.8 275.66,-84.8"/>
<text text-anchor="middle" x="213" y="-62.6" font-family="Times,serif" font-size="14.00">VerRoutingModule</text>
</g>
<!-- VerRoutingModule&#45;&gt;VerModule -->
<g id="edge4" class="edge">
<title>VerRoutingModule&#45;&gt;VerModule</title>
<path fill="none" stroke="black" d="M257.78,-84.91C257.78,-84.91 257.78,-103.79 257.78,-103.79"/>
<polygon fill="black" stroke="black" points="254.28,-103.79 257.78,-113.79 261.28,-103.79 254.28,-103.79"/>
</g>
</g>
</svg>
