<?xml version="1.0" encoding="UTF-8" standalone="no"?>
<!DOCTYPE svg PUBLIC "-//W3C//DTD SVG 1.1//EN"
 "http://www.w3.org/Graphics/SVG/1.1/DTD/svg11.dtd">
<!-- Generated by graphviz version 5.0.0 (20220707.1540)
 -->
<!-- Title: dependencies Pages: 1 -->
<svg width="393pt" height="174pt"
 viewBox="0.00 0.00 393.00 173.80" xmlns="http://www.w3.org/2000/svg" xmlns:xlink="http://www.w3.org/1999/xlink">
<g id="graph0" class="graph" transform="scale(1 1) rotate(0) translate(4 169.8)">
<title>dependencies</title>
<polygon fill="white" stroke="transparent" points="-4,4 -4,-169.8 389,-169.8 389,4 -4,4"/>
<text text-anchor="middle" x="192.5" y="-8.2" font-family="sans-serif" font-size="14.00">dependencies</text>
<g id="clust1" class="cluster">
<title>cluster_VerModule</title>
<polygon fill="none" stroke="black" stroke-dasharray="1,5" points="8,-32.8 8,-157.8 377,-157.8 377,-32.8 8,-32.8"/>
</g>
<g id="clust4" class="cluster">
<title>cluster_VerModule_imports</title>
<polygon fill="none" stroke="black" points="142,-40.8 142,-92.8 369,-92.8 369,-40.8 142,-40.8"/>
</g>
<g id="clust2" class="cluster">
<title>cluster_VerModule_declarations</title>
<polygon fill="none" stroke="black" points="16,-40.8 16,-92.8 134,-92.8 134,-40.8 16,-40.8"/>
</g>
<!-- VerComponent -->
<g id="node1" class="node">
<title>VerComponent</title>
<polygon fill="#ffffb3" stroke="black" points="126.32,-84.8 23.68,-84.8 23.68,-48.8 126.32,-48.8 126.32,-84.8"/>
<text text-anchor="middle" x="75" y="-62.6" font-family="Times,serif" font-size="14.00">VerComponent</text>
</g>
<!-- VerModule -->
<g id="node2" class="node">
<title>VerModule</title>
<polygon fill="#8dd3c7" stroke="black" points="243.04,-149.8 240.04,-153.8 219.04,-153.8 216.04,-149.8 162.96,-149.8 162.96,-113.8 243.04,-113.8 243.04,-149.8"/>
<text text-anchor="middle" x="203" y="-127.6" font-family="Times,serif" font-size="14.00">VerModule</text>
</g>
<!-- VerComponent&#45;&gt;VerModule -->
<g id="edge1" class="edge">
<title>VerComponent&#45;&gt;VerModule</title>
<path fill="none" stroke="black" d="M75,-84.91C75,-104.14 75,-131.8 75,-131.8 75,-131.8 152.85,-131.8 152.85,-131.8"/>
<polygon fill="black" stroke="black" points="152.85,-135.3 162.85,-131.8 152.85,-128.3 152.85,-135.3"/>
</g>
<!-- CoreModule -->
<g id="node3" class="node">
<title>CoreModule</title>
<polygon fill="#8dd3c7" stroke="black" points="361.27,-84.8 358.27,-88.8 337.27,-88.8 334.27,-84.8 274.73,-84.8 274.73,-48.8 361.27,-48.8 361.27,-84.8"/>
<text text-anchor="middle" x="318" y="-62.6" font-family="Times,serif" font-size="14.00">CoreModule</text>
</g>
<!-- CoreModule&#45;&gt;VerModule -->
<g id="edge2" class="edge">
<title>CoreModule&#45;&gt;VerModule</title>
<path fill="none" stroke="black" d="M318,-84.91C318,-104.14 318,-131.8 318,-131.8 318,-131.8 253.22,-131.8 253.22,-131.8"/>
<polygon fill="black" stroke="black" points="253.22,-128.3 243.22,-131.8 253.22,-135.3 253.22,-128.3"/>
</g>
<!-- PrimengModule -->
<g id="node4" class="node">
<title>PrimengModule</title>
<polygon fill="#8dd3c7" stroke="black" points="256.49,-84.8 253.49,-88.8 232.49,-88.8 229.49,-84.8 149.51,-84.8 149.51,-48.8 256.49,-48.8 256.49,-84.8"/>
<text text-anchor="middle" x="203" y="-62.6" font-family="Times,serif" font-size="14.00">PrimengModule</text>
</g>
<!-- PrimengModule&#45;&gt;VerModule -->
<g id="edge3" class="edge">
<title>PrimengModule&#45;&gt;VerModule</title>
<path fill="none" stroke="black" d="M203,-84.91C203,-84.91 203,-103.79 203,-103.79"/>
<polygon fill="black" stroke="black" points="199.5,-103.79 203,-113.79 206.5,-103.79 199.5,-103.79"/>
</g>
</g>
</svg>
