<?xml version="1.0" encoding="UTF-8" standalone="no"?>
<!DOCTYPE svg PUBLIC "-//W3C//DTD SVG 1.1//EN"
 "http://www.w3.org/Graphics/SVG/1.1/DTD/svg11.dtd">
<!-- Generated by graphviz version 5.0.0 (20220707.1540)
 -->
<!-- Title: dependencies Pages: 1 -->
<svg width="2563pt" height="174pt"
 viewBox="0.00 0.00 2563.00 173.80" xmlns="http://www.w3.org/2000/svg" xmlns:xlink="http://www.w3.org/1999/xlink">
<g id="graph0" class="graph" transform="scale(1 1) rotate(0) translate(4 169.8)">
<title>dependencies</title>
<polygon fill="white" stroke="transparent" points="-4,4 -4,-169.8 2559,-169.8 2559,4 -4,4"/>
<text text-anchor="middle" x="1277.5" y="-8.2" font-family="sans-serif" font-size="14.00">dependencies</text>
<g id="clust1" class="cluster">
<title>cluster_HomeModule</title>
<polygon fill="none" stroke="black" stroke-dasharray="1,5" points="8,-32.8 8,-157.8 2547,-157.8 2547,-32.8 8,-32.8"/>
</g>
<g id="clust10" class="cluster">
<title>cluster_HomeModule_imports</title>
<polygon fill="none" stroke="black" points="1268,-40.8 1268,-92.8 2539,-92.8 2539,-40.8 1268,-40.8"/>
</g>
<g id="clust13" class="cluster">
<title>cluster_HomeModule_providers</title>
<polygon fill="none" stroke="black" points="1116,-40.8 1116,-92.8 1260,-92.8 1260,-40.8 1116,-40.8"/>
</g>
<g id="clust2" class="cluster">
<title>cluster_HomeModule_declarations</title>
<polygon fill="none" stroke="black" points="16,-40.8 16,-92.8 1108,-92.8 1108,-40.8 16,-40.8"/>
</g>
<!-- DarEntradaHabitacionComponent -->
<g id="node1" class="node">
<title>DarEntradaHabitacionComponent</title>
<polygon fill="#ffffb3" stroke="black" points="1099.77,-84.8 892.23,-84.8 892.23,-48.8 1099.77,-48.8 1099.77,-84.8"/>
<text text-anchor="middle" x="996" y="-62.6" font-family="Times,serif" font-size="14.00">DarEntradaHabitacionComponent</text>
</g>
<!-- HomeModule -->
<g id="node8" class="node">
<title>HomeModule</title>
<polygon fill="#8dd3c7" stroke="black" points="1439.77,-149.8 1436.77,-153.8 1415.77,-153.8 1412.77,-149.8 1346.23,-149.8 1346.23,-113.8 1439.77,-113.8 1439.77,-149.8"/>
<text text-anchor="middle" x="1393" y="-127.6" font-family="Times,serif" font-size="14.00">HomeModule</text>
</g>
<!-- DarEntradaHabitacionComponent&#45;&gt;HomeModule -->
<g id="edge1" class="edge">
<title>DarEntradaHabitacionComponent&#45;&gt;HomeModule</title>
<path fill="none" stroke="black" d="M996,-84.81C996,-100.85 996,-121.8 996,-121.8 996,-121.8 1335.9,-121.8 1335.9,-121.8"/>
<polygon fill="black" stroke="black" points="1335.9,-125.3 1345.9,-121.8 1335.9,-118.3 1335.9,-125.3"/>
</g>
<!-- HomeComponent -->
<g id="node2" class="node">
<title>HomeComponent</title>
<polygon fill="#ffffb3" stroke="black" points="874.55,-84.8 759.45,-84.8 759.45,-48.8 874.55,-48.8 874.55,-84.8"/>
<text text-anchor="middle" x="817" y="-62.6" font-family="Times,serif" font-size="14.00">HomeComponent</text>
</g>
<!-- HomeComponent&#45;&gt;HomeModule -->
<g id="edge2" class="edge">
<title>HomeComponent&#45;&gt;HomeModule</title>
<path fill="none" stroke="black" d="M817,-84.82C817,-102.17 817,-125.8 817,-125.8 817,-125.8 1335.86,-125.8 1335.86,-125.8"/>
<polygon fill="black" stroke="black" points="1335.86,-129.3 1345.86,-125.8 1335.86,-122.3 1335.86,-129.3"/>
</g>
<!-- LayoutComponent -->
<g id="node3" class="node">
<title>LayoutComponent</title>
<polygon fill="#ffffb3" stroke="black" points="741.49,-84.8 620.51,-84.8 620.51,-48.8 741.49,-48.8 741.49,-84.8"/>
<text text-anchor="middle" x="681" y="-62.6" font-family="Times,serif" font-size="14.00">LayoutComponent</text>
</g>
<!-- LayoutComponent&#45;&gt;HomeModule -->
<g id="edge3" class="edge">
<title>LayoutComponent&#45;&gt;HomeModule</title>
<path fill="none" stroke="black" d="M681,-85.02C681,-103.63 681,-129.8 681,-129.8 681,-129.8 1336.01,-129.8 1336.01,-129.8"/>
<polygon fill="black" stroke="black" points="1336.01,-133.3 1346.01,-129.8 1336.01,-126.3 1336.01,-133.3"/>
</g>
<!-- LogoutDirective -->
<g id="node4" class="node">
<title>LogoutDirective</title>
<polygon fill="#ffffb3" stroke="black" points="602.03,-84.8 493.97,-84.8 493.97,-48.8 602.03,-48.8 602.03,-84.8"/>
<text text-anchor="middle" x="548" y="-62.6" font-family="Times,serif" font-size="14.00">LogoutDirective</text>
</g>
<!-- LogoutDirective&#45;&gt;HomeModule -->
<g id="edge4" class="edge">
<title>LogoutDirective&#45;&gt;HomeModule</title>
<path fill="none" stroke="black" d="M548,-85.11C548,-104.95 548,-133.8 548,-133.8 548,-133.8 1336.06,-133.8 1336.06,-133.8"/>
<polygon fill="black" stroke="black" points="1336.06,-137.3 1346.06,-133.8 1336.06,-130.3 1336.06,-137.3"/>
</g>
<!-- NavMenuComponent -->
<g id="node5" class="node">
<title>NavMenuComponent</title>
<polygon fill="#ffffb3" stroke="black" points="475.82,-84.8 338.18,-84.8 338.18,-48.8 475.82,-48.8 475.82,-84.8"/>
<text text-anchor="middle" x="407" y="-62.6" font-family="Times,serif" font-size="14.00">NavMenuComponent</text>
</g>
<!-- NavMenuComponent&#45;&gt;HomeModule -->
<g id="edge5" class="edge">
<title>NavMenuComponent&#45;&gt;HomeModule</title>
<path fill="none" stroke="black" d="M407,-85.08C407,-106.12 407,-137.8 407,-137.8 407,-137.8 1336.11,-137.8 1336.11,-137.8"/>
<polygon fill="black" stroke="black" points="1336.11,-141.3 1346.11,-137.8 1336.11,-134.3 1336.11,-141.3"/>
</g>
<!-- SidebarHiddenComponent -->
<g id="node6" class="node">
<title>SidebarHiddenComponent</title>
<polygon fill="#ffffb3" stroke="black" points="320.81,-84.8 155.19,-84.8 155.19,-48.8 320.81,-48.8 320.81,-84.8"/>
<text text-anchor="middle" x="238" y="-62.6" font-family="Times,serif" font-size="14.00">SidebarHiddenComponent</text>
</g>
<!-- SidebarHiddenComponent&#45;&gt;HomeModule -->
<g id="edge6" class="edge">
<title>SidebarHiddenComponent&#45;&gt;HomeModule</title>
<path fill="none" stroke="black" d="M238,-84.96C238,-107.15 238,-141.8 238,-141.8 238,-141.8 1335.93,-141.8 1335.93,-141.8"/>
<polygon fill="black" stroke="black" points="1335.93,-145.3 1345.93,-141.8 1335.93,-138.3 1335.93,-145.3"/>
</g>
<!-- SidenavDirective -->
<g id="node7" class="node">
<title>SidenavDirective</title>
<polygon fill="#ffffb3" stroke="black" points="137.69,-84.8 24.31,-84.8 24.31,-48.8 137.69,-48.8 137.69,-84.8"/>
<text text-anchor="middle" x="81" y="-62.6" font-family="Times,serif" font-size="14.00">SidenavDirective</text>
</g>
<!-- SidenavDirective&#45;&gt;HomeModule -->
<g id="edge7" class="edge">
<title>SidenavDirective&#45;&gt;HomeModule</title>
<path fill="none" stroke="black" d="M81,-85.12C81,-108.46 81,-145.8 81,-145.8 81,-145.8 1335.92,-145.8 1335.92,-145.8"/>
<polygon fill="black" stroke="black" points="1335.92,-149.3 1345.92,-145.8 1335.92,-142.3 1335.92,-149.3"/>
</g>
<!-- CatalogosModule -->
<g id="node9" class="node">
<title>CatalogosModule</title>
<polygon fill="#8dd3c7" stroke="black" points="2530.55,-84.8 2527.55,-88.8 2506.55,-88.8 2503.55,-84.8 2415.45,-84.8 2415.45,-48.8 2530.55,-48.8 2530.55,-84.8"/>
<text text-anchor="middle" x="2473" y="-62.6" font-family="Times,serif" font-size="14.00">CatalogosModule</text>
</g>
<!-- CatalogosModule&#45;&gt;HomeModule -->
<g id="edge8" class="edge">
<title>CatalogosModule&#45;&gt;HomeModule</title>
<path fill="none" stroke="black" d="M2473,-85.12C2473,-108.46 2473,-145.8 2473,-145.8 2473,-145.8 1450.1,-145.8 1450.1,-145.8"/>
<polygon fill="black" stroke="black" points="1450.1,-142.3 1440.1,-145.8 1450.1,-149.3 1450.1,-142.3"/>
</g>
<!-- ConfiguracionesModule -->
<g id="node10" class="node">
<title>ConfiguracionesModule</title>
<polygon fill="#8dd3c7" stroke="black" points="2397.08,-84.8 2394.08,-88.8 2373.08,-88.8 2370.08,-84.8 2244.92,-84.8 2244.92,-48.8 2397.08,-48.8 2397.08,-84.8"/>
<text text-anchor="middle" x="2321" y="-62.6" font-family="Times,serif" font-size="14.00">ConfiguracionesModule</text>
</g>
<!-- ConfiguracionesModule&#45;&gt;HomeModule -->
<g id="edge9" class="edge">
<title>ConfiguracionesModule&#45;&gt;HomeModule</title>
<path fill="none" stroke="black" d="M2321,-84.96C2321,-107.15 2321,-141.8 2321,-141.8 2321,-141.8 1449.98,-141.8 1449.98,-141.8"/>
<polygon fill="black" stroke="black" points="1449.98,-138.3 1439.98,-141.8 1449.98,-145.3 1449.98,-138.3"/>
</g>
<!-- CutStringPipe -->
<g id="node11" class="node">
<title>CutStringPipe</title>
<polygon fill="#8dd3c7" stroke="black" points="2226.85,-84.8 2223.85,-88.8 2202.85,-88.8 2199.85,-84.8 2131.15,-84.8 2131.15,-48.8 2226.85,-48.8 2226.85,-84.8"/>
<text text-anchor="middle" x="2179" y="-62.6" font-family="Times,serif" font-size="14.00">CutStringPipe</text>
</g>
<!-- CutStringPipe&#45;&gt;HomeModule -->
<g id="edge10" class="edge">
<title>CutStringPipe&#45;&gt;HomeModule</title>
<path fill="none" stroke="black" d="M2179,-85.08C2179,-106.12 2179,-137.8 2179,-137.8 2179,-137.8 1449.81,-137.8 1449.81,-137.8"/>
<polygon fill="black" stroke="black" points="1449.81,-134.3 1439.81,-137.8 1449.81,-141.3 1449.81,-134.3"/>
</g>
<!-- EntradaHabitacionModule -->
<g id="node12" class="node">
<title>EntradaHabitacionModule</title>
<polygon fill="#8dd3c7" stroke="black" points="2113,-84.8 2110,-88.8 2089,-88.8 2086,-84.8 1949,-84.8 1949,-48.8 2113,-48.8 2113,-84.8"/>
<text text-anchor="middle" x="2031" y="-62.6" font-family="Times,serif" font-size="14.00">EntradaHabitacionModule</text>
</g>
<!-- EntradaHabitacionModule&#45;&gt;HomeModule -->
<g id="edge11" class="edge">
<title>EntradaHabitacionModule&#45;&gt;HomeModule</title>
<path fill="none" stroke="black" d="M2031,-85.11C2031,-104.95 2031,-133.8 2031,-133.8 2031,-133.8 1449.91,-133.8 1449.91,-133.8"/>
<polygon fill="black" stroke="black" points="1449.91,-130.3 1439.91,-133.8 1449.91,-137.3 1449.91,-130.3"/>
</g>
<!-- HomeRoutingModule -->
<g id="node13" class="node">
<title>HomeRoutingModule</title>
<polygon fill="#8dd3c7" stroke="black" points="1930.38,-84.8 1927.38,-88.8 1906.38,-88.8 1903.38,-84.8 1791.62,-84.8 1791.62,-48.8 1930.38,-48.8 1930.38,-84.8"/>
<text text-anchor="middle" x="1861" y="-62.6" font-family="Times,serif" font-size="14.00">HomeRoutingModule</text>
</g>
<!-- HomeRoutingModule&#45;&gt;HomeModule -->
<g id="edge12" class="edge">
<title>HomeRoutingModule&#45;&gt;HomeModule</title>
<path fill="none" stroke="black" d="M1861,-85.02C1861,-103.63 1861,-129.8 1861,-129.8 1861,-129.8 1450.02,-129.8 1450.02,-129.8"/>
<polygon fill="black" stroke="black" points="1450.02,-126.3 1440.02,-129.8 1450.02,-133.3 1450.02,-126.3"/>
</g>
<!-- MaterialModule -->
<g id="node14" class="node">
<title>MaterialModule</title>
<polygon fill="#8dd3c7" stroke="black" points="1773.47,-84.8 1770.47,-88.8 1749.47,-88.8 1746.47,-84.8 1666.53,-84.8 1666.53,-48.8 1773.47,-48.8 1773.47,-84.8"/>
<text text-anchor="middle" x="1720" y="-62.6" font-family="Times,serif" font-size="14.00">MaterialModule</text>
</g>
<!-- MaterialModule&#45;&gt;HomeModule -->
<g id="edge13" class="edge">
<title>MaterialModule&#45;&gt;HomeModule</title>
<path fill="none" stroke="black" d="M1702.17,-84.81C1702.17,-100.85 1702.17,-121.8 1702.17,-121.8 1702.17,-121.8 1449.96,-121.8 1449.96,-121.8"/>
<polygon fill="black" stroke="black" points="1449.96,-118.3 1439.96,-121.8 1449.96,-125.3 1449.96,-118.3"/>
</g>
<!-- MaterialModule&#45;&gt;HomeModule -->
<g id="edge14" class="edge">
<title>MaterialModule&#45;&gt;HomeModule</title>
<path fill="none" stroke="black" d="M1737.83,-84.82C1737.83,-102.17 1737.83,-125.8 1737.83,-125.8 1737.83,-125.8 1449.86,-125.8 1449.86,-125.8"/>
<polygon fill="black" stroke="black" points="1449.86,-122.3 1439.86,-125.8 1449.86,-129.3 1449.86,-122.3"/>
</g>
<!-- PrimengModule -->
<g id="node15" class="node">
<title>PrimengModule</title>
<polygon fill="#8dd3c7" stroke="black" points="1648.49,-84.8 1645.49,-88.8 1624.49,-88.8 1621.49,-84.8 1541.51,-84.8 1541.51,-48.8 1648.49,-48.8 1648.49,-84.8"/>
<text text-anchor="middle" x="1595" y="-62.6" font-family="Times,serif" font-size="14.00">PrimengModule</text>
</g>
<!-- PrimengModule&#45;&gt;HomeModule -->
<g id="edge15" class="edge">
<title>PrimengModule&#45;&gt;HomeModule</title>
<path fill="none" stroke="black" d="M1595,-84.92C1595,-99.58 1595,-117.8 1595,-117.8 1595,-117.8 1449.85,-117.8 1449.85,-117.8"/>
<polygon fill="black" stroke="black" points="1449.85,-114.3 1439.85,-117.8 1449.85,-121.3 1449.85,-114.3"/>
</g>
<!-- RoomTypesModule -->
<g id="node16" class="node">
<title>RoomTypesModule</title>
<polygon fill="#8dd3c7" stroke="black" points="1523.99,-84.8 1520.99,-88.8 1499.99,-88.8 1496.99,-84.8 1396.01,-84.8 1396.01,-48.8 1523.99,-48.8 1523.99,-84.8"/>
<text text-anchor="middle" x="1460" y="-62.6" font-family="Times,serif" font-size="14.00">RoomTypesModule</text>
</g>
<!-- RoomTypesModule&#45;&gt;HomeModule -->
<g id="edge16" class="edge">
<title>RoomTypesModule&#45;&gt;HomeModule</title>
<path fill="none" stroke="black" d="M1417.94,-84.91C1417.94,-84.91 1417.94,-103.79 1417.94,-103.79"/>
<polygon fill="black" stroke="black" points="1414.44,-103.79 1417.94,-113.79 1421.44,-103.79 1414.44,-103.79"/>
</g>
<!-- SidebarModule -->
<g id="node17" class="node">
<title>SidebarModule</title>
<polygon fill="#8dd3c7" stroke="black" points="1378.32,-84.8 1375.32,-88.8 1354.32,-88.8 1351.32,-84.8 1275.68,-84.8 1275.68,-48.8 1378.32,-48.8 1378.32,-84.8"/>
<text text-anchor="middle" x="1327" y="-62.6" font-family="Times,serif" font-size="14.00">SidebarModule</text>
</g>
<!-- SidebarModule&#45;&gt;HomeModule -->
<g id="edge17" class="edge">
<title>SidebarModule&#45;&gt;HomeModule</title>
<path fill="none" stroke="black" d="M1362.14,-84.91C1362.14,-84.91 1362.14,-103.79 1362.14,-103.79"/>
<polygon fill="black" stroke="black" points="1358.64,-103.79 1362.14,-113.79 1365.64,-103.79 1358.64,-103.79"/>
</g>
<!-- HomeService -->
<g id="node18" class="node">
<title>HomeService</title>
<ellipse fill="#fdb462" stroke="black" cx="1188" cy="-66.8" rx="63.69" ry="18"/>
<text text-anchor="middle" x="1188" y="-62.6" font-family="Times,serif" font-size="14.00">HomeService</text>
</g>
<!-- HomeService&#45;&gt;HomeModule -->
<g id="edge18" class="edge">
<title>HomeService&#45;&gt;HomeModule</title>
<path fill="none" stroke="black" d="M1188,-84.92C1188,-99.58 1188,-117.8 1188,-117.8 1188,-117.8 1336.23,-117.8 1336.23,-117.8"/>
<polygon fill="black" stroke="black" points="1336.23,-121.3 1346.23,-117.8 1336.23,-114.3 1336.23,-121.3"/>
</g>
</g>
</svg>
