<?xml version="1.0" encoding="UTF-8" standalone="no"?>
<!DOCTYPE svg PUBLIC "-//W3C//DTD SVG 1.1//EN"
 "http://www.w3.org/Graphics/SVG/1.1/DTD/svg11.dtd">
<!-- Generated by graphviz version 5.0.0 (20220707.1540)
 -->
<!-- Title: dependencies Pages: 1 -->
<svg width="2563pt" height="174pt"
 viewBox="0.00 0.00 2563.00 173.80" xmlns="http://www.w3.org/2000/svg" xmlns:xlink="http://www.w3.org/1999/xlink">
<g id="graph0" class="graph" transform="scale(1 1) rotate(0) translate(4 169.8)">
<title>dependencies</title>
<polygon fill="white" stroke="transparent" points="-4,4 -4,-169.8 2559,-169.8 2559,4 -4,4"/>
<text text-anchor="middle" x="1277.5" y="-8.2" font-family="sans-serif" font-size="14.00">dependencies</text>
<g id="clust1" class="cluster">
<title>cluster_HomeModule</title>
<polygon fill="none" stroke="black" stroke-dasharray="1,5" points="8,-32.8 8,-157.8 2547,-157.8 2547,-32.8 8,-32.8"/>
</g>
<g id="clust2" class="cluster">
<title>cluster_HomeModule_declarations</title>
<polygon fill="none" stroke="black" points="1447,-40.8 1447,-92.8 2539,-92.8 2539,-40.8 1447,-40.8"/>
</g>
<g id="clust13" class="cluster">
<title>cluster_HomeModule_providers</title>
<polygon fill="none" stroke="black" points="1295,-40.8 1295,-92.8 1439,-92.8 1439,-40.8 1295,-40.8"/>
</g>
<g id="clust10" class="cluster">
<title>cluster_HomeModule_imports</title>
<polygon fill="none" stroke="black" points="16,-40.8 16,-92.8 1287,-92.8 1287,-40.8 16,-40.8"/>
</g>
<!-- DarEntradaHabitacionComponent -->
<g id="node1" class="node">
<title>DarEntradaHabitacionComponent</title>
<polygon fill="#ffffb3" stroke="black" points="2530.77,-84.8 2323.23,-84.8 2323.23,-48.8 2530.77,-48.8 2530.77,-84.8"/>
<text text-anchor="middle" x="2427" y="-62.6" font-family="Times,serif" font-size="14.00">DarEntradaHabitacionComponent</text>
</g>
<!-- HomeModule -->
<g id="node8" class="node">
<title>HomeModule</title>
<polygon fill="#8dd3c7" stroke="black" points="1191.77,-149.8 1188.77,-153.8 1167.77,-153.8 1164.77,-149.8 1098.23,-149.8 1098.23,-113.8 1191.77,-113.8 1191.77,-149.8"/>
<text text-anchor="middle" x="1145" y="-127.6" font-family="Times,serif" font-size="14.00">HomeModule</text>
</g>
<!-- DarEntradaHabitacionComponent&#45;&gt;HomeModule -->
<g id="edge1" class="edge">
<title>DarEntradaHabitacionComponent&#45;&gt;HomeModule</title>
<path fill="none" stroke="black" d="M2427,-85.12C2427,-108.46 2427,-145.8 2427,-145.8 2427,-145.8 1202.15,-145.8 1202.15,-145.8"/>
<polygon fill="black" stroke="black" points="1202.15,-142.3 1192.15,-145.8 1202.15,-149.3 1202.15,-142.3"/>
</g>
<!-- HomeComponent -->
<g id="node2" class="node">
<title>HomeComponent</title>
<polygon fill="#ffffb3" stroke="black" points="2305.55,-84.8 2190.45,-84.8 2190.45,-48.8 2305.55,-48.8 2305.55,-84.8"/>
<text text-anchor="middle" x="2248" y="-62.6" font-family="Times,serif" font-size="14.00">HomeComponent</text>
</g>
<!-- HomeComponent&#45;&gt;HomeModule -->
<g id="edge2" class="edge">
<title>HomeComponent&#45;&gt;HomeModule</title>
<path fill="none" stroke="black" d="M2248,-84.96C2248,-107.15 2248,-141.8 2248,-141.8 2248,-141.8 1202.04,-141.8 1202.04,-141.8"/>
<polygon fill="black" stroke="black" points="1202.04,-138.3 1192.04,-141.8 1202.04,-145.3 1202.04,-138.3"/>
</g>
<!-- LayoutComponent -->
<g id="node3" class="node">
<title>LayoutComponent</title>
<polygon fill="#ffffb3" stroke="black" points="2172.49,-84.8 2051.51,-84.8 2051.51,-48.8 2172.49,-48.8 2172.49,-84.8"/>
<text text-anchor="middle" x="2112" y="-62.6" font-family="Times,serif" font-size="14.00">LayoutComponent</text>
</g>
<!-- LayoutComponent&#45;&gt;HomeModule -->
<g id="edge3" class="edge">
<title>LayoutComponent&#45;&gt;HomeModule</title>
<path fill="none" stroke="black" d="M2112,-85.08C2112,-106.12 2112,-137.8 2112,-137.8 2112,-137.8 1201.97,-137.8 1201.97,-137.8"/>
<polygon fill="black" stroke="black" points="1201.97,-134.3 1191.97,-137.8 1201.97,-141.3 1201.97,-134.3"/>
</g>
<!-- LogoutDirective -->
<g id="node4" class="node">
<title>LogoutDirective</title>
<polygon fill="#ffffb3" stroke="black" points="2033.03,-84.8 1924.97,-84.8 1924.97,-48.8 2033.03,-48.8 2033.03,-84.8"/>
<text text-anchor="middle" x="1979" y="-62.6" font-family="Times,serif" font-size="14.00">LogoutDirective</text>
</g>
<!-- LogoutDirective&#45;&gt;HomeModule -->
<g id="edge4" class="edge">
<title>LogoutDirective&#45;&gt;HomeModule</title>
<path fill="none" stroke="black" d="M1979,-85.11C1979,-104.95 1979,-133.8 1979,-133.8 1979,-133.8 1201.93,-133.8 1201.93,-133.8"/>
<polygon fill="black" stroke="black" points="1201.93,-130.3 1191.93,-133.8 1201.93,-137.3 1201.93,-130.3"/>
</g>
<!-- NavMenuComponent -->
<g id="node5" class="node">
<title>NavMenuComponent</title>
<polygon fill="#ffffb3" stroke="black" points="1906.82,-84.8 1769.18,-84.8 1769.18,-48.8 1906.82,-48.8 1906.82,-84.8"/>
<text text-anchor="middle" x="1838" y="-62.6" font-family="Times,serif" font-size="14.00">NavMenuComponent</text>
</g>
<!-- NavMenuComponent&#45;&gt;HomeModule -->
<g id="edge5" class="edge">
<title>NavMenuComponent&#45;&gt;HomeModule</title>
<path fill="none" stroke="black" d="M1838,-85.02C1838,-103.63 1838,-129.8 1838,-129.8 1838,-129.8 1201.82,-129.8 1201.82,-129.8"/>
<polygon fill="black" stroke="black" points="1201.82,-126.3 1191.82,-129.8 1201.82,-133.3 1201.82,-126.3"/>
</g>
<!-- SidebarHiddenComponent -->
<g id="node6" class="node">
<title>SidebarHiddenComponent</title>
<polygon fill="#ffffb3" stroke="black" points="1751.81,-84.8 1586.19,-84.8 1586.19,-48.8 1751.81,-48.8 1751.81,-84.8"/>
<text text-anchor="middle" x="1669" y="-62.6" font-family="Times,serif" font-size="14.00">SidebarHiddenComponent</text>
</g>
<!-- SidebarHiddenComponent&#45;&gt;HomeModule -->
<g id="edge6" class="edge">
<title>SidebarHiddenComponent&#45;&gt;HomeModule</title>
<path fill="none" stroke="black" d="M1669,-84.82C1669,-102.17 1669,-125.8 1669,-125.8 1669,-125.8 1201.96,-125.8 1201.96,-125.8"/>
<polygon fill="black" stroke="black" points="1201.96,-122.3 1191.96,-125.8 1201.96,-129.3 1201.96,-122.3"/>
</g>
<!-- SidenavDirective -->
<g id="node7" class="node">
<title>SidenavDirective</title>
<polygon fill="#ffffb3" stroke="black" points="1568.69,-84.8 1455.31,-84.8 1455.31,-48.8 1568.69,-48.8 1568.69,-84.8"/>
<text text-anchor="middle" x="1512" y="-62.6" font-family="Times,serif" font-size="14.00">SidenavDirective</text>
</g>
<!-- SidenavDirective&#45;&gt;HomeModule -->
<g id="edge7" class="edge">
<title>SidenavDirective&#45;&gt;HomeModule</title>
<path fill="none" stroke="black" d="M1512,-84.81C1512,-100.85 1512,-121.8 1512,-121.8 1512,-121.8 1201.85,-121.8 1201.85,-121.8"/>
<polygon fill="black" stroke="black" points="1201.85,-118.3 1191.85,-121.8 1201.85,-125.3 1201.85,-118.3"/>
</g>
<!-- CatalogosModule -->
<g id="node9" class="node">
<title>CatalogosModule</title>
<polygon fill="#8dd3c7" stroke="black" points="1278.55,-84.8 1275.55,-88.8 1254.55,-88.8 1251.55,-84.8 1163.45,-84.8 1163.45,-48.8 1278.55,-48.8 1278.55,-84.8"/>
<text text-anchor="middle" x="1221" y="-62.6" font-family="Times,serif" font-size="14.00">CatalogosModule</text>
</g>
<!-- CatalogosModule&#45;&gt;HomeModule -->
<g id="edge8" class="edge">
<title>CatalogosModule&#45;&gt;HomeModule</title>
<path fill="none" stroke="black" d="M1177.56,-84.91C1177.56,-84.91 1177.56,-103.79 1177.56,-103.79"/>
<polygon fill="black" stroke="black" points="1174.06,-103.79 1177.56,-113.79 1181.06,-103.79 1174.06,-103.79"/>
</g>
<!-- ConfiguracionesModule -->
<g id="node10" class="node">
<title>ConfiguracionesModule</title>
<polygon fill="#8dd3c7" stroke="black" points="1145.08,-84.8 1142.08,-88.8 1121.08,-88.8 1118.08,-84.8 992.92,-84.8 992.92,-48.8 1145.08,-48.8 1145.08,-84.8"/>
<text text-anchor="middle" x="1069" y="-62.6" font-family="Times,serif" font-size="14.00">ConfiguracionesModule</text>
</g>
<!-- ConfiguracionesModule&#45;&gt;HomeModule -->
<g id="edge9" class="edge">
<title>ConfiguracionesModule&#45;&gt;HomeModule</title>
<path fill="none" stroke="black" d="M1121.58,-84.91C1121.58,-84.91 1121.58,-103.79 1121.58,-103.79"/>
<polygon fill="black" stroke="black" points="1118.08,-103.79 1121.58,-113.79 1125.08,-103.79 1118.08,-103.79"/>
</g>
<!-- CutStringPipe -->
<g id="node11" class="node">
<title>CutStringPipe</title>
<polygon fill="#8dd3c7" stroke="black" points="974.85,-84.8 971.85,-88.8 950.85,-88.8 947.85,-84.8 879.15,-84.8 879.15,-48.8 974.85,-48.8 974.85,-84.8"/>
<text text-anchor="middle" x="927" y="-62.6" font-family="Times,serif" font-size="14.00">CutStringPipe</text>
</g>
<!-- CutStringPipe&#45;&gt;HomeModule -->
<g id="edge10" class="edge">
<title>CutStringPipe&#45;&gt;HomeModule</title>
<path fill="none" stroke="black" d="M927,-84.92C927,-99.58 927,-117.8 927,-117.8 927,-117.8 1088.23,-117.8 1088.23,-117.8"/>
<polygon fill="black" stroke="black" points="1088.23,-121.3 1098.23,-117.8 1088.23,-114.3 1088.23,-121.3"/>
</g>
<!-- EntradaHabitacionModule -->
<g id="node12" class="node">
<title>EntradaHabitacionModule</title>
<polygon fill="#8dd3c7" stroke="black" points="861,-84.8 858,-88.8 837,-88.8 834,-84.8 697,-84.8 697,-48.8 861,-48.8 861,-84.8"/>
<text text-anchor="middle" x="779" y="-62.6" font-family="Times,serif" font-size="14.00">EntradaHabitacionModule</text>
</g>
<!-- EntradaHabitacionModule&#45;&gt;HomeModule -->
<g id="edge11" class="edge">
<title>EntradaHabitacionModule&#45;&gt;HomeModule</title>
<path fill="none" stroke="black" d="M779,-84.81C779,-100.85 779,-121.8 779,-121.8 779,-121.8 1087.9,-121.8 1087.9,-121.8"/>
<polygon fill="black" stroke="black" points="1087.9,-125.3 1097.9,-121.8 1087.9,-118.3 1087.9,-125.3"/>
</g>
<!-- HomeRoutingModule -->
<g id="node13" class="node">
<title>HomeRoutingModule</title>
<polygon fill="#8dd3c7" stroke="black" points="678.38,-84.8 675.38,-88.8 654.38,-88.8 651.38,-84.8 539.62,-84.8 539.62,-48.8 678.38,-48.8 678.38,-84.8"/>
<text text-anchor="middle" x="609" y="-62.6" font-family="Times,serif" font-size="14.00">HomeRoutingModule</text>
</g>
<!-- HomeRoutingModule&#45;&gt;HomeModule -->
<g id="edge12" class="edge">
<title>HomeRoutingModule&#45;&gt;HomeModule</title>
<path fill="none" stroke="black" d="M609,-84.82C609,-102.17 609,-125.8 609,-125.8 609,-125.8 1087.9,-125.8 1087.9,-125.8"/>
<polygon fill="black" stroke="black" points="1087.9,-129.3 1097.9,-125.8 1087.9,-122.3 1087.9,-129.3"/>
</g>
<!-- MaterialModule -->
<g id="node14" class="node">
<title>MaterialModule</title>
<polygon fill="#8dd3c7" stroke="black" points="521.47,-84.8 518.47,-88.8 497.47,-88.8 494.47,-84.8 414.53,-84.8 414.53,-48.8 521.47,-48.8 521.47,-84.8"/>
<text text-anchor="middle" x="468" y="-62.6" font-family="Times,serif" font-size="14.00">MaterialModule</text>
</g>
<!-- MaterialModule&#45;&gt;HomeModule -->
<g id="edge13" class="edge">
<title>MaterialModule&#45;&gt;HomeModule</title>
<path fill="none" stroke="black" d="M450.17,-85.11C450.17,-104.95 450.17,-133.8 450.17,-133.8 450.17,-133.8 1088.06,-133.8 1088.06,-133.8"/>
<polygon fill="black" stroke="black" points="1088.06,-137.3 1098.06,-133.8 1088.06,-130.3 1088.06,-137.3"/>
</g>
<!-- MaterialModule&#45;&gt;HomeModule -->
<g id="edge14" class="edge">
<title>MaterialModule&#45;&gt;HomeModule</title>
<path fill="none" stroke="black" d="M485.83,-85.02C485.83,-103.63 485.83,-129.8 485.83,-129.8 485.83,-129.8 1088.12,-129.8 1088.12,-129.8"/>
<polygon fill="black" stroke="black" points="1088.12,-133.3 1098.12,-129.8 1088.12,-126.3 1088.12,-133.3"/>
</g>
<!-- PrimengModule -->
<g id="node15" class="node">
<title>PrimengModule</title>
<polygon fill="#8dd3c7" stroke="black" points="396.49,-84.8 393.49,-88.8 372.49,-88.8 369.49,-84.8 289.51,-84.8 289.51,-48.8 396.49,-48.8 396.49,-84.8"/>
<text text-anchor="middle" x="343" y="-62.6" font-family="Times,serif" font-size="14.00">PrimengModule</text>
</g>
<!-- PrimengModule&#45;&gt;HomeModule -->
<g id="edge15" class="edge">
<title>PrimengModule&#45;&gt;HomeModule</title>
<path fill="none" stroke="black" d="M343,-85.08C343,-106.12 343,-137.8 343,-137.8 343,-137.8 1088.12,-137.8 1088.12,-137.8"/>
<polygon fill="black" stroke="black" points="1088.12,-141.3 1098.12,-137.8 1088.12,-134.3 1088.12,-141.3"/>
</g>
<!-- RoomTypesModule -->
<g id="node16" class="node">
<title>RoomTypesModule</title>
<polygon fill="#8dd3c7" stroke="black" points="271.99,-84.8 268.99,-88.8 247.99,-88.8 244.99,-84.8 144.01,-84.8 144.01,-48.8 271.99,-48.8 271.99,-84.8"/>
<text text-anchor="middle" x="208" y="-62.6" font-family="Times,serif" font-size="14.00">RoomTypesModule</text>
</g>
<!-- RoomTypesModule&#45;&gt;HomeModule -->
<g id="edge16" class="edge">
<title>RoomTypesModule&#45;&gt;HomeModule</title>
<path fill="none" stroke="black" d="M208,-84.96C208,-107.15 208,-141.8 208,-141.8 208,-141.8 1088.21,-141.8 1088.21,-141.8"/>
<polygon fill="black" stroke="black" points="1088.21,-145.3 1098.21,-141.8 1088.21,-138.3 1088.21,-145.3"/>
</g>
<!-- SidebarModule -->
<g id="node17" class="node">
<title>SidebarModule</title>
<polygon fill="#8dd3c7" stroke="black" points="126.32,-84.8 123.32,-88.8 102.32,-88.8 99.32,-84.8 23.68,-84.8 23.68,-48.8 126.32,-48.8 126.32,-84.8"/>
<text text-anchor="middle" x="75" y="-62.6" font-family="Times,serif" font-size="14.00">SidebarModule</text>
</g>
<!-- SidebarModule&#45;&gt;HomeModule -->
<g id="edge17" class="edge">
<title>SidebarModule&#45;&gt;HomeModule</title>
<path fill="none" stroke="black" d="M75,-85.12C75,-108.46 75,-145.8 75,-145.8 75,-145.8 1087.99,-145.8 1087.99,-145.8"/>
<polygon fill="black" stroke="black" points="1087.99,-149.3 1097.99,-145.8 1087.99,-142.3 1087.99,-149.3"/>
</g>
<!-- HomeService -->
<g id="node18" class="node">
<title>HomeService</title>
<ellipse fill="#fdb462" stroke="black" cx="1367" cy="-66.8" rx="63.69" ry="18"/>
<text text-anchor="middle" x="1367" y="-62.6" font-family="Times,serif" font-size="14.00">HomeService</text>
</g>
<!-- HomeService&#45;&gt;HomeModule -->
<g id="edge18" class="edge">
<title>HomeService&#45;&gt;HomeModule</title>
<path fill="none" stroke="black" d="M1367,-84.92C1367,-99.58 1367,-117.8 1367,-117.8 1367,-117.8 1201.81,-117.8 1201.81,-117.8"/>
<polygon fill="black" stroke="black" points="1201.81,-114.3 1191.81,-117.8 1201.81,-121.3 1201.81,-114.3"/>
</g>
</g>
</svg>
