<?xml version="1.0" encoding="UTF-8" standalone="no"?>
<!DOCTYPE svg PUBLIC "-//W3C//DTD SVG 1.1//EN"
 "http://www.w3.org/Graphics/SVG/1.1/DTD/svg11.dtd">
<!-- Generated by graphviz version 5.0.0 (20220707.1540)
 -->
<!-- Title: dependencies Pages: 1 -->
<svg width="392pt" height="174pt"
 viewBox="0.00 0.00 392.00 173.80" xmlns="http://www.w3.org/2000/svg" xmlns:xlink="http://www.w3.org/1999/xlink">
<g id="graph0" class="graph" transform="scale(1 1) rotate(0) translate(4 169.8)">
<title>dependencies</title>
<polygon fill="white" stroke="transparent" points="-4,4 -4,-169.8 388,-169.8 388,4 -4,4"/>
<text text-anchor="middle" x="192" y="-8.2" font-family="sans-serif" font-size="14.00">dependencies</text>
<g id="clust1" class="cluster">
<title>cluster_ConceptosMantenimientoModule</title>
<polygon fill="none" stroke="black" stroke-dasharray="1,5" points="8,-32.8 8,-157.8 376,-157.8 376,-32.8 8,-32.8"/>
</g>
<g id="clust2" class="cluster">
<title>cluster_ConceptosMantenimientoModule_declarations</title>
<polygon fill="none" stroke="black" points="126,-40.8 126,-92.8 368,-92.8 368,-40.8 126,-40.8"/>
</g>
<g id="clust4" class="cluster">
<title>cluster_ConceptosMantenimientoModule_imports</title>
<polygon fill="none" stroke="black" points="16,-40.8 16,-92.8 118,-92.8 118,-40.8 16,-40.8"/>
</g>
<!-- ConceptosMantenimientoComponent -->
<g id="node1" class="node">
<title>ConceptosMantenimientoComponent</title>
<polygon fill="#ffffb3" stroke="black" points="359.97,-84.8 134.03,-84.8 134.03,-48.8 359.97,-48.8 359.97,-84.8"/>
<text text-anchor="middle" x="247" y="-62.6" font-family="Times,serif" font-size="14.00">ConceptosMantenimientoComponent</text>
</g>
<!-- ConceptosMantenimientoModule -->
<g id="node2" class="node">
<title>ConceptosMantenimientoModule</title>
<polygon fill="#8dd3c7" stroke="black" points="284.19,-149.8 281.19,-153.8 260.19,-153.8 257.19,-149.8 79.81,-149.8 79.81,-113.8 284.19,-113.8 284.19,-149.8"/>
<text text-anchor="middle" x="182" y="-127.6" font-family="Times,serif" font-size="14.00">ConceptosMantenimientoModule</text>
</g>
<!-- ConceptosMantenimientoComponent&#45;&gt;ConceptosMantenimientoModule -->
<g id="edge1" class="edge">
<title>ConceptosMantenimientoComponent&#45;&gt;ConceptosMantenimientoModule</title>
<path fill="none" stroke="black" d="M209.06,-84.91C209.06,-84.91 209.06,-103.79 209.06,-103.79"/>
<polygon fill="black" stroke="black" points="205.56,-103.79 209.06,-113.79 212.56,-103.79 205.56,-103.79"/>
</g>
<!-- CoreModule -->
<g id="node3" class="node">
<title>CoreModule</title>
<polygon fill="#8dd3c7" stroke="black" points="110.27,-84.8 107.27,-88.8 86.27,-88.8 83.27,-84.8 23.73,-84.8 23.73,-48.8 110.27,-48.8 110.27,-84.8"/>
<text text-anchor="middle" x="67" y="-62.6" font-family="Times,serif" font-size="14.00">CoreModule</text>
</g>
<!-- CoreModule&#45;&gt;ConceptosMantenimientoModule -->
<g id="edge2" class="edge">
<title>CoreModule&#45;&gt;ConceptosMantenimientoModule</title>
<path fill="none" stroke="black" d="M95.14,-84.91C95.14,-84.91 95.14,-103.79 95.14,-103.79"/>
<polygon fill="black" stroke="black" points="91.64,-103.79 95.14,-113.79 98.64,-103.79 91.64,-103.79"/>
</g>
</g>
</svg>
