<?xml version="1.0" encoding="UTF-8" standalone="no"?>
<!DOCTYPE svg PUBLIC "-//W3C//DTD SVG 1.1//EN"
 "http://www.w3.org/Graphics/SVG/1.1/DTD/svg11.dtd">
<!-- Generated by graphviz version 5.0.0 (20220707.1540)
 -->
<!-- Title: dependencies Pages: 1 -->
<svg width="1230pt" height="174pt"
 viewBox="0.00 0.00 1230.00 173.80" xmlns="http://www.w3.org/2000/svg" xmlns:xlink="http://www.w3.org/1999/xlink">
<g id="graph0" class="graph" transform="scale(1 1) rotate(0) translate(4 169.8)">
<title>dependencies</title>
<polygon fill="white" stroke="transparent" points="-4,4 -4,-169.8 1226,-169.8 1226,4 -4,4"/>
<text text-anchor="middle" x="611" y="-8.2" font-family="sans-serif" font-size="14.00">dependencies</text>
<g id="clust1" class="cluster">
<title>cluster_ConceptosMantenimientoModule</title>
<polygon fill="none" stroke="black" stroke-dasharray="1,5" points="8,-32.8 8,-157.8 1214,-157.8 1214,-32.8 8,-32.8"/>
</g>
<g id="clust6" class="cluster">
<title>cluster_ConceptosMantenimientoModule_imports</title>
<polygon fill="none" stroke="black" points="836,-40.8 836,-92.8 1206,-92.8 1206,-40.8 836,-40.8"/>
</g>
<g id="clust2" class="cluster">
<title>cluster_ConceptosMantenimientoModule_declarations</title>
<polygon fill="none" stroke="black" points="16,-40.8 16,-92.8 828,-92.8 828,-40.8 16,-40.8"/>
</g>
<!-- ConceptosMantenimientoComponent -->
<g id="node1" class="node">
<title>ConceptosMantenimientoComponent</title>
<polygon fill="#ffffb3" stroke="black" points="819.97,-84.8 594.03,-84.8 594.03,-48.8 819.97,-48.8 819.97,-84.8"/>
<text text-anchor="middle" x="707" y="-62.6" font-family="Times,serif" font-size="14.00">ConceptosMantenimientoComponent</text>
</g>
<!-- ConceptosMantenimientoModule -->
<g id="node4" class="node">
<title>ConceptosMantenimientoModule</title>
<polygon fill="#8dd3c7" stroke="black" points="809.19,-149.8 806.19,-153.8 785.19,-153.8 782.19,-149.8 604.81,-149.8 604.81,-113.8 809.19,-113.8 809.19,-149.8"/>
<text text-anchor="middle" x="707" y="-127.6" font-family="Times,serif" font-size="14.00">ConceptosMantenimientoModule</text>
</g>
<!-- ConceptosMantenimientoComponent&#45;&gt;ConceptosMantenimientoModule -->
<g id="edge1" class="edge">
<title>ConceptosMantenimientoComponent&#45;&gt;ConceptosMantenimientoModule</title>
<path fill="none" stroke="black" d="M707,-84.91C707,-84.91 707,-103.79 707,-103.79"/>
<polygon fill="black" stroke="black" points="703.5,-103.79 707,-113.79 710.5,-103.79 703.5,-103.79"/>
</g>
<!-- CrearConceptoMantenimientoComponent -->
<g id="node2" class="node">
<title>CrearConceptoMantenimientoComponent</title>
<polygon fill="#ffffb3" stroke="black" points="575.61,-84.8 324.39,-84.8 324.39,-48.8 575.61,-48.8 575.61,-84.8"/>
<text text-anchor="middle" x="450" y="-62.6" font-family="Times,serif" font-size="14.00">CrearConceptoMantenimientoComponent</text>
</g>
<!-- CrearConceptoMantenimientoComponent&#45;&gt;ConceptosMantenimientoModule -->
<g id="edge2" class="edge">
<title>CrearConceptoMantenimientoComponent&#45;&gt;ConceptosMantenimientoModule</title>
<path fill="none" stroke="black" d="M450,-84.82C450,-102.17 450,-125.8 450,-125.8 450,-125.8 594.69,-125.8 594.69,-125.8"/>
<polygon fill="black" stroke="black" points="594.69,-129.3 604.69,-125.8 594.69,-122.3 594.69,-129.3"/>
</g>
<!-- ModificarConceptosMantenimientoComponent -->
<g id="node3" class="node">
<title>ModificarConceptosMantenimientoComponent</title>
<polygon fill="#ffffb3" stroke="black" points="305.95,-84.8 24.05,-84.8 24.05,-48.8 305.95,-48.8 305.95,-84.8"/>
<text text-anchor="middle" x="165" y="-62.6" font-family="Times,serif" font-size="14.00">ModificarConceptosMantenimientoComponent</text>
</g>
<!-- ModificarConceptosMantenimientoComponent&#45;&gt;ConceptosMantenimientoModule -->
<g id="edge3" class="edge">
<title>ModificarConceptosMantenimientoComponent&#45;&gt;ConceptosMantenimientoModule</title>
<path fill="none" stroke="black" d="M165,-85.08C165,-106.12 165,-137.8 165,-137.8 165,-137.8 594.74,-137.8 594.74,-137.8"/>
<polygon fill="black" stroke="black" points="594.74,-141.3 604.74,-137.8 594.74,-134.3 594.74,-141.3"/>
</g>
<!-- ConceptosMantenimientoRoutingModule -->
<g id="node5" class="node">
<title>ConceptosMantenimientoRoutingModule</title>
<polygon fill="#8dd3c7" stroke="black" points="1197.81,-84.8 1194.81,-88.8 1173.81,-88.8 1170.81,-84.8 948.19,-84.8 948.19,-48.8 1197.81,-48.8 1197.81,-84.8"/>
<text text-anchor="middle" x="1073" y="-62.6" font-family="Times,serif" font-size="14.00">ConceptosMantenimientoRoutingModule</text>
</g>
<!-- ConceptosMantenimientoRoutingModule&#45;&gt;ConceptosMantenimientoModule -->
<g id="edge4" class="edge">
<title>ConceptosMantenimientoRoutingModule&#45;&gt;ConceptosMantenimientoModule</title>
<path fill="none" stroke="black" d="M1073,-85.08C1073,-106.12 1073,-137.8 1073,-137.8 1073,-137.8 819.44,-137.8 819.44,-137.8"/>
<polygon fill="black" stroke="black" points="819.44,-134.3 809.44,-137.8 819.44,-141.3 819.44,-134.3"/>
</g>
<!-- CoreModule -->
<g id="node6" class="node">
<title>CoreModule</title>
<polygon fill="#8dd3c7" stroke="black" points="930.27,-84.8 927.27,-88.8 906.27,-88.8 903.27,-84.8 843.73,-84.8 843.73,-48.8 930.27,-48.8 930.27,-84.8"/>
<text text-anchor="middle" x="887" y="-62.6" font-family="Times,serif" font-size="14.00">CoreModule</text>
</g>
<!-- CoreModule&#45;&gt;ConceptosMantenimientoModule -->
<g id="edge5" class="edge">
<title>CoreModule&#45;&gt;ConceptosMantenimientoModule</title>
<path fill="none" stroke="black" d="M887,-84.82C887,-102.17 887,-125.8 887,-125.8 887,-125.8 819.36,-125.8 819.36,-125.8"/>
<polygon fill="black" stroke="black" points="819.36,-122.3 809.36,-125.8 819.36,-129.3 819.36,-122.3"/>
</g>
</g>
</svg>
