<?xml version="1.0" encoding="UTF-8" standalone="no"?>
<!DOCTYPE svg PUBLIC "-//W3C//DTD SVG 1.1//EN"
 "http://www.w3.org/Graphics/SVG/1.1/DTD/svg11.dtd">
<!-- Generated by graphviz version 5.0.0 (20220707.1540)
 -->
<!-- Title: dependencies Pages: 1 -->
<svg width="850pt" height="174pt"
 viewBox="0.00 0.00 850.00 173.80" xmlns="http://www.w3.org/2000/svg" xmlns:xlink="http://www.w3.org/1999/xlink">
<g id="graph0" class="graph" transform="scale(1 1) rotate(0) translate(4 169.8)">
<title>dependencies</title>
<polygon fill="white" stroke="transparent" points="-4,4 -4,-169.8 846,-169.8 846,4 -4,4"/>
<text text-anchor="middle" x="421" y="-8.2" font-family="sans-serif" font-size="14.00">dependencies</text>
<g id="clust1" class="cluster">
<title>cluster_ReservacionModule</title>
<polygon fill="none" stroke="black" stroke-dasharray="1,5" points="8,-32.8 8,-157.8 834,-157.8 834,-32.8 8,-32.8"/>
</g>
<g id="clust6" class="cluster">
<title>cluster_ReservacionModule_imports</title>
<polygon fill="none" stroke="black" points="636,-40.8 636,-92.8 826,-92.8 826,-40.8 636,-40.8"/>
</g>
<g id="clust2" class="cluster">
<title>cluster_ReservacionModule_declarations</title>
<polygon fill="none" stroke="black" points="16,-40.8 16,-92.8 628,-92.8 628,-40.8 16,-40.8"/>
</g>
<!-- AsignarReservacionComponent -->
<g id="node1" class="node">
<title>AsignarReservacionComponent</title>
<polygon fill="#ffffb3" stroke="black" points="620.35,-84.8 425.65,-84.8 425.65,-48.8 620.35,-48.8 620.35,-84.8"/>
<text text-anchor="middle" x="523" y="-62.6" font-family="Times,serif" font-size="14.00">AsignarReservacionComponent</text>
</g>
<!-- ReservacionModule -->
<g id="node4" class="node">
<title>ReservacionModule</title>
<polygon fill="#8dd3c7" stroke="black" points="475.25,-149.8 472.25,-153.8 451.25,-153.8 448.25,-149.8 346.75,-149.8 346.75,-113.8 475.25,-113.8 475.25,-149.8"/>
<text text-anchor="middle" x="411" y="-127.6" font-family="Times,serif" font-size="14.00">ReservacionModule</text>
</g>
<!-- AsignarReservacionComponent&#45;&gt;ReservacionModule -->
<g id="edge1" class="edge">
<title>AsignarReservacionComponent&#45;&gt;ReservacionModule</title>
<path fill="none" stroke="black" d="M450.47,-84.91C450.47,-84.91 450.47,-103.79 450.47,-103.79"/>
<polygon fill="black" stroke="black" points="446.97,-103.79 450.47,-113.79 453.97,-103.79 446.97,-103.79"/>
</g>
<!-- ComponentReservacionComponent -->
<g id="node2" class="node">
<title>ComponentReservacionComponent</title>
<polygon fill="#ffffb3" stroke="black" points="407.86,-84.8 192.14,-84.8 192.14,-48.8 407.86,-48.8 407.86,-84.8"/>
<text text-anchor="middle" x="300" y="-62.6" font-family="Times,serif" font-size="14.00">ComponentReservacionComponent</text>
</g>
<!-- ComponentReservacionComponent&#45;&gt;ReservacionModule -->
<g id="edge2" class="edge">
<title>ComponentReservacionComponent&#45;&gt;ReservacionModule</title>
<path fill="none" stroke="black" d="M377.28,-84.91C377.28,-84.91 377.28,-103.79 377.28,-103.79"/>
<polygon fill="black" stroke="black" points="373.78,-103.79 377.28,-113.79 380.78,-103.79 373.78,-103.79"/>
</g>
<!-- ReservacionComponent -->
<g id="node3" class="node">
<title>ReservacionComponent</title>
<polygon fill="#ffffb3" stroke="black" points="174.03,-84.8 23.97,-84.8 23.97,-48.8 174.03,-48.8 174.03,-84.8"/>
<text text-anchor="middle" x="99" y="-62.6" font-family="Times,serif" font-size="14.00">ReservacionComponent</text>
</g>
<!-- ReservacionComponent&#45;&gt;ReservacionModule -->
<g id="edge3" class="edge">
<title>ReservacionComponent&#45;&gt;ReservacionModule</title>
<path fill="none" stroke="black" d="M99,-84.91C99,-104.14 99,-131.8 99,-131.8 99,-131.8 336.73,-131.8 336.73,-131.8"/>
<polygon fill="black" stroke="black" points="336.73,-135.3 346.73,-131.8 336.73,-128.3 336.73,-135.3"/>
</g>
<!-- ReservacionRoutingModule -->
<g id="node5" class="node">
<title>ReservacionRoutingModule</title>
<polygon fill="#8dd3c7" stroke="black" points="817.86,-84.8 814.86,-88.8 793.86,-88.8 790.86,-84.8 644.14,-84.8 644.14,-48.8 817.86,-48.8 817.86,-84.8"/>
<text text-anchor="middle" x="731" y="-62.6" font-family="Times,serif" font-size="14.00">ReservacionRoutingModule</text>
</g>
<!-- ReservacionRoutingModule&#45;&gt;ReservacionModule -->
<g id="edge4" class="edge">
<title>ReservacionRoutingModule&#45;&gt;ReservacionModule</title>
<path fill="none" stroke="black" d="M731,-84.91C731,-104.14 731,-131.8 731,-131.8 731,-131.8 485.37,-131.8 485.37,-131.8"/>
<polygon fill="black" stroke="black" points="485.37,-128.3 475.37,-131.8 485.37,-135.3 485.37,-128.3"/>
</g>
</g>
</svg>
