<?xml version="1.0" encoding="UTF-8" standalone="no"?>
<!DOCTYPE svg PUBLIC "-//W3C//DTD SVG 1.1//EN"
 "http://www.w3.org/Graphics/SVG/1.1/DTD/svg11.dtd">
<!-- Generated by graphviz version 5.0.0 (20220707.1540)
 -->
<!-- Title: dependencies Pages: 1 -->
<svg width="652pt" height="174pt"
 viewBox="0.00 0.00 652.00 173.80" xmlns="http://www.w3.org/2000/svg" xmlns:xlink="http://www.w3.org/1999/xlink">
<g id="graph0" class="graph" transform="scale(1 1) rotate(0) translate(4 169.8)">
<title>dependencies</title>
<polygon fill="white" stroke="transparent" points="-4,4 -4,-169.8 648,-169.8 648,4 -4,4"/>
<text text-anchor="middle" x="322" y="-8.2" font-family="sans-serif" font-size="14.00">dependencies</text>
<g id="clust1" class="cluster">
<title>cluster_ReservacionModule</title>
<polygon fill="none" stroke="black" stroke-dasharray="1,5" points="8,-32.8 8,-157.8 636,-157.8 636,-32.8 8,-32.8"/>
</g>
<g id="clust2" class="cluster">
<title>cluster_ReservacionModule_declarations</title>
<polygon fill="none" stroke="black" points="16,-40.8 16,-92.8 628,-92.8 628,-40.8 16,-40.8"/>
</g>
<!-- AsignarReservacionComponent -->
<g id="node1" class="node">
<title>AsignarReservacionComponent</title>
<polygon fill="#ffffb3" stroke="black" points="620.35,-84.8 425.65,-84.8 425.65,-48.8 620.35,-48.8 620.35,-84.8"/>
<text text-anchor="middle" x="523" y="-62.6" font-family="Times,serif" font-size="14.00">AsignarReservacionComponent</text>
</g>
<!-- ReservacionModule -->
<g id="node4" class="node">
<title>ReservacionModule</title>
<polygon fill="#8dd3c7" stroke="black" points="364.25,-149.8 361.25,-153.8 340.25,-153.8 337.25,-149.8 235.75,-149.8 235.75,-113.8 364.25,-113.8 364.25,-149.8"/>
<text text-anchor="middle" x="300" y="-127.6" font-family="Times,serif" font-size="14.00">ReservacionModule</text>
</g>
<!-- AsignarReservacionComponent&#45;&gt;ReservacionModule -->
<g id="edge1" class="edge">
<title>AsignarReservacionComponent&#45;&gt;ReservacionModule</title>
<path fill="none" stroke="black" d="M523,-84.91C523,-104.14 523,-131.8 523,-131.8 523,-131.8 374.5,-131.8 374.5,-131.8"/>
<polygon fill="black" stroke="black" points="374.5,-128.3 364.5,-131.8 374.5,-135.3 374.5,-128.3"/>
</g>
<!-- ComponentReservacionComponent -->
<g id="node2" class="node">
<title>ComponentReservacionComponent</title>
<polygon fill="#ffffb3" stroke="black" points="407.86,-84.8 192.14,-84.8 192.14,-48.8 407.86,-48.8 407.86,-84.8"/>
<text text-anchor="middle" x="300" y="-62.6" font-family="Times,serif" font-size="14.00">ComponentReservacionComponent</text>
</g>
<!-- ComponentReservacionComponent&#45;&gt;ReservacionModule -->
<g id="edge2" class="edge">
<title>ComponentReservacionComponent&#45;&gt;ReservacionModule</title>
<path fill="none" stroke="black" d="M300,-84.91C300,-84.91 300,-103.79 300,-103.79"/>
<polygon fill="black" stroke="black" points="296.5,-103.79 300,-113.79 303.5,-103.79 296.5,-103.79"/>
</g>
<!-- ReservacionComponent -->
<g id="node3" class="node">
<title>ReservacionComponent</title>
<polygon fill="#ffffb3" stroke="black" points="174.03,-84.8 23.97,-84.8 23.97,-48.8 174.03,-48.8 174.03,-84.8"/>
<text text-anchor="middle" x="99" y="-62.6" font-family="Times,serif" font-size="14.00">ReservacionComponent</text>
</g>
<!-- ReservacionComponent&#45;&gt;ReservacionModule -->
<g id="edge3" class="edge">
<title>ReservacionComponent&#45;&gt;ReservacionModule</title>
<path fill="none" stroke="black" d="M99,-84.91C99,-104.14 99,-131.8 99,-131.8 99,-131.8 225.57,-131.8 225.57,-131.8"/>
<polygon fill="black" stroke="black" points="225.57,-135.3 235.57,-131.8 225.57,-128.3 225.57,-135.3"/>
</g>
</g>
</svg>
