<?xml version="1.0" encoding="UTF-8" standalone="no"?>
<!DOCTYPE svg PUBLIC "-//W3C//DTD SVG 1.1//EN"
 "http://www.w3.org/Graphics/SVG/1.1/DTD/svg11.dtd">
<!-- Generated by graphviz version 5.0.0 (20220707.1540)
 -->
<!-- Title: dependencies Pages: 1 -->
<svg width="202pt" height="174pt"
 viewBox="0.00 0.00 202.00 173.80" xmlns="http://www.w3.org/2000/svg" xmlns:xlink="http://www.w3.org/1999/xlink">
<g id="graph0" class="graph" transform="scale(1 1) rotate(0) translate(4 169.8)">
<title>dependencies</title>
<polygon fill="white" stroke="transparent" points="-4,4 -4,-169.8 198,-169.8 198,4 -4,4"/>
<text text-anchor="middle" x="97" y="-8.2" font-family="sans-serif" font-size="14.00">dependencies</text>
<g id="clust1" class="cluster">
<title>cluster_FajillasModule</title>
<polygon fill="none" stroke="black" stroke-dasharray="1,5" points="8,-32.8 8,-157.8 186,-157.8 186,-32.8 8,-32.8"/>
</g>
<g id="clust3" class="cluster">
<title>cluster_FajillasModule_imports</title>
<polygon fill="none" stroke="black" points="16,-40.8 16,-92.8 178,-92.8 178,-40.8 16,-40.8"/>
</g>
<!-- FajillasRoutingModule -->
<g id="node1" class="node">
<title>FajillasRoutingModule</title>
<polygon fill="#8dd3c7" stroke="black" points="169.89,-84.8 166.89,-88.8 145.89,-88.8 142.89,-84.8 24.11,-84.8 24.11,-48.8 169.89,-48.8 169.89,-84.8"/>
<text text-anchor="middle" x="97" y="-62.6" font-family="Times,serif" font-size="14.00">FajillasRoutingModule</text>
</g>
<!-- FajillasModule -->
<g id="node2" class="node">
<title>FajillasModule</title>
<polygon fill="#8dd3c7" stroke="black" points="147.27,-149.8 144.27,-153.8 123.27,-153.8 120.27,-149.8 46.73,-149.8 46.73,-113.8 147.27,-113.8 147.27,-149.8"/>
<text text-anchor="middle" x="97" y="-127.6" font-family="Times,serif" font-size="14.00">FajillasModule</text>
</g>
<!-- FajillasRoutingModule&#45;&gt;FajillasModule -->
<g id="edge1" class="edge">
<title>FajillasRoutingModule&#45;&gt;FajillasModule</title>
<path fill="none" stroke="black" d="M97,-84.91C97,-84.91 97,-103.79 97,-103.79"/>
<polygon fill="black" stroke="black" points="93.5,-103.79 97,-113.79 100.5,-103.79 93.5,-103.79"/>
</g>
</g>
</svg>
