<?xml version="1.0" encoding="UTF-8" standalone="no"?>
<!DOCTYPE svg PUBLIC "-//W3C//DTD SVG 1.1//EN"
 "http://www.w3.org/Graphics/SVG/1.1/DTD/svg11.dtd">
<!-- Generated by graphviz version 5.0.0 (20220707.1540)
 -->
<!-- Title: dependencies Pages: 1 -->
<svg width="476pt" height="174pt"
 viewBox="0.00 0.00 476.00 173.80" xmlns="http://www.w3.org/2000/svg" xmlns:xlink="http://www.w3.org/1999/xlink">
<g id="graph0" class="graph" transform="scale(1 1) rotate(0) translate(4 169.8)">
<title>dependencies</title>
<polygon fill="white" stroke="transparent" points="-4,4 -4,-169.8 472,-169.8 472,4 -4,4"/>
<text text-anchor="middle" x="234" y="-8.2" font-family="sans-serif" font-size="14.00">dependencies</text>
<g id="clust1" class="cluster">
<title>cluster_LimpiezaModule</title>
<polygon fill="none" stroke="black" stroke-dasharray="1,5" points="8,-32.8 8,-157.8 460,-157.8 460,-32.8 8,-32.8"/>
</g>
<g id="clust2" class="cluster">
<title>cluster_LimpiezaModule_declarations</title>
<polygon fill="none" stroke="black" points="302,-40.8 302,-92.8 452,-92.8 452,-40.8 302,-40.8"/>
</g>
<g id="clust4" class="cluster">
<title>cluster_LimpiezaModule_imports</title>
<polygon fill="none" stroke="black" points="16,-40.8 16,-92.8 294,-92.8 294,-40.8 16,-40.8"/>
</g>
<!-- LimpiezaComponent -->
<g id="node1" class="node">
<title>LimpiezaComponent</title>
<polygon fill="#ffffb3" stroke="black" points="444.19,-84.8 309.81,-84.8 309.81,-48.8 444.19,-48.8 444.19,-84.8"/>
<text text-anchor="middle" x="377" y="-62.6" font-family="Times,serif" font-size="14.00">LimpiezaComponent</text>
</g>
<!-- LimpiezaModule -->
<g id="node2" class="node">
<title>LimpiezaModule</title>
<polygon fill="#8dd3c7" stroke="black" points="299.41,-149.8 296.41,-153.8 275.41,-153.8 272.41,-149.8 186.59,-149.8 186.59,-113.8 299.41,-113.8 299.41,-149.8"/>
<text text-anchor="middle" x="243" y="-127.6" font-family="Times,serif" font-size="14.00">LimpiezaModule</text>
</g>
<!-- LimpiezaComponent&#45;&gt;LimpiezaModule -->
<g id="edge1" class="edge">
<title>LimpiezaComponent&#45;&gt;LimpiezaModule</title>
<path fill="none" stroke="black" d="M309.84,-66.8C299.83,-66.8 292.79,-66.8 292.79,-66.8 292.79,-66.8 292.79,-103.69 292.79,-103.69"/>
<polygon fill="black" stroke="black" points="289.3,-103.69 292.79,-113.69 296.3,-103.69 289.3,-103.69"/>
</g>
<!-- CoreModule -->
<g id="node3" class="node">
<title>CoreModule</title>
<polygon fill="#8dd3c7" stroke="black" points="286.27,-84.8 283.27,-88.8 262.27,-88.8 259.27,-84.8 199.73,-84.8 199.73,-48.8 286.27,-48.8 286.27,-84.8"/>
<text text-anchor="middle" x="243" y="-62.6" font-family="Times,serif" font-size="14.00">CoreModule</text>
</g>
<!-- CoreModule&#45;&gt;LimpiezaModule -->
<g id="edge2" class="edge">
<title>CoreModule&#45;&gt;LimpiezaModule</title>
<path fill="none" stroke="black" d="M243,-84.91C243,-84.91 243,-103.79 243,-103.79"/>
<polygon fill="black" stroke="black" points="239.5,-103.79 243,-113.79 246.5,-103.79 239.5,-103.79"/>
</g>
<!-- LimpiezaRoutingModule -->
<g id="node4" class="node">
<title>LimpiezaRoutingModule</title>
<polygon fill="#8dd3c7" stroke="black" points="181.53,-84.8 178.53,-88.8 157.53,-88.8 154.53,-84.8 24.47,-84.8 24.47,-48.8 181.53,-48.8 181.53,-84.8"/>
<text text-anchor="middle" x="103" y="-62.6" font-family="Times,serif" font-size="14.00">LimpiezaRoutingModule</text>
</g>
<!-- LimpiezaRoutingModule&#45;&gt;LimpiezaModule -->
<g id="edge3" class="edge">
<title>LimpiezaRoutingModule&#45;&gt;LimpiezaModule</title>
<path fill="none" stroke="black" d="M181.78,-66.8C188.73,-66.8 193.21,-66.8 193.21,-66.8 193.21,-66.8 193.21,-103.69 193.21,-103.69"/>
<polygon fill="black" stroke="black" points="189.71,-103.69 193.21,-113.69 196.71,-103.69 189.71,-103.69"/>
</g>
</g>
</svg>
