<?xml version="1.0" encoding="UTF-8" standalone="no"?>
<!DOCTYPE svg PUBLIC "-//W3C//DTD SVG 1.1//EN"
 "http://www.w3.org/Graphics/SVG/1.1/DTD/svg11.dtd">
<!-- Generated by graphviz version 5.0.0 (20220707.1540)
 -->
<!-- Title: dependencies Pages: 1 -->
<svg width="300pt" height="174pt"
 viewBox="0.00 0.00 300.00 173.80" xmlns="http://www.w3.org/2000/svg" xmlns:xlink="http://www.w3.org/1999/xlink">
<g id="graph0" class="graph" transform="scale(1 1) rotate(0) translate(4 169.8)">
<title>dependencies</title>
<polygon fill="white" stroke="transparent" points="-4,4 -4,-169.8 296,-169.8 296,4 -4,4"/>
<text text-anchor="middle" x="146" y="-8.2" font-family="sans-serif" font-size="14.00">dependencies</text>
<g id="clust1" class="cluster">
<title>cluster_LimpiezaModule</title>
<polygon fill="none" stroke="black" stroke-dasharray="1,5" points="8,-32.8 8,-157.8 284,-157.8 284,-32.8 8,-32.8"/>
</g>
<g id="clust2" class="cluster">
<title>cluster_LimpiezaModule_declarations</title>
<polygon fill="none" stroke="black" points="126,-40.8 126,-92.8 276,-92.8 276,-40.8 126,-40.8"/>
</g>
<g id="clust4" class="cluster">
<title>cluster_LimpiezaModule_imports</title>
<polygon fill="none" stroke="black" points="16,-40.8 16,-92.8 118,-92.8 118,-40.8 16,-40.8"/>
</g>
<!-- LimpiezaComponent -->
<g id="node1" class="node">
<title>LimpiezaComponent</title>
<polygon fill="#ffffb3" stroke="black" points="268.19,-84.8 133.81,-84.8 133.81,-48.8 268.19,-48.8 268.19,-84.8"/>
<text text-anchor="middle" x="201" y="-62.6" font-family="Times,serif" font-size="14.00">LimpiezaComponent</text>
</g>
<!-- LimpiezaModule -->
<g id="node2" class="node">
<title>LimpiezaModule</title>
<polygon fill="#8dd3c7" stroke="black" points="192.41,-149.8 189.41,-153.8 168.41,-153.8 165.41,-149.8 79.59,-149.8 79.59,-113.8 192.41,-113.8 192.41,-149.8"/>
<text text-anchor="middle" x="136" y="-127.6" font-family="Times,serif" font-size="14.00">LimpiezaModule</text>
</g>
<!-- LimpiezaComponent&#45;&gt;LimpiezaModule -->
<g id="edge1" class="edge">
<title>LimpiezaComponent&#45;&gt;LimpiezaModule</title>
<path fill="none" stroke="black" d="M163.06,-84.91C163.06,-84.91 163.06,-103.79 163.06,-103.79"/>
<polygon fill="black" stroke="black" points="159.56,-103.79 163.06,-113.79 166.56,-103.79 159.56,-103.79"/>
</g>
<!-- CoreModule -->
<g id="node3" class="node">
<title>CoreModule</title>
<polygon fill="#8dd3c7" stroke="black" points="110.27,-84.8 107.27,-88.8 86.27,-88.8 83.27,-84.8 23.73,-84.8 23.73,-48.8 110.27,-48.8 110.27,-84.8"/>
<text text-anchor="middle" x="67" y="-62.6" font-family="Times,serif" font-size="14.00">CoreModule</text>
</g>
<!-- CoreModule&#45;&gt;LimpiezaModule -->
<g id="edge2" class="edge">
<title>CoreModule&#45;&gt;LimpiezaModule</title>
<path fill="none" stroke="black" d="M95.09,-84.91C95.09,-84.91 95.09,-103.79 95.09,-103.79"/>
<polygon fill="black" stroke="black" points="91.59,-103.79 95.09,-113.79 98.59,-103.79 91.59,-103.79"/>
</g>
</g>
</svg>
