<?xml version="1.0" encoding="UTF-8" standalone="no"?>
<!DOCTYPE svg PUBLIC "-//W3C//DTD SVG 1.1//EN"
 "http://www.w3.org/Graphics/SVG/1.1/DTD/svg11.dtd">
<!-- Generated by graphviz version 5.0.0 (20220707.1540)
 -->
<!-- Title: dependencies Pages: 1 -->
<svg width="756pt" height="174pt"
 viewBox="0.00 0.00 756.00 173.80" xmlns="http://www.w3.org/2000/svg" xmlns:xlink="http://www.w3.org/1999/xlink">
<g id="graph0" class="graph" transform="scale(1 1) rotate(0) translate(4 169.8)">
<title>dependencies</title>
<polygon fill="white" stroke="transparent" points="-4,4 -4,-169.8 752,-169.8 752,4 -4,4"/>
<text text-anchor="middle" x="374" y="-8.2" font-family="sans-serif" font-size="14.00">dependencies</text>
<g id="clust1" class="cluster">
<title>cluster_ConfiguracionPropinasModule</title>
<polygon fill="none" stroke="black" stroke-dasharray="1,5" points="8,-32.8 8,-157.8 740,-157.8 740,-32.8 8,-32.8"/>
</g>
<g id="clust4" class="cluster">
<title>cluster_ConfiguracionPropinasModule_imports</title>
<polygon fill="none" stroke="black" points="252,-40.8 252,-92.8 732,-92.8 732,-40.8 252,-40.8"/>
</g>
<g id="clust2" class="cluster">
<title>cluster_ConfiguracionPropinasModule_declarations</title>
<polygon fill="none" stroke="black" points="16,-40.8 16,-92.8 244,-92.8 244,-40.8 16,-40.8"/>
</g>
<!-- ConfiguracionPropinasComponent -->
<g id="node1" class="node">
<title>ConfiguracionPropinasComponent</title>
<polygon fill="#ffffb3" stroke="black" points="235.7,-84.8 24.3,-84.8 24.3,-48.8 235.7,-48.8 235.7,-84.8"/>
<text text-anchor="middle" x="130" y="-62.6" font-family="Times,serif" font-size="14.00">ConfiguracionPropinasComponent</text>
</g>
<!-- ConfiguracionPropinasModule -->
<g id="node2" class="node">
<title>ConfiguracionPropinasModule</title>
<polygon fill="#8dd3c7" stroke="black" points="464.92,-149.8 461.92,-153.8 440.92,-153.8 437.92,-149.8 275.08,-149.8 275.08,-113.8 464.92,-113.8 464.92,-149.8"/>
<text text-anchor="middle" x="370" y="-127.6" font-family="Times,serif" font-size="14.00">ConfiguracionPropinasModule</text>
</g>
<!-- ConfiguracionPropinasComponent&#45;&gt;ConfiguracionPropinasModule -->
<g id="edge1" class="edge">
<title>ConfiguracionPropinasComponent&#45;&gt;ConfiguracionPropinasModule</title>
<path fill="none" stroke="black" d="M130,-84.91C130,-104.14 130,-131.8 130,-131.8 130,-131.8 265.15,-131.8 265.15,-131.8"/>
<polygon fill="black" stroke="black" points="265.15,-135.3 275.15,-131.8 265.15,-128.3 265.15,-135.3"/>
</g>
<!-- ConfiguracionPropinasRoutingModule -->
<g id="node3" class="node">
<title>ConfiguracionPropinasRoutingModule</title>
<polygon fill="#8dd3c7" stroke="black" points="724.04,-84.8 721.04,-88.8 700.04,-88.8 697.04,-84.8 489.96,-84.8 489.96,-48.8 724.04,-48.8 724.04,-84.8"/>
<text text-anchor="middle" x="607" y="-62.6" font-family="Times,serif" font-size="14.00">ConfiguracionPropinasRoutingModule</text>
</g>
<!-- ConfiguracionPropinasRoutingModule&#45;&gt;ConfiguracionPropinasModule -->
<g id="edge2" class="edge">
<title>ConfiguracionPropinasRoutingModule&#45;&gt;ConfiguracionPropinasModule</title>
<path fill="none" stroke="black" d="M607,-84.91C607,-104.14 607,-131.8 607,-131.8 607,-131.8 475.03,-131.8 475.03,-131.8"/>
<polygon fill="black" stroke="black" points="475.03,-128.3 465.03,-131.8 475.03,-135.3 475.03,-128.3"/>
</g>
<!-- CoreModule -->
<g id="node4" class="node">
<title>CoreModule</title>
<polygon fill="#8dd3c7" stroke="black" points="471.27,-84.8 468.27,-88.8 447.27,-88.8 444.27,-84.8 384.73,-84.8 384.73,-48.8 471.27,-48.8 471.27,-84.8"/>
<text text-anchor="middle" x="428" y="-62.6" font-family="Times,serif" font-size="14.00">CoreModule</text>
</g>
<!-- CoreModule&#45;&gt;ConfiguracionPropinasModule -->
<g id="edge3" class="edge">
<title>CoreModule&#45;&gt;ConfiguracionPropinasModule</title>
<path fill="none" stroke="black" d="M424.66,-84.91C424.66,-84.91 424.66,-103.79 424.66,-103.79"/>
<polygon fill="black" stroke="black" points="421.16,-103.79 424.66,-113.79 428.16,-103.79 421.16,-103.79"/>
</g>
<!-- PrimengModule -->
<g id="node5" class="node">
<title>PrimengModule</title>
<polygon fill="#8dd3c7" stroke="black" points="366.49,-84.8 363.49,-88.8 342.49,-88.8 339.49,-84.8 259.51,-84.8 259.51,-48.8 366.49,-48.8 366.49,-84.8"/>
<text text-anchor="middle" x="313" y="-62.6" font-family="Times,serif" font-size="14.00">PrimengModule</text>
</g>
<!-- PrimengModule&#45;&gt;ConfiguracionPropinasModule -->
<g id="edge4" class="edge">
<title>PrimengModule&#45;&gt;ConfiguracionPropinasModule</title>
<path fill="none" stroke="black" d="M320.89,-84.91C320.89,-84.91 320.89,-103.79 320.89,-103.79"/>
<polygon fill="black" stroke="black" points="317.39,-103.79 320.89,-113.79 324.39,-103.79 317.39,-103.79"/>
</g>
</g>
</svg>
