<?xml version="1.0" encoding="UTF-8" standalone="no"?>
<!DOCTYPE svg PUBLIC "-//W3C//DTD SVG 1.1//EN"
 "http://www.w3.org/Graphics/SVG/1.1/DTD/svg11.dtd">
<!-- Generated by graphviz version 5.0.0 (20220707.1540)
 -->
<!-- Title: dependencies Pages: 1 -->
<svg width="774pt" height="174pt"
 viewBox="0.00 0.00 774.00 173.80" xmlns="http://www.w3.org/2000/svg" xmlns:xlink="http://www.w3.org/1999/xlink">
<g id="graph0" class="graph" transform="scale(1 1) rotate(0) translate(4 169.8)">
<title>dependencies</title>
<polygon fill="white" stroke="transparent" points="-4,4 -4,-169.8 770,-169.8 770,4 -4,4"/>
<text text-anchor="middle" x="383" y="-8.2" font-family="sans-serif" font-size="14.00">dependencies</text>
<g id="clust1" class="cluster">
<title>cluster_ConceptosModule</title>
<polygon fill="none" stroke="black" stroke-dasharray="1,5" points="8,-32.8 8,-157.8 758,-157.8 758,-32.8 8,-32.8"/>
</g>
<g id="clust6" class="cluster">
<title>cluster_ConceptosModule_imports</title>
<polygon fill="none" stroke="black" points="466,-40.8 466,-92.8 750,-92.8 750,-40.8 466,-40.8"/>
</g>
<g id="clust2" class="cluster">
<title>cluster_ConceptosModule_declarations</title>
<polygon fill="none" stroke="black" points="16,-40.8 16,-92.8 458,-92.8 458,-40.8 16,-40.8"/>
</g>
<!-- ConceptosComponent -->
<g id="node1" class="node">
<title>ConceptosComponent</title>
<polygon fill="#ffffb3" stroke="black" points="450.44,-84.8 309.56,-84.8 309.56,-48.8 450.44,-48.8 450.44,-84.8"/>
<text text-anchor="middle" x="380" y="-62.6" font-family="Times,serif" font-size="14.00">ConceptosComponent</text>
</g>
<!-- ConceptosModule -->
<g id="node4" class="node">
<title>ConceptosModule</title>
<polygon fill="#8dd3c7" stroke="black" points="439.16,-149.8 436.16,-153.8 415.16,-153.8 412.16,-149.8 320.84,-149.8 320.84,-113.8 439.16,-113.8 439.16,-149.8"/>
<text text-anchor="middle" x="380" y="-127.6" font-family="Times,serif" font-size="14.00">ConceptosModule</text>
</g>
<!-- ConceptosComponent&#45;&gt;ConceptosModule -->
<g id="edge1" class="edge">
<title>ConceptosComponent&#45;&gt;ConceptosModule</title>
<path fill="none" stroke="black" d="M380,-84.91C380,-84.91 380,-103.79 380,-103.79"/>
<polygon fill="black" stroke="black" points="376.5,-103.79 380,-113.79 383.5,-103.79 376.5,-103.79"/>
</g>
<!-- CrearComponent -->
<g id="node2" class="node">
<title>CrearComponent</title>
<polygon fill="#ffffb3" stroke="black" points="292.42,-84.8 179.58,-84.8 179.58,-48.8 292.42,-48.8 292.42,-84.8"/>
<text text-anchor="middle" x="236" y="-62.6" font-family="Times,serif" font-size="14.00">CrearComponent</text>
</g>
<!-- CrearComponent&#45;&gt;ConceptosModule -->
<g id="edge2" class="edge">
<title>CrearComponent&#45;&gt;ConceptosModule</title>
<path fill="none" stroke="black" d="M236,-84.82C236,-102.17 236,-125.8 236,-125.8 236,-125.8 310.6,-125.8 310.6,-125.8"/>
<polygon fill="black" stroke="black" points="310.6,-129.3 320.6,-125.8 310.6,-122.3 310.6,-129.3"/>
</g>
<!-- ModificarComponent -->
<g id="node3" class="node">
<title>ModificarComponent</title>
<polygon fill="#ffffb3" stroke="black" points="161.81,-84.8 24.19,-84.8 24.19,-48.8 161.81,-48.8 161.81,-84.8"/>
<text text-anchor="middle" x="93" y="-62.6" font-family="Times,serif" font-size="14.00">ModificarComponent</text>
</g>
<!-- ModificarComponent&#45;&gt;ConceptosModule -->
<g id="edge3" class="edge">
<title>ModificarComponent&#45;&gt;ConceptosModule</title>
<path fill="none" stroke="black" d="M93,-85.08C93,-106.12 93,-137.8 93,-137.8 93,-137.8 310.53,-137.8 310.53,-137.8"/>
<polygon fill="black" stroke="black" points="310.53,-141.3 320.53,-137.8 310.53,-134.3 310.53,-141.3"/>
</g>
<!-- ConceptosRoutingModule -->
<g id="node5" class="node">
<title>ConceptosRoutingModule</title>
<polygon fill="#8dd3c7" stroke="black" points="741.77,-84.8 738.77,-88.8 717.77,-88.8 714.77,-84.8 578.23,-84.8 578.23,-48.8 741.77,-48.8 741.77,-84.8"/>
<text text-anchor="middle" x="660" y="-62.6" font-family="Times,serif" font-size="14.00">ConceptosRoutingModule</text>
</g>
<!-- ConceptosRoutingModule&#45;&gt;ConceptosModule -->
<g id="edge4" class="edge">
<title>ConceptosRoutingModule&#45;&gt;ConceptosModule</title>
<path fill="none" stroke="black" d="M660,-85.08C660,-106.12 660,-137.8 660,-137.8 660,-137.8 449.38,-137.8 449.38,-137.8"/>
<polygon fill="black" stroke="black" points="449.38,-134.3 439.38,-137.8 449.38,-141.3 449.38,-134.3"/>
</g>
<!-- CoreModule -->
<g id="node6" class="node">
<title>CoreModule</title>
<polygon fill="#8dd3c7" stroke="black" points="560.27,-84.8 557.27,-88.8 536.27,-88.8 533.27,-84.8 473.73,-84.8 473.73,-48.8 560.27,-48.8 560.27,-84.8"/>
<text text-anchor="middle" x="517" y="-62.6" font-family="Times,serif" font-size="14.00">CoreModule</text>
</g>
<!-- CoreModule&#45;&gt;ConceptosModule -->
<g id="edge5" class="edge">
<title>CoreModule&#45;&gt;ConceptosModule</title>
<path fill="none" stroke="black" d="M517,-84.82C517,-102.17 517,-125.8 517,-125.8 517,-125.8 449.29,-125.8 449.29,-125.8"/>
<polygon fill="black" stroke="black" points="449.29,-122.3 439.29,-125.8 449.29,-129.3 449.29,-122.3"/>
</g>
</g>
</svg>
