<?xml version="1.0" encoding="UTF-8" standalone="no"?>
<!DOCTYPE svg PUBLIC "-//W3C//DTD SVG 1.1//EN"
 "http://www.w3.org/Graphics/SVG/1.1/DTD/svg11.dtd">
<!-- Generated by graphviz version 5.0.0 (20220707.1540)
 -->
<!-- Title: dependencies Pages: 1 -->
<svg width="592pt" height="174pt"
 viewBox="0.00 0.00 592.00 173.80" xmlns="http://www.w3.org/2000/svg" xmlns:xlink="http://www.w3.org/1999/xlink">
<g id="graph0" class="graph" transform="scale(1 1) rotate(0) translate(4 169.8)">
<title>dependencies</title>
<polygon fill="white" stroke="transparent" points="-4,4 -4,-169.8 588,-169.8 588,4 -4,4"/>
<text text-anchor="middle" x="292" y="-8.2" font-family="sans-serif" font-size="14.00">dependencies</text>
<g id="clust1" class="cluster">
<title>cluster_ConceptosModule</title>
<polygon fill="none" stroke="black" stroke-dasharray="1,5" points="8,-32.8 8,-157.8 576,-157.8 576,-32.8 8,-32.8"/>
</g>
<g id="clust6" class="cluster">
<title>cluster_ConceptosModule_imports</title>
<polygon fill="none" stroke="black" points="466,-40.8 466,-92.8 568,-92.8 568,-40.8 466,-40.8"/>
</g>
<g id="clust2" class="cluster">
<title>cluster_ConceptosModule_declarations</title>
<polygon fill="none" stroke="black" points="16,-40.8 16,-92.8 458,-92.8 458,-40.8 16,-40.8"/>
</g>
<!-- ConceptosComponent -->
<g id="node1" class="node">
<title>ConceptosComponent</title>
<polygon fill="#ffffb3" stroke="black" points="450.44,-84.8 309.56,-84.8 309.56,-48.8 450.44,-48.8 450.44,-84.8"/>
<text text-anchor="middle" x="380" y="-62.6" font-family="Times,serif" font-size="14.00">ConceptosComponent</text>
</g>
<!-- ConceptosModule -->
<g id="node4" class="node">
<title>ConceptosModule</title>
<polygon fill="#8dd3c7" stroke="black" points="367.16,-149.8 364.16,-153.8 343.16,-153.8 340.16,-149.8 248.84,-149.8 248.84,-113.8 367.16,-113.8 367.16,-149.8"/>
<text text-anchor="middle" x="308" y="-127.6" font-family="Times,serif" font-size="14.00">ConceptosModule</text>
</g>
<!-- ConceptosComponent&#45;&gt;ConceptosModule -->
<g id="edge1" class="edge">
<title>ConceptosComponent&#45;&gt;ConceptosModule</title>
<path fill="none" stroke="black" d="M338.56,-84.91C338.56,-84.91 338.56,-103.79 338.56,-103.79"/>
<polygon fill="black" stroke="black" points="335.06,-103.79 338.56,-113.79 342.06,-103.79 335.06,-103.79"/>
</g>
<!-- CrearComponent -->
<g id="node2" class="node">
<title>CrearComponent</title>
<polygon fill="#ffffb3" stroke="black" points="292.42,-84.8 179.58,-84.8 179.58,-48.8 292.42,-48.8 292.42,-84.8"/>
<text text-anchor="middle" x="236" y="-62.6" font-family="Times,serif" font-size="14.00">CrearComponent</text>
</g>
<!-- CrearComponent&#45;&gt;ConceptosModule -->
<g id="edge2" class="edge">
<title>CrearComponent&#45;&gt;ConceptosModule</title>
<path fill="none" stroke="black" d="M270.44,-84.91C270.44,-84.91 270.44,-103.79 270.44,-103.79"/>
<polygon fill="black" stroke="black" points="266.94,-103.79 270.44,-113.79 273.94,-103.79 266.94,-103.79"/>
</g>
<!-- ModificarComponent -->
<g id="node3" class="node">
<title>ModificarComponent</title>
<polygon fill="#ffffb3" stroke="black" points="161.81,-84.8 24.19,-84.8 24.19,-48.8 161.81,-48.8 161.81,-84.8"/>
<text text-anchor="middle" x="93" y="-62.6" font-family="Times,serif" font-size="14.00">ModificarComponent</text>
</g>
<!-- ModificarComponent&#45;&gt;ConceptosModule -->
<g id="edge3" class="edge">
<title>ModificarComponent&#45;&gt;ConceptosModule</title>
<path fill="none" stroke="black" d="M93,-84.91C93,-104.14 93,-131.8 93,-131.8 93,-131.8 238.68,-131.8 238.68,-131.8"/>
<polygon fill="black" stroke="black" points="238.68,-135.3 248.68,-131.8 238.68,-128.3 238.68,-135.3"/>
</g>
<!-- CoreModule -->
<g id="node5" class="node">
<title>CoreModule</title>
<polygon fill="#8dd3c7" stroke="black" points="560.27,-84.8 557.27,-88.8 536.27,-88.8 533.27,-84.8 473.73,-84.8 473.73,-48.8 560.27,-48.8 560.27,-84.8"/>
<text text-anchor="middle" x="517" y="-62.6" font-family="Times,serif" font-size="14.00">CoreModule</text>
</g>
<!-- CoreModule&#45;&gt;ConceptosModule -->
<g id="edge4" class="edge">
<title>CoreModule&#45;&gt;ConceptosModule</title>
<path fill="none" stroke="black" d="M517,-84.91C517,-104.14 517,-131.8 517,-131.8 517,-131.8 377.33,-131.8 377.33,-131.8"/>
<polygon fill="black" stroke="black" points="377.33,-128.3 367.33,-131.8 377.33,-135.3 377.33,-128.3"/>
</g>
</g>
</svg>
