<?xml version="1.0" encoding="UTF-8" standalone="no"?>
<!DOCTYPE svg PUBLIC "-//W3C//DTD SVG 1.1//EN"
 "http://www.w3.org/Graphics/SVG/1.1/DTD/svg11.dtd">
<!-- Generated by graphviz version 5.0.0 (20220707.1540)
 -->
<!-- Title: dependencies Pages: 1 -->
<svg width="2536pt" height="174pt"
 viewBox="0.00 0.00 2536.00 173.80" xmlns="http://www.w3.org/2000/svg" xmlns:xlink="http://www.w3.org/1999/xlink">
<g id="graph0" class="graph" transform="scale(1 1) rotate(0) translate(4 169.8)">
<title>dependencies</title>
<polygon fill="white" stroke="transparent" points="-4,4 -4,-169.8 2532,-169.8 2532,4 -4,4"/>
<text text-anchor="middle" x="1264" y="-8.2" font-family="sans-serif" font-size="14.00">dependencies</text>
<g id="clust1" class="cluster">
<title>cluster_EntradaHabitacionModule</title>
<polygon fill="none" stroke="black" stroke-dasharray="1,5" points="8,-32.8 8,-157.8 2520,-157.8 2520,-32.8 8,-32.8"/>
</g>
<g id="clust2" class="cluster">
<title>cluster_EntradaHabitacionModule_declarations</title>
<polygon fill="none" stroke="black" points="478,-40.8 478,-92.8 2512,-92.8 2512,-40.8 478,-40.8"/>
</g>
<g id="clust13" class="cluster">
<title>cluster_EntradaHabitacionModule_imports</title>
<polygon fill="none" stroke="black" points="16,-40.8 16,-92.8 470,-92.8 470,-40.8 16,-40.8"/>
</g>
<!-- CambioHabitacionComponent -->
<g id="node1" class="node">
<title>CambioHabitacionComponent</title>
<polygon fill="#ffffb3" stroke="black" points="2503.58,-84.8 2316.42,-84.8 2316.42,-48.8 2503.58,-48.8 2503.58,-84.8"/>
<text text-anchor="middle" x="2410" y="-62.6" font-family="Times,serif" font-size="14.00">CambioHabitacionComponent</text>
</g>
<!-- EntradaHabitacionModule -->
<g id="node11" class="node">
<title>EntradaHabitacionModule</title>
<polygon fill="#8dd3c7" stroke="black" points="1254,-149.8 1251,-153.8 1230,-153.8 1227,-149.8 1090,-149.8 1090,-113.8 1254,-113.8 1254,-149.8"/>
<text text-anchor="middle" x="1172" y="-127.6" font-family="Times,serif" font-size="14.00">EntradaHabitacionModule</text>
</g>
<!-- CambioHabitacionComponent&#45;&gt;EntradaHabitacionModule -->
<g id="edge1" class="edge">
<title>CambioHabitacionComponent&#45;&gt;EntradaHabitacionModule</title>
<path fill="none" stroke="black" d="M2410,-84.89C2410,-107.93 2410,-144.8 2410,-144.8 2410,-144.8 1264.19,-144.8 1264.19,-144.8"/>
<polygon fill="black" stroke="black" points="1264.19,-141.3 1254.19,-144.8 1264.19,-148.3 1264.19,-141.3"/>
</g>
<!-- CancelarEntradaComponent -->
<g id="node2" class="node">
<title>CancelarEntradaComponent</title>
<polygon fill="#ffffb3" stroke="black" points="2298.11,-84.8 2123.89,-84.8 2123.89,-48.8 2298.11,-48.8 2298.11,-84.8"/>
<text text-anchor="middle" x="2211" y="-62.6" font-family="Times,serif" font-size="14.00">CancelarEntradaComponent</text>
</g>
<!-- CancelarEntradaComponent&#45;&gt;EntradaHabitacionModule -->
<g id="edge2" class="edge">
<title>CancelarEntradaComponent&#45;&gt;EntradaHabitacionModule</title>
<path fill="none" stroke="black" d="M2211,-84.84C2211,-106.46 2211,-139.8 2211,-139.8 2211,-139.8 1264.4,-139.8 1264.4,-139.8"/>
<polygon fill="black" stroke="black" points="1264.4,-136.3 1254.4,-139.8 1264.4,-143.3 1264.4,-136.3"/>
</g>
<!-- CancelarHabitacionComponent -->
<g id="node3" class="node">
<title>CancelarHabitacionComponent</title>
<polygon fill="#ffffb3" stroke="black" points="2105.5,-84.8 1912.5,-84.8 1912.5,-48.8 2105.5,-48.8 2105.5,-84.8"/>
<text text-anchor="middle" x="2009" y="-62.6" font-family="Times,serif" font-size="14.00">CancelarHabitacionComponent</text>
</g>
<!-- CancelarHabitacionComponent&#45;&gt;EntradaHabitacionModule -->
<g id="edge3" class="edge">
<title>CancelarHabitacionComponent&#45;&gt;EntradaHabitacionModule</title>
<path fill="none" stroke="black" d="M2009,-85.02C2009,-105.17 2009,-134.8 2009,-134.8 2009,-134.8 1264.16,-134.8 1264.16,-134.8"/>
<polygon fill="black" stroke="black" points="1264.16,-131.3 1254.16,-134.8 1264.16,-138.3 1264.16,-131.3"/>
</g>
<!-- CobrarPendienteHabitacionComponent -->
<g id="node4" class="node">
<title>CobrarPendienteHabitacionComponent</title>
<polygon fill="#ffffb3" stroke="black" points="1894.34,-84.8 1657.66,-84.8 1657.66,-48.8 1894.34,-48.8 1894.34,-84.8"/>
<text text-anchor="middle" x="1776" y="-62.6" font-family="Times,serif" font-size="14.00">CobrarPendienteHabitacionComponent</text>
</g>
<!-- CobrarPendienteHabitacionComponent&#45;&gt;EntradaHabitacionModule -->
<g id="edge4" class="edge">
<title>CobrarPendienteHabitacionComponent&#45;&gt;EntradaHabitacionModule</title>
<path fill="none" stroke="black" d="M1776,-85.02C1776,-103.63 1776,-129.8 1776,-129.8 1776,-129.8 1264.09,-129.8 1264.09,-129.8"/>
<polygon fill="black" stroke="black" points="1264.09,-126.3 1254.09,-129.8 1264.09,-133.3 1264.09,-126.3"/>
</g>
<!-- EntradaHabitacionComponent -->
<g id="node5" class="node">
<title>EntradaHabitacionComponent</title>
<polygon fill="#ffffb3" stroke="black" points="1639.28,-84.8 1452.72,-84.8 1452.72,-48.8 1639.28,-48.8 1639.28,-84.8"/>
<text text-anchor="middle" x="1546" y="-62.6" font-family="Times,serif" font-size="14.00">EntradaHabitacionComponent</text>
</g>
<!-- EntradaHabitacionComponent&#45;&gt;EntradaHabitacionModule -->
<g id="edge5" class="edge">
<title>EntradaHabitacionComponent&#45;&gt;EntradaHabitacionModule</title>
<path fill="none" stroke="black" d="M1546,-84.83C1546,-101.86 1546,-124.8 1546,-124.8 1546,-124.8 1264.08,-124.8 1264.08,-124.8"/>
<polygon fill="black" stroke="black" points="1264.08,-121.3 1254.08,-124.8 1264.08,-128.3 1264.08,-121.3"/>
</g>
<!-- PagoMixtoComponent -->
<g id="node6" class="node">
<title>PagoMixtoComponent</title>
<polygon fill="#ffffb3" stroke="black" points="1434.56,-84.8 1291.44,-84.8 1291.44,-48.8 1434.56,-48.8 1434.56,-84.8"/>
<text text-anchor="middle" x="1363" y="-62.6" font-family="Times,serif" font-size="14.00">PagoMixtoComponent</text>
</g>
<!-- PagoMixtoComponent&#45;&gt;EntradaHabitacionModule -->
<g id="edge6" class="edge">
<title>PagoMixtoComponent&#45;&gt;EntradaHabitacionModule</title>
<path fill="none" stroke="black" d="M1363,-85.04C1363,-100.37 1363,-119.8 1363,-119.8 1363,-119.8 1264.11,-119.8 1264.11,-119.8"/>
<polygon fill="black" stroke="black" points="1264.11,-116.3 1254.11,-119.8 1264.11,-123.3 1264.11,-116.3"/>
</g>
<!-- PagoRentaHabitacionComponent -->
<g id="node7" class="node">
<title>PagoRentaHabitacionComponent</title>
<polygon fill="#ffffb3" stroke="black" points="1273.91,-84.8 1070.09,-84.8 1070.09,-48.8 1273.91,-48.8 1273.91,-84.8"/>
<text text-anchor="middle" x="1172" y="-62.6" font-family="Times,serif" font-size="14.00">PagoRentaHabitacionComponent</text>
</g>
<!-- PagoRentaHabitacionComponent&#45;&gt;EntradaHabitacionModule -->
<g id="edge7" class="edge">
<title>PagoRentaHabitacionComponent&#45;&gt;EntradaHabitacionModule</title>
<path fill="none" stroke="black" d="M1172,-84.91C1172,-84.91 1172,-103.79 1172,-103.79"/>
<polygon fill="black" stroke="black" points="1168.5,-103.79 1172,-113.79 1175.5,-103.79 1168.5,-103.79"/>
</g>
<!-- PagoTarjetaComponent -->
<g id="node8" class="node">
<title>PagoTarjetaComponent</title>
<polygon fill="#ffffb3" stroke="black" points="1052.47,-84.8 903.53,-84.8 903.53,-48.8 1052.47,-48.8 1052.47,-84.8"/>
<text text-anchor="middle" x="978" y="-62.6" font-family="Times,serif" font-size="14.00">PagoTarjetaComponent</text>
</g>
<!-- PagoTarjetaComponent&#45;&gt;EntradaHabitacionModule -->
<g id="edge8" class="edge">
<title>PagoTarjetaComponent&#45;&gt;EntradaHabitacionModule</title>
<path fill="none" stroke="black" d="M978,-85.04C978,-100.37 978,-119.8 978,-119.8 978,-119.8 1079.73,-119.8 1079.73,-119.8"/>
<polygon fill="black" stroke="black" points="1079.73,-123.3 1089.73,-119.8 1079.73,-116.3 1079.73,-123.3"/>
</g>
<!-- RentaExtraHabitacionComponent -->
<g id="node9" class="node">
<title>RentaExtraHabitacionComponent</title>
<polygon fill="#ffffb3" stroke="black" points="885.72,-84.8 680.28,-84.8 680.28,-48.8 885.72,-48.8 885.72,-84.8"/>
<text text-anchor="middle" x="783" y="-62.6" font-family="Times,serif" font-size="14.00">RentaExtraHabitacionComponent</text>
</g>
<!-- RentaExtraHabitacionComponent&#45;&gt;EntradaHabitacionModule -->
<g id="edge9" class="edge">
<title>RentaExtraHabitacionComponent&#45;&gt;EntradaHabitacionModule</title>
<path fill="none" stroke="black" d="M783,-84.83C783,-101.86 783,-124.8 783,-124.8 783,-124.8 1079.98,-124.8 1079.98,-124.8"/>
<polygon fill="black" stroke="black" points="1079.98,-128.3 1089.98,-124.8 1079.98,-121.3 1079.98,-128.3"/>
</g>
<!-- RentaHabitacionComponent -->
<g id="node10" class="node">
<title>RentaHabitacionComponent</title>
<polygon fill="#ffffb3" stroke="black" points="661.91,-84.8 486.09,-84.8 486.09,-48.8 661.91,-48.8 661.91,-84.8"/>
<text text-anchor="middle" x="574" y="-62.6" font-family="Times,serif" font-size="14.00">RentaHabitacionComponent</text>
</g>
<!-- RentaHabitacionComponent&#45;&gt;EntradaHabitacionModule -->
<g id="edge10" class="edge">
<title>RentaHabitacionComponent&#45;&gt;EntradaHabitacionModule</title>
<path fill="none" stroke="black" d="M574,-85.02C574,-103.63 574,-129.8 574,-129.8 574,-129.8 1079.79,-129.8 1079.79,-129.8"/>
<polygon fill="black" stroke="black" points="1079.79,-133.3 1089.79,-129.8 1079.79,-126.3 1079.79,-133.3"/>
</g>
<!-- CoreModule -->
<g id="node12" class="node">
<title>CoreModule</title>
<polygon fill="#8dd3c7" stroke="black" points="462.27,-84.8 459.27,-88.8 438.27,-88.8 435.27,-84.8 375.73,-84.8 375.73,-48.8 462.27,-48.8 462.27,-84.8"/>
<text text-anchor="middle" x="419" y="-62.6" font-family="Times,serif" font-size="14.00">CoreModule</text>
</g>
<!-- CoreModule&#45;&gt;EntradaHabitacionModule -->
<g id="edge11" class="edge">
<title>CoreModule&#45;&gt;EntradaHabitacionModule</title>
<path fill="none" stroke="black" d="M419,-85.02C419,-105.17 419,-134.8 419,-134.8 419,-134.8 1079.98,-134.8 1079.98,-134.8"/>
<polygon fill="black" stroke="black" points="1079.98,-138.3 1089.98,-134.8 1079.98,-131.3 1079.98,-138.3"/>
</g>
<!-- EntradaHabitacionRoutingModule -->
<g id="node13" class="node">
<title>EntradaHabitacionRoutingModule</title>
<polygon fill="#8dd3c7" stroke="black" points="357.62,-84.8 354.62,-88.8 333.62,-88.8 330.62,-84.8 148.38,-84.8 148.38,-48.8 357.62,-48.8 357.62,-84.8"/>
<text text-anchor="middle" x="253" y="-62.6" font-family="Times,serif" font-size="14.00">EntradaHabitacionRoutingModule</text>
</g>
<!-- EntradaHabitacionRoutingModule&#45;&gt;EntradaHabitacionModule -->
<g id="edge12" class="edge">
<title>EntradaHabitacionRoutingModule&#45;&gt;EntradaHabitacionModule</title>
<path fill="none" stroke="black" d="M253,-84.84C253,-106.46 253,-139.8 253,-139.8 253,-139.8 1079.64,-139.8 1079.64,-139.8"/>
<polygon fill="black" stroke="black" points="1079.64,-143.3 1089.64,-139.8 1079.64,-136.3 1079.64,-143.3"/>
</g>
<!-- PrimengModule -->
<g id="node14" class="node">
<title>PrimengModule</title>
<polygon fill="#8dd3c7" stroke="black" points="130.49,-84.8 127.49,-88.8 106.49,-88.8 103.49,-84.8 23.51,-84.8 23.51,-48.8 130.49,-48.8 130.49,-84.8"/>
<text text-anchor="middle" x="77" y="-62.6" font-family="Times,serif" font-size="14.00">PrimengModule</text>
</g>
<!-- PrimengModule&#45;&gt;EntradaHabitacionModule -->
<g id="edge13" class="edge">
<title>PrimengModule&#45;&gt;EntradaHabitacionModule</title>
<path fill="none" stroke="black" d="M77,-84.89C77,-107.93 77,-144.8 77,-144.8 77,-144.8 1079.7,-144.8 1079.7,-144.8"/>
<polygon fill="black" stroke="black" points="1079.7,-148.3 1089.7,-144.8 1079.7,-141.3 1079.7,-148.3"/>
</g>
</g>
</svg>
