<?xml version="1.0" encoding="UTF-8" standalone="no"?>
<!DOCTYPE svg PUBLIC "-//W3C//DTD SVG 1.1//EN"
 "http://www.w3.org/Graphics/SVG/1.1/DTD/svg11.dtd">
<!-- Generated by graphviz version 5.0.0 (20220707.1540)
 -->
<!-- Title: dependencies Pages: 1 -->
<svg width="2536pt" height="174pt"
 viewBox="0.00 0.00 2536.00 173.80" xmlns="http://www.w3.org/2000/svg" xmlns:xlink="http://www.w3.org/1999/xlink">
<g id="graph0" class="graph" transform="scale(1 1) rotate(0) translate(4 169.8)">
<title>dependencies</title>
<polygon fill="white" stroke="transparent" points="-4,4 -4,-169.8 2532,-169.8 2532,4 -4,4"/>
<text text-anchor="middle" x="1264" y="-8.2" font-family="sans-serif" font-size="14.00">dependencies</text>
<g id="clust1" class="cluster">
<title>cluster_EntradaHabitacionModule</title>
<polygon fill="none" stroke="black" stroke-dasharray="1,5" points="8,-32.8 8,-157.8 2520,-157.8 2520,-32.8 8,-32.8"/>
</g>
<g id="clust13" class="cluster">
<title>cluster_EntradaHabitacionModule_imports</title>
<polygon fill="none" stroke="black" points="2058,-40.8 2058,-92.8 2512,-92.8 2512,-40.8 2058,-40.8"/>
</g>
<g id="clust2" class="cluster">
<title>cluster_EntradaHabitacionModule_declarations</title>
<polygon fill="none" stroke="black" points="16,-40.8 16,-92.8 2050,-92.8 2050,-40.8 16,-40.8"/>
</g>
<!-- CambioHabitacionComponent -->
<g id="node1" class="node">
<title>CambioHabitacionComponent</title>
<polygon fill="#ffffb3" stroke="black" points="2041.58,-84.8 1854.42,-84.8 1854.42,-48.8 2041.58,-48.8 2041.58,-84.8"/>
<text text-anchor="middle" x="1948" y="-62.6" font-family="Times,serif" font-size="14.00">CambioHabitacionComponent</text>
</g>
<!-- EntradaHabitacionModule -->
<g id="node11" class="node">
<title>EntradaHabitacionModule</title>
<polygon fill="#8dd3c7" stroke="black" points="1396,-149.8 1393,-153.8 1372,-153.8 1369,-149.8 1232,-149.8 1232,-113.8 1396,-113.8 1396,-149.8"/>
<text text-anchor="middle" x="1314" y="-127.6" font-family="Times,serif" font-size="14.00">EntradaHabitacionModule</text>
</g>
<!-- CambioHabitacionComponent&#45;&gt;EntradaHabitacionModule -->
<g id="edge1" class="edge">
<title>CambioHabitacionComponent&#45;&gt;EntradaHabitacionModule</title>
<path fill="none" stroke="black" d="M1948,-85.02C1948,-103.63 1948,-129.8 1948,-129.8 1948,-129.8 1406.23,-129.8 1406.23,-129.8"/>
<polygon fill="black" stroke="black" points="1406.23,-126.3 1396.23,-129.8 1406.23,-133.3 1406.23,-126.3"/>
</g>
<!-- CancelarEntradaComponent -->
<g id="node2" class="node">
<title>CancelarEntradaComponent</title>
<polygon fill="#ffffb3" stroke="black" points="1836.11,-84.8 1661.89,-84.8 1661.89,-48.8 1836.11,-48.8 1836.11,-84.8"/>
<text text-anchor="middle" x="1749" y="-62.6" font-family="Times,serif" font-size="14.00">CancelarEntradaComponent</text>
</g>
<!-- CancelarEntradaComponent&#45;&gt;EntradaHabitacionModule -->
<g id="edge2" class="edge">
<title>CancelarEntradaComponent&#45;&gt;EntradaHabitacionModule</title>
<path fill="none" stroke="black" d="M1749,-84.83C1749,-101.86 1749,-124.8 1749,-124.8 1749,-124.8 1406.08,-124.8 1406.08,-124.8"/>
<polygon fill="black" stroke="black" points="1406.08,-121.3 1396.08,-124.8 1406.08,-128.3 1406.08,-121.3"/>
</g>
<!-- CancelarHabitacionComponent -->
<g id="node3" class="node">
<title>CancelarHabitacionComponent</title>
<polygon fill="#ffffb3" stroke="black" points="1643.5,-84.8 1450.5,-84.8 1450.5,-48.8 1643.5,-48.8 1643.5,-84.8"/>
<text text-anchor="middle" x="1547" y="-62.6" font-family="Times,serif" font-size="14.00">CancelarHabitacionComponent</text>
</g>
<!-- CancelarHabitacionComponent&#45;&gt;EntradaHabitacionModule -->
<g id="edge3" class="edge">
<title>CancelarHabitacionComponent&#45;&gt;EntradaHabitacionModule</title>
<path fill="none" stroke="black" d="M1547,-85.04C1547,-100.37 1547,-119.8 1547,-119.8 1547,-119.8 1406.15,-119.8 1406.15,-119.8"/>
<polygon fill="black" stroke="black" points="1406.15,-116.3 1396.15,-119.8 1406.15,-123.3 1406.15,-116.3"/>
</g>
<!-- CobrarPendienteHabitacionComponent -->
<g id="node4" class="node">
<title>CobrarPendienteHabitacionComponent</title>
<polygon fill="#ffffb3" stroke="black" points="1432.34,-84.8 1195.66,-84.8 1195.66,-48.8 1432.34,-48.8 1432.34,-84.8"/>
<text text-anchor="middle" x="1314" y="-62.6" font-family="Times,serif" font-size="14.00">CobrarPendienteHabitacionComponent</text>
</g>
<!-- CobrarPendienteHabitacionComponent&#45;&gt;EntradaHabitacionModule -->
<g id="edge4" class="edge">
<title>CobrarPendienteHabitacionComponent&#45;&gt;EntradaHabitacionModule</title>
<path fill="none" stroke="black" d="M1314,-84.91C1314,-84.91 1314,-103.79 1314,-103.79"/>
<polygon fill="black" stroke="black" points="1310.5,-103.79 1314,-113.79 1317.5,-103.79 1310.5,-103.79"/>
</g>
<!-- EntradaHabitacionComponent -->
<g id="node5" class="node">
<title>EntradaHabitacionComponent</title>
<polygon fill="#ffffb3" stroke="black" points="1177.28,-84.8 990.72,-84.8 990.72,-48.8 1177.28,-48.8 1177.28,-84.8"/>
<text text-anchor="middle" x="1084" y="-62.6" font-family="Times,serif" font-size="14.00">EntradaHabitacionComponent</text>
</g>
<!-- EntradaHabitacionComponent&#45;&gt;EntradaHabitacionModule -->
<g id="edge5" class="edge">
<title>EntradaHabitacionComponent&#45;&gt;EntradaHabitacionModule</title>
<path fill="none" stroke="black" d="M1084,-85.04C1084,-100.37 1084,-119.8 1084,-119.8 1084,-119.8 1221.94,-119.8 1221.94,-119.8"/>
<polygon fill="black" stroke="black" points="1221.94,-123.3 1231.94,-119.8 1221.94,-116.3 1221.94,-123.3"/>
</g>
<!-- PagoMixtoComponent -->
<g id="node6" class="node">
<title>PagoMixtoComponent</title>
<polygon fill="#ffffb3" stroke="black" points="972.56,-84.8 829.44,-84.8 829.44,-48.8 972.56,-48.8 972.56,-84.8"/>
<text text-anchor="middle" x="901" y="-62.6" font-family="Times,serif" font-size="14.00">PagoMixtoComponent</text>
</g>
<!-- PagoMixtoComponent&#45;&gt;EntradaHabitacionModule -->
<g id="edge6" class="edge">
<title>PagoMixtoComponent&#45;&gt;EntradaHabitacionModule</title>
<path fill="none" stroke="black" d="M901,-84.83C901,-101.86 901,-124.8 901,-124.8 901,-124.8 1221.91,-124.8 1221.91,-124.8"/>
<polygon fill="black" stroke="black" points="1221.91,-128.3 1231.91,-124.8 1221.91,-121.3 1221.91,-128.3"/>
</g>
<!-- PagoRentaHabitacionComponent -->
<g id="node7" class="node">
<title>PagoRentaHabitacionComponent</title>
<polygon fill="#ffffb3" stroke="black" points="811.91,-84.8 608.09,-84.8 608.09,-48.8 811.91,-48.8 811.91,-84.8"/>
<text text-anchor="middle" x="710" y="-62.6" font-family="Times,serif" font-size="14.00">PagoRentaHabitacionComponent</text>
</g>
<!-- PagoRentaHabitacionComponent&#45;&gt;EntradaHabitacionModule -->
<g id="edge7" class="edge">
<title>PagoRentaHabitacionComponent&#45;&gt;EntradaHabitacionModule</title>
<path fill="none" stroke="black" d="M710,-85.02C710,-103.63 710,-129.8 710,-129.8 710,-129.8 1221.91,-129.8 1221.91,-129.8"/>
<polygon fill="black" stroke="black" points="1221.91,-133.3 1231.91,-129.8 1221.91,-126.3 1221.91,-133.3"/>
</g>
<!-- PagoTarjetaComponent -->
<g id="node8" class="node">
<title>PagoTarjetaComponent</title>
<polygon fill="#ffffb3" stroke="black" points="590.47,-84.8 441.53,-84.8 441.53,-48.8 590.47,-48.8 590.47,-84.8"/>
<text text-anchor="middle" x="516" y="-62.6" font-family="Times,serif" font-size="14.00">PagoTarjetaComponent</text>
</g>
<!-- PagoTarjetaComponent&#45;&gt;EntradaHabitacionModule -->
<g id="edge8" class="edge">
<title>PagoTarjetaComponent&#45;&gt;EntradaHabitacionModule</title>
<path fill="none" stroke="black" d="M516,-85.02C516,-105.17 516,-134.8 516,-134.8 516,-134.8 1221.98,-134.8 1221.98,-134.8"/>
<polygon fill="black" stroke="black" points="1221.98,-138.3 1231.98,-134.8 1221.98,-131.3 1221.98,-138.3"/>
</g>
<!-- RentaExtraHabitacionComponent -->
<g id="node9" class="node">
<title>RentaExtraHabitacionComponent</title>
<polygon fill="#ffffb3" stroke="black" points="423.72,-84.8 218.28,-84.8 218.28,-48.8 423.72,-48.8 423.72,-84.8"/>
<text text-anchor="middle" x="321" y="-62.6" font-family="Times,serif" font-size="14.00">RentaExtraHabitacionComponent</text>
</g>
<!-- RentaExtraHabitacionComponent&#45;&gt;EntradaHabitacionModule -->
<g id="edge9" class="edge">
<title>RentaExtraHabitacionComponent&#45;&gt;EntradaHabitacionModule</title>
<path fill="none" stroke="black" d="M321,-84.84C321,-106.46 321,-139.8 321,-139.8 321,-139.8 1221.89,-139.8 1221.89,-139.8"/>
<polygon fill="black" stroke="black" points="1221.89,-143.3 1231.89,-139.8 1221.89,-136.3 1221.89,-143.3"/>
</g>
<!-- RentaHabitacionComponent -->
<g id="node10" class="node">
<title>RentaHabitacionComponent</title>
<polygon fill="#ffffb3" stroke="black" points="199.91,-84.8 24.09,-84.8 24.09,-48.8 199.91,-48.8 199.91,-84.8"/>
<text text-anchor="middle" x="112" y="-62.6" font-family="Times,serif" font-size="14.00">RentaHabitacionComponent</text>
</g>
<!-- RentaHabitacionComponent&#45;&gt;EntradaHabitacionModule -->
<g id="edge10" class="edge">
<title>RentaHabitacionComponent&#45;&gt;EntradaHabitacionModule</title>
<path fill="none" stroke="black" d="M112,-84.89C112,-107.93 112,-144.8 112,-144.8 112,-144.8 1221.85,-144.8 1221.85,-144.8"/>
<polygon fill="black" stroke="black" points="1221.85,-148.3 1231.85,-144.8 1221.85,-141.3 1221.85,-148.3"/>
</g>
<!-- CoreModule -->
<g id="node12" class="node">
<title>CoreModule</title>
<polygon fill="#8dd3c7" stroke="black" points="2504.27,-84.8 2501.27,-88.8 2480.27,-88.8 2477.27,-84.8 2417.73,-84.8 2417.73,-48.8 2504.27,-48.8 2504.27,-84.8"/>
<text text-anchor="middle" x="2461" y="-62.6" font-family="Times,serif" font-size="14.00">CoreModule</text>
</g>
<!-- CoreModule&#45;&gt;EntradaHabitacionModule -->
<g id="edge11" class="edge">
<title>CoreModule&#45;&gt;EntradaHabitacionModule</title>
<path fill="none" stroke="black" d="M2461,-84.89C2461,-107.93 2461,-144.8 2461,-144.8 2461,-144.8 1406.03,-144.8 1406.03,-144.8"/>
<polygon fill="black" stroke="black" points="1406.03,-141.3 1396.03,-144.8 1406.03,-148.3 1406.03,-141.3"/>
</g>
<!-- EntradaHabitacionRoutingModule -->
<g id="node13" class="node">
<title>EntradaHabitacionRoutingModule</title>
<polygon fill="#8dd3c7" stroke="black" points="2399.62,-84.8 2396.62,-88.8 2375.62,-88.8 2372.62,-84.8 2190.38,-84.8 2190.38,-48.8 2399.62,-48.8 2399.62,-84.8"/>
<text text-anchor="middle" x="2295" y="-62.6" font-family="Times,serif" font-size="14.00">EntradaHabitacionRoutingModule</text>
</g>
<!-- EntradaHabitacionRoutingModule&#45;&gt;EntradaHabitacionModule -->
<g id="edge12" class="edge">
<title>EntradaHabitacionRoutingModule&#45;&gt;EntradaHabitacionModule</title>
<path fill="none" stroke="black" d="M2295,-84.84C2295,-106.46 2295,-139.8 2295,-139.8 2295,-139.8 1406.37,-139.8 1406.37,-139.8"/>
<polygon fill="black" stroke="black" points="1406.37,-136.3 1396.37,-139.8 1406.37,-143.3 1406.37,-136.3"/>
</g>
<!-- PrimengModule -->
<g id="node14" class="node">
<title>PrimengModule</title>
<polygon fill="#8dd3c7" stroke="black" points="2172.49,-84.8 2169.49,-88.8 2148.49,-88.8 2145.49,-84.8 2065.51,-84.8 2065.51,-48.8 2172.49,-48.8 2172.49,-84.8"/>
<text text-anchor="middle" x="2119" y="-62.6" font-family="Times,serif" font-size="14.00">PrimengModule</text>
</g>
<!-- PrimengModule&#45;&gt;EntradaHabitacionModule -->
<g id="edge13" class="edge">
<title>PrimengModule&#45;&gt;EntradaHabitacionModule</title>
<path fill="none" stroke="black" d="M2119,-85.02C2119,-105.17 2119,-134.8 2119,-134.8 2119,-134.8 1406.37,-134.8 1406.37,-134.8"/>
<polygon fill="black" stroke="black" points="1406.37,-131.3 1396.37,-134.8 1406.37,-138.3 1406.37,-131.3"/>
</g>
</g>
</svg>
