<?xml version="1.0" encoding="UTF-8" standalone="no"?>
<!DOCTYPE svg PUBLIC "-//W3C//DTD SVG 1.1//EN"
 "http://www.w3.org/Graphics/SVG/1.1/DTD/svg11.dtd">
<!-- Generated by graphviz version 5.0.0 (20220707.1540)
 -->
<!-- Title: dependencies Pages: 1 -->
<svg width="2309pt" height="174pt"
 viewBox="0.00 0.00 2309.00 173.80" xmlns="http://www.w3.org/2000/svg" xmlns:xlink="http://www.w3.org/1999/xlink">
<g id="graph0" class="graph" transform="scale(1 1) rotate(0) translate(4 169.8)">
<title>dependencies</title>
<polygon fill="white" stroke="transparent" points="-4,4 -4,-169.8 2305,-169.8 2305,4 -4,4"/>
<text text-anchor="middle" x="1150.5" y="-8.2" font-family="sans-serif" font-size="14.00">dependencies</text>
<g id="clust1" class="cluster">
<title>cluster_EntradaHabitacionModule</title>
<polygon fill="none" stroke="black" stroke-dasharray="1,5" points="8,-32.8 8,-157.8 2293,-157.8 2293,-32.8 8,-32.8"/>
</g>
<g id="clust13" class="cluster">
<title>cluster_EntradaHabitacionModule_imports</title>
<polygon fill="none" stroke="black" points="2058,-40.8 2058,-92.8 2285,-92.8 2285,-40.8 2058,-40.8"/>
</g>
<g id="clust2" class="cluster">
<title>cluster_EntradaHabitacionModule_declarations</title>
<polygon fill="none" stroke="black" points="16,-40.8 16,-92.8 2050,-92.8 2050,-40.8 16,-40.8"/>
</g>
<!-- CambioHabitacionComponent -->
<g id="node1" class="node">
<title>CambioHabitacionComponent</title>
<polygon fill="#ffffb3" stroke="black" points="2041.58,-84.8 1854.42,-84.8 1854.42,-48.8 2041.58,-48.8 2041.58,-84.8"/>
<text text-anchor="middle" x="1948" y="-62.6" font-family="Times,serif" font-size="14.00">CambioHabitacionComponent</text>
</g>
<!-- EntradaHabitacionModule -->
<g id="node11" class="node">
<title>EntradaHabitacionModule</title>
<polygon fill="#8dd3c7" stroke="black" points="1281,-149.8 1278,-153.8 1257,-153.8 1254,-149.8 1117,-149.8 1117,-113.8 1281,-113.8 1281,-149.8"/>
<text text-anchor="middle" x="1199" y="-127.6" font-family="Times,serif" font-size="14.00">EntradaHabitacionModule</text>
</g>
<!-- CambioHabitacionComponent&#45;&gt;EntradaHabitacionModule -->
<g id="edge1" class="edge">
<title>CambioHabitacionComponent&#45;&gt;EntradaHabitacionModule</title>
<path fill="none" stroke="black" d="M1948,-84.91C1948,-104.14 1948,-131.8 1948,-131.8 1948,-131.8 1291.3,-131.8 1291.3,-131.8"/>
<polygon fill="black" stroke="black" points="1291.3,-128.3 1281.3,-131.8 1291.3,-135.3 1291.3,-128.3"/>
</g>
<!-- CancelarEntradaComponent -->
<g id="node2" class="node">
<title>CancelarEntradaComponent</title>
<polygon fill="#ffffb3" stroke="black" points="1836.11,-84.8 1661.89,-84.8 1661.89,-48.8 1836.11,-48.8 1836.11,-84.8"/>
<text text-anchor="middle" x="1749" y="-62.6" font-family="Times,serif" font-size="14.00">CancelarEntradaComponent</text>
</g>
<!-- CancelarEntradaComponent&#45;&gt;EntradaHabitacionModule -->
<g id="edge2" class="edge">
<title>CancelarEntradaComponent&#45;&gt;EntradaHabitacionModule</title>
<path fill="none" stroke="black" d="M1749,-84.82C1749,-102.17 1749,-125.8 1749,-125.8 1749,-125.8 1291.04,-125.8 1291.04,-125.8"/>
<polygon fill="black" stroke="black" points="1291.04,-122.3 1281.04,-125.8 1291.04,-129.3 1291.04,-122.3"/>
</g>
<!-- CancelarHabitacionComponent -->
<g id="node3" class="node">
<title>CancelarHabitacionComponent</title>
<polygon fill="#ffffb3" stroke="black" points="1643.5,-84.8 1450.5,-84.8 1450.5,-48.8 1643.5,-48.8 1643.5,-84.8"/>
<text text-anchor="middle" x="1547" y="-62.6" font-family="Times,serif" font-size="14.00">CancelarHabitacionComponent</text>
</g>
<!-- CancelarHabitacionComponent&#45;&gt;EntradaHabitacionModule -->
<g id="edge3" class="edge">
<title>CancelarHabitacionComponent&#45;&gt;EntradaHabitacionModule</title>
<path fill="none" stroke="black" d="M1547,-85.04C1547,-100.37 1547,-119.8 1547,-119.8 1547,-119.8 1291.03,-119.8 1291.03,-119.8"/>
<polygon fill="black" stroke="black" points="1291.03,-116.3 1281.03,-119.8 1291.03,-123.3 1291.03,-116.3"/>
</g>
<!-- CobrarPendienteHabitacionComponent -->
<g id="node4" class="node">
<title>CobrarPendienteHabitacionComponent</title>
<polygon fill="#ffffb3" stroke="black" points="1432.34,-84.8 1195.66,-84.8 1195.66,-48.8 1432.34,-48.8 1432.34,-84.8"/>
<text text-anchor="middle" x="1314" y="-62.6" font-family="Times,serif" font-size="14.00">CobrarPendienteHabitacionComponent</text>
</g>
<!-- CobrarPendienteHabitacionComponent&#45;&gt;EntradaHabitacionModule -->
<g id="edge4" class="edge">
<title>CobrarPendienteHabitacionComponent&#45;&gt;EntradaHabitacionModule</title>
<path fill="none" stroke="black" d="M1238.42,-84.91C1238.42,-84.91 1238.42,-103.79 1238.42,-103.79"/>
<polygon fill="black" stroke="black" points="1234.92,-103.79 1238.42,-113.79 1241.92,-103.79 1234.92,-103.79"/>
</g>
<!-- EntradaHabitacionComponent -->
<g id="node5" class="node">
<title>EntradaHabitacionComponent</title>
<polygon fill="#ffffb3" stroke="black" points="1177.28,-84.8 990.72,-84.8 990.72,-48.8 1177.28,-48.8 1177.28,-84.8"/>
<text text-anchor="middle" x="1084" y="-62.6" font-family="Times,serif" font-size="14.00">EntradaHabitacionComponent</text>
</g>
<!-- EntradaHabitacionComponent&#45;&gt;EntradaHabitacionModule -->
<g id="edge5" class="edge">
<title>EntradaHabitacionComponent&#45;&gt;EntradaHabitacionModule</title>
<path fill="none" stroke="black" d="M1146.94,-84.91C1146.94,-84.91 1146.94,-103.79 1146.94,-103.79"/>
<polygon fill="black" stroke="black" points="1143.44,-103.79 1146.94,-113.79 1150.44,-103.79 1143.44,-103.79"/>
</g>
<!-- PagoMixtoComponent -->
<g id="node6" class="node">
<title>PagoMixtoComponent</title>
<polygon fill="#ffffb3" stroke="black" points="972.56,-84.8 829.44,-84.8 829.44,-48.8 972.56,-48.8 972.56,-84.8"/>
<text text-anchor="middle" x="901" y="-62.6" font-family="Times,serif" font-size="14.00">PagoMixtoComponent</text>
</g>
<!-- PagoMixtoComponent&#45;&gt;EntradaHabitacionModule -->
<g id="edge6" class="edge">
<title>PagoMixtoComponent&#45;&gt;EntradaHabitacionModule</title>
<path fill="none" stroke="black" d="M901,-85.04C901,-100.37 901,-119.8 901,-119.8 901,-119.8 1106.78,-119.8 1106.78,-119.8"/>
<polygon fill="black" stroke="black" points="1106.78,-123.3 1116.78,-119.8 1106.78,-116.3 1106.78,-123.3"/>
</g>
<!-- PagoRentaHabitacionComponent -->
<g id="node7" class="node">
<title>PagoRentaHabitacionComponent</title>
<polygon fill="#ffffb3" stroke="black" points="811.91,-84.8 608.09,-84.8 608.09,-48.8 811.91,-48.8 811.91,-84.8"/>
<text text-anchor="middle" x="710" y="-62.6" font-family="Times,serif" font-size="14.00">PagoRentaHabitacionComponent</text>
</g>
<!-- PagoRentaHabitacionComponent&#45;&gt;EntradaHabitacionModule -->
<g id="edge7" class="edge">
<title>PagoRentaHabitacionComponent&#45;&gt;EntradaHabitacionModule</title>
<path fill="none" stroke="black" d="M710,-84.82C710,-102.17 710,-125.8 710,-125.8 710,-125.8 1106.88,-125.8 1106.88,-125.8"/>
<polygon fill="black" stroke="black" points="1106.88,-129.3 1116.88,-125.8 1106.88,-122.3 1106.88,-129.3"/>
</g>
<!-- PagoTarjetaComponent -->
<g id="node8" class="node">
<title>PagoTarjetaComponent</title>
<polygon fill="#ffffb3" stroke="black" points="590.47,-84.8 441.53,-84.8 441.53,-48.8 590.47,-48.8 590.47,-84.8"/>
<text text-anchor="middle" x="516" y="-62.6" font-family="Times,serif" font-size="14.00">PagoTarjetaComponent</text>
</g>
<!-- PagoTarjetaComponent&#45;&gt;EntradaHabitacionModule -->
<g id="edge8" class="edge">
<title>PagoTarjetaComponent&#45;&gt;EntradaHabitacionModule</title>
<path fill="none" stroke="black" d="M516,-84.91C516,-104.14 516,-131.8 516,-131.8 516,-131.8 1106.95,-131.8 1106.95,-131.8"/>
<polygon fill="black" stroke="black" points="1106.95,-135.3 1116.95,-131.8 1106.95,-128.3 1106.95,-135.3"/>
</g>
<!-- RentaExtraHabitacionComponent -->
<g id="node9" class="node">
<title>RentaExtraHabitacionComponent</title>
<polygon fill="#ffffb3" stroke="black" points="423.72,-84.8 218.28,-84.8 218.28,-48.8 423.72,-48.8 423.72,-84.8"/>
<text text-anchor="middle" x="321" y="-62.6" font-family="Times,serif" font-size="14.00">RentaExtraHabitacionComponent</text>
</g>
<!-- RentaExtraHabitacionComponent&#45;&gt;EntradaHabitacionModule -->
<g id="edge9" class="edge">
<title>RentaExtraHabitacionComponent&#45;&gt;EntradaHabitacionModule</title>
<path fill="none" stroke="black" d="M321,-85.08C321,-106.12 321,-137.8 321,-137.8 321,-137.8 1106.79,-137.8 1106.79,-137.8"/>
<polygon fill="black" stroke="black" points="1106.79,-141.3 1116.79,-137.8 1106.79,-134.3 1106.79,-141.3"/>
</g>
<!-- RentaHabitacionComponent -->
<g id="node10" class="node">
<title>RentaHabitacionComponent</title>
<polygon fill="#ffffb3" stroke="black" points="199.91,-84.8 24.09,-84.8 24.09,-48.8 199.91,-48.8 199.91,-84.8"/>
<text text-anchor="middle" x="112" y="-62.6" font-family="Times,serif" font-size="14.00">RentaHabitacionComponent</text>
</g>
<!-- RentaHabitacionComponent&#45;&gt;EntradaHabitacionModule -->
<g id="edge10" class="edge">
<title>RentaHabitacionComponent&#45;&gt;EntradaHabitacionModule</title>
<path fill="none" stroke="black" d="M112,-84.89C112,-107.93 112,-144.8 112,-144.8 112,-144.8 1106.85,-144.8 1106.85,-144.8"/>
<polygon fill="black" stroke="black" points="1106.85,-148.3 1116.85,-144.8 1106.85,-141.3 1106.85,-148.3"/>
</g>
<!-- CoreModule -->
<g id="node12" class="node">
<title>CoreModule</title>
<polygon fill="#8dd3c7" stroke="black" points="2277.27,-84.8 2274.27,-88.8 2253.27,-88.8 2250.27,-84.8 2190.73,-84.8 2190.73,-48.8 2277.27,-48.8 2277.27,-84.8"/>
<text text-anchor="middle" x="2234" y="-62.6" font-family="Times,serif" font-size="14.00">CoreModule</text>
</g>
<!-- CoreModule&#45;&gt;EntradaHabitacionModule -->
<g id="edge11" class="edge">
<title>CoreModule&#45;&gt;EntradaHabitacionModule</title>
<path fill="none" stroke="black" d="M2234,-84.89C2234,-107.93 2234,-144.8 2234,-144.8 2234,-144.8 1291.08,-144.8 1291.08,-144.8"/>
<polygon fill="black" stroke="black" points="1291.08,-141.3 1281.08,-144.8 1291.08,-148.3 1291.08,-141.3"/>
</g>
<!-- PrimengModule -->
<g id="node13" class="node">
<title>PrimengModule</title>
<polygon fill="#8dd3c7" stroke="black" points="2172.49,-84.8 2169.49,-88.8 2148.49,-88.8 2145.49,-84.8 2065.51,-84.8 2065.51,-48.8 2172.49,-48.8 2172.49,-84.8"/>
<text text-anchor="middle" x="2119" y="-62.6" font-family="Times,serif" font-size="14.00">PrimengModule</text>
</g>
<!-- PrimengModule&#45;&gt;EntradaHabitacionModule -->
<g id="edge12" class="edge">
<title>PrimengModule&#45;&gt;EntradaHabitacionModule</title>
<path fill="none" stroke="black" d="M2119,-85.08C2119,-106.12 2119,-137.8 2119,-137.8 2119,-137.8 1291.05,-137.8 1291.05,-137.8"/>
<polygon fill="black" stroke="black" points="1291.05,-134.3 1281.05,-137.8 1291.05,-141.3 1291.05,-134.3"/>
</g>
</g>
</svg>
