<?xml version="1.0" encoding="UTF-8" standalone="no"?>
<!DOCTYPE svg PUBLIC "-//W3C//DTD SVG 1.1//EN"
 "http://www.w3.org/Graphics/SVG/1.1/DTD/svg11.dtd">
<!-- Generated by graphviz version 5.0.0 (20220707.1540)
 -->
<!-- Title: dependencies Pages: 1 -->
<svg width="1546pt" height="174pt"
 viewBox="0.00 0.00 1546.00 173.80" xmlns="http://www.w3.org/2000/svg" xmlns:xlink="http://www.w3.org/1999/xlink">
<g id="graph0" class="graph" transform="scale(1 1) rotate(0) translate(4 169.8)">
<title>dependencies</title>
<polygon fill="white" stroke="transparent" points="-4,4 -4,-169.8 1542,-169.8 1542,4 -4,4"/>
<text text-anchor="middle" x="769" y="-8.2" font-family="sans-serif" font-size="14.00">dependencies</text>
<g id="clust1" class="cluster">
<title>cluster_RoomServiceModule</title>
<polygon fill="none" stroke="black" stroke-dasharray="1,5" points="8,-32.8 8,-157.8 1530,-157.8 1530,-32.8 8,-32.8"/>
</g>
<g id="clust8" class="cluster">
<title>cluster_RoomServiceModule_imports</title>
<polygon fill="none" stroke="black" points="1089,-40.8 1089,-92.8 1522,-92.8 1522,-40.8 1089,-40.8"/>
</g>
<g id="clust2" class="cluster">
<title>cluster_RoomServiceModule_declarations</title>
<polygon fill="none" stroke="black" points="16,-40.8 16,-92.8 1081,-92.8 1081,-40.8 16,-40.8"/>
</g>
<!-- CrearComandaRoomserviceComponent -->
<g id="node1" class="node">
<title>CrearComandaRoomserviceComponent</title>
<polygon fill="#ffffb3" stroke="black" points="1072.95,-84.8 833.05,-84.8 833.05,-48.8 1072.95,-48.8 1072.95,-84.8"/>
<text text-anchor="middle" x="953" y="-62.6" font-family="Times,serif" font-size="14.00">CrearComandaRoomserviceComponent</text>
</g>
<!-- RoomServiceModule -->
<g id="node6" class="node">
<title>RoomServiceModule</title>
<polygon fill="#8dd3c7" stroke="black" points="893.76,-149.8 890.76,-153.8 869.76,-153.8 866.76,-149.8 758.24,-149.8 758.24,-113.8 893.76,-113.8 893.76,-149.8"/>
<text text-anchor="middle" x="826" y="-127.6" font-family="Times,serif" font-size="14.00">RoomServiceModule</text>
</g>
<!-- CrearComandaRoomserviceComponent&#45;&gt;RoomServiceModule -->
<g id="edge1" class="edge">
<title>CrearComandaRoomserviceComponent&#45;&gt;RoomServiceModule</title>
<path fill="none" stroke="black" d="M863.45,-84.91C863.45,-84.91 863.45,-103.79 863.45,-103.79"/>
<polygon fill="black" stroke="black" points="859.95,-103.79 863.45,-113.79 866.95,-103.79 859.95,-103.79"/>
</g>
<!-- LiberarPagarRoomServiceComponent -->
<g id="node2" class="node">
<title>LiberarPagarRoomServiceComponent</title>
<polygon fill="#ffffb3" stroke="black" points="815.11,-84.8 584.89,-84.8 584.89,-48.8 815.11,-48.8 815.11,-84.8"/>
<text text-anchor="middle" x="700" y="-62.6" font-family="Times,serif" font-size="14.00">LiberarPagarRoomServiceComponent</text>
</g>
<!-- LiberarPagarRoomServiceComponent&#45;&gt;RoomServiceModule -->
<g id="edge2" class="edge">
<title>LiberarPagarRoomServiceComponent&#45;&gt;RoomServiceModule</title>
<path fill="none" stroke="black" d="M786.71,-84.91C786.71,-84.91 786.71,-103.79 786.71,-103.79"/>
<polygon fill="black" stroke="black" points="783.21,-103.79 786.71,-113.79 790.21,-103.79 783.21,-103.79"/>
</g>
<!-- PagoComandasComponent -->
<g id="node3" class="node">
<title>PagoComandasComponent</title>
<polygon fill="#ffffb3" stroke="black" points="566.44,-84.8 397.56,-84.8 397.56,-48.8 566.44,-48.8 566.44,-84.8"/>
<text text-anchor="middle" x="482" y="-62.6" font-family="Times,serif" font-size="14.00">PagoComandasComponent</text>
</g>
<!-- PagoComandasComponent&#45;&gt;RoomServiceModule -->
<g id="edge3" class="edge">
<title>PagoComandasComponent&#45;&gt;RoomServiceModule</title>
<path fill="none" stroke="black" d="M482,-84.83C482,-101.2 482,-122.8 482,-122.8 482,-122.8 748.04,-122.8 748.04,-122.8"/>
<polygon fill="black" stroke="black" points="748.04,-126.3 758.04,-122.8 748.04,-119.3 748.04,-126.3"/>
</g>
<!-- RoomServiceComponent -->
<g id="node4" class="node">
<title>RoomServiceComponent</title>
<polygon fill="#ffffb3" stroke="black" points="379.54,-84.8 222.46,-84.8 222.46,-48.8 379.54,-48.8 379.54,-84.8"/>
<text text-anchor="middle" x="301" y="-62.6" font-family="Times,serif" font-size="14.00">RoomServiceComponent</text>
</g>
<!-- RoomServiceComponent&#45;&gt;RoomServiceModule -->
<g id="edge4" class="edge">
<title>RoomServiceComponent&#45;&gt;RoomServiceModule</title>
<path fill="none" stroke="black" d="M301,-84.91C301,-104.14 301,-131.8 301,-131.8 301,-131.8 748.17,-131.8 748.17,-131.8"/>
<polygon fill="black" stroke="black" points="748.17,-135.3 758.17,-131.8 748.17,-128.3 748.17,-135.3"/>
</g>
<!-- TarjetasComandaComponent -->
<g id="node5" class="node">
<title>TarjetasComandaComponent</title>
<polygon fill="#ffffb3" stroke="black" points="204.07,-84.8 23.93,-84.8 23.93,-48.8 204.07,-48.8 204.07,-84.8"/>
<text text-anchor="middle" x="114" y="-62.6" font-family="Times,serif" font-size="14.00">TarjetasComandaComponent</text>
</g>
<!-- TarjetasComandaComponent&#45;&gt;RoomServiceModule -->
<g id="edge5" class="edge">
<title>TarjetasComandaComponent&#45;&gt;RoomServiceModule</title>
<path fill="none" stroke="black" d="M114,-85.09C114,-107.01 114,-140.8 114,-140.8 114,-140.8 748.05,-140.8 748.05,-140.8"/>
<polygon fill="black" stroke="black" points="748.05,-144.3 758.05,-140.8 748.05,-137.3 748.05,-144.3"/>
</g>
<!-- BootstrapModule -->
<g id="node7" class="node">
<title>BootstrapModule</title>
<polygon fill="#8dd3c7" stroke="black" points="1513.99,-84.8 1510.99,-88.8 1489.99,-88.8 1486.99,-84.8 1400.01,-84.8 1400.01,-48.8 1513.99,-48.8 1513.99,-84.8"/>
<text text-anchor="middle" x="1457" y="-62.6" font-family="Times,serif" font-size="14.00">BootstrapModule</text>
</g>
<!-- BootstrapModule&#45;&gt;RoomServiceModule -->
<g id="edge6" class="edge">
<title>BootstrapModule&#45;&gt;RoomServiceModule</title>
<path fill="none" stroke="black" d="M1457,-85.09C1457,-107.01 1457,-140.8 1457,-140.8 1457,-140.8 903.83,-140.8 903.83,-140.8"/>
<polygon fill="black" stroke="black" points="903.83,-137.3 893.83,-140.8 903.83,-144.3 903.83,-137.3"/>
</g>
<!-- CoreModule -->
<g id="node8" class="node">
<title>CoreModule</title>
<polygon fill="#8dd3c7" stroke="black" points="1382.27,-84.8 1379.27,-88.8 1358.27,-88.8 1355.27,-84.8 1295.73,-84.8 1295.73,-48.8 1382.27,-48.8 1382.27,-84.8"/>
<text text-anchor="middle" x="1339" y="-62.6" font-family="Times,serif" font-size="14.00">CoreModule</text>
</g>
<!-- CoreModule&#45;&gt;RoomServiceModule -->
<g id="edge7" class="edge">
<title>CoreModule&#45;&gt;RoomServiceModule</title>
<path fill="none" stroke="black" d="M1339,-84.91C1339,-104.14 1339,-131.8 1339,-131.8 1339,-131.8 903.86,-131.8 903.86,-131.8"/>
<polygon fill="black" stroke="black" points="903.86,-128.3 893.86,-131.8 903.86,-135.3 903.86,-128.3"/>
</g>
<!-- RoomServiceRoutingModule -->
<g id="node9" class="node">
<title>RoomServiceRoutingModule</title>
<polygon fill="#8dd3c7" stroke="black" points="1277.38,-84.8 1274.38,-88.8 1253.38,-88.8 1250.38,-84.8 1096.62,-84.8 1096.62,-48.8 1277.38,-48.8 1277.38,-84.8"/>
<text text-anchor="middle" x="1187" y="-62.6" font-family="Times,serif" font-size="14.00">RoomServiceRoutingModule</text>
</g>
<!-- RoomServiceRoutingModule&#45;&gt;RoomServiceModule -->
<g id="edge8" class="edge">
<title>RoomServiceRoutingModule&#45;&gt;RoomServiceModule</title>
<path fill="none" stroke="black" d="M1187,-84.83C1187,-101.2 1187,-122.8 1187,-122.8 1187,-122.8 903.9,-122.8 903.9,-122.8"/>
<polygon fill="black" stroke="black" points="903.9,-119.3 893.9,-122.8 903.9,-126.3 903.9,-119.3"/>
</g>
</g>
</svg>
