<?xml version="1.0" encoding="UTF-8" standalone="no"?>
<!DOCTYPE svg PUBLIC "-//W3C//DTD SVG 1.1//EN"
 "http://www.w3.org/Graphics/SVG/1.1/DTD/svg11.dtd">
<!-- Generated by graphviz version 5.0.0 (20220707.1540)
 -->
<!-- Title: dependencies Pages: 1 -->
<svg width="1546pt" height="174pt"
 viewBox="0.00 0.00 1546.00 173.80" xmlns="http://www.w3.org/2000/svg" xmlns:xlink="http://www.w3.org/1999/xlink">
<g id="graph0" class="graph" transform="scale(1 1) rotate(0) translate(4 169.8)">
<title>dependencies</title>
<polygon fill="white" stroke="transparent" points="-4,4 -4,-169.8 1542,-169.8 1542,4 -4,4"/>
<text text-anchor="middle" x="769" y="-8.2" font-family="sans-serif" font-size="14.00">dependencies</text>
<g id="clust1" class="cluster">
<title>cluster_RoomServiceModule</title>
<polygon fill="none" stroke="black" stroke-dasharray="1,5" points="8,-32.8 8,-157.8 1530,-157.8 1530,-32.8 8,-32.8"/>
</g>
<g id="clust2" class="cluster">
<title>cluster_RoomServiceModule_declarations</title>
<polygon fill="none" stroke="black" points="457,-40.8 457,-92.8 1522,-92.8 1522,-40.8 457,-40.8"/>
</g>
<g id="clust8" class="cluster">
<title>cluster_RoomServiceModule_imports</title>
<polygon fill="none" stroke="black" points="16,-40.8 16,-92.8 449,-92.8 449,-40.8 16,-40.8"/>
</g>
<!-- CrearComandaRoomserviceComponent -->
<g id="node1" class="node">
<title>CrearComandaRoomserviceComponent</title>
<polygon fill="#ffffb3" stroke="black" points="1513.95,-84.8 1274.05,-84.8 1274.05,-48.8 1513.95,-48.8 1513.95,-84.8"/>
<text text-anchor="middle" x="1394" y="-62.6" font-family="Times,serif" font-size="14.00">CrearComandaRoomserviceComponent</text>
</g>
<!-- RoomServiceModule -->
<g id="node6" class="node">
<title>RoomServiceModule</title>
<polygon fill="#8dd3c7" stroke="black" points="715.76,-149.8 712.76,-153.8 691.76,-153.8 688.76,-149.8 580.24,-149.8 580.24,-113.8 715.76,-113.8 715.76,-149.8"/>
<text text-anchor="middle" x="648" y="-127.6" font-family="Times,serif" font-size="14.00">RoomServiceModule</text>
</g>
<!-- CrearComandaRoomserviceComponent&#45;&gt;RoomServiceModule -->
<g id="edge1" class="edge">
<title>CrearComandaRoomserviceComponent&#45;&gt;RoomServiceModule</title>
<path fill="none" stroke="black" d="M1394,-85.09C1394,-107.01 1394,-140.8 1394,-140.8 1394,-140.8 725.85,-140.8 725.85,-140.8"/>
<polygon fill="black" stroke="black" points="725.85,-137.3 715.85,-140.8 725.85,-144.3 725.85,-137.3"/>
</g>
<!-- LiberarPagarRoomServiceComponent -->
<g id="node2" class="node">
<title>LiberarPagarRoomServiceComponent</title>
<polygon fill="#ffffb3" stroke="black" points="1256.11,-84.8 1025.89,-84.8 1025.89,-48.8 1256.11,-48.8 1256.11,-84.8"/>
<text text-anchor="middle" x="1141" y="-62.6" font-family="Times,serif" font-size="14.00">LiberarPagarRoomServiceComponent</text>
</g>
<!-- LiberarPagarRoomServiceComponent&#45;&gt;RoomServiceModule -->
<g id="edge2" class="edge">
<title>LiberarPagarRoomServiceComponent&#45;&gt;RoomServiceModule</title>
<path fill="none" stroke="black" d="M1141,-84.91C1141,-104.14 1141,-131.8 1141,-131.8 1141,-131.8 725.77,-131.8 725.77,-131.8"/>
<polygon fill="black" stroke="black" points="725.77,-128.3 715.77,-131.8 725.77,-135.3 725.77,-128.3"/>
</g>
<!-- PagoComandasComponent -->
<g id="node3" class="node">
<title>PagoComandasComponent</title>
<polygon fill="#ffffb3" stroke="black" points="1007.44,-84.8 838.56,-84.8 838.56,-48.8 1007.44,-48.8 1007.44,-84.8"/>
<text text-anchor="middle" x="923" y="-62.6" font-family="Times,serif" font-size="14.00">PagoComandasComponent</text>
</g>
<!-- PagoComandasComponent&#45;&gt;RoomServiceModule -->
<g id="edge3" class="edge">
<title>PagoComandasComponent&#45;&gt;RoomServiceModule</title>
<path fill="none" stroke="black" d="M923,-84.83C923,-101.2 923,-122.8 923,-122.8 923,-122.8 725.98,-122.8 725.98,-122.8"/>
<polygon fill="black" stroke="black" points="725.98,-119.3 715.98,-122.8 725.98,-126.3 725.98,-119.3"/>
</g>
<!-- RoomServiceComponent -->
<g id="node4" class="node">
<title>RoomServiceComponent</title>
<polygon fill="#ffffb3" stroke="black" points="820.54,-84.8 663.46,-84.8 663.46,-48.8 820.54,-48.8 820.54,-84.8"/>
<text text-anchor="middle" x="742" y="-62.6" font-family="Times,serif" font-size="14.00">RoomServiceComponent</text>
</g>
<!-- RoomServiceComponent&#45;&gt;RoomServiceModule -->
<g id="edge4" class="edge">
<title>RoomServiceComponent&#45;&gt;RoomServiceModule</title>
<path fill="none" stroke="black" d="M689.56,-84.91C689.56,-84.91 689.56,-103.79 689.56,-103.79"/>
<polygon fill="black" stroke="black" points="686.06,-103.79 689.56,-113.79 693.06,-103.79 686.06,-103.79"/>
</g>
<!-- TarjetasComandaComponent -->
<g id="node5" class="node">
<title>TarjetasComandaComponent</title>
<polygon fill="#ffffb3" stroke="black" points="645.07,-84.8 464.93,-84.8 464.93,-48.8 645.07,-48.8 645.07,-84.8"/>
<text text-anchor="middle" x="555" y="-62.6" font-family="Times,serif" font-size="14.00">TarjetasComandaComponent</text>
</g>
<!-- TarjetasComandaComponent&#45;&gt;RoomServiceModule -->
<g id="edge5" class="edge">
<title>TarjetasComandaComponent&#45;&gt;RoomServiceModule</title>
<path fill="none" stroke="black" d="M612.58,-84.91C612.58,-84.91 612.58,-103.79 612.58,-103.79"/>
<polygon fill="black" stroke="black" points="609.08,-103.79 612.58,-113.79 616.08,-103.79 609.08,-103.79"/>
</g>
<!-- BootstrapModule -->
<g id="node7" class="node">
<title>BootstrapModule</title>
<polygon fill="#8dd3c7" stroke="black" points="440.99,-84.8 437.99,-88.8 416.99,-88.8 413.99,-84.8 327.01,-84.8 327.01,-48.8 440.99,-48.8 440.99,-84.8"/>
<text text-anchor="middle" x="384" y="-62.6" font-family="Times,serif" font-size="14.00">BootstrapModule</text>
</g>
<!-- BootstrapModule&#45;&gt;RoomServiceModule -->
<g id="edge6" class="edge">
<title>BootstrapModule&#45;&gt;RoomServiceModule</title>
<path fill="none" stroke="black" d="M384,-84.83C384,-101.2 384,-122.8 384,-122.8 384,-122.8 570.01,-122.8 570.01,-122.8"/>
<polygon fill="black" stroke="black" points="570.01,-126.3 580.01,-122.8 570.01,-119.3 570.01,-126.3"/>
</g>
<!-- CoreModule -->
<g id="node8" class="node">
<title>CoreModule</title>
<polygon fill="#8dd3c7" stroke="black" points="309.27,-84.8 306.27,-88.8 285.27,-88.8 282.27,-84.8 222.73,-84.8 222.73,-48.8 309.27,-48.8 309.27,-84.8"/>
<text text-anchor="middle" x="266" y="-62.6" font-family="Times,serif" font-size="14.00">CoreModule</text>
</g>
<!-- CoreModule&#45;&gt;RoomServiceModule -->
<g id="edge7" class="edge">
<title>CoreModule&#45;&gt;RoomServiceModule</title>
<path fill="none" stroke="black" d="M266,-84.91C266,-104.14 266,-131.8 266,-131.8 266,-131.8 570.15,-131.8 570.15,-131.8"/>
<polygon fill="black" stroke="black" points="570.15,-135.3 580.15,-131.8 570.15,-128.3 570.15,-135.3"/>
</g>
<!-- RoomServiceRoutingModule -->
<g id="node9" class="node">
<title>RoomServiceRoutingModule</title>
<polygon fill="#8dd3c7" stroke="black" points="204.38,-84.8 201.38,-88.8 180.38,-88.8 177.38,-84.8 23.62,-84.8 23.62,-48.8 204.38,-48.8 204.38,-84.8"/>
<text text-anchor="middle" x="114" y="-62.6" font-family="Times,serif" font-size="14.00">RoomServiceRoutingModule</text>
</g>
<!-- RoomServiceRoutingModule&#45;&gt;RoomServiceModule -->
<g id="edge8" class="edge">
<title>RoomServiceRoutingModule&#45;&gt;RoomServiceModule</title>
<path fill="none" stroke="black" d="M114,-85.09C114,-107.01 114,-140.8 114,-140.8 114,-140.8 570.1,-140.8 570.1,-140.8"/>
<polygon fill="black" stroke="black" points="570.1,-144.3 580.1,-140.8 570.1,-137.3 570.1,-144.3"/>
</g>
</g>
</svg>
