<?xml version="1.0" encoding="UTF-8" standalone="no"?>
<!DOCTYPE svg PUBLIC "-//W3C//DTD SVG 1.1//EN"
 "http://www.w3.org/Graphics/SVG/1.1/DTD/svg11.dtd">
<!-- Generated by graphviz version 5.0.0 (20220707.1540)
 -->
<!-- Title: dependencies Pages: 1 -->
<svg width="1347pt" height="174pt"
 viewBox="0.00 0.00 1347.00 173.80" xmlns="http://www.w3.org/2000/svg" xmlns:xlink="http://www.w3.org/1999/xlink">
<g id="graph0" class="graph" transform="scale(1 1) rotate(0) translate(4 169.8)">
<title>dependencies</title>
<polygon fill="white" stroke="transparent" points="-4,4 -4,-169.8 1343,-169.8 1343,4 -4,4"/>
<text text-anchor="middle" x="669.5" y="-8.2" font-family="sans-serif" font-size="14.00">dependencies</text>
<g id="clust1" class="cluster">
<title>cluster_RoomServiceModule</title>
<polygon fill="none" stroke="black" stroke-dasharray="1,5" points="8,-32.8 8,-157.8 1331,-157.8 1331,-32.8 8,-32.8"/>
</g>
<g id="clust2" class="cluster">
<title>cluster_RoomServiceModule_declarations</title>
<polygon fill="none" stroke="black" points="258,-40.8 258,-92.8 1323,-92.8 1323,-40.8 258,-40.8"/>
</g>
<g id="clust8" class="cluster">
<title>cluster_RoomServiceModule_imports</title>
<polygon fill="none" stroke="black" points="16,-40.8 16,-92.8 250,-92.8 250,-40.8 16,-40.8"/>
</g>
<!-- CrearComandaRoomserviceComponent -->
<g id="node1" class="node">
<title>CrearComandaRoomserviceComponent</title>
<polygon fill="#ffffb3" stroke="black" points="1314.95,-84.8 1075.05,-84.8 1075.05,-48.8 1314.95,-48.8 1314.95,-84.8"/>
<text text-anchor="middle" x="1195" y="-62.6" font-family="Times,serif" font-size="14.00">CrearComandaRoomserviceComponent</text>
</g>
<!-- RoomServiceModule -->
<g id="node6" class="node">
<title>RoomServiceModule</title>
<polygon fill="#8dd3c7" stroke="black" points="610.76,-149.8 607.76,-153.8 586.76,-153.8 583.76,-149.8 475.24,-149.8 475.24,-113.8 610.76,-113.8 610.76,-149.8"/>
<text text-anchor="middle" x="543" y="-127.6" font-family="Times,serif" font-size="14.00">RoomServiceModule</text>
</g>
<!-- CrearComandaRoomserviceComponent&#45;&gt;RoomServiceModule -->
<g id="edge1" class="edge">
<title>CrearComandaRoomserviceComponent&#45;&gt;RoomServiceModule</title>
<path fill="none" stroke="black" d="M1195,-85.09C1195,-107.01 1195,-140.8 1195,-140.8 1195,-140.8 620.93,-140.8 620.93,-140.8"/>
<polygon fill="black" stroke="black" points="620.93,-137.3 610.93,-140.8 620.93,-144.3 620.93,-137.3"/>
</g>
<!-- LiberarPagarRoomServiceComponent -->
<g id="node2" class="node">
<title>LiberarPagarRoomServiceComponent</title>
<polygon fill="#ffffb3" stroke="black" points="1057.11,-84.8 826.89,-84.8 826.89,-48.8 1057.11,-48.8 1057.11,-84.8"/>
<text text-anchor="middle" x="942" y="-62.6" font-family="Times,serif" font-size="14.00">LiberarPagarRoomServiceComponent</text>
</g>
<!-- LiberarPagarRoomServiceComponent&#45;&gt;RoomServiceModule -->
<g id="edge2" class="edge">
<title>LiberarPagarRoomServiceComponent&#45;&gt;RoomServiceModule</title>
<path fill="none" stroke="black" d="M942,-84.91C942,-104.14 942,-131.8 942,-131.8 942,-131.8 621.14,-131.8 621.14,-131.8"/>
<polygon fill="black" stroke="black" points="621.14,-128.3 611.14,-131.8 621.14,-135.3 621.14,-128.3"/>
</g>
<!-- PagoComandasComponent -->
<g id="node3" class="node">
<title>PagoComandasComponent</title>
<polygon fill="#ffffb3" stroke="black" points="808.44,-84.8 639.56,-84.8 639.56,-48.8 808.44,-48.8 808.44,-84.8"/>
<text text-anchor="middle" x="724" y="-62.6" font-family="Times,serif" font-size="14.00">PagoComandasComponent</text>
</g>
<!-- PagoComandasComponent&#45;&gt;RoomServiceModule -->
<g id="edge3" class="edge">
<title>PagoComandasComponent&#45;&gt;RoomServiceModule</title>
<path fill="none" stroke="black" d="M724,-84.83C724,-101.2 724,-122.8 724,-122.8 724,-122.8 620.91,-122.8 620.91,-122.8"/>
<polygon fill="black" stroke="black" points="620.91,-119.3 610.91,-122.8 620.91,-126.3 620.91,-119.3"/>
</g>
<!-- RoomServiceComponent -->
<g id="node4" class="node">
<title>RoomServiceComponent</title>
<polygon fill="#ffffb3" stroke="black" points="621.54,-84.8 464.46,-84.8 464.46,-48.8 621.54,-48.8 621.54,-84.8"/>
<text text-anchor="middle" x="543" y="-62.6" font-family="Times,serif" font-size="14.00">RoomServiceComponent</text>
</g>
<!-- RoomServiceComponent&#45;&gt;RoomServiceModule -->
<g id="edge4" class="edge">
<title>RoomServiceComponent&#45;&gt;RoomServiceModule</title>
<path fill="none" stroke="black" d="M543,-84.91C543,-84.91 543,-103.79 543,-103.79"/>
<polygon fill="black" stroke="black" points="539.5,-103.79 543,-113.79 546.5,-103.79 539.5,-103.79"/>
</g>
<!-- TarjetasComandaComponent -->
<g id="node5" class="node">
<title>TarjetasComandaComponent</title>
<polygon fill="#ffffb3" stroke="black" points="446.07,-84.8 265.93,-84.8 265.93,-48.8 446.07,-48.8 446.07,-84.8"/>
<text text-anchor="middle" x="356" y="-62.6" font-family="Times,serif" font-size="14.00">TarjetasComandaComponent</text>
</g>
<!-- TarjetasComandaComponent&#45;&gt;RoomServiceModule -->
<g id="edge5" class="edge">
<title>TarjetasComandaComponent&#45;&gt;RoomServiceModule</title>
<path fill="none" stroke="black" d="M356,-84.83C356,-101.2 356,-122.8 356,-122.8 356,-122.8 465.22,-122.8 465.22,-122.8"/>
<polygon fill="black" stroke="black" points="465.22,-126.3 475.22,-122.8 465.22,-119.3 465.22,-126.3"/>
</g>
<!-- BootstrapModule -->
<g id="node7" class="node">
<title>BootstrapModule</title>
<polygon fill="#8dd3c7" stroke="black" points="241.99,-84.8 238.99,-88.8 217.99,-88.8 214.99,-84.8 128.01,-84.8 128.01,-48.8 241.99,-48.8 241.99,-84.8"/>
<text text-anchor="middle" x="185" y="-62.6" font-family="Times,serif" font-size="14.00">BootstrapModule</text>
</g>
<!-- BootstrapModule&#45;&gt;RoomServiceModule -->
<g id="edge6" class="edge">
<title>BootstrapModule&#45;&gt;RoomServiceModule</title>
<path fill="none" stroke="black" d="M185,-84.91C185,-104.14 185,-131.8 185,-131.8 185,-131.8 464.82,-131.8 464.82,-131.8"/>
<polygon fill="black" stroke="black" points="464.82,-135.3 474.82,-131.8 464.82,-128.3 464.82,-135.3"/>
</g>
<!-- CoreModule -->
<g id="node8" class="node">
<title>CoreModule</title>
<polygon fill="#8dd3c7" stroke="black" points="110.27,-84.8 107.27,-88.8 86.27,-88.8 83.27,-84.8 23.73,-84.8 23.73,-48.8 110.27,-48.8 110.27,-84.8"/>
<text text-anchor="middle" x="67" y="-62.6" font-family="Times,serif" font-size="14.00">CoreModule</text>
</g>
<!-- CoreModule&#45;&gt;RoomServiceModule -->
<g id="edge7" class="edge">
<title>CoreModule&#45;&gt;RoomServiceModule</title>
<path fill="none" stroke="black" d="M67,-85.09C67,-107.01 67,-140.8 67,-140.8 67,-140.8 465.05,-140.8 465.05,-140.8"/>
<polygon fill="black" stroke="black" points="465.05,-144.3 475.05,-140.8 465.05,-137.3 465.05,-144.3"/>
</g>
</g>
</svg>
