<?xml version="1.0" encoding="UTF-8" standalone="no"?>
<!DOCTYPE svg PUBLIC "-//W3C//DTD SVG 1.1//EN"
 "http://www.w3.org/Graphics/SVG/1.1/DTD/svg11.dtd">
<!-- Generated by graphviz version 5.0.0 (20220707.1540)
 -->
<!-- Title: dependencies Pages: 1 -->
<svg width="698pt" height="174pt"
 viewBox="0.00 0.00 698.00 173.80" xmlns="http://www.w3.org/2000/svg" xmlns:xlink="http://www.w3.org/1999/xlink">
<g id="graph0" class="graph" transform="scale(1 1) rotate(0) translate(4 169.8)">
<title>dependencies</title>
<polygon fill="white" stroke="transparent" points="-4,4 -4,-169.8 694,-169.8 694,4 -4,4"/>
<text text-anchor="middle" x="345" y="-8.2" font-family="sans-serif" font-size="14.00">dependencies</text>
<g id="clust1" class="cluster">
<title>cluster_DeshabilitarHabitacionModule</title>
<polygon fill="none" stroke="black" stroke-dasharray="1,5" points="8,-32.8 8,-157.8 682,-157.8 682,-32.8 8,-32.8"/>
</g>
<g id="clust5" class="cluster">
<title>cluster_DeshabilitarHabitacionModule_imports</title>
<polygon fill="none" stroke="black" points="424,-40.8 424,-92.8 674,-92.8 674,-40.8 424,-40.8"/>
</g>
<g id="clust2" class="cluster">
<title>cluster_DeshabilitarHabitacionModule_declarations</title>
<polygon fill="none" stroke="black" points="16,-40.8 16,-92.8 416,-92.8 416,-40.8 16,-40.8"/>
</g>
<!-- AutorizacionComponent -->
<g id="node1" class="node">
<title>AutorizacionComponent</title>
<polygon fill="#ffffb3" stroke="black" points="408.41,-84.8 253.59,-84.8 253.59,-48.8 408.41,-48.8 408.41,-84.8"/>
<text text-anchor="middle" x="331" y="-62.6" font-family="Times,serif" font-size="14.00">AutorizacionComponent</text>
</g>
<!-- DeshabilitarHabitacionModule -->
<g id="node3" class="node">
<title>DeshabilitarHabitacionModule</title>
<polygon fill="#8dd3c7" stroke="black" points="425.89,-149.8 422.89,-153.8 401.89,-153.8 398.89,-149.8 236.11,-149.8 236.11,-113.8 425.89,-113.8 425.89,-149.8"/>
<text text-anchor="middle" x="331" y="-127.6" font-family="Times,serif" font-size="14.00">DeshabilitarHabitacionModule</text>
</g>
<!-- AutorizacionComponent&#45;&gt;DeshabilitarHabitacionModule -->
<g id="edge1" class="edge">
<title>AutorizacionComponent&#45;&gt;DeshabilitarHabitacionModule</title>
<path fill="none" stroke="black" d="M331,-84.91C331,-84.91 331,-103.79 331,-103.79"/>
<polygon fill="black" stroke="black" points="327.5,-103.79 331,-113.79 334.5,-103.79 327.5,-103.79"/>
</g>
<!-- DeshabilitarHabitacionComponent -->
<g id="node2" class="node">
<title>DeshabilitarHabitacionComponent</title>
<polygon fill="#ffffb3" stroke="black" points="235.67,-84.8 24.33,-84.8 24.33,-48.8 235.67,-48.8 235.67,-84.8"/>
<text text-anchor="middle" x="130" y="-62.6" font-family="Times,serif" font-size="14.00">DeshabilitarHabitacionComponent</text>
</g>
<!-- DeshabilitarHabitacionComponent&#45;&gt;DeshabilitarHabitacionModule -->
<g id="edge2" class="edge">
<title>DeshabilitarHabitacionComponent&#45;&gt;DeshabilitarHabitacionModule</title>
<path fill="none" stroke="black" d="M235.63,-66.8C241.49,-66.8 245.05,-66.8 245.05,-66.8 245.05,-66.8 245.05,-103.69 245.05,-103.69"/>
<polygon fill="black" stroke="black" points="241.55,-103.69 245.05,-113.69 248.55,-103.69 241.55,-103.69"/>
</g>
<!-- DeshabilitarHabitacionRoutingModule -->
<g id="node4" class="node">
<title>DeshabilitarHabitacionRoutingModule</title>
<polygon fill="#8dd3c7" stroke="black" points="666.01,-84.8 663.01,-88.8 642.01,-88.8 639.01,-84.8 431.99,-84.8 431.99,-48.8 666.01,-48.8 666.01,-84.8"/>
<text text-anchor="middle" x="549" y="-62.6" font-family="Times,serif" font-size="14.00">DeshabilitarHabitacionRoutingModule</text>
</g>
<!-- DeshabilitarHabitacionRoutingModule&#45;&gt;DeshabilitarHabitacionModule -->
<g id="edge3" class="edge">
<title>DeshabilitarHabitacionRoutingModule&#45;&gt;DeshabilitarHabitacionModule</title>
<path fill="none" stroke="black" d="M431.84,-66.8C422.72,-66.8 416.95,-66.8 416.95,-66.8 416.95,-66.8 416.95,-103.69 416.95,-103.69"/>
<polygon fill="black" stroke="black" points="413.45,-103.69 416.95,-113.69 420.45,-103.69 413.45,-103.69"/>
</g>
</g>
</svg>
