<?xml version="1.0" encoding="UTF-8" standalone="no"?>
<!DOCTYPE svg PUBLIC "-//W3C//DTD SVG 1.1//EN"
 "http://www.w3.org/Graphics/SVG/1.1/DTD/svg11.dtd">
<!-- Generated by graphviz version 5.0.0 (20220707.1540)
 -->
<!-- Title: dependencies Pages: 1 -->
<svg width="440pt" height="174pt"
 viewBox="0.00 0.00 440.00 173.80" xmlns="http://www.w3.org/2000/svg" xmlns:xlink="http://www.w3.org/1999/xlink">
<g id="graph0" class="graph" transform="scale(1 1) rotate(0) translate(4 169.8)">
<title>dependencies</title>
<polygon fill="white" stroke="transparent" points="-4,4 -4,-169.8 436,-169.8 436,4 -4,4"/>
<text text-anchor="middle" x="216" y="-8.2" font-family="sans-serif" font-size="14.00">dependencies</text>
<g id="clust1" class="cluster">
<title>cluster_DeshabilitarHabitacionModule</title>
<polygon fill="none" stroke="black" stroke-dasharray="1,5" points="8,-32.8 8,-157.8 424,-157.8 424,-32.8 8,-32.8"/>
</g>
<g id="clust2" class="cluster">
<title>cluster_DeshabilitarHabitacionModule_declarations</title>
<polygon fill="none" stroke="black" points="16,-40.8 16,-92.8 416,-92.8 416,-40.8 16,-40.8"/>
</g>
<!-- AutorizacionComponent -->
<g id="node1" class="node">
<title>AutorizacionComponent</title>
<polygon fill="#ffffb3" stroke="black" points="408.41,-84.8 253.59,-84.8 253.59,-48.8 408.41,-48.8 408.41,-84.8"/>
<text text-anchor="middle" x="331" y="-62.6" font-family="Times,serif" font-size="14.00">AutorizacionComponent</text>
</g>
<!-- DeshabilitarHabitacionModule -->
<g id="node3" class="node">
<title>DeshabilitarHabitacionModule</title>
<polygon fill="#8dd3c7" stroke="black" points="319.89,-149.8 316.89,-153.8 295.89,-153.8 292.89,-149.8 130.11,-149.8 130.11,-113.8 319.89,-113.8 319.89,-149.8"/>
<text text-anchor="middle" x="225" y="-127.6" font-family="Times,serif" font-size="14.00">DeshabilitarHabitacionModule</text>
</g>
<!-- AutorizacionComponent&#45;&gt;DeshabilitarHabitacionModule -->
<g id="edge1" class="edge">
<title>AutorizacionComponent&#45;&gt;DeshabilitarHabitacionModule</title>
<path fill="none" stroke="black" d="M286.74,-84.91C286.74,-84.91 286.74,-103.79 286.74,-103.79"/>
<polygon fill="black" stroke="black" points="283.24,-103.79 286.74,-113.79 290.24,-103.79 283.24,-103.79"/>
</g>
<!-- DeshabilitarHabitacionComponent -->
<g id="node2" class="node">
<title>DeshabilitarHabitacionComponent</title>
<polygon fill="#ffffb3" stroke="black" points="235.67,-84.8 24.33,-84.8 24.33,-48.8 235.67,-48.8 235.67,-84.8"/>
<text text-anchor="middle" x="130" y="-62.6" font-family="Times,serif" font-size="14.00">DeshabilitarHabitacionComponent</text>
</g>
<!-- DeshabilitarHabitacionComponent&#45;&gt;DeshabilitarHabitacionModule -->
<g id="edge2" class="edge">
<title>DeshabilitarHabitacionComponent&#45;&gt;DeshabilitarHabitacionModule</title>
<path fill="none" stroke="black" d="M182.94,-84.91C182.94,-84.91 182.94,-103.79 182.94,-103.79"/>
<polygon fill="black" stroke="black" points="179.44,-103.79 182.94,-113.79 186.44,-103.79 179.44,-103.79"/>
</g>
</g>
</svg>
