<?xml version="1.0" encoding="UTF-8" standalone="no"?>
<!DOCTYPE svg PUBLIC "-//W3C//DTD SVG 1.1//EN"
 "http://www.w3.org/Graphics/SVG/1.1/DTD/svg11.dtd">
<!-- Generated by graphviz version 5.0.0 (20220707.1540)
 -->
<!-- Title: dependencies Pages: 1 -->
<svg width="596pt" height="174pt"
 viewBox="0.00 0.00 596.00 173.80" xmlns="http://www.w3.org/2000/svg" xmlns:xlink="http://www.w3.org/1999/xlink">
<g id="graph0" class="graph" transform="scale(1 1) rotate(0) translate(4 169.8)">
<title>dependencies</title>
<polygon fill="white" stroke="transparent" points="-4,4 -4,-169.8 592,-169.8 592,4 -4,4"/>
<text text-anchor="middle" x="294" y="-8.2" font-family="sans-serif" font-size="14.00">dependencies</text>
<g id="clust1" class="cluster">
<title>cluster_PaquetesModule</title>
<polygon fill="none" stroke="black" stroke-dasharray="1,5" points="8,-32.8 8,-157.8 580,-157.8 580,-32.8 8,-32.8"/>
</g>
<g id="clust4" class="cluster">
<title>cluster_PaquetesModule_imports</title>
<polygon fill="none" stroke="black" points="172,-40.8 172,-92.8 572,-92.8 572,-40.8 172,-40.8"/>
</g>
<g id="clust2" class="cluster">
<title>cluster_PaquetesModule_declarations</title>
<polygon fill="none" stroke="black" points="16,-40.8 16,-92.8 164,-92.8 164,-40.8 16,-40.8"/>
</g>
<!-- PaquetesComponent -->
<g id="node1" class="node">
<title>PaquetesComponent</title>
<polygon fill="#ffffb3" stroke="black" points="155.6,-84.8 24.4,-84.8 24.4,-48.8 155.6,-48.8 155.6,-84.8"/>
<text text-anchor="middle" x="90" y="-62.6" font-family="Times,serif" font-size="14.00">PaquetesComponent</text>
</g>
<!-- PaquetesModule -->
<g id="node2" class="node">
<title>PaquetesModule</title>
<polygon fill="#8dd3c7" stroke="black" points="361.82,-149.8 358.82,-153.8 337.82,-153.8 334.82,-149.8 252.18,-149.8 252.18,-113.8 361.82,-113.8 361.82,-149.8"/>
<text text-anchor="middle" x="307" y="-127.6" font-family="Times,serif" font-size="14.00">PaquetesModule</text>
</g>
<!-- PaquetesComponent&#45;&gt;PaquetesModule -->
<g id="edge1" class="edge">
<title>PaquetesComponent&#45;&gt;PaquetesModule</title>
<path fill="none" stroke="black" d="M90,-84.91C90,-104.14 90,-131.8 90,-131.8 90,-131.8 242.24,-131.8 242.24,-131.8"/>
<polygon fill="black" stroke="black" points="242.24,-135.3 252.24,-131.8 242.24,-128.3 242.24,-135.3"/>
</g>
<!-- CoreModule -->
<g id="node3" class="node">
<title>CoreModule</title>
<polygon fill="#8dd3c7" stroke="black" points="564.27,-84.8 561.27,-88.8 540.27,-88.8 537.27,-84.8 477.73,-84.8 477.73,-48.8 564.27,-48.8 564.27,-84.8"/>
<text text-anchor="middle" x="521" y="-62.6" font-family="Times,serif" font-size="14.00">CoreModule</text>
</g>
<!-- CoreModule&#45;&gt;PaquetesModule -->
<g id="edge2" class="edge">
<title>CoreModule&#45;&gt;PaquetesModule</title>
<path fill="none" stroke="black" d="M521,-84.91C521,-104.14 521,-131.8 521,-131.8 521,-131.8 371.83,-131.8 371.83,-131.8"/>
<polygon fill="black" stroke="black" points="371.83,-128.3 361.83,-131.8 371.83,-135.3 371.83,-128.3"/>
</g>
<!-- PaquetesRoutingModule -->
<g id="node4" class="node">
<title>PaquetesRoutingModule</title>
<polygon fill="#8dd3c7" stroke="black" points="459.44,-84.8 456.44,-88.8 435.44,-88.8 432.44,-84.8 304.56,-84.8 304.56,-48.8 459.44,-48.8 459.44,-84.8"/>
<text text-anchor="middle" x="382" y="-62.6" font-family="Times,serif" font-size="14.00">PaquetesRoutingModule</text>
</g>
<!-- PaquetesRoutingModule&#45;&gt;PaquetesModule -->
<g id="edge3" class="edge">
<title>PaquetesRoutingModule&#45;&gt;PaquetesModule</title>
<path fill="none" stroke="black" d="M333.22,-84.91C333.22,-84.91 333.22,-103.79 333.22,-103.79"/>
<polygon fill="black" stroke="black" points="329.72,-103.79 333.22,-113.79 336.72,-103.79 329.72,-103.79"/>
</g>
<!-- PrimengModule -->
<g id="node5" class="node">
<title>PrimengModule</title>
<polygon fill="#8dd3c7" stroke="black" points="286.49,-84.8 283.49,-88.8 262.49,-88.8 259.49,-84.8 179.51,-84.8 179.51,-48.8 286.49,-48.8 286.49,-84.8"/>
<text text-anchor="middle" x="233" y="-62.6" font-family="Times,serif" font-size="14.00">PrimengModule</text>
</g>
<!-- PrimengModule&#45;&gt;PaquetesModule -->
<g id="edge4" class="edge">
<title>PrimengModule&#45;&gt;PaquetesModule</title>
<path fill="none" stroke="black" d="M269.42,-84.91C269.42,-84.91 269.42,-103.79 269.42,-103.79"/>
<polygon fill="black" stroke="black" points="265.92,-103.79 269.42,-113.79 272.92,-103.79 265.92,-103.79"/>
</g>
</g>
</svg>
