<?xml version="1.0" encoding="UTF-8" standalone="no"?>
<!DOCTYPE svg PUBLIC "-//W3C//DTD SVG 1.1//EN"
 "http://www.w3.org/Graphics/SVG/1.1/DTD/svg11.dtd">
<!-- Generated by graphviz version 5.0.0 (20220707.1540)
 -->
<!-- Title: dependencies Pages: 1 -->
<svg width="1127pt" height="174pt"
 viewBox="0.00 0.00 1127.00 173.80" xmlns="http://www.w3.org/2000/svg" xmlns:xlink="http://www.w3.org/1999/xlink">
<g id="graph0" class="graph" transform="scale(1 1) rotate(0) translate(4 169.8)">
<title>dependencies</title>
<polygon fill="white" stroke="transparent" points="-4,4 -4,-169.8 1123,-169.8 1123,4 -4,4"/>
<text text-anchor="middle" x="559.5" y="-8.2" font-family="sans-serif" font-size="14.00">dependencies</text>
<g id="clust1" class="cluster">
<title>cluster_CocinabarModule</title>
<polygon fill="none" stroke="black" stroke-dasharray="1,5" points="8,-32.8 8,-157.8 1111,-157.8 1111,-32.8 8,-32.8"/>
</g>
<g id="clust6" class="cluster">
<title>cluster_CocinabarModule_imports</title>
<polygon fill="none" stroke="black" points="697,-40.8 697,-92.8 1103,-92.8 1103,-40.8 697,-40.8"/>
</g>
<g id="clust9" class="cluster">
<title>cluster_CocinabarModule_providers</title>
<polygon fill="none" stroke="black" points="513,-40.8 513,-92.8 689,-92.8 689,-40.8 513,-40.8"/>
</g>
<g id="clust2" class="cluster">
<title>cluster_CocinabarModule_declarations</title>
<polygon fill="none" stroke="black" points="16,-40.8 16,-92.8 505,-92.8 505,-40.8 16,-40.8"/>
</g>
<!-- CocinabarComponent -->
<g id="node1" class="node">
<title>CocinabarComponent</title>
<polygon fill="#ffffb3" stroke="black" points="497.36,-84.8 358.64,-84.8 358.64,-48.8 497.36,-48.8 497.36,-84.8"/>
<text text-anchor="middle" x="428" y="-62.6" font-family="Times,serif" font-size="14.00">CocinabarComponent</text>
</g>
<!-- CocinabarModule -->
<g id="node4" class="node">
<title>CocinabarModule</title>
<polygon fill="#8dd3c7" stroke="black" points="659.58,-149.8 656.58,-153.8 635.58,-153.8 632.58,-149.8 542.42,-149.8 542.42,-113.8 659.58,-113.8 659.58,-149.8"/>
<text text-anchor="middle" x="601" y="-127.6" font-family="Times,serif" font-size="14.00">CocinabarModule</text>
</g>
<!-- CocinabarComponent&#45;&gt;CocinabarModule -->
<g id="edge1" class="edge">
<title>CocinabarComponent&#45;&gt;CocinabarModule</title>
<path fill="none" stroke="black" d="M428,-84.83C428,-101.2 428,-122.8 428,-122.8 428,-122.8 532.43,-122.8 532.43,-122.8"/>
<polygon fill="black" stroke="black" points="532.43,-126.3 542.43,-122.8 532.43,-119.3 532.43,-126.3"/>
</g>
<!-- CommandColorDirective -->
<g id="node2" class="node">
<title>CommandColorDirective</title>
<polygon fill="#ffffb3" stroke="black" points="340.3,-84.8 181.7,-84.8 181.7,-48.8 340.3,-48.8 340.3,-84.8"/>
<text text-anchor="middle" x="261" y="-62.6" font-family="Times,serif" font-size="14.00">CommandColorDirective</text>
</g>
<!-- CommandColorDirective&#45;&gt;CocinabarModule -->
<g id="edge2" class="edge">
<title>CommandColorDirective&#45;&gt;CocinabarModule</title>
<path fill="none" stroke="black" d="M261,-84.91C261,-104.14 261,-131.8 261,-131.8 261,-131.8 532.16,-131.8 532.16,-131.8"/>
<polygon fill="black" stroke="black" points="532.16,-135.3 542.16,-131.8 532.16,-128.3 532.16,-135.3"/>
</g>
<!-- CommandComponent -->
<g id="node3" class="node">
<title>CommandComponent</title>
<polygon fill="#ffffb3" stroke="black" points="163.66,-84.8 24.34,-84.8 24.34,-48.8 163.66,-48.8 163.66,-84.8"/>
<text text-anchor="middle" x="94" y="-62.6" font-family="Times,serif" font-size="14.00">CommandComponent</text>
</g>
<!-- CommandComponent&#45;&gt;CocinabarModule -->
<g id="edge3" class="edge">
<title>CommandComponent&#45;&gt;CocinabarModule</title>
<path fill="none" stroke="black" d="M94,-85.09C94,-107.01 94,-140.8 94,-140.8 94,-140.8 532.35,-140.8 532.35,-140.8"/>
<polygon fill="black" stroke="black" points="532.35,-144.3 542.35,-140.8 532.35,-137.3 532.35,-144.3"/>
</g>
<!-- CocinabarRoutingModule -->
<g id="node5" class="node">
<title>CocinabarRoutingModule</title>
<polygon fill="#8dd3c7" stroke="black" points="1095.2,-84.8 1092.2,-88.8 1071.2,-88.8 1068.2,-84.8 932.8,-84.8 932.8,-48.8 1095.2,-48.8 1095.2,-84.8"/>
<text text-anchor="middle" x="1014" y="-62.6" font-family="Times,serif" font-size="14.00">CocinabarRoutingModule</text>
</g>
<!-- CocinabarRoutingModule&#45;&gt;CocinabarModule -->
<g id="edge4" class="edge">
<title>CocinabarRoutingModule&#45;&gt;CocinabarModule</title>
<path fill="none" stroke="black" d="M1014,-85.09C1014,-107.01 1014,-140.8 1014,-140.8 1014,-140.8 669.73,-140.8 669.73,-140.8"/>
<polygon fill="black" stroke="black" points="669.73,-137.3 659.73,-140.8 669.73,-144.3 669.73,-137.3"/>
</g>
<!-- CoreModule -->
<g id="node6" class="node">
<title>CoreModule</title>
<polygon fill="#8dd3c7" stroke="black" points="915.27,-84.8 912.27,-88.8 891.27,-88.8 888.27,-84.8 828.73,-84.8 828.73,-48.8 915.27,-48.8 915.27,-84.8"/>
<text text-anchor="middle" x="872" y="-62.6" font-family="Times,serif" font-size="14.00">CoreModule</text>
</g>
<!-- CoreModule&#45;&gt;CocinabarModule -->
<g id="edge5" class="edge">
<title>CoreModule&#45;&gt;CocinabarModule</title>
<path fill="none" stroke="black" d="M872,-84.91C872,-104.14 872,-131.8 872,-131.8 872,-131.8 669.8,-131.8 669.8,-131.8"/>
<polygon fill="black" stroke="black" points="669.8,-128.3 659.8,-131.8 669.8,-135.3 669.8,-128.3"/>
</g>
<!-- CountdownPipe -->
<g id="node7" class="node">
<title>CountdownPipe</title>
<polygon fill="#8dd3c7" stroke="black" points="811.23,-84.8 808.23,-88.8 787.23,-88.8 784.23,-84.8 704.77,-84.8 704.77,-48.8 811.23,-48.8 811.23,-84.8"/>
<text text-anchor="middle" x="758" y="-62.6" font-family="Times,serif" font-size="14.00">CountdownPipe</text>
</g>
<!-- CountdownPipe&#45;&gt;CocinabarModule -->
<g id="edge6" class="edge">
<title>CountdownPipe&#45;&gt;CocinabarModule</title>
<path fill="none" stroke="black" d="M758,-84.83C758,-101.2 758,-122.8 758,-122.8 758,-122.8 669.91,-122.8 669.91,-122.8"/>
<polygon fill="black" stroke="black" points="669.91,-119.3 659.91,-122.8 669.91,-126.3 669.91,-119.3"/>
</g>
<!-- CocinabarService -->
<g id="node8" class="node">
<title>CocinabarService</title>
<ellipse fill="#fdb462" stroke="black" cx="601" cy="-66.8" rx="79.85" ry="18"/>
<text text-anchor="middle" x="601" y="-62.6" font-family="Times,serif" font-size="14.00">CocinabarService</text>
</g>
<!-- CocinabarService&#45;&gt;CocinabarModule -->
<g id="edge7" class="edge">
<title>CocinabarService&#45;&gt;CocinabarModule</title>
<path fill="none" stroke="black" d="M601,-84.91C601,-84.91 601,-103.79 601,-103.79"/>
<polygon fill="black" stroke="black" points="597.5,-103.79 601,-113.79 604.5,-103.79 597.5,-103.79"/>
</g>
</g>
</svg>
