<?xml version="1.0" encoding="UTF-8" standalone="no"?>
<!DOCTYPE svg PUBLIC "-//W3C//DTD SVG 1.1//EN"
 "http://www.w3.org/Graphics/SVG/1.1/DTD/svg11.dtd">
<!-- Generated by graphviz version 5.0.0 (20220707.1540)
 -->
<!-- Title: dependencies Pages: 1 -->
<svg width="947pt" height="174pt"
 viewBox="0.00 0.00 947.00 173.80" xmlns="http://www.w3.org/2000/svg" xmlns:xlink="http://www.w3.org/1999/xlink">
<g id="graph0" class="graph" transform="scale(1 1) rotate(0) translate(4 169.8)">
<title>dependencies</title>
<polygon fill="white" stroke="transparent" points="-4,4 -4,-169.8 943,-169.8 943,4 -4,4"/>
<text text-anchor="middle" x="469.5" y="-8.2" font-family="sans-serif" font-size="14.00">dependencies</text>
<g id="clust1" class="cluster">
<title>cluster_CocinabarModule</title>
<polygon fill="none" stroke="black" stroke-dasharray="1,5" points="8,-32.8 8,-157.8 931,-157.8 931,-32.8 8,-32.8"/>
</g>
<g id="clust2" class="cluster">
<title>cluster_CocinabarModule_declarations</title>
<polygon fill="none" stroke="black" points="434,-40.8 434,-92.8 923,-92.8 923,-40.8 434,-40.8"/>
</g>
<g id="clust9" class="cluster">
<title>cluster_CocinabarModule_providers</title>
<polygon fill="none" stroke="black" points="250,-40.8 250,-92.8 426,-92.8 426,-40.8 250,-40.8"/>
</g>
<g id="clust6" class="cluster">
<title>cluster_CocinabarModule_imports</title>
<polygon fill="none" stroke="black" points="16,-40.8 16,-92.8 242,-92.8 242,-40.8 16,-40.8"/>
</g>
<!-- CocinabarComponent -->
<g id="node1" class="node">
<title>CocinabarComponent</title>
<polygon fill="#ffffb3" stroke="black" points="915.36,-84.8 776.64,-84.8 776.64,-48.8 915.36,-48.8 915.36,-84.8"/>
<text text-anchor="middle" x="846" y="-62.6" font-family="Times,serif" font-size="14.00">CocinabarComponent</text>
</g>
<!-- CocinabarModule -->
<g id="node4" class="node">
<title>CocinabarModule</title>
<polygon fill="#8dd3c7" stroke="black" points="483.58,-149.8 480.58,-153.8 459.58,-153.8 456.58,-149.8 366.42,-149.8 366.42,-113.8 483.58,-113.8 483.58,-149.8"/>
<text text-anchor="middle" x="425" y="-127.6" font-family="Times,serif" font-size="14.00">CocinabarModule</text>
</g>
<!-- CocinabarComponent&#45;&gt;CocinabarModule -->
<g id="edge1" class="edge">
<title>CocinabarComponent&#45;&gt;CocinabarModule</title>
<path fill="none" stroke="black" d="M846,-85.08C846,-106.12 846,-137.8 846,-137.8 846,-137.8 493.98,-137.8 493.98,-137.8"/>
<polygon fill="black" stroke="black" points="493.98,-134.3 483.98,-137.8 493.98,-141.3 493.98,-134.3"/>
</g>
<!-- CommandColorDirective -->
<g id="node2" class="node">
<title>CommandColorDirective</title>
<polygon fill="#ffffb3" stroke="black" points="758.3,-84.8 599.7,-84.8 599.7,-48.8 758.3,-48.8 758.3,-84.8"/>
<text text-anchor="middle" x="679" y="-62.6" font-family="Times,serif" font-size="14.00">CommandColorDirective</text>
</g>
<!-- CommandColorDirective&#45;&gt;CocinabarModule -->
<g id="edge2" class="edge">
<title>CommandColorDirective&#45;&gt;CocinabarModule</title>
<path fill="none" stroke="black" d="M679,-84.82C679,-102.17 679,-125.8 679,-125.8 679,-125.8 493.59,-125.8 493.59,-125.8"/>
<polygon fill="black" stroke="black" points="493.59,-122.3 483.59,-125.8 493.59,-129.3 493.59,-122.3"/>
</g>
<!-- CommandComponent -->
<g id="node3" class="node">
<title>CommandComponent</title>
<polygon fill="#ffffb3" stroke="black" points="581.66,-84.8 442.34,-84.8 442.34,-48.8 581.66,-48.8 581.66,-84.8"/>
<text text-anchor="middle" x="512" y="-62.6" font-family="Times,serif" font-size="14.00">CommandComponent</text>
</g>
<!-- CommandComponent&#45;&gt;CocinabarModule -->
<g id="edge3" class="edge">
<title>CommandComponent&#45;&gt;CocinabarModule</title>
<path fill="none" stroke="black" d="M462.86,-84.91C462.86,-84.91 462.86,-103.79 462.86,-103.79"/>
<polygon fill="black" stroke="black" points="459.36,-103.79 462.86,-113.79 466.36,-103.79 459.36,-103.79"/>
</g>
<!-- CoreModule -->
<g id="node5" class="node">
<title>CoreModule</title>
<polygon fill="#8dd3c7" stroke="black" points="234.27,-84.8 231.27,-88.8 210.27,-88.8 207.27,-84.8 147.73,-84.8 147.73,-48.8 234.27,-48.8 234.27,-84.8"/>
<text text-anchor="middle" x="191" y="-62.6" font-family="Times,serif" font-size="14.00">CoreModule</text>
</g>
<!-- CoreModule&#45;&gt;CocinabarModule -->
<g id="edge4" class="edge">
<title>CoreModule&#45;&gt;CocinabarModule</title>
<path fill="none" stroke="black" d="M191,-84.82C191,-102.17 191,-125.8 191,-125.8 191,-125.8 356.25,-125.8 356.25,-125.8"/>
<polygon fill="black" stroke="black" points="356.25,-129.3 366.25,-125.8 356.25,-122.3 356.25,-129.3"/>
</g>
<!-- CountdownPipe -->
<g id="node6" class="node">
<title>CountdownPipe</title>
<polygon fill="#8dd3c7" stroke="black" points="130.23,-84.8 127.23,-88.8 106.23,-88.8 103.23,-84.8 23.77,-84.8 23.77,-48.8 130.23,-48.8 130.23,-84.8"/>
<text text-anchor="middle" x="77" y="-62.6" font-family="Times,serif" font-size="14.00">CountdownPipe</text>
</g>
<!-- CountdownPipe&#45;&gt;CocinabarModule -->
<g id="edge5" class="edge">
<title>CountdownPipe&#45;&gt;CocinabarModule</title>
<path fill="none" stroke="black" d="M77,-85.08C77,-106.12 77,-137.8 77,-137.8 77,-137.8 356.36,-137.8 356.36,-137.8"/>
<polygon fill="black" stroke="black" points="356.36,-141.3 366.36,-137.8 356.36,-134.3 356.36,-141.3"/>
</g>
<!-- CocinabarService -->
<g id="node7" class="node">
<title>CocinabarService</title>
<ellipse fill="#fdb462" stroke="black" cx="338" cy="-66.8" rx="79.85" ry="18"/>
<text text-anchor="middle" x="338" y="-62.6" font-family="Times,serif" font-size="14.00">CocinabarService</text>
</g>
<!-- CocinabarService&#45;&gt;CocinabarModule -->
<g id="edge6" class="edge">
<title>CocinabarService&#45;&gt;CocinabarModule</title>
<path fill="none" stroke="black" d="M392.07,-80.27C392.07,-80.27 392.07,-103.66 392.07,-103.66"/>
<polygon fill="black" stroke="black" points="388.57,-103.66 392.07,-113.66 395.57,-103.66 388.57,-103.66"/>
</g>
</g>
</svg>
