<?xml version="1.0" encoding="UTF-8" standalone="no"?>
<!DOCTYPE svg PUBLIC "-//W3C//DTD SVG 1.1//EN"
 "http://www.w3.org/Graphics/SVG/1.1/DTD/svg11.dtd">
<!-- Generated by graphviz version 5.0.0 (20220707.1540)
 -->
<!-- Title: dependencies Pages: 1 -->
<svg width="1441pt" height="174pt"
 viewBox="0.00 0.00 1441.00 173.80" xmlns="http://www.w3.org/2000/svg" xmlns:xlink="http://www.w3.org/1999/xlink">
<g id="graph0" class="graph" transform="scale(1 1) rotate(0) translate(4 169.8)">
<title>dependencies</title>
<polygon fill="white" stroke="transparent" points="-4,4 -4,-169.8 1437,-169.8 1437,4 -4,4"/>
<text text-anchor="middle" x="716.5" y="-8.2" font-family="sans-serif" font-size="14.00">dependencies</text>
<g id="clust1" class="cluster">
<title>cluster_SalidaModule</title>
<polygon fill="none" stroke="black" stroke-dasharray="1,5" points="8,-32.8 8,-157.8 1425,-157.8 1425,-32.8 8,-32.8"/>
</g>
<g id="clust8" class="cluster">
<title>cluster_SalidaModule_imports</title>
<polygon fill="none" stroke="black" points="1137,-40.8 1137,-92.8 1417,-92.8 1417,-40.8 1137,-40.8"/>
</g>
<g id="clust2" class="cluster">
<title>cluster_SalidaModule_declarations</title>
<polygon fill="none" stroke="black" points="16,-40.8 16,-92.8 1129,-92.8 1129,-40.8 16,-40.8"/>
</g>
<!-- AceptarSalidaComponent -->
<g id="node1" class="node">
<title>AceptarSalidaComponent</title>
<polygon fill="#ffffb3" stroke="black" points="1121.13,-84.8 960.87,-84.8 960.87,-48.8 1121.13,-48.8 1121.13,-84.8"/>
<text text-anchor="middle" x="1041" y="-62.6" font-family="Times,serif" font-size="14.00">AceptarSalidaComponent</text>
</g>
<!-- SalidaModule -->
<g id="node6" class="node">
<title>SalidaModule</title>
<polygon fill="#8dd3c7" stroke="black" points="898.05,-149.8 895.05,-153.8 874.05,-153.8 871.05,-149.8 803.95,-149.8 803.95,-113.8 898.05,-113.8 898.05,-149.8"/>
<text text-anchor="middle" x="851" y="-127.6" font-family="Times,serif" font-size="14.00">SalidaModule</text>
</g>
<!-- AceptarSalidaComponent&#45;&gt;SalidaModule -->
<g id="edge1" class="edge">
<title>AceptarSalidaComponent&#45;&gt;SalidaModule</title>
<path fill="none" stroke="black" d="M1041,-84.83C1041,-101.2 1041,-122.8 1041,-122.8 1041,-122.8 908.45,-122.8 908.45,-122.8"/>
<polygon fill="black" stroke="black" points="908.45,-119.3 898.45,-122.8 908.45,-126.3 908.45,-119.3"/>
</g>
<!-- LiberarHabitacionComponent -->
<g id="node2" class="node">
<title>LiberarHabitacionComponent</title>
<polygon fill="#ffffb3" stroke="black" points="942.95,-84.8 759.05,-84.8 759.05,-48.8 942.95,-48.8 942.95,-84.8"/>
<text text-anchor="middle" x="851" y="-62.6" font-family="Times,serif" font-size="14.00">LiberarHabitacionComponent</text>
</g>
<!-- LiberarHabitacionComponent&#45;&gt;SalidaModule -->
<g id="edge2" class="edge">
<title>LiberarHabitacionComponent&#45;&gt;SalidaModule</title>
<path fill="none" stroke="black" d="M851,-84.91C851,-84.91 851,-103.79 851,-103.79"/>
<polygon fill="black" stroke="black" points="847.5,-103.79 851,-113.79 854.5,-103.79 847.5,-103.79"/>
</g>
<!-- LimpiezaHabitacionComponent -->
<g id="node3" class="node">
<title>LimpiezaHabitacionComponent</title>
<polygon fill="#ffffb3" stroke="black" points="740.61,-84.8 545.39,-84.8 545.39,-48.8 740.61,-48.8 740.61,-84.8"/>
<text text-anchor="middle" x="643" y="-62.6" font-family="Times,serif" font-size="14.00">LimpiezaHabitacionComponent</text>
</g>
<!-- LimpiezaHabitacionComponent&#45;&gt;SalidaModule -->
<g id="edge3" class="edge">
<title>LimpiezaHabitacionComponent&#45;&gt;SalidaModule</title>
<path fill="none" stroke="black" d="M643,-84.83C643,-101.2 643,-122.8 643,-122.8 643,-122.8 793.8,-122.8 793.8,-122.8"/>
<polygon fill="black" stroke="black" points="793.8,-126.3 803.8,-122.8 793.8,-119.3 793.8,-126.3"/>
</g>
<!-- MandarLimpiezaHabitacionComponent -->
<g id="node4" class="node">
<title>MandarLimpiezaHabitacionComponent</title>
<polygon fill="#ffffb3" stroke="black" points="527.65,-84.8 288.35,-84.8 288.35,-48.8 527.65,-48.8 527.65,-84.8"/>
<text text-anchor="middle" x="408" y="-62.6" font-family="Times,serif" font-size="14.00">MandarLimpiezaHabitacionComponent</text>
</g>
<!-- MandarLimpiezaHabitacionComponent&#45;&gt;SalidaModule -->
<g id="edge4" class="edge">
<title>MandarLimpiezaHabitacionComponent&#45;&gt;SalidaModule</title>
<path fill="none" stroke="black" d="M408,-84.91C408,-104.14 408,-131.8 408,-131.8 408,-131.8 793.59,-131.8 793.59,-131.8"/>
<polygon fill="black" stroke="black" points="793.59,-135.3 803.59,-131.8 793.59,-128.3 793.59,-135.3"/>
</g>
<!-- MandarSupervisarHabitacionComponent -->
<g id="node5" class="node">
<title>MandarSupervisarHabitacionComponent</title>
<polygon fill="#ffffb3" stroke="black" points="270.17,-84.8 23.83,-84.8 23.83,-48.8 270.17,-48.8 270.17,-84.8"/>
<text text-anchor="middle" x="147" y="-62.6" font-family="Times,serif" font-size="14.00">MandarSupervisarHabitacionComponent</text>
</g>
<!-- MandarSupervisarHabitacionComponent&#45;&gt;SalidaModule -->
<g id="edge5" class="edge">
<title>MandarSupervisarHabitacionComponent&#45;&gt;SalidaModule</title>
<path fill="none" stroke="black" d="M147,-85.09C147,-107.01 147,-140.8 147,-140.8 147,-140.8 793.72,-140.8 793.72,-140.8"/>
<polygon fill="black" stroke="black" points="793.72,-144.3 803.72,-140.8 793.72,-137.3 793.72,-144.3"/>
</g>
<!-- PrimengModule -->
<g id="node7" class="node">
<title>PrimengModule</title>
<polygon fill="#8dd3c7" stroke="black" points="1409.49,-84.8 1406.49,-88.8 1385.49,-88.8 1382.49,-84.8 1302.51,-84.8 1302.51,-48.8 1409.49,-48.8 1409.49,-84.8"/>
<text text-anchor="middle" x="1356" y="-62.6" font-family="Times,serif" font-size="14.00">PrimengModule</text>
</g>
<!-- PrimengModule&#45;&gt;SalidaModule -->
<g id="edge6" class="edge">
<title>PrimengModule&#45;&gt;SalidaModule</title>
<path fill="none" stroke="black" d="M1356,-85.09C1356,-107.01 1356,-140.8 1356,-140.8 1356,-140.8 908.06,-140.8 908.06,-140.8"/>
<polygon fill="black" stroke="black" points="908.06,-137.3 898.06,-140.8 908.06,-144.3 908.06,-137.3"/>
</g>
<!-- SalidaRoutingModule -->
<g id="node8" class="node">
<title>SalidaRoutingModule</title>
<polygon fill="#8dd3c7" stroke="black" points="1284.66,-84.8 1281.66,-88.8 1260.66,-88.8 1257.66,-84.8 1145.34,-84.8 1145.34,-48.8 1284.66,-48.8 1284.66,-84.8"/>
<text text-anchor="middle" x="1215" y="-62.6" font-family="Times,serif" font-size="14.00">SalidaRoutingModule</text>
</g>
<!-- SalidaRoutingModule&#45;&gt;SalidaModule -->
<g id="edge7" class="edge">
<title>SalidaRoutingModule&#45;&gt;SalidaModule</title>
<path fill="none" stroke="black" d="M1215,-84.91C1215,-104.14 1215,-131.8 1215,-131.8 1215,-131.8 908.21,-131.8 908.21,-131.8"/>
<polygon fill="black" stroke="black" points="908.21,-128.3 898.21,-131.8 908.21,-135.3 908.21,-128.3"/>
</g>
</g>
</svg>
