<?xml version="1.0" encoding="UTF-8" standalone="no"?>
<!DOCTYPE svg PUBLIC "-//W3C//DTD SVG 1.1//EN"
 "http://www.w3.org/Graphics/SVG/1.1/DTD/svg11.dtd">
<!-- Generated by graphviz version 5.0.0 (20220707.1540)
 -->
<!-- Title: dependencies Pages: 1 -->
<svg width="1283pt" height="174pt"
 viewBox="0.00 0.00 1283.00 173.80" xmlns="http://www.w3.org/2000/svg" xmlns:xlink="http://www.w3.org/1999/xlink">
<g id="graph0" class="graph" transform="scale(1 1) rotate(0) translate(4 169.8)">
<title>dependencies</title>
<polygon fill="white" stroke="transparent" points="-4,4 -4,-169.8 1279,-169.8 1279,4 -4,4"/>
<text text-anchor="middle" x="637.5" y="-8.2" font-family="sans-serif" font-size="14.00">dependencies</text>
<g id="clust1" class="cluster">
<title>cluster_SalidaModule</title>
<polygon fill="none" stroke="black" stroke-dasharray="1,5" points="8,-32.8 8,-157.8 1267,-157.8 1267,-32.8 8,-32.8"/>
</g>
<g id="clust2" class="cluster">
<title>cluster_SalidaModule_declarations</title>
<polygon fill="none" stroke="black" points="146,-40.8 146,-92.8 1259,-92.8 1259,-40.8 146,-40.8"/>
</g>
<g id="clust8" class="cluster">
<title>cluster_SalidaModule_imports</title>
<polygon fill="none" stroke="black" points="16,-40.8 16,-92.8 138,-92.8 138,-40.8 16,-40.8"/>
</g>
<!-- AceptarSalidaComponent -->
<g id="node1" class="node">
<title>AceptarSalidaComponent</title>
<polygon fill="#ffffb3" stroke="black" points="1251.13,-84.8 1090.87,-84.8 1090.87,-48.8 1251.13,-48.8 1251.13,-84.8"/>
<text text-anchor="middle" x="1171" y="-62.6" font-family="Times,serif" font-size="14.00">AceptarSalidaComponent</text>
</g>
<!-- SalidaModule -->
<g id="node6" class="node">
<title>SalidaModule</title>
<polygon fill="#8dd3c7" stroke="black" points="702.05,-149.8 699.05,-153.8 678.05,-153.8 675.05,-149.8 607.95,-149.8 607.95,-113.8 702.05,-113.8 702.05,-149.8"/>
<text text-anchor="middle" x="655" y="-127.6" font-family="Times,serif" font-size="14.00">SalidaModule</text>
</g>
<!-- AceptarSalidaComponent&#45;&gt;SalidaModule -->
<g id="edge1" class="edge">
<title>AceptarSalidaComponent&#45;&gt;SalidaModule</title>
<path fill="none" stroke="black" d="M1171,-85.08C1171,-106.12 1171,-137.8 1171,-137.8 1171,-137.8 712.16,-137.8 712.16,-137.8"/>
<polygon fill="black" stroke="black" points="712.16,-134.3 702.16,-137.8 712.16,-141.3 712.16,-134.3"/>
</g>
<!-- LiberarHabitacionComponent -->
<g id="node2" class="node">
<title>LiberarHabitacionComponent</title>
<polygon fill="#ffffb3" stroke="black" points="1072.95,-84.8 889.05,-84.8 889.05,-48.8 1072.95,-48.8 1072.95,-84.8"/>
<text text-anchor="middle" x="981" y="-62.6" font-family="Times,serif" font-size="14.00">LiberarHabitacionComponent</text>
</g>
<!-- LiberarHabitacionComponent&#45;&gt;SalidaModule -->
<g id="edge2" class="edge">
<title>LiberarHabitacionComponent&#45;&gt;SalidaModule</title>
<path fill="none" stroke="black" d="M981,-84.82C981,-102.17 981,-125.8 981,-125.8 981,-125.8 712.06,-125.8 712.06,-125.8"/>
<polygon fill="black" stroke="black" points="712.06,-122.3 702.06,-125.8 712.06,-129.3 712.06,-122.3"/>
</g>
<!-- LimpiezaHabitacionComponent -->
<g id="node3" class="node">
<title>LimpiezaHabitacionComponent</title>
<polygon fill="#ffffb3" stroke="black" points="870.61,-84.8 675.39,-84.8 675.39,-48.8 870.61,-48.8 870.61,-84.8"/>
<text text-anchor="middle" x="773" y="-62.6" font-family="Times,serif" font-size="14.00">LimpiezaHabitacionComponent</text>
</g>
<!-- LimpiezaHabitacionComponent&#45;&gt;SalidaModule -->
<g id="edge3" class="edge">
<title>LimpiezaHabitacionComponent&#45;&gt;SalidaModule</title>
<path fill="none" stroke="black" d="M688.73,-84.91C688.73,-84.91 688.73,-103.79 688.73,-103.79"/>
<polygon fill="black" stroke="black" points="685.23,-103.79 688.73,-113.79 692.23,-103.79 685.23,-103.79"/>
</g>
<!-- MandarLimpiezaHabitacionComponent -->
<g id="node4" class="node">
<title>MandarLimpiezaHabitacionComponent</title>
<polygon fill="#ffffb3" stroke="black" points="657.65,-84.8 418.35,-84.8 418.35,-48.8 657.65,-48.8 657.65,-84.8"/>
<text text-anchor="middle" x="538" y="-62.6" font-family="Times,serif" font-size="14.00">MandarLimpiezaHabitacionComponent</text>
</g>
<!-- MandarLimpiezaHabitacionComponent&#45;&gt;SalidaModule -->
<g id="edge4" class="edge">
<title>MandarLimpiezaHabitacionComponent&#45;&gt;SalidaModule</title>
<path fill="none" stroke="black" d="M632.65,-84.91C632.65,-84.91 632.65,-103.79 632.65,-103.79"/>
<polygon fill="black" stroke="black" points="629.15,-103.79 632.65,-113.79 636.15,-103.79 629.15,-103.79"/>
</g>
<!-- MandarSupervisarHabitacionComponent -->
<g id="node5" class="node">
<title>MandarSupervisarHabitacionComponent</title>
<polygon fill="#ffffb3" stroke="black" points="400.17,-84.8 153.83,-84.8 153.83,-48.8 400.17,-48.8 400.17,-84.8"/>
<text text-anchor="middle" x="277" y="-62.6" font-family="Times,serif" font-size="14.00">MandarSupervisarHabitacionComponent</text>
</g>
<!-- MandarSupervisarHabitacionComponent&#45;&gt;SalidaModule -->
<g id="edge5" class="edge">
<title>MandarSupervisarHabitacionComponent&#45;&gt;SalidaModule</title>
<path fill="none" stroke="black" d="M277,-84.82C277,-102.17 277,-125.8 277,-125.8 277,-125.8 597.89,-125.8 597.89,-125.8"/>
<polygon fill="black" stroke="black" points="597.89,-129.3 607.89,-125.8 597.89,-122.3 597.89,-129.3"/>
</g>
<!-- PrimengModule -->
<g id="node7" class="node">
<title>PrimengModule</title>
<polygon fill="#8dd3c7" stroke="black" points="130.49,-84.8 127.49,-88.8 106.49,-88.8 103.49,-84.8 23.51,-84.8 23.51,-48.8 130.49,-48.8 130.49,-84.8"/>
<text text-anchor="middle" x="77" y="-62.6" font-family="Times,serif" font-size="14.00">PrimengModule</text>
</g>
<!-- PrimengModule&#45;&gt;SalidaModule -->
<g id="edge6" class="edge">
<title>PrimengModule&#45;&gt;SalidaModule</title>
<path fill="none" stroke="black" d="M77,-85.08C77,-106.12 77,-137.8 77,-137.8 77,-137.8 597.7,-137.8 597.7,-137.8"/>
<polygon fill="black" stroke="black" points="597.7,-141.3 607.7,-137.8 597.7,-134.3 597.7,-141.3"/>
</g>
</g>
</svg>
