<?xml version="1.0" encoding="UTF-8" standalone="no"?>
<!DOCTYPE svg PUBLIC "-//W3C//DTD SVG 1.1//EN"
 "http://www.w3.org/Graphics/SVG/1.1/DTD/svg11.dtd">
<!-- Generated by graphviz version 5.0.0 (20220707.1540)
 -->
<!-- Title: dependencies Pages: 1 -->
<svg width="1441pt" height="174pt"
 viewBox="0.00 0.00 1441.00 173.80" xmlns="http://www.w3.org/2000/svg" xmlns:xlink="http://www.w3.org/1999/xlink">
<g id="graph0" class="graph" transform="scale(1 1) rotate(0) translate(4 169.8)">
<title>dependencies</title>
<polygon fill="white" stroke="transparent" points="-4,4 -4,-169.8 1437,-169.8 1437,4 -4,4"/>
<text text-anchor="middle" x="716.5" y="-8.2" font-family="sans-serif" font-size="14.00">dependencies</text>
<g id="clust1" class="cluster">
<title>cluster_SalidaModule</title>
<polygon fill="none" stroke="black" stroke-dasharray="1,5" points="8,-32.8 8,-157.8 1425,-157.8 1425,-32.8 8,-32.8"/>
</g>
<g id="clust2" class="cluster">
<title>cluster_SalidaModule_declarations</title>
<polygon fill="none" stroke="black" points="304,-40.8 304,-92.8 1417,-92.8 1417,-40.8 304,-40.8"/>
</g>
<g id="clust8" class="cluster">
<title>cluster_SalidaModule_imports</title>
<polygon fill="none" stroke="black" points="16,-40.8 16,-92.8 296,-92.8 296,-40.8 16,-40.8"/>
</g>
<!-- AceptarSalidaComponent -->
<g id="node1" class="node">
<title>AceptarSalidaComponent</title>
<polygon fill="#ffffb3" stroke="black" points="1409.13,-84.8 1248.87,-84.8 1248.87,-48.8 1409.13,-48.8 1409.13,-84.8"/>
<text text-anchor="middle" x="1329" y="-62.6" font-family="Times,serif" font-size="14.00">AceptarSalidaComponent</text>
</g>
<!-- SalidaModule -->
<g id="node6" class="node">
<title>SalidaModule</title>
<polygon fill="#8dd3c7" stroke="black" points="743.05,-149.8 740.05,-153.8 719.05,-153.8 716.05,-149.8 648.95,-149.8 648.95,-113.8 743.05,-113.8 743.05,-149.8"/>
<text text-anchor="middle" x="696" y="-127.6" font-family="Times,serif" font-size="14.00">SalidaModule</text>
</g>
<!-- AceptarSalidaComponent&#45;&gt;SalidaModule -->
<g id="edge1" class="edge">
<title>AceptarSalidaComponent&#45;&gt;SalidaModule</title>
<path fill="none" stroke="black" d="M1329,-85.09C1329,-107.01 1329,-140.8 1329,-140.8 1329,-140.8 753.06,-140.8 753.06,-140.8"/>
<polygon fill="black" stroke="black" points="753.06,-137.3 743.06,-140.8 753.06,-144.3 753.06,-137.3"/>
</g>
<!-- LiberarHabitacionComponent -->
<g id="node2" class="node">
<title>LiberarHabitacionComponent</title>
<polygon fill="#ffffb3" stroke="black" points="1230.95,-84.8 1047.05,-84.8 1047.05,-48.8 1230.95,-48.8 1230.95,-84.8"/>
<text text-anchor="middle" x="1139" y="-62.6" font-family="Times,serif" font-size="14.00">LiberarHabitacionComponent</text>
</g>
<!-- LiberarHabitacionComponent&#45;&gt;SalidaModule -->
<g id="edge2" class="edge">
<title>LiberarHabitacionComponent&#45;&gt;SalidaModule</title>
<path fill="none" stroke="black" d="M1139,-84.91C1139,-104.14 1139,-131.8 1139,-131.8 1139,-131.8 753.41,-131.8 753.41,-131.8"/>
<polygon fill="black" stroke="black" points="753.41,-128.3 743.41,-131.8 753.41,-135.3 753.41,-128.3"/>
</g>
<!-- LimpiezaHabitacionComponent -->
<g id="node3" class="node">
<title>LimpiezaHabitacionComponent</title>
<polygon fill="#ffffb3" stroke="black" points="1028.61,-84.8 833.39,-84.8 833.39,-48.8 1028.61,-48.8 1028.61,-84.8"/>
<text text-anchor="middle" x="931" y="-62.6" font-family="Times,serif" font-size="14.00">LimpiezaHabitacionComponent</text>
</g>
<!-- LimpiezaHabitacionComponent&#45;&gt;SalidaModule -->
<g id="edge3" class="edge">
<title>LimpiezaHabitacionComponent&#45;&gt;SalidaModule</title>
<path fill="none" stroke="black" d="M931,-84.83C931,-101.2 931,-122.8 931,-122.8 931,-122.8 753.27,-122.8 753.27,-122.8"/>
<polygon fill="black" stroke="black" points="753.27,-119.3 743.27,-122.8 753.27,-126.3 753.27,-119.3"/>
</g>
<!-- MandarLimpiezaHabitacionComponent -->
<g id="node4" class="node">
<title>MandarLimpiezaHabitacionComponent</title>
<polygon fill="#ffffb3" stroke="black" points="815.65,-84.8 576.35,-84.8 576.35,-48.8 815.65,-48.8 815.65,-84.8"/>
<text text-anchor="middle" x="696" y="-62.6" font-family="Times,serif" font-size="14.00">MandarLimpiezaHabitacionComponent</text>
</g>
<!-- MandarLimpiezaHabitacionComponent&#45;&gt;SalidaModule -->
<g id="edge4" class="edge">
<title>MandarLimpiezaHabitacionComponent&#45;&gt;SalidaModule</title>
<path fill="none" stroke="black" d="M696,-84.91C696,-84.91 696,-103.79 696,-103.79"/>
<polygon fill="black" stroke="black" points="692.5,-103.79 696,-113.79 699.5,-103.79 692.5,-103.79"/>
</g>
<!-- MandarSupervisarHabitacionComponent -->
<g id="node5" class="node">
<title>MandarSupervisarHabitacionComponent</title>
<polygon fill="#ffffb3" stroke="black" points="558.17,-84.8 311.83,-84.8 311.83,-48.8 558.17,-48.8 558.17,-84.8"/>
<text text-anchor="middle" x="435" y="-62.6" font-family="Times,serif" font-size="14.00">MandarSupervisarHabitacionComponent</text>
</g>
<!-- MandarSupervisarHabitacionComponent&#45;&gt;SalidaModule -->
<g id="edge5" class="edge">
<title>MandarSupervisarHabitacionComponent&#45;&gt;SalidaModule</title>
<path fill="none" stroke="black" d="M435,-84.83C435,-101.2 435,-122.8 435,-122.8 435,-122.8 638.73,-122.8 638.73,-122.8"/>
<polygon fill="black" stroke="black" points="638.73,-126.3 648.73,-122.8 638.73,-119.3 638.73,-126.3"/>
</g>
<!-- PrimengModule -->
<g id="node7" class="node">
<title>PrimengModule</title>
<polygon fill="#8dd3c7" stroke="black" points="288.49,-84.8 285.49,-88.8 264.49,-88.8 261.49,-84.8 181.51,-84.8 181.51,-48.8 288.49,-48.8 288.49,-84.8"/>
<text text-anchor="middle" x="235" y="-62.6" font-family="Times,serif" font-size="14.00">PrimengModule</text>
</g>
<!-- PrimengModule&#45;&gt;SalidaModule -->
<g id="edge6" class="edge">
<title>PrimengModule&#45;&gt;SalidaModule</title>
<path fill="none" stroke="black" d="M235,-84.91C235,-104.14 235,-131.8 235,-131.8 235,-131.8 638.83,-131.8 638.83,-131.8"/>
<polygon fill="black" stroke="black" points="638.83,-135.3 648.83,-131.8 638.83,-128.3 638.83,-135.3"/>
</g>
<!-- SalidaRoutingModule -->
<g id="node8" class="node">
<title>SalidaRoutingModule</title>
<polygon fill="#8dd3c7" stroke="black" points="163.66,-84.8 160.66,-88.8 139.66,-88.8 136.66,-84.8 24.34,-84.8 24.34,-48.8 163.66,-48.8 163.66,-84.8"/>
<text text-anchor="middle" x="94" y="-62.6" font-family="Times,serif" font-size="14.00">SalidaRoutingModule</text>
</g>
<!-- SalidaRoutingModule&#45;&gt;SalidaModule -->
<g id="edge7" class="edge">
<title>SalidaRoutingModule&#45;&gt;SalidaModule</title>
<path fill="none" stroke="black" d="M94,-85.09C94,-107.01 94,-140.8 94,-140.8 94,-140.8 638.76,-140.8 638.76,-140.8"/>
<polygon fill="black" stroke="black" points="638.76,-144.3 648.76,-140.8 638.76,-137.3 638.76,-144.3"/>
</g>
</g>
</svg>
