<?xml version="1.0" encoding="UTF-8" standalone="no"?>
<!DOCTYPE svg PUBLIC "-//W3C//DTD SVG 1.1//EN"
 "http://www.w3.org/Graphics/SVG/1.1/DTD/svg11.dtd">
<!-- Generated by graphviz version 5.0.0 (20220707.1540)
 -->
<!-- Title: dependencies Pages: 1 -->
<svg width="222pt" height="174pt"
 viewBox="0.00 0.00 222.00 173.80" xmlns="http://www.w3.org/2000/svg" xmlns:xlink="http://www.w3.org/1999/xlink">
<g id="graph0" class="graph" transform="scale(1 1) rotate(0) translate(4 169.8)">
<title>dependencies</title>
<polygon fill="white" stroke="transparent" points="-4,4 -4,-169.8 218,-169.8 218,4 -4,4"/>
<text text-anchor="middle" x="107" y="-8.2" font-family="sans-serif" font-size="14.00">dependencies</text>
<g id="clust1" class="cluster">
<title>cluster_MantenimientoModule</title>
<polygon fill="none" stroke="black" stroke-dasharray="1,5" points="8,-32.8 8,-157.8 206,-157.8 206,-32.8 8,-32.8"/>
</g>
<g id="clust2" class="cluster">
<title>cluster_MantenimientoModule_declarations</title>
<polygon fill="none" stroke="black" points="16,-40.8 16,-92.8 198,-92.8 198,-40.8 16,-40.8"/>
</g>
<!-- MantenimientoComponent -->
<g id="node1" class="node">
<title>MantenimientoComponent</title>
<polygon fill="#ffffb3" stroke="black" points="190.37,-84.8 23.63,-84.8 23.63,-48.8 190.37,-48.8 190.37,-84.8"/>
<text text-anchor="middle" x="107" y="-62.6" font-family="Times,serif" font-size="14.00">MantenimientoComponent</text>
</g>
<!-- MantenimientoModule -->
<g id="node2" class="node">
<title>MantenimientoModule</title>
<polygon fill="#8dd3c7" stroke="black" points="179.59,-149.8 176.59,-153.8 155.59,-153.8 152.59,-149.8 34.41,-149.8 34.41,-113.8 179.59,-113.8 179.59,-149.8"/>
<text text-anchor="middle" x="107" y="-127.6" font-family="Times,serif" font-size="14.00">MantenimientoModule</text>
</g>
<!-- MantenimientoComponent&#45;&gt;MantenimientoModule -->
<g id="edge1" class="edge">
<title>MantenimientoComponent&#45;&gt;MantenimientoModule</title>
<path fill="none" stroke="black" d="M107,-84.91C107,-84.91 107,-103.79 107,-103.79"/>
<polygon fill="black" stroke="black" points="103.5,-103.79 107,-113.79 110.5,-103.79 103.5,-103.79"/>
</g>
</g>
</svg>
