<?xml version="1.0" encoding="UTF-8" standalone="no"?>
<!DOCTYPE svg PUBLIC "-//W3C//DTD SVG 1.1//EN"
 "http://www.w3.org/Graphics/SVG/1.1/DTD/svg11.dtd">
<!-- Generated by graphviz version 5.0.0 (20220707.1540)
 -->
<!-- Title: dependencies Pages: 1 -->
<svg width="436pt" height="174pt"
 viewBox="0.00 0.00 436.00 173.80" xmlns="http://www.w3.org/2000/svg" xmlns:xlink="http://www.w3.org/1999/xlink">
<g id="graph0" class="graph" transform="scale(1 1) rotate(0) translate(4 169.8)">
<title>dependencies</title>
<polygon fill="white" stroke="transparent" points="-4,4 -4,-169.8 432,-169.8 432,4 -4,4"/>
<text text-anchor="middle" x="214" y="-8.2" font-family="sans-serif" font-size="14.00">dependencies</text>
<g id="clust1" class="cluster">
<title>cluster_MantenimientoModule</title>
<polygon fill="none" stroke="black" stroke-dasharray="1,5" points="8,-32.8 8,-157.8 420,-157.8 420,-32.8 8,-32.8"/>
</g>
<g id="clust4" class="cluster">
<title>cluster_MantenimientoModule_imports</title>
<polygon fill="none" stroke="black" points="206,-40.8 206,-92.8 412,-92.8 412,-40.8 206,-40.8"/>
</g>
<g id="clust2" class="cluster">
<title>cluster_MantenimientoModule_declarations</title>
<polygon fill="none" stroke="black" points="16,-40.8 16,-92.8 198,-92.8 198,-40.8 16,-40.8"/>
</g>
<!-- MantenimientoComponent -->
<g id="node1" class="node">
<title>MantenimientoComponent</title>
<polygon fill="#ffffb3" stroke="black" points="190.37,-84.8 23.63,-84.8 23.63,-48.8 190.37,-48.8 190.37,-84.8"/>
<text text-anchor="middle" x="107" y="-62.6" font-family="Times,serif" font-size="14.00">MantenimientoComponent</text>
</g>
<!-- MantenimientoModule -->
<g id="node2" class="node">
<title>MantenimientoModule</title>
<polygon fill="#8dd3c7" stroke="black" points="280.59,-149.8 277.59,-153.8 256.59,-153.8 253.59,-149.8 135.41,-149.8 135.41,-113.8 280.59,-113.8 280.59,-149.8"/>
<text text-anchor="middle" x="208" y="-127.6" font-family="Times,serif" font-size="14.00">MantenimientoModule</text>
</g>
<!-- MantenimientoComponent&#45;&gt;MantenimientoModule -->
<g id="edge1" class="edge">
<title>MantenimientoComponent&#45;&gt;MantenimientoModule</title>
<path fill="none" stroke="black" d="M162.94,-84.91C162.94,-84.91 162.94,-103.79 162.94,-103.79"/>
<polygon fill="black" stroke="black" points="159.44,-103.79 162.94,-113.79 166.44,-103.79 159.44,-103.79"/>
</g>
<!-- MantenimientoRoutingModule -->
<g id="node3" class="node">
<title>MantenimientoRoutingModule</title>
<polygon fill="#8dd3c7" stroke="black" points="404.21,-84.8 401.21,-88.8 380.21,-88.8 377.21,-84.8 213.79,-84.8 213.79,-48.8 404.21,-48.8 404.21,-84.8"/>
<text text-anchor="middle" x="309" y="-62.6" font-family="Times,serif" font-size="14.00">MantenimientoRoutingModule</text>
</g>
<!-- MantenimientoRoutingModule&#45;&gt;MantenimientoModule -->
<g id="edge2" class="edge">
<title>MantenimientoRoutingModule&#45;&gt;MantenimientoModule</title>
<path fill="none" stroke="black" d="M247.22,-84.91C247.22,-84.91 247.22,-103.79 247.22,-103.79"/>
<polygon fill="black" stroke="black" points="243.72,-103.79 247.22,-113.79 250.72,-103.79 243.72,-103.79"/>
</g>
</g>
</svg>
