<?xml version="1.0" encoding="UTF-8" standalone="no"?>
<!DOCTYPE svg PUBLIC "-//W3C//DTD SVG 1.1//EN"
 "http://www.w3.org/Graphics/SVG/1.1/DTD/svg11.dtd">
<!-- Generated by graphviz version 5.0.0 (20220707.1540)
 -->
<!-- Title: dependencies Pages: 1 -->
<svg width="564pt" height="174pt"
 viewBox="0.00 0.00 564.00 173.80" xmlns="http://www.w3.org/2000/svg" xmlns:xlink="http://www.w3.org/1999/xlink">
<g id="graph0" class="graph" transform="scale(1 1) rotate(0) translate(4 169.8)">
<title>dependencies</title>
<polygon fill="white" stroke="transparent" points="-4,4 -4,-169.8 560,-169.8 560,4 -4,4"/>
<text text-anchor="middle" x="278" y="-8.2" font-family="sans-serif" font-size="14.00">dependencies</text>
<g id="clust1" class="cluster">
<title>cluster_EditarModule</title>
<polygon fill="none" stroke="black" stroke-dasharray="1,5" points="8,-32.8 8,-157.8 548,-157.8 548,-32.8 8,-32.8"/>
</g>
<g id="clust4" class="cluster">
<title>cluster_EditarModule_imports</title>
<polygon fill="none" stroke="black" points="156,-40.8 156,-92.8 540,-92.8 540,-40.8 156,-40.8"/>
</g>
<g id="clust2" class="cluster">
<title>cluster_EditarModule_declarations</title>
<polygon fill="none" stroke="black" points="16,-40.8 16,-92.8 148,-92.8 148,-40.8 16,-40.8"/>
</g>
<!-- EditarComponent -->
<g id="node1" class="node">
<title>EditarComponent</title>
<polygon fill="#ffffb3" stroke="black" points="139.54,-84.8 24.46,-84.8 24.46,-48.8 139.54,-48.8 139.54,-84.8"/>
<text text-anchor="middle" x="82" y="-62.6" font-family="Times,serif" font-size="14.00">EditarComponent</text>
</g>
<!-- EditarModule -->
<g id="node2" class="node">
<title>EditarModule</title>
<polygon fill="#8dd3c7" stroke="black" points="333.76,-149.8 330.76,-153.8 309.76,-153.8 306.76,-149.8 240.24,-149.8 240.24,-113.8 333.76,-113.8 333.76,-149.8"/>
<text text-anchor="middle" x="287" y="-127.6" font-family="Times,serif" font-size="14.00">EditarModule</text>
</g>
<!-- EditarComponent&#45;&gt;EditarModule -->
<g id="edge1" class="edge">
<title>EditarComponent&#45;&gt;EditarModule</title>
<path fill="none" stroke="black" d="M82,-84.91C82,-104.14 82,-131.8 82,-131.8 82,-131.8 230.23,-131.8 230.23,-131.8"/>
<polygon fill="black" stroke="black" points="230.23,-135.3 240.23,-131.8 230.23,-128.3 230.23,-135.3"/>
</g>
<!-- CoreModule -->
<g id="node3" class="node">
<title>CoreModule</title>
<polygon fill="#8dd3c7" stroke="black" points="532.27,-84.8 529.27,-88.8 508.27,-88.8 505.27,-84.8 445.73,-84.8 445.73,-48.8 532.27,-48.8 532.27,-84.8"/>
<text text-anchor="middle" x="489" y="-62.6" font-family="Times,serif" font-size="14.00">CoreModule</text>
</g>
<!-- CoreModule&#45;&gt;EditarModule -->
<g id="edge2" class="edge">
<title>CoreModule&#45;&gt;EditarModule</title>
<path fill="none" stroke="black" d="M489,-84.91C489,-104.14 489,-131.8 489,-131.8 489,-131.8 343.85,-131.8 343.85,-131.8"/>
<polygon fill="black" stroke="black" points="343.85,-128.3 333.85,-131.8 343.85,-135.3 343.85,-128.3"/>
</g>
<!-- EditarRoutingModule -->
<g id="node4" class="node">
<title>EditarRoutingModule</title>
<polygon fill="#8dd3c7" stroke="black" points="427.38,-84.8 424.38,-88.8 403.38,-88.8 400.38,-84.8 288.62,-84.8 288.62,-48.8 427.38,-48.8 427.38,-84.8"/>
<text text-anchor="middle" x="358" y="-62.6" font-family="Times,serif" font-size="14.00">EditarRoutingModule</text>
</g>
<!-- EditarRoutingModule&#45;&gt;EditarModule -->
<g id="edge3" class="edge">
<title>EditarRoutingModule&#45;&gt;EditarModule</title>
<path fill="none" stroke="black" d="M311.22,-84.91C311.22,-84.91 311.22,-103.79 311.22,-103.79"/>
<polygon fill="black" stroke="black" points="307.72,-103.79 311.22,-113.79 314.72,-103.79 307.72,-103.79"/>
</g>
<!-- PrimengModule -->
<g id="node5" class="node">
<title>PrimengModule</title>
<polygon fill="#8dd3c7" stroke="black" points="270.49,-84.8 267.49,-88.8 246.49,-88.8 243.49,-84.8 163.51,-84.8 163.51,-48.8 270.49,-48.8 270.49,-84.8"/>
<text text-anchor="middle" x="217" y="-62.6" font-family="Times,serif" font-size="14.00">PrimengModule</text>
</g>
<!-- PrimengModule&#45;&gt;EditarModule -->
<g id="edge4" class="edge">
<title>PrimengModule&#45;&gt;EditarModule</title>
<path fill="none" stroke="black" d="M255.31,-84.91C255.31,-84.91 255.31,-103.79 255.31,-103.79"/>
<polygon fill="black" stroke="black" points="251.81,-103.79 255.31,-113.79 258.81,-103.79 251.81,-103.79"/>
</g>
</g>
</svg>
