<?xml version="1.0" encoding="UTF-8" standalone="no"?>
<!DOCTYPE svg PUBLIC "-//W3C//DTD SVG 1.1//EN"
 "http://www.w3.org/Graphics/SVG/1.1/DTD/svg11.dtd">
<!-- Generated by graphviz version 5.0.0 (20220707.1540)
 -->
<!-- Title: dependencies Pages: 1 -->
<svg width="407pt" height="174pt"
 viewBox="0.00 0.00 407.00 173.80" xmlns="http://www.w3.org/2000/svg" xmlns:xlink="http://www.w3.org/1999/xlink">
<g id="graph0" class="graph" transform="scale(1 1) rotate(0) translate(4 169.8)">
<title>dependencies</title>
<polygon fill="white" stroke="transparent" points="-4,4 -4,-169.8 403,-169.8 403,4 -4,4"/>
<text text-anchor="middle" x="199.5" y="-8.2" font-family="sans-serif" font-size="14.00">dependencies</text>
<g id="clust1" class="cluster">
<title>cluster_EditarModule</title>
<polygon fill="none" stroke="black" stroke-dasharray="1,5" points="8,-32.8 8,-157.8 391,-157.8 391,-32.8 8,-32.8"/>
</g>
<g id="clust2" class="cluster">
<title>cluster_EditarModule_declarations</title>
<polygon fill="none" stroke="black" points="251,-40.8 251,-92.8 383,-92.8 383,-40.8 251,-40.8"/>
</g>
<g id="clust4" class="cluster">
<title>cluster_EditarModule_imports</title>
<polygon fill="none" stroke="black" points="16,-40.8 16,-92.8 243,-92.8 243,-40.8 16,-40.8"/>
</g>
<!-- EditarComponent -->
<g id="node1" class="node">
<title>EditarComponent</title>
<polygon fill="#ffffb3" stroke="black" points="374.54,-84.8 259.46,-84.8 259.46,-48.8 374.54,-48.8 374.54,-84.8"/>
<text text-anchor="middle" x="317" y="-62.6" font-family="Times,serif" font-size="14.00">EditarComponent</text>
</g>
<!-- EditarModule -->
<g id="node2" class="node">
<title>EditarModule</title>
<polygon fill="#8dd3c7" stroke="black" points="238.76,-149.8 235.76,-153.8 214.76,-153.8 211.76,-149.8 145.24,-149.8 145.24,-113.8 238.76,-113.8 238.76,-149.8"/>
<text text-anchor="middle" x="192" y="-127.6" font-family="Times,serif" font-size="14.00">EditarModule</text>
</g>
<!-- EditarComponent&#45;&gt;EditarModule -->
<g id="edge1" class="edge">
<title>EditarComponent&#45;&gt;EditarModule</title>
<path fill="none" stroke="black" d="M317,-84.91C317,-104.14 317,-131.8 317,-131.8 317,-131.8 248.9,-131.8 248.9,-131.8"/>
<polygon fill="black" stroke="black" points="248.9,-128.3 238.9,-131.8 248.9,-135.3 248.9,-128.3"/>
</g>
<!-- CoreModule -->
<g id="node3" class="node">
<title>CoreModule</title>
<polygon fill="#8dd3c7" stroke="black" points="235.27,-84.8 232.27,-88.8 211.27,-88.8 208.27,-84.8 148.73,-84.8 148.73,-48.8 235.27,-48.8 235.27,-84.8"/>
<text text-anchor="middle" x="192" y="-62.6" font-family="Times,serif" font-size="14.00">CoreModule</text>
</g>
<!-- CoreModule&#45;&gt;EditarModule -->
<g id="edge2" class="edge">
<title>CoreModule&#45;&gt;EditarModule</title>
<path fill="none" stroke="black" d="M192,-84.91C192,-84.91 192,-103.79 192,-103.79"/>
<polygon fill="black" stroke="black" points="188.5,-103.79 192,-113.79 195.5,-103.79 188.5,-103.79"/>
</g>
<!-- PrimengModule -->
<g id="node4" class="node">
<title>PrimengModule</title>
<polygon fill="#8dd3c7" stroke="black" points="130.49,-84.8 127.49,-88.8 106.49,-88.8 103.49,-84.8 23.51,-84.8 23.51,-48.8 130.49,-48.8 130.49,-84.8"/>
<text text-anchor="middle" x="77" y="-62.6" font-family="Times,serif" font-size="14.00">PrimengModule</text>
</g>
<!-- PrimengModule&#45;&gt;EditarModule -->
<g id="edge3" class="edge">
<title>PrimengModule&#45;&gt;EditarModule</title>
<path fill="none" stroke="black" d="M77,-84.91C77,-104.14 77,-131.8 77,-131.8 77,-131.8 135.23,-131.8 135.23,-131.8"/>
<polygon fill="black" stroke="black" points="135.23,-135.3 145.23,-131.8 135.23,-128.3 135.23,-135.3"/>
</g>
</g>
</svg>
