<?xml version="1.0" encoding="UTF-8" standalone="no"?>
<!DOCTYPE svg PUBLIC "-//W3C//DTD SVG 1.1//EN"
 "http://www.w3.org/Graphics/SVG/1.1/DTD/svg11.dtd">
<!-- Generated by graphviz version 5.0.0 (20220707.1540)
 -->
<!-- Title: dependencies Pages: 1 -->
<svg width="690pt" height="174pt"
 viewBox="0.00 0.00 690.00 173.80" xmlns="http://www.w3.org/2000/svg" xmlns:xlink="http://www.w3.org/1999/xlink">
<g id="graph0" class="graph" transform="scale(1 1) rotate(0) translate(4 169.8)">
<title>dependencies</title>
<polygon fill="white" stroke="transparent" points="-4,4 -4,-169.8 686,-169.8 686,4 -4,4"/>
<text text-anchor="middle" x="341" y="-8.2" font-family="sans-serif" font-size="14.00">dependencies</text>
<g id="clust1" class="cluster">
<title>cluster_ConfigurarTicketModule</title>
<polygon fill="none" stroke="black" stroke-dasharray="1,5" points="8,-32.8 8,-157.8 674,-157.8 674,-32.8 8,-32.8"/>
</g>
<g id="clust5" class="cluster">
<title>cluster_ConfigurarTicketModule_imports</title>
<polygon fill="none" stroke="black" points="408,-40.8 408,-92.8 666,-92.8 666,-40.8 408,-40.8"/>
</g>
<g id="clust2" class="cluster">
<title>cluster_ConfigurarTicketModule_declarations</title>
<polygon fill="none" stroke="black" points="16,-40.8 16,-92.8 400,-92.8 400,-40.8 16,-40.8"/>
</g>
<!-- ConfigurarTicketComponent -->
<g id="node1" class="node">
<title>ConfigurarTicketComponent</title>
<polygon fill="#ffffb3" stroke="black" points="392.02,-84.8 213.98,-84.8 213.98,-48.8 392.02,-48.8 392.02,-84.8"/>
<text text-anchor="middle" x="303" y="-62.6" font-family="Times,serif" font-size="14.00">ConfigurarTicketComponent</text>
</g>
<!-- ConfigurarTicketModule -->
<g id="node3" class="node">
<title>ConfigurarTicketModule</title>
<polygon fill="#8dd3c7" stroke="black" points="467.24,-149.8 464.24,-153.8 443.24,-153.8 440.24,-149.8 310.76,-149.8 310.76,-113.8 467.24,-113.8 467.24,-149.8"/>
<text text-anchor="middle" x="389" y="-127.6" font-family="Times,serif" font-size="14.00">ConfigurarTicketModule</text>
</g>
<!-- ConfigurarTicketComponent&#45;&gt;ConfigurarTicketModule -->
<g id="edge1" class="edge">
<title>ConfigurarTicketComponent&#45;&gt;ConfigurarTicketModule</title>
<path fill="none" stroke="black" d="M351.44,-84.91C351.44,-84.91 351.44,-103.79 351.44,-103.79"/>
<polygon fill="black" stroke="black" points="347.94,-103.79 351.44,-113.79 354.94,-103.79 347.94,-103.79"/>
</g>
<!-- SelectImpresoraComponent -->
<g id="node2" class="node">
<title>SelectImpresoraComponent</title>
<polygon fill="#ffffb3" stroke="black" points="196.29,-84.8 23.71,-84.8 23.71,-48.8 196.29,-48.8 196.29,-84.8"/>
<text text-anchor="middle" x="110" y="-62.6" font-family="Times,serif" font-size="14.00">SelectImpresoraComponent</text>
</g>
<!-- SelectImpresoraComponent&#45;&gt;ConfigurarTicketModule -->
<g id="edge2" class="edge">
<title>SelectImpresoraComponent&#45;&gt;ConfigurarTicketModule</title>
<path fill="none" stroke="black" d="M110,-84.91C110,-104.14 110,-131.8 110,-131.8 110,-131.8 300.54,-131.8 300.54,-131.8"/>
<polygon fill="black" stroke="black" points="300.54,-135.3 310.54,-131.8 300.54,-128.3 300.54,-135.3"/>
</g>
<!-- PrimengModule -->
<g id="node4" class="node">
<title>PrimengModule</title>
<polygon fill="#8dd3c7" stroke="black" points="658.49,-84.8 655.49,-88.8 634.49,-88.8 631.49,-84.8 551.51,-84.8 551.51,-48.8 658.49,-48.8 658.49,-84.8"/>
<text text-anchor="middle" x="605" y="-62.6" font-family="Times,serif" font-size="14.00">PrimengModule</text>
</g>
<!-- PrimengModule&#45;&gt;ConfigurarTicketModule -->
<g id="edge3" class="edge">
<title>PrimengModule&#45;&gt;ConfigurarTicketModule</title>
<path fill="none" stroke="black" d="M605,-84.91C605,-104.14 605,-131.8 605,-131.8 605,-131.8 477.29,-131.8 477.29,-131.8"/>
<polygon fill="black" stroke="black" points="477.29,-128.3 467.29,-131.8 477.29,-135.3 477.29,-128.3"/>
</g>
<!-- TicketComponent -->
<g id="node5" class="node">
<title>TicketComponent</title>
<polygon fill="#8dd3c7" stroke="black" points="533.59,-84.8 530.59,-88.8 509.59,-88.8 506.59,-84.8 416.41,-84.8 416.41,-48.8 533.59,-48.8 533.59,-84.8"/>
<text text-anchor="middle" x="475" y="-62.6" font-family="Times,serif" font-size="14.00">TicketComponent</text>
</g>
<!-- TicketComponent&#45;&gt;ConfigurarTicketModule -->
<g id="edge4" class="edge">
<title>TicketComponent&#45;&gt;ConfigurarTicketModule</title>
<path fill="none" stroke="black" d="M441.91,-84.91C441.91,-84.91 441.91,-103.79 441.91,-103.79"/>
<polygon fill="black" stroke="black" points="438.41,-103.79 441.91,-113.79 445.41,-103.79 438.41,-103.79"/>
</g>
</g>
</svg>
