<?xml version="1.0" encoding="UTF-8" standalone="no"?>
<!DOCTYPE svg PUBLIC "-//W3C//DTD SVG 1.1//EN"
 "http://www.w3.org/Graphics/SVG/1.1/DTD/svg11.dtd">
<!-- Generated by graphviz version 5.0.0 (20220707.1540)
 -->
<!-- Title: dependencies Pages: 1 -->
<svg width="910pt" height="174pt"
 viewBox="0.00 0.00 910.00 173.80" xmlns="http://www.w3.org/2000/svg" xmlns:xlink="http://www.w3.org/1999/xlink">
<g id="graph0" class="graph" transform="scale(1 1) rotate(0) translate(4 169.8)">
<title>dependencies</title>
<polygon fill="white" stroke="transparent" points="-4,4 -4,-169.8 906,-169.8 906,4 -4,4"/>
<text text-anchor="middle" x="451" y="-8.2" font-family="sans-serif" font-size="14.00">dependencies</text>
<g id="clust1" class="cluster">
<title>cluster_ConfigurarTicketModule</title>
<polygon fill="none" stroke="black" stroke-dasharray="1,5" points="8,-32.8 8,-157.8 894,-157.8 894,-32.8 8,-32.8"/>
</g>
<g id="clust2" class="cluster">
<title>cluster_ConfigurarTicketModule_declarations</title>
<polygon fill="none" stroke="black" points="502,-40.8 502,-92.8 886,-92.8 886,-40.8 502,-40.8"/>
</g>
<g id="clust5" class="cluster">
<title>cluster_ConfigurarTicketModule_imports</title>
<polygon fill="none" stroke="black" points="16,-40.8 16,-92.8 494,-92.8 494,-40.8 16,-40.8"/>
</g>
<!-- ConfigurarTicketComponent -->
<g id="node1" class="node">
<title>ConfigurarTicketComponent</title>
<polygon fill="#ffffb3" stroke="black" points="878.02,-84.8 699.98,-84.8 699.98,-48.8 878.02,-48.8 878.02,-84.8"/>
<text text-anchor="middle" x="789" y="-62.6" font-family="Times,serif" font-size="14.00">ConfigurarTicketComponent</text>
</g>
<!-- ConfigurarTicketModule -->
<g id="node3" class="node">
<title>ConfigurarTicketModule</title>
<polygon fill="#8dd3c7" stroke="black" points="463.24,-149.8 460.24,-153.8 439.24,-153.8 436.24,-149.8 306.76,-149.8 306.76,-113.8 463.24,-113.8 463.24,-149.8"/>
<text text-anchor="middle" x="385" y="-127.6" font-family="Times,serif" font-size="14.00">ConfigurarTicketModule</text>
</g>
<!-- ConfigurarTicketComponent&#45;&gt;ConfigurarTicketModule -->
<g id="edge1" class="edge">
<title>ConfigurarTicketComponent&#45;&gt;ConfigurarTicketModule</title>
<path fill="none" stroke="black" d="M789,-85.08C789,-106.12 789,-137.8 789,-137.8 789,-137.8 473.37,-137.8 473.37,-137.8"/>
<polygon fill="black" stroke="black" points="473.37,-134.3 463.37,-137.8 473.37,-141.3 473.37,-134.3"/>
</g>
<!-- SelectImpresoraComponent -->
<g id="node2" class="node">
<title>SelectImpresoraComponent</title>
<polygon fill="#ffffb3" stroke="black" points="682.29,-84.8 509.71,-84.8 509.71,-48.8 682.29,-48.8 682.29,-84.8"/>
<text text-anchor="middle" x="596" y="-62.6" font-family="Times,serif" font-size="14.00">SelectImpresoraComponent</text>
</g>
<!-- SelectImpresoraComponent&#45;&gt;ConfigurarTicketModule -->
<g id="edge2" class="edge">
<title>SelectImpresoraComponent&#45;&gt;ConfigurarTicketModule</title>
<path fill="none" stroke="black" d="M596,-84.82C596,-102.17 596,-125.8 596,-125.8 596,-125.8 473.27,-125.8 473.27,-125.8"/>
<polygon fill="black" stroke="black" points="473.27,-122.3 463.27,-125.8 473.27,-129.3 473.27,-122.3"/>
</g>
<!-- ConfigurarTicketRoutingModule -->
<g id="node4" class="node">
<title>ConfigurarTicketRoutingModule</title>
<polygon fill="#8dd3c7" stroke="black" points="485.86,-84.8 482.86,-88.8 461.86,-88.8 458.86,-84.8 284.14,-84.8 284.14,-48.8 485.86,-48.8 485.86,-84.8"/>
<text text-anchor="middle" x="385" y="-62.6" font-family="Times,serif" font-size="14.00">ConfigurarTicketRoutingModule</text>
</g>
<!-- ConfigurarTicketRoutingModule&#45;&gt;ConfigurarTicketModule -->
<g id="edge3" class="edge">
<title>ConfigurarTicketRoutingModule&#45;&gt;ConfigurarTicketModule</title>
<path fill="none" stroke="black" d="M385,-84.91C385,-84.91 385,-103.79 385,-103.79"/>
<polygon fill="black" stroke="black" points="381.5,-103.79 385,-113.79 388.5,-103.79 381.5,-103.79"/>
</g>
<!-- PrimengModule -->
<g id="node5" class="node">
<title>PrimengModule</title>
<polygon fill="#8dd3c7" stroke="black" points="266.49,-84.8 263.49,-88.8 242.49,-88.8 239.49,-84.8 159.51,-84.8 159.51,-48.8 266.49,-48.8 266.49,-84.8"/>
<text text-anchor="middle" x="213" y="-62.6" font-family="Times,serif" font-size="14.00">PrimengModule</text>
</g>
<!-- PrimengModule&#45;&gt;ConfigurarTicketModule -->
<g id="edge4" class="edge">
<title>PrimengModule&#45;&gt;ConfigurarTicketModule</title>
<path fill="none" stroke="black" d="M213,-84.82C213,-102.17 213,-125.8 213,-125.8 213,-125.8 296.55,-125.8 296.55,-125.8"/>
<polygon fill="black" stroke="black" points="296.55,-129.3 306.55,-125.8 296.55,-122.3 296.55,-129.3"/>
</g>
<!-- TicketComponent -->
<g id="node6" class="node">
<title>TicketComponent</title>
<polygon fill="#8dd3c7" stroke="black" points="141.59,-84.8 138.59,-88.8 117.59,-88.8 114.59,-84.8 24.41,-84.8 24.41,-48.8 141.59,-48.8 141.59,-84.8"/>
<text text-anchor="middle" x="83" y="-62.6" font-family="Times,serif" font-size="14.00">TicketComponent</text>
</g>
<!-- TicketComponent&#45;&gt;ConfigurarTicketModule -->
<g id="edge5" class="edge">
<title>TicketComponent&#45;&gt;ConfigurarTicketModule</title>
<path fill="none" stroke="black" d="M83,-85.08C83,-106.12 83,-137.8 83,-137.8 83,-137.8 296.44,-137.8 296.44,-137.8"/>
<polygon fill="black" stroke="black" points="296.44,-141.3 306.44,-137.8 296.44,-134.3 296.44,-141.3"/>
</g>
</g>
</svg>
