<?xml version="1.0" encoding="UTF-8" standalone="no"?>
<!DOCTYPE svg PUBLIC "-//W3C//DTD SVG 1.1//EN"
 "http://www.w3.org/Graphics/SVG/1.1/DTD/svg11.dtd">
<!-- Generated by graphviz version 5.0.0 (20220707.1540)
 -->
<!-- Title: dependencies Pages: 1 -->
<svg width="910pt" height="174pt"
 viewBox="0.00 0.00 910.00 173.80" xmlns="http://www.w3.org/2000/svg" xmlns:xlink="http://www.w3.org/1999/xlink">
<g id="graph0" class="graph" transform="scale(1 1) rotate(0) translate(4 169.8)">
<title>dependencies</title>
<polygon fill="white" stroke="transparent" points="-4,4 -4,-169.8 906,-169.8 906,4 -4,4"/>
<text text-anchor="middle" x="451" y="-8.2" font-family="sans-serif" font-size="14.00">dependencies</text>
<g id="clust1" class="cluster">
<title>cluster_ConfigurarTicketModule</title>
<polygon fill="none" stroke="black" stroke-dasharray="1,5" points="8,-32.8 8,-157.8 894,-157.8 894,-32.8 8,-32.8"/>
</g>
<g id="clust5" class="cluster">
<title>cluster_ConfigurarTicketModule_imports</title>
<polygon fill="none" stroke="black" points="408,-40.8 408,-92.8 886,-92.8 886,-40.8 408,-40.8"/>
</g>
<g id="clust2" class="cluster">
<title>cluster_ConfigurarTicketModule_declarations</title>
<polygon fill="none" stroke="black" points="16,-40.8 16,-92.8 400,-92.8 400,-40.8 16,-40.8"/>
</g>
<!-- ConfigurarTicketComponent -->
<g id="node1" class="node">
<title>ConfigurarTicketComponent</title>
<polygon fill="#ffffb3" stroke="black" points="392.02,-84.8 213.98,-84.8 213.98,-48.8 392.02,-48.8 392.02,-84.8"/>
<text text-anchor="middle" x="303" y="-62.6" font-family="Times,serif" font-size="14.00">ConfigurarTicketComponent</text>
</g>
<!-- ConfigurarTicketModule -->
<g id="node3" class="node">
<title>ConfigurarTicketModule</title>
<polygon fill="#8dd3c7" stroke="black" points="553.24,-149.8 550.24,-153.8 529.24,-153.8 526.24,-149.8 396.76,-149.8 396.76,-113.8 553.24,-113.8 553.24,-149.8"/>
<text text-anchor="middle" x="475" y="-127.6" font-family="Times,serif" font-size="14.00">ConfigurarTicketModule</text>
</g>
<!-- ConfigurarTicketComponent&#45;&gt;ConfigurarTicketModule -->
<g id="edge1" class="edge">
<title>ConfigurarTicketComponent&#45;&gt;ConfigurarTicketModule</title>
<path fill="none" stroke="black" d="M392.15,-66.8C400.86,-66.8 406.54,-66.8 406.54,-66.8 406.54,-66.8 406.54,-103.69 406.54,-103.69"/>
<polygon fill="black" stroke="black" points="403.04,-103.69 406.54,-113.69 410.04,-103.69 403.04,-103.69"/>
</g>
<!-- SelectImpresoraComponent -->
<g id="node2" class="node">
<title>SelectImpresoraComponent</title>
<polygon fill="#ffffb3" stroke="black" points="196.29,-84.8 23.71,-84.8 23.71,-48.8 196.29,-48.8 196.29,-84.8"/>
<text text-anchor="middle" x="110" y="-62.6" font-family="Times,serif" font-size="14.00">SelectImpresoraComponent</text>
</g>
<!-- SelectImpresoraComponent&#45;&gt;ConfigurarTicketModule -->
<g id="edge2" class="edge">
<title>SelectImpresoraComponent&#45;&gt;ConfigurarTicketModule</title>
<path fill="none" stroke="black" d="M110,-84.91C110,-104.14 110,-131.8 110,-131.8 110,-131.8 386.7,-131.8 386.7,-131.8"/>
<polygon fill="black" stroke="black" points="386.7,-135.3 396.7,-131.8 386.7,-128.3 386.7,-135.3"/>
</g>
<!-- ConfigurarTicketRoutingModule -->
<g id="node4" class="node">
<title>ConfigurarTicketRoutingModule</title>
<polygon fill="#8dd3c7" stroke="black" points="877.86,-84.8 874.86,-88.8 853.86,-88.8 850.86,-84.8 676.14,-84.8 676.14,-48.8 877.86,-48.8 877.86,-84.8"/>
<text text-anchor="middle" x="777" y="-62.6" font-family="Times,serif" font-size="14.00">ConfigurarTicketRoutingModule</text>
</g>
<!-- ConfigurarTicketRoutingModule&#45;&gt;ConfigurarTicketModule -->
<g id="edge3" class="edge">
<title>ConfigurarTicketRoutingModule&#45;&gt;ConfigurarTicketModule</title>
<path fill="none" stroke="black" d="M777,-84.91C777,-104.14 777,-131.8 777,-131.8 777,-131.8 563.56,-131.8 563.56,-131.8"/>
<polygon fill="black" stroke="black" points="563.56,-128.3 553.56,-131.8 563.56,-135.3 563.56,-128.3"/>
</g>
<!-- PrimengModule -->
<g id="node5" class="node">
<title>PrimengModule</title>
<polygon fill="#8dd3c7" stroke="black" points="658.49,-84.8 655.49,-88.8 634.49,-88.8 631.49,-84.8 551.51,-84.8 551.51,-48.8 658.49,-48.8 658.49,-84.8"/>
<text text-anchor="middle" x="605" y="-62.6" font-family="Times,serif" font-size="14.00">PrimengModule</text>
</g>
<!-- PrimengModule&#45;&gt;ConfigurarTicketModule -->
<g id="edge4" class="edge">
<title>PrimengModule&#45;&gt;ConfigurarTicketModule</title>
<path fill="none" stroke="black" d="M551.48,-66.8C546.07,-66.8 542.52,-66.8 542.52,-66.8 542.52,-66.8 542.52,-103.69 542.52,-103.69"/>
<polygon fill="black" stroke="black" points="539.02,-103.69 542.52,-113.69 546.02,-103.69 539.02,-103.69"/>
</g>
<!-- TicketComponent -->
<g id="node6" class="node">
<title>TicketComponent</title>
<polygon fill="#8dd3c7" stroke="black" points="533.59,-84.8 530.59,-88.8 509.59,-88.8 506.59,-84.8 416.41,-84.8 416.41,-48.8 533.59,-48.8 533.59,-84.8"/>
<text text-anchor="middle" x="475" y="-62.6" font-family="Times,serif" font-size="14.00">TicketComponent</text>
</g>
<!-- TicketComponent&#45;&gt;ConfigurarTicketModule -->
<g id="edge5" class="edge">
<title>TicketComponent&#45;&gt;ConfigurarTicketModule</title>
<path fill="none" stroke="black" d="M475,-84.91C475,-84.91 475,-103.79 475,-103.79"/>
<polygon fill="black" stroke="black" points="471.5,-103.79 475,-113.79 478.5,-103.79 471.5,-103.79"/>
</g>
</g>
</svg>
