<?xml version="1.0" encoding="UTF-8" standalone="no"?>
<!DOCTYPE svg PUBLIC "-//W3C//DTD SVG 1.1//EN"
 "http://www.w3.org/Graphics/SVG/1.1/DTD/svg11.dtd">
<!-- Generated by graphviz version 5.0.0 (20220707.1540)
 -->
<!-- Title: dependencies Pages: 1 -->
<svg width="380pt" height="174pt"
 viewBox="0.00 0.00 380.00 173.80" xmlns="http://www.w3.org/2000/svg" xmlns:xlink="http://www.w3.org/1999/xlink">
<g id="graph0" class="graph" transform="scale(1 1) rotate(0) translate(4 169.8)">
<title>dependencies</title>
<polygon fill="white" stroke="transparent" points="-4,4 -4,-169.8 376,-169.8 376,4 -4,4"/>
<text text-anchor="middle" x="186" y="-8.2" font-family="sans-serif" font-size="14.00">dependencies</text>
<g id="clust1" class="cluster">
<title>cluster_CamaristasEnTurnoModule</title>
<polygon fill="none" stroke="black" stroke-dasharray="1,5" points="8,-32.8 8,-157.8 364,-157.8 364,-32.8 8,-32.8"/>
</g>
<g id="clust2" class="cluster">
<title>cluster_CamaristasEnTurnoModule_declarations</title>
<polygon fill="none" stroke="black" points="146,-40.8 146,-92.8 356,-92.8 356,-40.8 146,-40.8"/>
</g>
<g id="clust4" class="cluster">
<title>cluster_CamaristasEnTurnoModule_imports</title>
<polygon fill="none" stroke="black" points="16,-40.8 16,-92.8 138,-92.8 138,-40.8 16,-40.8"/>
</g>
<!-- CamaristasEnTurnoComponent -->
<g id="node1" class="node">
<title>CamaristasEnTurnoComponent</title>
<polygon fill="#ffffb3" stroke="black" points="347.8,-84.8 154.2,-84.8 154.2,-48.8 347.8,-48.8 347.8,-84.8"/>
<text text-anchor="middle" x="251" y="-62.6" font-family="Times,serif" font-size="14.00">CamaristasEnTurnoComponent</text>
</g>
<!-- CamaristasEnTurnoModule -->
<g id="node2" class="node">
<title>CamaristasEnTurnoModule</title>
<polygon fill="#8dd3c7" stroke="black" points="261.53,-149.8 258.53,-153.8 237.53,-153.8 234.53,-149.8 90.47,-149.8 90.47,-113.8 261.53,-113.8 261.53,-149.8"/>
<text text-anchor="middle" x="176" y="-127.6" font-family="Times,serif" font-size="14.00">CamaristasEnTurnoModule</text>
</g>
<!-- CamaristasEnTurnoComponent&#45;&gt;CamaristasEnTurnoModule -->
<g id="edge1" class="edge">
<title>CamaristasEnTurnoComponent&#45;&gt;CamaristasEnTurnoModule</title>
<path fill="none" stroke="black" d="M208.06,-84.91C208.06,-84.91 208.06,-103.79 208.06,-103.79"/>
<polygon fill="black" stroke="black" points="204.56,-103.79 208.06,-113.79 211.56,-103.79 204.56,-103.79"/>
</g>
<!-- PrimengModule -->
<g id="node3" class="node">
<title>PrimengModule</title>
<polygon fill="#8dd3c7" stroke="black" points="130.49,-84.8 127.49,-88.8 106.49,-88.8 103.49,-84.8 23.51,-84.8 23.51,-48.8 130.49,-48.8 130.49,-84.8"/>
<text text-anchor="middle" x="77" y="-62.6" font-family="Times,serif" font-size="14.00">PrimengModule</text>
</g>
<!-- PrimengModule&#45;&gt;CamaristasEnTurnoModule -->
<g id="edge2" class="edge">
<title>PrimengModule&#45;&gt;CamaristasEnTurnoModule</title>
<path fill="none" stroke="black" d="M110.37,-84.91C110.37,-84.91 110.37,-103.79 110.37,-103.79"/>
<polygon fill="black" stroke="black" points="106.87,-103.79 110.37,-113.79 113.87,-103.79 106.87,-103.79"/>
</g>
</g>
</svg>
