<?xml version="1.0" encoding="UTF-8" standalone="no"?>
<!DOCTYPE svg PUBLIC "-//W3C//DTD SVG 1.1//EN"
 "http://www.w3.org/Graphics/SVG/1.1/DTD/svg11.dtd">
<!-- Generated by graphviz version 5.0.0 (20220707.1540)
 -->
<!-- Title: dependencies Pages: 1 -->
<svg width="615pt" height="174pt"
 viewBox="0.00 0.00 615.00 173.80" xmlns="http://www.w3.org/2000/svg" xmlns:xlink="http://www.w3.org/1999/xlink">
<g id="graph0" class="graph" transform="scale(1 1) rotate(0) translate(4 169.8)">
<title>dependencies</title>
<polygon fill="white" stroke="transparent" points="-4,4 -4,-169.8 611,-169.8 611,4 -4,4"/>
<text text-anchor="middle" x="303.5" y="-8.2" font-family="sans-serif" font-size="14.00">dependencies</text>
<g id="clust1" class="cluster">
<title>cluster_CamaristasEnTurnoModule</title>
<polygon fill="none" stroke="black" stroke-dasharray="1,5" points="8,-32.8 8,-157.8 599,-157.8 599,-32.8 8,-32.8"/>
</g>
<g id="clust2" class="cluster">
<title>cluster_CamaristasEnTurnoModule_declarations</title>
<polygon fill="none" stroke="black" points="381,-40.8 381,-92.8 591,-92.8 591,-40.8 381,-40.8"/>
</g>
<g id="clust4" class="cluster">
<title>cluster_CamaristasEnTurnoModule_imports</title>
<polygon fill="none" stroke="black" points="16,-40.8 16,-92.8 373,-92.8 373,-40.8 16,-40.8"/>
</g>
<!-- CamaristasEnTurnoComponent -->
<g id="node1" class="node">
<title>CamaristasEnTurnoComponent</title>
<polygon fill="#ffffb3" stroke="black" points="582.8,-84.8 389.2,-84.8 389.2,-48.8 582.8,-48.8 582.8,-84.8"/>
<text text-anchor="middle" x="486" y="-62.6" font-family="Times,serif" font-size="14.00">CamaristasEnTurnoComponent</text>
</g>
<!-- CamaristasEnTurnoModule -->
<g id="node2" class="node">
<title>CamaristasEnTurnoModule</title>
<polygon fill="#8dd3c7" stroke="black" points="342.53,-149.8 339.53,-153.8 318.53,-153.8 315.53,-149.8 171.47,-149.8 171.47,-113.8 342.53,-113.8 342.53,-149.8"/>
<text text-anchor="middle" x="257" y="-127.6" font-family="Times,serif" font-size="14.00">CamaristasEnTurnoModule</text>
</g>
<!-- CamaristasEnTurnoComponent&#45;&gt;CamaristasEnTurnoModule -->
<g id="edge1" class="edge">
<title>CamaristasEnTurnoComponent&#45;&gt;CamaristasEnTurnoModule</title>
<path fill="none" stroke="black" d="M486,-84.91C486,-104.14 486,-131.8 486,-131.8 486,-131.8 352.6,-131.8 352.6,-131.8"/>
<polygon fill="black" stroke="black" points="352.6,-128.3 342.6,-131.8 352.6,-135.3 352.6,-128.3"/>
</g>
<!-- CamaristasEnTurnoRoutingModule -->
<g id="node3" class="node">
<title>CamaristasEnTurnoRoutingModule</title>
<polygon fill="#8dd3c7" stroke="black" points="365.14,-84.8 362.14,-88.8 341.14,-88.8 338.14,-84.8 148.86,-84.8 148.86,-48.8 365.14,-48.8 365.14,-84.8"/>
<text text-anchor="middle" x="257" y="-62.6" font-family="Times,serif" font-size="14.00">CamaristasEnTurnoRoutingModule</text>
</g>
<!-- CamaristasEnTurnoRoutingModule&#45;&gt;CamaristasEnTurnoModule -->
<g id="edge2" class="edge">
<title>CamaristasEnTurnoRoutingModule&#45;&gt;CamaristasEnTurnoModule</title>
<path fill="none" stroke="black" d="M257,-84.91C257,-84.91 257,-103.79 257,-103.79"/>
<polygon fill="black" stroke="black" points="253.5,-103.79 257,-113.79 260.5,-103.79 253.5,-103.79"/>
</g>
<!-- PrimengModule -->
<g id="node4" class="node">
<title>PrimengModule</title>
<polygon fill="#8dd3c7" stroke="black" points="130.49,-84.8 127.49,-88.8 106.49,-88.8 103.49,-84.8 23.51,-84.8 23.51,-48.8 130.49,-48.8 130.49,-84.8"/>
<text text-anchor="middle" x="77" y="-62.6" font-family="Times,serif" font-size="14.00">PrimengModule</text>
</g>
<!-- PrimengModule&#45;&gt;CamaristasEnTurnoModule -->
<g id="edge3" class="edge">
<title>PrimengModule&#45;&gt;CamaristasEnTurnoModule</title>
<path fill="none" stroke="black" d="M77,-84.91C77,-104.14 77,-131.8 77,-131.8 77,-131.8 161.22,-131.8 161.22,-131.8"/>
<polygon fill="black" stroke="black" points="161.22,-135.3 171.22,-131.8 161.22,-128.3 161.22,-135.3"/>
</g>
</g>
</svg>
