<?xml version="1.0" encoding="UTF-8" standalone="no"?>
<!DOCTYPE svg PUBLIC "-//W3C//DTD SVG 1.1//EN"
 "http://www.w3.org/Graphics/SVG/1.1/DTD/svg11.dtd">
<!-- Generated by graphviz version 5.0.0 (20220707.1540)
 -->
<!-- Title: dependencies Pages: 1 -->
<svg width="216pt" height="174pt"
 viewBox="0.00 0.00 216.00 173.80" xmlns="http://www.w3.org/2000/svg" xmlns:xlink="http://www.w3.org/1999/xlink">
<g id="graph0" class="graph" transform="scale(1 1) rotate(0) translate(4 169.8)">
<title>dependencies</title>
<polygon fill="white" stroke="transparent" points="-4,4 -4,-169.8 212,-169.8 212,4 -4,4"/>
<text text-anchor="middle" x="104" y="-8.2" font-family="sans-serif" font-size="14.00">dependencies</text>
<g id="clust1" class="cluster">
<title>cluster_CatalogosModule</title>
<polygon fill="none" stroke="black" stroke-dasharray="1,5" points="8,-32.8 8,-157.8 200,-157.8 200,-32.8 8,-32.8"/>
</g>
<g id="clust3" class="cluster">
<title>cluster_CatalogosModule_imports</title>
<polygon fill="none" stroke="black" points="16,-40.8 16,-92.8 192,-92.8 192,-40.8 16,-40.8"/>
</g>
<!-- CatalogosRoutingModule -->
<g id="node1" class="node">
<title>CatalogosRoutingModule</title>
<polygon fill="#8dd3c7" stroke="black" points="184.16,-84.8 181.16,-88.8 160.16,-88.8 157.16,-84.8 23.84,-84.8 23.84,-48.8 184.16,-48.8 184.16,-84.8"/>
<text text-anchor="middle" x="104" y="-62.6" font-family="Times,serif" font-size="14.00">CatalogosRoutingModule</text>
</g>
<!-- CatalogosModule -->
<g id="node2" class="node">
<title>CatalogosModule</title>
<polygon fill="#8dd3c7" stroke="black" points="161.55,-149.8 158.55,-153.8 137.55,-153.8 134.55,-149.8 46.45,-149.8 46.45,-113.8 161.55,-113.8 161.55,-149.8"/>
<text text-anchor="middle" x="104" y="-127.6" font-family="Times,serif" font-size="14.00">CatalogosModule</text>
</g>
<!-- CatalogosRoutingModule&#45;&gt;CatalogosModule -->
<g id="edge1" class="edge">
<title>CatalogosRoutingModule&#45;&gt;CatalogosModule</title>
<path fill="none" stroke="black" d="M104,-84.91C104,-84.91 104,-103.79 104,-103.79"/>
<polygon fill="black" stroke="black" points="100.5,-103.79 104,-113.79 107.5,-103.79 100.5,-103.79"/>
</g>
</g>
</svg>
