<?xml version="1.0" encoding="UTF-8" standalone="no"?>
<!DOCTYPE svg PUBLIC "-//W3C//DTD SVG 1.1//EN"
 "http://www.w3.org/Graphics/SVG/1.1/DTD/svg11.dtd">
<!-- Generated by graphviz version 5.0.0 (20220707.1540)
 -->
<!-- Title: dependencies Pages: 1 -->
<svg width="540pt" height="174pt"
 viewBox="0.00 0.00 540.00 173.80" xmlns="http://www.w3.org/2000/svg" xmlns:xlink="http://www.w3.org/1999/xlink">
<g id="graph0" class="graph" transform="scale(1 1) rotate(0) translate(4 169.8)">
<title>dependencies</title>
<polygon fill="white" stroke="transparent" points="-4,4 -4,-169.8 536,-169.8 536,4 -4,4"/>
<text text-anchor="middle" x="266" y="-8.2" font-family="sans-serif" font-size="14.00">dependencies</text>
<g id="clust1" class="cluster">
<title>cluster_MovimientosModule</title>
<polygon fill="none" stroke="black" stroke-dasharray="1,5" points="8,-32.8 8,-157.8 524,-157.8 524,-32.8 8,-32.8"/>
</g>
<g id="clust2" class="cluster">
<title>cluster_MovimientosModule_declarations</title>
<polygon fill="none" stroke="black" points="344,-40.8 344,-92.8 516,-92.8 516,-40.8 344,-40.8"/>
</g>
<g id="clust4" class="cluster">
<title>cluster_MovimientosModule_imports</title>
<polygon fill="none" stroke="black" points="16,-40.8 16,-92.8 336,-92.8 336,-40.8 16,-40.8"/>
</g>
<!-- MovimientosComponent -->
<g id="node1" class="node">
<title>MovimientosComponent</title>
<polygon fill="#ffffb3" stroke="black" points="508,-84.8 352,-84.8 352,-48.8 508,-48.8 508,-84.8"/>
<text text-anchor="middle" x="430" y="-62.6" font-family="Times,serif" font-size="14.00">MovimientosComponent</text>
</g>
<!-- MovimientosModule -->
<g id="node2" class="node">
<title>MovimientosModule</title>
<polygon fill="#8dd3c7" stroke="black" points="305.22,-149.8 302.22,-153.8 281.22,-153.8 278.22,-149.8 170.78,-149.8 170.78,-113.8 305.22,-113.8 305.22,-149.8"/>
<text text-anchor="middle" x="238" y="-127.6" font-family="Times,serif" font-size="14.00">MovimientosModule</text>
</g>
<!-- MovimientosComponent&#45;&gt;MovimientosModule -->
<g id="edge1" class="edge">
<title>MovimientosComponent&#45;&gt;MovimientosModule</title>
<path fill="none" stroke="black" d="M430,-84.91C430,-104.14 430,-131.8 430,-131.8 430,-131.8 315.15,-131.8 315.15,-131.8"/>
<polygon fill="black" stroke="black" points="315.15,-128.3 305.15,-131.8 315.15,-135.3 315.15,-128.3"/>
</g>
<!-- MovimientosRoutingModule -->
<g id="node3" class="node">
<title>MovimientosRoutingModule</title>
<polygon fill="#8dd3c7" stroke="black" points="327.84,-84.8 324.84,-88.8 303.84,-88.8 300.84,-84.8 148.16,-84.8 148.16,-48.8 327.84,-48.8 327.84,-84.8"/>
<text text-anchor="middle" x="238" y="-62.6" font-family="Times,serif" font-size="14.00">MovimientosRoutingModule</text>
</g>
<!-- MovimientosRoutingModule&#45;&gt;MovimientosModule -->
<g id="edge2" class="edge">
<title>MovimientosRoutingModule&#45;&gt;MovimientosModule</title>
<path fill="none" stroke="black" d="M238,-84.91C238,-84.91 238,-103.79 238,-103.79"/>
<polygon fill="black" stroke="black" points="234.5,-103.79 238,-113.79 241.5,-103.79 234.5,-103.79"/>
</g>
<!-- PrimengModule -->
<g id="node4" class="node">
<title>PrimengModule</title>
<polygon fill="#8dd3c7" stroke="black" points="130.49,-84.8 127.49,-88.8 106.49,-88.8 103.49,-84.8 23.51,-84.8 23.51,-48.8 130.49,-48.8 130.49,-84.8"/>
<text text-anchor="middle" x="77" y="-62.6" font-family="Times,serif" font-size="14.00">PrimengModule</text>
</g>
<!-- PrimengModule&#45;&gt;MovimientosModule -->
<g id="edge3" class="edge">
<title>PrimengModule&#45;&gt;MovimientosModule</title>
<path fill="none" stroke="black" d="M77,-84.91C77,-104.14 77,-131.8 77,-131.8 77,-131.8 160.65,-131.8 160.65,-131.8"/>
<polygon fill="black" stroke="black" points="160.65,-135.3 170.65,-131.8 160.65,-128.3 160.65,-135.3"/>
</g>
</g>
</svg>
