<?xml version="1.0" encoding="UTF-8" standalone="no"?>
<!DOCTYPE svg PUBLIC "-//W3C//DTD SVG 1.1//EN"
 "http://www.w3.org/Graphics/SVG/1.1/DTD/svg11.dtd">
<!-- Generated by graphviz version 5.0.0 (20220707.1540)
 -->
<!-- Title: dependencies Pages: 1 -->
<svg width="540pt" height="174pt"
 viewBox="0.00 0.00 540.00 173.80" xmlns="http://www.w3.org/2000/svg" xmlns:xlink="http://www.w3.org/1999/xlink">
<g id="graph0" class="graph" transform="scale(1 1) rotate(0) translate(4 169.8)">
<title>dependencies</title>
<polygon fill="white" stroke="transparent" points="-4,4 -4,-169.8 536,-169.8 536,4 -4,4"/>
<text text-anchor="middle" x="266" y="-8.2" font-family="sans-serif" font-size="14.00">dependencies</text>
<g id="clust1" class="cluster">
<title>cluster_MovimientosModule</title>
<polygon fill="none" stroke="black" stroke-dasharray="1,5" points="8,-32.8 8,-157.8 524,-157.8 524,-32.8 8,-32.8"/>
</g>
<g id="clust4" class="cluster">
<title>cluster_MovimientosModule_imports</title>
<polygon fill="none" stroke="black" points="196,-40.8 196,-92.8 516,-92.8 516,-40.8 196,-40.8"/>
</g>
<g id="clust2" class="cluster">
<title>cluster_MovimientosModule_declarations</title>
<polygon fill="none" stroke="black" points="16,-40.8 16,-92.8 188,-92.8 188,-40.8 16,-40.8"/>
</g>
<!-- MovimientosComponent -->
<g id="node1" class="node">
<title>MovimientosComponent</title>
<polygon fill="#ffffb3" stroke="black" points="180,-84.8 24,-84.8 24,-48.8 180,-48.8 180,-84.8"/>
<text text-anchor="middle" x="102" y="-62.6" font-family="Times,serif" font-size="14.00">MovimientosComponent</text>
</g>
<!-- MovimientosModule -->
<g id="node2" class="node">
<title>MovimientosModule</title>
<polygon fill="#8dd3c7" stroke="black" points="324.22,-149.8 321.22,-153.8 300.22,-153.8 297.22,-149.8 189.78,-149.8 189.78,-113.8 324.22,-113.8 324.22,-149.8"/>
<text text-anchor="middle" x="257" y="-127.6" font-family="Times,serif" font-size="14.00">MovimientosModule</text>
</g>
<!-- MovimientosComponent&#45;&gt;MovimientosModule -->
<g id="edge1" class="edge">
<title>MovimientosComponent&#45;&gt;MovimientosModule</title>
<path fill="none" stroke="black" d="M180.2,-66.8C190.02,-66.8 196.7,-66.8 196.7,-66.8 196.7,-66.8 196.7,-103.69 196.7,-103.69"/>
<polygon fill="black" stroke="black" points="193.2,-103.69 196.7,-113.69 200.2,-103.69 193.2,-103.69"/>
</g>
<!-- MovimientosRoutingModule -->
<g id="node3" class="node">
<title>MovimientosRoutingModule</title>
<polygon fill="#8dd3c7" stroke="black" points="507.84,-84.8 504.84,-88.8 483.84,-88.8 480.84,-84.8 328.16,-84.8 328.16,-48.8 507.84,-48.8 507.84,-84.8"/>
<text text-anchor="middle" x="418" y="-62.6" font-family="Times,serif" font-size="14.00">MovimientosRoutingModule</text>
</g>
<!-- MovimientosRoutingModule&#45;&gt;MovimientosModule -->
<g id="edge2" class="edge">
<title>MovimientosRoutingModule&#45;&gt;MovimientosModule</title>
<path fill="none" stroke="black" d="M328.08,-66.8C321.46,-66.8 317.3,-66.8 317.3,-66.8 317.3,-66.8 317.3,-103.69 317.3,-103.69"/>
<polygon fill="black" stroke="black" points="313.8,-103.69 317.3,-113.69 320.8,-103.69 313.8,-103.69"/>
</g>
<!-- PrimengModule -->
<g id="node4" class="node">
<title>PrimengModule</title>
<polygon fill="#8dd3c7" stroke="black" points="310.49,-84.8 307.49,-88.8 286.49,-88.8 283.49,-84.8 203.51,-84.8 203.51,-48.8 310.49,-48.8 310.49,-84.8"/>
<text text-anchor="middle" x="257" y="-62.6" font-family="Times,serif" font-size="14.00">PrimengModule</text>
</g>
<!-- PrimengModule&#45;&gt;MovimientosModule -->
<g id="edge3" class="edge">
<title>PrimengModule&#45;&gt;MovimientosModule</title>
<path fill="none" stroke="black" d="M257,-84.91C257,-84.91 257,-103.79 257,-103.79"/>
<polygon fill="black" stroke="black" points="253.5,-103.79 257,-113.79 260.5,-103.79 253.5,-103.79"/>
</g>
</g>
</svg>
