<?xml version="1.0" encoding="UTF-8" standalone="no"?>
<!DOCTYPE svg PUBLIC "-//W3C//DTD SVG 1.1//EN"
 "http://www.w3.org/Graphics/SVG/1.1/DTD/svg11.dtd">
<!-- Generated by graphviz version 5.0.0 (20220707.1540)
 -->
<!-- Title: dependencies Pages: 1 -->
<svg width="342pt" height="174pt"
 viewBox="0.00 0.00 342.00 173.80" xmlns="http://www.w3.org/2000/svg" xmlns:xlink="http://www.w3.org/1999/xlink">
<g id="graph0" class="graph" transform="scale(1 1) rotate(0) translate(4 169.8)">
<title>dependencies</title>
<polygon fill="white" stroke="transparent" points="-4,4 -4,-169.8 338,-169.8 338,4 -4,4"/>
<text text-anchor="middle" x="167" y="-8.2" font-family="sans-serif" font-size="14.00">dependencies</text>
<g id="clust1" class="cluster">
<title>cluster_MovimientosModule</title>
<polygon fill="none" stroke="black" stroke-dasharray="1,5" points="8,-32.8 8,-157.8 326,-157.8 326,-32.8 8,-32.8"/>
</g>
<g id="clust4" class="cluster">
<title>cluster_MovimientosModule_imports</title>
<polygon fill="none" stroke="black" points="196,-40.8 196,-92.8 318,-92.8 318,-40.8 196,-40.8"/>
</g>
<g id="clust2" class="cluster">
<title>cluster_MovimientosModule_declarations</title>
<polygon fill="none" stroke="black" points="16,-40.8 16,-92.8 188,-92.8 188,-40.8 16,-40.8"/>
</g>
<!-- MovimientosComponent -->
<g id="node1" class="node">
<title>MovimientosComponent</title>
<polygon fill="#ffffb3" stroke="black" points="180,-84.8 24,-84.8 24,-48.8 180,-48.8 180,-84.8"/>
<text text-anchor="middle" x="102" y="-62.6" font-family="Times,serif" font-size="14.00">MovimientosComponent</text>
</g>
<!-- MovimientosModule -->
<g id="node2" class="node">
<title>MovimientosModule</title>
<polygon fill="#8dd3c7" stroke="black" points="243.22,-149.8 240.22,-153.8 219.22,-153.8 216.22,-149.8 108.78,-149.8 108.78,-113.8 243.22,-113.8 243.22,-149.8"/>
<text text-anchor="middle" x="176" y="-127.6" font-family="Times,serif" font-size="14.00">MovimientosModule</text>
</g>
<!-- MovimientosComponent&#45;&gt;MovimientosModule -->
<g id="edge1" class="edge">
<title>MovimientosComponent&#45;&gt;MovimientosModule</title>
<path fill="none" stroke="black" d="M144.44,-84.91C144.44,-84.91 144.44,-103.79 144.44,-103.79"/>
<polygon fill="black" stroke="black" points="140.94,-103.79 144.44,-113.79 147.94,-103.79 140.94,-103.79"/>
</g>
<!-- PrimengModule -->
<g id="node3" class="node">
<title>PrimengModule</title>
<polygon fill="#8dd3c7" stroke="black" points="310.49,-84.8 307.49,-88.8 286.49,-88.8 283.49,-84.8 203.51,-84.8 203.51,-48.8 310.49,-48.8 310.49,-84.8"/>
<text text-anchor="middle" x="257" y="-62.6" font-family="Times,serif" font-size="14.00">PrimengModule</text>
</g>
<!-- PrimengModule&#45;&gt;MovimientosModule -->
<g id="edge2" class="edge">
<title>PrimengModule&#45;&gt;MovimientosModule</title>
<path fill="none" stroke="black" d="M223.31,-84.91C223.31,-84.91 223.31,-103.79 223.31,-103.79"/>
<polygon fill="black" stroke="black" points="219.81,-103.79 223.31,-113.79 226.81,-103.79 219.81,-103.79"/>
</g>
</g>
</svg>
