<?xml version="1.0" encoding="UTF-8" standalone="no"?>
<!DOCTYPE svg PUBLIC "-//W3C//DTD SVG 1.1//EN"
 "http://www.w3.org/Graphics/SVG/1.1/DTD/svg11.dtd">
<!-- Generated by graphviz version 5.0.0 (20220707.1540)
 -->
<!-- Title: dependencies Pages: 1 -->
<svg width="1409pt" height="247pt"
 viewBox="0.00 0.00 1409.00 246.80" xmlns="http://www.w3.org/2000/svg" xmlns:xlink="http://www.w3.org/1999/xlink">
<g id="graph0" class="graph" transform="scale(1 1) rotate(0) translate(4 242.8)">
<title>dependencies</title>
<polygon fill="white" stroke="transparent" points="-4,4 -4,-242.8 1405,-242.8 1405,4 -4,4"/>
<text text-anchor="middle" x="700.5" y="-8.2" font-family="sans-serif" font-size="14.00">dependencies</text>
<g id="clust1" class="cluster">
<title>cluster_SidebarModule</title>
<polygon fill="none" stroke="black" stroke-dasharray="1,5" points="8,-32.8 8,-230.8 1393,-230.8 1393,-32.8 8,-32.8"/>
</g>
<g id="clust2" class="cluster">
<title>cluster_SidebarModule_declarations</title>
<polygon fill="none" stroke="black" points="693,-40.8 693,-92.8 1385,-92.8 1385,-40.8 693,-40.8"/>
</g>
<g id="clust7" class="cluster">
<title>cluster_SidebarModule_imports</title>
<polygon fill="none" stroke="black" points="178,-40.8 178,-92.8 685,-92.8 685,-40.8 178,-40.8"/>
</g>
<g id="clust8" class="cluster">
<title>cluster_SidebarModule_exports</title>
<polygon fill="none" stroke="black" points="557,-170.8 557,-222.8 701,-222.8 701,-170.8 557,-170.8"/>
</g>
<g id="clust10" class="cluster">
<title>cluster_SidebarModule_providers</title>
<polygon fill="none" stroke="black" points="16,-40.8 16,-92.8 170,-92.8 170,-40.8 16,-40.8"/>
</g>
<!-- AdminMenuComponent -->
<g id="node1" class="node">
<title>AdminMenuComponent</title>
<polygon fill="#ffffb3" stroke="black" points="1377.38,-84.8 1224.62,-84.8 1224.62,-48.8 1377.38,-48.8 1377.38,-84.8"/>
<text text-anchor="middle" x="1301" y="-62.6" font-family="Times,serif" font-size="14.00">AdminMenuComponent</text>
</g>
<!-- SidebarModule -->
<g id="node5" class="node">
<title>SidebarModule</title>
<polygon fill="#8dd3c7" stroke="black" points="680.32,-149.8 677.32,-153.8 656.32,-153.8 653.32,-149.8 577.68,-149.8 577.68,-113.8 680.32,-113.8 680.32,-149.8"/>
<text text-anchor="middle" x="629" y="-127.6" font-family="Times,serif" font-size="14.00">SidebarModule</text>
</g>
<!-- AdminMenuComponent&#45;&gt;SidebarModule -->
<g id="edge1" class="edge">
<title>AdminMenuComponent&#45;&gt;SidebarModule</title>
<path fill="none" stroke="black" d="M1301,-84.81C1301,-107.29 1301,-142.8 1301,-142.8 1301,-142.8 690.34,-142.8 690.34,-142.8"/>
<polygon fill="black" stroke="black" points="690.34,-139.3 680.34,-142.8 690.34,-146.3 690.34,-139.3"/>
</g>
<!-- HamburguesaMenuComponent -->
<g id="node2" class="node">
<title>HamburguesaMenuComponent</title>
<polygon fill="#ffffb3" stroke="black" points="1206.75,-84.8 1015.25,-84.8 1015.25,-48.8 1206.75,-48.8 1206.75,-84.8"/>
<text text-anchor="middle" x="1111" y="-62.6" font-family="Times,serif" font-size="14.00">HamburguesaMenuComponent</text>
</g>
<!-- HamburguesaMenuComponent&#45;&gt;SidebarModule -->
<g id="edge2" class="edge">
<title>HamburguesaMenuComponent&#45;&gt;SidebarModule</title>
<path fill="none" stroke="black" d="M1111,-84.93C1111,-105.37 1111,-135.8 1111,-135.8 1111,-135.8 690.58,-135.8 690.58,-135.8"/>
<polygon fill="black" stroke="black" points="690.58,-132.3 680.58,-135.8 690.58,-139.3 690.58,-132.3"/>
</g>
<!-- RoomsMenuComponent -->
<g id="node3" class="node">
<title>RoomsMenuComponent</title>
<polygon fill="#ffffb3" stroke="black" points="996.67,-84.8 843.33,-84.8 843.33,-48.8 996.67,-48.8 996.67,-84.8"/>
<text text-anchor="middle" x="920" y="-62.6" font-family="Times,serif" font-size="14.00">RoomsMenuComponent</text>
</g>
<!-- RoomsMenuComponent&#45;&gt;SidebarModule -->
<g id="edge3" class="edge">
<title>RoomsMenuComponent&#45;&gt;SidebarModule</title>
<path fill="none" stroke="black" d="M920,-85.07C920,-103.36 920,-128.8 920,-128.8 920,-128.8 690.36,-128.8 690.36,-128.8"/>
<polygon fill="black" stroke="black" points="690.36,-125.3 680.36,-128.8 690.36,-132.3 690.36,-125.3"/>
</g>
<!-- SidebarComponent -->
<g id="node4" class="node">
<title>SidebarComponent</title>
<polygon fill="#ffffb3" stroke="black" points="825.1,-84.8 700.9,-84.8 700.9,-48.8 825.1,-48.8 825.1,-84.8"/>
<text text-anchor="middle" x="763" y="-62.6" font-family="Times,serif" font-size="14.00">SidebarComponent</text>
</g>
<!-- SidebarComponent&#45;&gt;SidebarModule -->
<g id="edge4" class="edge">
<title>SidebarComponent&#45;&gt;SidebarModule</title>
<path fill="none" stroke="black" d="M763,-84.81C763,-100.85 763,-121.8 763,-121.8 763,-121.8 690.42,-121.8 690.42,-121.8"/>
<polygon fill="black" stroke="black" points="690.42,-118.3 680.42,-121.8 690.42,-125.3 690.42,-118.3"/>
</g>
<!-- SidebarComponent  -->
<g id="node10" class="node">
<title>SidebarComponent </title>
<polygon fill="#fb8072" stroke="black" points="692.6,-214.8 565.4,-214.8 565.4,-178.8 692.6,-178.8 692.6,-214.8"/>
<text text-anchor="middle" x="629" y="-192.6" font-family="Times,serif" font-size="14.00">SidebarComponent </text>
</g>
<!-- SidebarModule&#45;&gt;SidebarComponent  -->
<g id="edge9" class="edge">
<title>SidebarModule&#45;&gt;SidebarComponent </title>
<path fill="none" stroke="black" stroke-dasharray="5,2" d="M629,-149.91C629,-149.91 629,-168.79 629,-168.79"/>
<polygon fill="black" stroke="black" points="625.5,-168.79 629,-178.79 632.5,-168.79 625.5,-168.79"/>
</g>
<!-- CutStringPipe -->
<g id="node6" class="node">
<title>CutStringPipe</title>
<polygon fill="#8dd3c7" stroke="black" points="676.85,-84.8 673.85,-88.8 652.85,-88.8 649.85,-84.8 581.15,-84.8 581.15,-48.8 676.85,-48.8 676.85,-84.8"/>
<text text-anchor="middle" x="629" y="-62.6" font-family="Times,serif" font-size="14.00">CutStringPipe</text>
</g>
<!-- CutStringPipe&#45;&gt;SidebarModule -->
<g id="edge5" class="edge">
<title>CutStringPipe&#45;&gt;SidebarModule</title>
<path fill="none" stroke="black" d="M629,-84.91C629,-84.91 629,-103.79 629,-103.79"/>
<polygon fill="black" stroke="black" points="625.5,-103.79 629,-113.79 632.5,-103.79 625.5,-103.79"/>
</g>
<!-- MaterialModule -->
<g id="node7" class="node">
<title>MaterialModule</title>
<polygon fill="#8dd3c7" stroke="black" points="563.47,-84.8 560.47,-88.8 539.47,-88.8 536.47,-84.8 456.53,-84.8 456.53,-48.8 563.47,-48.8 563.47,-84.8"/>
<text text-anchor="middle" x="510" y="-62.6" font-family="Times,serif" font-size="14.00">MaterialModule</text>
</g>
<!-- MaterialModule&#45;&gt;SidebarModule -->
<g id="edge6" class="edge">
<title>MaterialModule&#45;&gt;SidebarModule</title>
<path fill="none" stroke="black" d="M510,-84.81C510,-100.85 510,-121.8 510,-121.8 510,-121.8 567.5,-121.8 567.5,-121.8"/>
<polygon fill="black" stroke="black" points="567.5,-125.3 577.5,-121.8 567.5,-118.3 567.5,-125.3"/>
</g>
<!-- PrimengModule -->
<g id="node8" class="node">
<title>PrimengModule</title>
<polygon fill="#8dd3c7" stroke="black" points="438.49,-84.8 435.49,-88.8 414.49,-88.8 411.49,-84.8 331.51,-84.8 331.51,-48.8 438.49,-48.8 438.49,-84.8"/>
<text text-anchor="middle" x="385" y="-62.6" font-family="Times,serif" font-size="14.00">PrimengModule</text>
</g>
<!-- PrimengModule&#45;&gt;SidebarModule -->
<g id="edge7" class="edge">
<title>PrimengModule&#45;&gt;SidebarModule</title>
<path fill="none" stroke="black" d="M385,-85.07C385,-103.36 385,-128.8 385,-128.8 385,-128.8 567.55,-128.8 567.55,-128.8"/>
<polygon fill="black" stroke="black" points="567.55,-132.3 577.55,-128.8 567.55,-125.3 567.55,-132.3"/>
</g>
<!-- RoomTypesModule -->
<g id="node9" class="node">
<title>RoomTypesModule</title>
<polygon fill="#8dd3c7" stroke="black" points="313.99,-84.8 310.99,-88.8 289.99,-88.8 286.99,-84.8 186.01,-84.8 186.01,-48.8 313.99,-48.8 313.99,-84.8"/>
<text text-anchor="middle" x="250" y="-62.6" font-family="Times,serif" font-size="14.00">RoomTypesModule</text>
</g>
<!-- RoomTypesModule&#45;&gt;SidebarModule -->
<g id="edge8" class="edge">
<title>RoomTypesModule&#45;&gt;SidebarModule</title>
<path fill="none" stroke="black" d="M250,-84.93C250,-105.37 250,-135.8 250,-135.8 250,-135.8 567.49,-135.8 567.49,-135.8"/>
<polygon fill="black" stroke="black" points="567.49,-139.3 577.49,-135.8 567.49,-132.3 567.49,-139.3"/>
</g>
<!-- SidebarService -->
<g id="node11" class="node">
<title>SidebarService</title>
<ellipse fill="#fdb462" stroke="black" cx="93" cy="-66.8" rx="69.48" ry="18"/>
<text text-anchor="middle" x="93" y="-62.6" font-family="Times,serif" font-size="14.00">SidebarService</text>
</g>
<!-- SidebarService&#45;&gt;SidebarModule -->
<g id="edge10" class="edge">
<title>SidebarService&#45;&gt;SidebarModule</title>
<path fill="none" stroke="black" d="M93,-84.81C93,-107.29 93,-142.8 93,-142.8 93,-142.8 567.61,-142.8 567.61,-142.8"/>
<polygon fill="black" stroke="black" points="567.61,-146.3 577.61,-142.8 567.61,-139.3 567.61,-146.3"/>
</g>
</g>
</svg>
