<?xml version="1.0" encoding="UTF-8" standalone="no"?>
<!DOCTYPE svg PUBLIC "-//W3C//DTD SVG 1.1//EN"
 "http://www.w3.org/Graphics/SVG/1.1/DTD/svg11.dtd">
<!-- Generated by graphviz version 5.0.0 (20220707.1540)
 -->
<!-- Title: dependencies Pages: 1 -->
<svg width="1409pt" height="247pt"
 viewBox="0.00 0.00 1409.00 246.80" xmlns="http://www.w3.org/2000/svg" xmlns:xlink="http://www.w3.org/1999/xlink">
<g id="graph0" class="graph" transform="scale(1 1) rotate(0) translate(4 242.8)">
<title>dependencies</title>
<polygon fill="white" stroke="transparent" points="-4,4 -4,-242.8 1405,-242.8 1405,4 -4,4"/>
<text text-anchor="middle" x="700.5" y="-8.2" font-family="sans-serif" font-size="14.00">dependencies</text>
<g id="clust1" class="cluster">
<title>cluster_SidebarModule</title>
<polygon fill="none" stroke="black" stroke-dasharray="1,5" points="8,-32.8 8,-230.8 1393,-230.8 1393,-32.8 8,-32.8"/>
</g>
<g id="clust7" class="cluster">
<title>cluster_SidebarModule_imports</title>
<polygon fill="none" stroke="black" points="878,-40.8 878,-92.8 1385,-92.8 1385,-40.8 878,-40.8"/>
</g>
<g id="clust8" class="cluster">
<title>cluster_SidebarModule_exports</title>
<polygon fill="none" stroke="black" points="714,-170.8 714,-222.8 858,-222.8 858,-170.8 714,-170.8"/>
</g>
<g id="clust2" class="cluster">
<title>cluster_SidebarModule_declarations</title>
<polygon fill="none" stroke="black" points="178,-40.8 178,-92.8 870,-92.8 870,-40.8 178,-40.8"/>
</g>
<g id="clust10" class="cluster">
<title>cluster_SidebarModule_providers</title>
<polygon fill="none" stroke="black" points="16,-40.8 16,-92.8 170,-92.8 170,-40.8 16,-40.8"/>
</g>
<!-- AdminMenuComponent -->
<g id="node1" class="node">
<title>AdminMenuComponent</title>
<polygon fill="#ffffb3" stroke="black" points="862.38,-84.8 709.62,-84.8 709.62,-48.8 862.38,-48.8 862.38,-84.8"/>
<text text-anchor="middle" x="786" y="-62.6" font-family="Times,serif" font-size="14.00">AdminMenuComponent</text>
</g>
<!-- SidebarModule -->
<g id="node5" class="node">
<title>SidebarModule</title>
<polygon fill="#8dd3c7" stroke="black" points="837.32,-149.8 834.32,-153.8 813.32,-153.8 810.32,-149.8 734.68,-149.8 734.68,-113.8 837.32,-113.8 837.32,-149.8"/>
<text text-anchor="middle" x="786" y="-127.6" font-family="Times,serif" font-size="14.00">SidebarModule</text>
</g>
<!-- AdminMenuComponent&#45;&gt;SidebarModule -->
<g id="edge1" class="edge">
<title>AdminMenuComponent&#45;&gt;SidebarModule</title>
<path fill="none" stroke="black" d="M786,-84.91C786,-84.91 786,-103.79 786,-103.79"/>
<polygon fill="black" stroke="black" points="782.5,-103.79 786,-113.79 789.5,-103.79 782.5,-103.79"/>
</g>
<!-- HamburguesaMenuComponent -->
<g id="node2" class="node">
<title>HamburguesaMenuComponent</title>
<polygon fill="#ffffb3" stroke="black" points="691.75,-84.8 500.25,-84.8 500.25,-48.8 691.75,-48.8 691.75,-84.8"/>
<text text-anchor="middle" x="596" y="-62.6" font-family="Times,serif" font-size="14.00">HamburguesaMenuComponent</text>
</g>
<!-- HamburguesaMenuComponent&#45;&gt;SidebarModule -->
<g id="edge2" class="edge">
<title>HamburguesaMenuComponent&#45;&gt;SidebarModule</title>
<path fill="none" stroke="black" d="M596,-84.81C596,-100.85 596,-121.8 596,-121.8 596,-121.8 724.83,-121.8 724.83,-121.8"/>
<polygon fill="black" stroke="black" points="724.83,-125.3 734.83,-121.8 724.83,-118.3 724.83,-125.3"/>
</g>
<!-- RoomsMenuComponent -->
<g id="node3" class="node">
<title>RoomsMenuComponent</title>
<polygon fill="#ffffb3" stroke="black" points="481.67,-84.8 328.33,-84.8 328.33,-48.8 481.67,-48.8 481.67,-84.8"/>
<text text-anchor="middle" x="405" y="-62.6" font-family="Times,serif" font-size="14.00">RoomsMenuComponent</text>
</g>
<!-- RoomsMenuComponent&#45;&gt;SidebarModule -->
<g id="edge3" class="edge">
<title>RoomsMenuComponent&#45;&gt;SidebarModule</title>
<path fill="none" stroke="black" d="M405,-85.07C405,-103.36 405,-128.8 405,-128.8 405,-128.8 724.62,-128.8 724.62,-128.8"/>
<polygon fill="black" stroke="black" points="724.62,-132.3 734.62,-128.8 724.62,-125.3 724.62,-132.3"/>
</g>
<!-- SidebarComponent -->
<g id="node4" class="node">
<title>SidebarComponent</title>
<polygon fill="#ffffb3" stroke="black" points="310.1,-84.8 185.9,-84.8 185.9,-48.8 310.1,-48.8 310.1,-84.8"/>
<text text-anchor="middle" x="248" y="-62.6" font-family="Times,serif" font-size="14.00">SidebarComponent</text>
</g>
<!-- SidebarComponent&#45;&gt;SidebarModule -->
<g id="edge4" class="edge">
<title>SidebarComponent&#45;&gt;SidebarModule</title>
<path fill="none" stroke="black" d="M248,-84.93C248,-105.37 248,-135.8 248,-135.8 248,-135.8 724.41,-135.8 724.41,-135.8"/>
<polygon fill="black" stroke="black" points="724.41,-139.3 734.41,-135.8 724.41,-132.3 724.41,-139.3"/>
</g>
<!-- SidebarComponent  -->
<g id="node10" class="node">
<title>SidebarComponent </title>
<polygon fill="#fb8072" stroke="black" points="849.6,-214.8 722.4,-214.8 722.4,-178.8 849.6,-178.8 849.6,-214.8"/>
<text text-anchor="middle" x="786" y="-192.6" font-family="Times,serif" font-size="14.00">SidebarComponent </text>
</g>
<!-- SidebarModule&#45;&gt;SidebarComponent  -->
<g id="edge9" class="edge">
<title>SidebarModule&#45;&gt;SidebarComponent </title>
<path fill="none" stroke="black" stroke-dasharray="5,2" d="M786,-149.91C786,-149.91 786,-168.79 786,-168.79"/>
<polygon fill="black" stroke="black" points="782.5,-168.79 786,-178.79 789.5,-168.79 782.5,-168.79"/>
</g>
<!-- CutStringPipe -->
<g id="node6" class="node">
<title>CutStringPipe</title>
<polygon fill="#8dd3c7" stroke="black" points="1376.85,-84.8 1373.85,-88.8 1352.85,-88.8 1349.85,-84.8 1281.15,-84.8 1281.15,-48.8 1376.85,-48.8 1376.85,-84.8"/>
<text text-anchor="middle" x="1329" y="-62.6" font-family="Times,serif" font-size="14.00">CutStringPipe</text>
</g>
<!-- CutStringPipe&#45;&gt;SidebarModule -->
<g id="edge5" class="edge">
<title>CutStringPipe&#45;&gt;SidebarModule</title>
<path fill="none" stroke="black" d="M1329,-84.81C1329,-107.29 1329,-142.8 1329,-142.8 1329,-142.8 847.57,-142.8 847.57,-142.8"/>
<polygon fill="black" stroke="black" points="847.57,-139.3 837.57,-142.8 847.57,-146.3 847.57,-139.3"/>
</g>
<!-- MaterialModule -->
<g id="node7" class="node">
<title>MaterialModule</title>
<polygon fill="#8dd3c7" stroke="black" points="1263.47,-84.8 1260.47,-88.8 1239.47,-88.8 1236.47,-84.8 1156.53,-84.8 1156.53,-48.8 1263.47,-48.8 1263.47,-84.8"/>
<text text-anchor="middle" x="1210" y="-62.6" font-family="Times,serif" font-size="14.00">MaterialModule</text>
</g>
<!-- MaterialModule&#45;&gt;SidebarModule -->
<g id="edge6" class="edge">
<title>MaterialModule&#45;&gt;SidebarModule</title>
<path fill="none" stroke="black" d="M1210,-84.93C1210,-105.37 1210,-135.8 1210,-135.8 1210,-135.8 847.57,-135.8 847.57,-135.8"/>
<polygon fill="black" stroke="black" points="847.57,-132.3 837.57,-135.8 847.57,-139.3 847.57,-132.3"/>
</g>
<!-- PrimengModule -->
<g id="node8" class="node">
<title>PrimengModule</title>
<polygon fill="#8dd3c7" stroke="black" points="1138.49,-84.8 1135.49,-88.8 1114.49,-88.8 1111.49,-84.8 1031.51,-84.8 1031.51,-48.8 1138.49,-48.8 1138.49,-84.8"/>
<text text-anchor="middle" x="1085" y="-62.6" font-family="Times,serif" font-size="14.00">PrimengModule</text>
</g>
<!-- PrimengModule&#45;&gt;SidebarModule -->
<g id="edge7" class="edge">
<title>PrimengModule&#45;&gt;SidebarModule</title>
<path fill="none" stroke="black" d="M1085,-85.07C1085,-103.36 1085,-128.8 1085,-128.8 1085,-128.8 847.4,-128.8 847.4,-128.8"/>
<polygon fill="black" stroke="black" points="847.4,-125.3 837.4,-128.8 847.4,-132.3 847.4,-125.3"/>
</g>
<!-- RoomTypesModule -->
<g id="node9" class="node">
<title>RoomTypesModule</title>
<polygon fill="#8dd3c7" stroke="black" points="1013.99,-84.8 1010.99,-88.8 989.99,-88.8 986.99,-84.8 886.01,-84.8 886.01,-48.8 1013.99,-48.8 1013.99,-84.8"/>
<text text-anchor="middle" x="950" y="-62.6" font-family="Times,serif" font-size="14.00">RoomTypesModule</text>
</g>
<!-- RoomTypesModule&#45;&gt;SidebarModule -->
<g id="edge8" class="edge">
<title>RoomTypesModule&#45;&gt;SidebarModule</title>
<path fill="none" stroke="black" d="M950,-84.81C950,-100.85 950,-121.8 950,-121.8 950,-121.8 847.44,-121.8 847.44,-121.8"/>
<polygon fill="black" stroke="black" points="847.44,-118.3 837.44,-121.8 847.44,-125.3 847.44,-118.3"/>
</g>
<!-- SidebarService -->
<g id="node11" class="node">
<title>SidebarService</title>
<ellipse fill="#fdb462" stroke="black" cx="93" cy="-66.8" rx="69.48" ry="18"/>
<text text-anchor="middle" x="93" y="-62.6" font-family="Times,serif" font-size="14.00">SidebarService</text>
</g>
<!-- SidebarService&#45;&gt;SidebarModule -->
<g id="edge10" class="edge">
<title>SidebarService&#45;&gt;SidebarModule</title>
<path fill="none" stroke="black" d="M93,-84.81C93,-107.29 93,-142.8 93,-142.8 93,-142.8 724.76,-142.8 724.76,-142.8"/>
<polygon fill="black" stroke="black" points="724.76,-146.3 734.76,-142.8 724.76,-139.3 724.76,-146.3"/>
</g>
</g>
</svg>
