<?xml version="1.0" encoding="UTF-8" standalone="no"?>
<!DOCTYPE svg PUBLIC "-//W3C//DTD SVG 1.1//EN"
 "http://www.w3.org/Graphics/SVG/1.1/DTD/svg11.dtd">
<!-- Generated by graphviz version 5.0.0 (20220707.1540)
 -->
<!-- Title: dependencies Pages: 1 -->
<svg width="590pt" height="174pt"
 viewBox="0.00 0.00 590.00 173.80" xmlns="http://www.w3.org/2000/svg" xmlns:xlink="http://www.w3.org/1999/xlink">
<g id="graph0" class="graph" transform="scale(1 1) rotate(0) translate(4 169.8)">
<title>dependencies</title>
<polygon fill="white" stroke="transparent" points="-4,4 -4,-169.8 586,-169.8 586,4 -4,4"/>
<text text-anchor="middle" x="291" y="-8.2" font-family="sans-serif" font-size="14.00">dependencies</text>
<g id="clust1" class="cluster">
<title>cluster_RegistroModule</title>
<polygon fill="none" stroke="black" stroke-dasharray="1,5" points="8,-32.8 8,-157.8 574,-157.8 574,-32.8 8,-32.8"/>
</g>
<g id="clust2" class="cluster">
<title>cluster_RegistroModule_declarations</title>
<polygon fill="none" stroke="black" points="422,-40.8 422,-92.8 566,-92.8 566,-40.8 422,-40.8"/>
</g>
<g id="clust4" class="cluster">
<title>cluster_RegistroModule_imports</title>
<polygon fill="none" stroke="black" points="16,-40.8 16,-92.8 414,-92.8 414,-40.8 16,-40.8"/>
</g>
<!-- RegistroComponent -->
<g id="node1" class="node">
<title>RegistroComponent</title>
<polygon fill="#ffffb3" stroke="black" points="558.27,-84.8 429.73,-84.8 429.73,-48.8 558.27,-48.8 558.27,-84.8"/>
<text text-anchor="middle" x="494" y="-62.6" font-family="Times,serif" font-size="14.00">RegistroComponent</text>
</g>
<!-- RegistroModule -->
<g id="node2" class="node">
<title>RegistroModule</title>
<polygon fill="#8dd3c7" stroke="black" points="358.49,-149.8 355.49,-153.8 334.49,-153.8 331.49,-149.8 251.51,-149.8 251.51,-113.8 358.49,-113.8 358.49,-149.8"/>
<text text-anchor="middle" x="305" y="-127.6" font-family="Times,serif" font-size="14.00">RegistroModule</text>
</g>
<!-- RegistroComponent&#45;&gt;RegistroModule -->
<g id="edge1" class="edge">
<title>RegistroComponent&#45;&gt;RegistroModule</title>
<path fill="none" stroke="black" d="M494,-84.91C494,-104.14 494,-131.8 494,-131.8 494,-131.8 368.65,-131.8 368.65,-131.8"/>
<polygon fill="black" stroke="black" points="368.65,-128.3 358.65,-131.8 368.65,-135.3 368.65,-128.3"/>
</g>
<!-- CoreModule -->
<g id="node3" class="node">
<title>CoreModule</title>
<polygon fill="#8dd3c7" stroke="black" points="406.27,-84.8 403.27,-88.8 382.27,-88.8 379.27,-84.8 319.73,-84.8 319.73,-48.8 406.27,-48.8 406.27,-84.8"/>
<text text-anchor="middle" x="363" y="-62.6" font-family="Times,serif" font-size="14.00">CoreModule</text>
</g>
<!-- CoreModule&#45;&gt;RegistroModule -->
<g id="edge2" class="edge">
<title>CoreModule&#45;&gt;RegistroModule</title>
<path fill="none" stroke="black" d="M339.06,-84.91C339.06,-84.91 339.06,-103.79 339.06,-103.79"/>
<polygon fill="black" stroke="black" points="335.56,-103.79 339.06,-113.79 342.56,-103.79 335.56,-103.79"/>
</g>
<!-- PrimengModule -->
<g id="node4" class="node">
<title>PrimengModule</title>
<polygon fill="#8dd3c7" stroke="black" points="301.49,-84.8 298.49,-88.8 277.49,-88.8 274.49,-84.8 194.51,-84.8 194.51,-48.8 301.49,-48.8 301.49,-84.8"/>
<text text-anchor="middle" x="248" y="-62.6" font-family="Times,serif" font-size="14.00">PrimengModule</text>
</g>
<!-- PrimengModule&#45;&gt;RegistroModule -->
<g id="edge3" class="edge">
<title>PrimengModule&#45;&gt;RegistroModule</title>
<path fill="none" stroke="black" d="M276.5,-84.91C276.5,-84.91 276.5,-103.79 276.5,-103.79"/>
<polygon fill="black" stroke="black" points="273,-103.79 276.5,-113.79 280,-103.79 273,-103.79"/>
</g>
<!-- RegistroRoutingModule -->
<g id="node5" class="node">
<title>RegistroRoutingModule</title>
<polygon fill="#8dd3c7" stroke="black" points="176.11,-84.8 173.11,-88.8 152.11,-88.8 149.11,-84.8 23.89,-84.8 23.89,-48.8 176.11,-48.8 176.11,-84.8"/>
<text text-anchor="middle" x="100" y="-62.6" font-family="Times,serif" font-size="14.00">RegistroRoutingModule</text>
</g>
<!-- RegistroRoutingModule&#45;&gt;RegistroModule -->
<g id="edge4" class="edge">
<title>RegistroRoutingModule&#45;&gt;RegistroModule</title>
<path fill="none" stroke="black" d="M100,-84.91C100,-104.14 100,-131.8 100,-131.8 100,-131.8 241.41,-131.8 241.41,-131.8"/>
<polygon fill="black" stroke="black" points="241.41,-135.3 251.41,-131.8 241.41,-128.3 241.41,-135.3"/>
</g>
</g>
</svg>
