<?xml version="1.0" encoding="UTF-8" standalone="no"?>
<!DOCTYPE svg PUBLIC "-//W3C//DTD SVG 1.1//EN"
 "http://www.w3.org/Graphics/SVG/1.1/DTD/svg11.dtd">
<!-- Generated by graphviz version 5.0.0 (20220707.1540)
 -->
<!-- Title: dependencies Pages: 1 -->
<svg width="590pt" height="174pt"
 viewBox="0.00 0.00 590.00 173.80" xmlns="http://www.w3.org/2000/svg" xmlns:xlink="http://www.w3.org/1999/xlink">
<g id="graph0" class="graph" transform="scale(1 1) rotate(0) translate(4 169.8)">
<title>dependencies</title>
<polygon fill="white" stroke="transparent" points="-4,4 -4,-169.8 586,-169.8 586,4 -4,4"/>
<text text-anchor="middle" x="291" y="-8.2" font-family="sans-serif" font-size="14.00">dependencies</text>
<g id="clust1" class="cluster">
<title>cluster_RegistroModule</title>
<polygon fill="none" stroke="black" stroke-dasharray="1,5" points="8,-32.8 8,-157.8 574,-157.8 574,-32.8 8,-32.8"/>
</g>
<g id="clust4" class="cluster">
<title>cluster_RegistroModule_imports</title>
<polygon fill="none" stroke="black" points="168,-40.8 168,-92.8 566,-92.8 566,-40.8 168,-40.8"/>
</g>
<g id="clust2" class="cluster">
<title>cluster_RegistroModule_declarations</title>
<polygon fill="none" stroke="black" points="16,-40.8 16,-92.8 160,-92.8 160,-40.8 16,-40.8"/>
</g>
<!-- RegistroComponent -->
<g id="node1" class="node">
<title>RegistroComponent</title>
<polygon fill="#ffffb3" stroke="black" points="152.27,-84.8 23.73,-84.8 23.73,-48.8 152.27,-48.8 152.27,-84.8"/>
<text text-anchor="middle" x="88" y="-62.6" font-family="Times,serif" font-size="14.00">RegistroComponent</text>
</g>
<!-- RegistroModule -->
<g id="node2" class="node">
<title>RegistroModule</title>
<polygon fill="#8dd3c7" stroke="black" points="379.49,-149.8 376.49,-153.8 355.49,-153.8 352.49,-149.8 272.51,-149.8 272.51,-113.8 379.49,-113.8 379.49,-149.8"/>
<text text-anchor="middle" x="326" y="-127.6" font-family="Times,serif" font-size="14.00">RegistroModule</text>
</g>
<!-- RegistroComponent&#45;&gt;RegistroModule -->
<g id="edge1" class="edge">
<title>RegistroComponent&#45;&gt;RegistroModule</title>
<path fill="none" stroke="black" d="M88,-84.91C88,-104.14 88,-131.8 88,-131.8 88,-131.8 262.29,-131.8 262.29,-131.8"/>
<polygon fill="black" stroke="black" points="262.29,-135.3 272.29,-131.8 262.29,-128.3 262.29,-135.3"/>
</g>
<!-- CoreModule -->
<g id="node3" class="node">
<title>CoreModule</title>
<polygon fill="#8dd3c7" stroke="black" points="558.27,-84.8 555.27,-88.8 534.27,-88.8 531.27,-84.8 471.73,-84.8 471.73,-48.8 558.27,-48.8 558.27,-84.8"/>
<text text-anchor="middle" x="515" y="-62.6" font-family="Times,serif" font-size="14.00">CoreModule</text>
</g>
<!-- CoreModule&#45;&gt;RegistroModule -->
<g id="edge2" class="edge">
<title>CoreModule&#45;&gt;RegistroModule</title>
<path fill="none" stroke="black" d="M515,-84.91C515,-104.14 515,-131.8 515,-131.8 515,-131.8 389.65,-131.8 389.65,-131.8"/>
<polygon fill="black" stroke="black" points="389.65,-128.3 379.65,-131.8 389.65,-135.3 389.65,-128.3"/>
</g>
<!-- PrimengModule -->
<g id="node4" class="node">
<title>PrimengModule</title>
<polygon fill="#8dd3c7" stroke="black" points="453.49,-84.8 450.49,-88.8 429.49,-88.8 426.49,-84.8 346.51,-84.8 346.51,-48.8 453.49,-48.8 453.49,-84.8"/>
<text text-anchor="middle" x="400" y="-62.6" font-family="Times,serif" font-size="14.00">PrimengModule</text>
</g>
<!-- PrimengModule&#45;&gt;RegistroModule -->
<g id="edge3" class="edge">
<title>PrimengModule&#45;&gt;RegistroModule</title>
<path fill="none" stroke="black" d="M363,-84.91C363,-84.91 363,-103.79 363,-103.79"/>
<polygon fill="black" stroke="black" points="359.5,-103.79 363,-113.79 366.5,-103.79 359.5,-103.79"/>
</g>
<!-- RegistroRoutingModule -->
<g id="node5" class="node">
<title>RegistroRoutingModule</title>
<polygon fill="#8dd3c7" stroke="black" points="328.11,-84.8 325.11,-88.8 304.11,-88.8 301.11,-84.8 175.89,-84.8 175.89,-48.8 328.11,-48.8 328.11,-84.8"/>
<text text-anchor="middle" x="252" y="-62.6" font-family="Times,serif" font-size="14.00">RegistroRoutingModule</text>
</g>
<!-- RegistroRoutingModule&#45;&gt;RegistroModule -->
<g id="edge4" class="edge">
<title>RegistroRoutingModule&#45;&gt;RegistroModule</title>
<path fill="none" stroke="black" d="M300.28,-84.91C300.28,-84.91 300.28,-103.79 300.28,-103.79"/>
<polygon fill="black" stroke="black" points="296.78,-103.79 300.28,-113.79 303.78,-103.79 296.78,-103.79"/>
</g>
</g>
</svg>
