<?xml version="1.0" encoding="UTF-8" standalone="no"?>
<!DOCTYPE svg PUBLIC "-//W3C//DTD SVG 1.1//EN"
 "http://www.w3.org/Graphics/SVG/1.1/DTD/svg11.dtd">
<!-- Generated by graphviz version 5.0.0 (20220707.1540)
 -->
<!-- Title: dependencies Pages: 1 -->
<svg width="419pt" height="174pt"
 viewBox="0.00 0.00 419.00 173.80" xmlns="http://www.w3.org/2000/svg" xmlns:xlink="http://www.w3.org/1999/xlink">
<g id="graph0" class="graph" transform="scale(1 1) rotate(0) translate(4 169.8)">
<title>dependencies</title>
<polygon fill="white" stroke="transparent" points="-4,4 -4,-169.8 415,-169.8 415,4 -4,4"/>
<text text-anchor="middle" x="205.5" y="-8.2" font-family="sans-serif" font-size="14.00">dependencies</text>
<g id="clust1" class="cluster">
<title>cluster_RegistroModule</title>
<polygon fill="none" stroke="black" stroke-dasharray="1,5" points="8,-32.8 8,-157.8 403,-157.8 403,-32.8 8,-32.8"/>
</g>
<g id="clust2" class="cluster">
<title>cluster_RegistroModule_declarations</title>
<polygon fill="none" stroke="black" points="251,-40.8 251,-92.8 395,-92.8 395,-40.8 251,-40.8"/>
</g>
<g id="clust4" class="cluster">
<title>cluster_RegistroModule_imports</title>
<polygon fill="none" stroke="black" points="16,-40.8 16,-92.8 243,-92.8 243,-40.8 16,-40.8"/>
</g>
<!-- RegistroComponent -->
<g id="node1" class="node">
<title>RegistroComponent</title>
<polygon fill="#ffffb3" stroke="black" points="387.27,-84.8 258.73,-84.8 258.73,-48.8 387.27,-48.8 387.27,-84.8"/>
<text text-anchor="middle" x="323" y="-62.6" font-family="Times,serif" font-size="14.00">RegistroComponent</text>
</g>
<!-- RegistroModule -->
<g id="node2" class="node">
<title>RegistroModule</title>
<polygon fill="#8dd3c7" stroke="black" points="245.49,-149.8 242.49,-153.8 221.49,-153.8 218.49,-149.8 138.51,-149.8 138.51,-113.8 245.49,-113.8 245.49,-149.8"/>
<text text-anchor="middle" x="192" y="-127.6" font-family="Times,serif" font-size="14.00">RegistroModule</text>
</g>
<!-- RegistroComponent&#45;&gt;RegistroModule -->
<g id="edge1" class="edge">
<title>RegistroComponent&#45;&gt;RegistroModule</title>
<path fill="none" stroke="black" d="M258.35,-66.8C247.91,-66.8 240.44,-66.8 240.44,-66.8 240.44,-66.8 240.44,-103.69 240.44,-103.69"/>
<polygon fill="black" stroke="black" points="236.94,-103.69 240.44,-113.69 243.94,-103.69 236.94,-103.69"/>
</g>
<!-- CoreModule -->
<g id="node3" class="node">
<title>CoreModule</title>
<polygon fill="#8dd3c7" stroke="black" points="235.27,-84.8 232.27,-88.8 211.27,-88.8 208.27,-84.8 148.73,-84.8 148.73,-48.8 235.27,-48.8 235.27,-84.8"/>
<text text-anchor="middle" x="192" y="-62.6" font-family="Times,serif" font-size="14.00">CoreModule</text>
</g>
<!-- CoreModule&#45;&gt;RegistroModule -->
<g id="edge2" class="edge">
<title>CoreModule&#45;&gt;RegistroModule</title>
<path fill="none" stroke="black" d="M192,-84.91C192,-84.91 192,-103.79 192,-103.79"/>
<polygon fill="black" stroke="black" points="188.5,-103.79 192,-113.79 195.5,-103.79 188.5,-103.79"/>
</g>
<!-- PrimengModule -->
<g id="node4" class="node">
<title>PrimengModule</title>
<polygon fill="#8dd3c7" stroke="black" points="130.49,-84.8 127.49,-88.8 106.49,-88.8 103.49,-84.8 23.51,-84.8 23.51,-48.8 130.49,-48.8 130.49,-84.8"/>
<text text-anchor="middle" x="77" y="-62.6" font-family="Times,serif" font-size="14.00">PrimengModule</text>
</g>
<!-- PrimengModule&#45;&gt;RegistroModule -->
<g id="edge3" class="edge">
<title>PrimengModule&#45;&gt;RegistroModule</title>
<path fill="none" stroke="black" d="M130.73,-66.8C138.3,-66.8 143.56,-66.8 143.56,-66.8 143.56,-66.8 143.56,-103.69 143.56,-103.69"/>
<polygon fill="black" stroke="black" points="140.06,-103.69 143.56,-113.69 147.06,-103.69 140.06,-103.69"/>
</g>
</g>
</svg>
