<?xml version="1.0" encoding="UTF-8" standalone="no"?>
<!DOCTYPE svg PUBLIC "-//W3C//DTD SVG 1.1//EN"
 "http://www.w3.org/Graphics/SVG/1.1/DTD/svg11.dtd">
<!-- Generated by graphviz version 5.0.0 (20220707.1540)
 -->
<!-- Title: dependencies Pages: 1 -->
<svg width="1229pt" height="174pt"
 viewBox="0.00 0.00 1229.00 173.80" xmlns="http://www.w3.org/2000/svg" xmlns:xlink="http://www.w3.org/1999/xlink">
<g id="graph0" class="graph" transform="scale(1 1) rotate(0) translate(4 169.8)">
<title>dependencies</title>
<polygon fill="white" stroke="transparent" points="-4,4 -4,-169.8 1225,-169.8 1225,4 -4,4"/>
<text text-anchor="middle" x="610.5" y="-8.2" font-family="sans-serif" font-size="14.00">dependencies</text>
<g id="clust1" class="cluster">
<title>cluster_GastosGeneralesModule</title>
<polygon fill="none" stroke="black" stroke-dasharray="1,5" points="8,-32.8 8,-157.8 1213,-157.8 1213,-32.8 8,-32.8"/>
</g>
<g id="clust2" class="cluster">
<title>cluster_GastosGeneralesModule_declarations</title>
<polygon fill="none" stroke="black" points="343,-40.8 343,-92.8 1205,-92.8 1205,-40.8 343,-40.8"/>
</g>
<g id="clust7" class="cluster">
<title>cluster_GastosGeneralesModule_imports</title>
<polygon fill="none" stroke="black" points="16,-40.8 16,-92.8 335,-92.8 335,-40.8 16,-40.8"/>
</g>
<!-- CrearGastoGeneralComponent -->
<g id="node1" class="node">
<title>CrearGastoGeneralComponent</title>
<polygon fill="#ffffb3" stroke="black" points="1196.89,-84.8 1007.11,-84.8 1007.11,-48.8 1196.89,-48.8 1196.89,-84.8"/>
<text text-anchor="middle" x="1102" y="-62.6" font-family="Times,serif" font-size="14.00">CrearGastoGeneralComponent</text>
</g>
<!-- GastosGeneralesModule -->
<g id="node5" class="node">
<title>GastosGeneralesModule</title>
<polygon fill="#8dd3c7" stroke="black" points="641.63,-149.8 638.63,-153.8 617.63,-153.8 614.63,-149.8 488.37,-149.8 488.37,-113.8 641.63,-113.8 641.63,-149.8"/>
<text text-anchor="middle" x="565" y="-127.6" font-family="Times,serif" font-size="14.00">GastosGeneralesModule</text>
</g>
<!-- CrearGastoGeneralComponent&#45;&gt;GastosGeneralesModule -->
<g id="edge1" class="edge">
<title>CrearGastoGeneralComponent&#45;&gt;GastosGeneralesModule</title>
<path fill="none" stroke="black" d="M1102,-85.08C1102,-106.12 1102,-137.8 1102,-137.8 1102,-137.8 651.65,-137.8 651.65,-137.8"/>
<polygon fill="black" stroke="black" points="651.65,-134.3 641.65,-137.8 651.65,-141.3 651.65,-134.3"/>
</g>
<!-- GastosGeneralesComponent -->
<g id="node2" class="node">
<title>GastosGeneralesComponent</title>
<polygon fill="#ffffb3" stroke="black" points="989.91,-84.8 814.09,-84.8 814.09,-48.8 989.91,-48.8 989.91,-84.8"/>
<text text-anchor="middle" x="902" y="-62.6" font-family="Times,serif" font-size="14.00">GastosGeneralesComponent</text>
</g>
<!-- GastosGeneralesComponent&#45;&gt;GastosGeneralesModule -->
<g id="edge2" class="edge">
<title>GastosGeneralesComponent&#45;&gt;GastosGeneralesModule</title>
<path fill="none" stroke="black" d="M902,-84.82C902,-102.17 902,-125.8 902,-125.8 902,-125.8 651.89,-125.8 651.89,-125.8"/>
<polygon fill="black" stroke="black" points="651.89,-122.3 641.89,-125.8 651.89,-129.3 651.89,-122.3"/>
</g>
<!-- ModificarGastosGeneralesComponent -->
<g id="node3" class="node">
<title>ModificarGastosGeneralesComponent</title>
<polygon fill="#ffffb3" stroke="black" points="796.89,-84.8 565.11,-84.8 565.11,-48.8 796.89,-48.8 796.89,-84.8"/>
<text text-anchor="middle" x="681" y="-62.6" font-family="Times,serif" font-size="14.00">ModificarGastosGeneralesComponent</text>
</g>
<!-- ModificarGastosGeneralesComponent&#45;&gt;GastosGeneralesModule -->
<g id="edge3" class="edge">
<title>ModificarGastosGeneralesComponent&#45;&gt;GastosGeneralesModule</title>
<path fill="none" stroke="black" d="M603.56,-84.91C603.56,-84.91 603.56,-103.79 603.56,-103.79"/>
<polygon fill="black" stroke="black" points="600.06,-103.79 603.56,-113.79 607.06,-103.79 600.06,-103.79"/>
</g>
<!-- VerGastosGeneralesComponent -->
<g id="node4" class="node">
<title>VerGastosGeneralesComponent</title>
<polygon fill="#ffffb3" stroke="black" points="547.39,-84.8 350.61,-84.8 350.61,-48.8 547.39,-48.8 547.39,-84.8"/>
<text text-anchor="middle" x="449" y="-62.6" font-family="Times,serif" font-size="14.00">VerGastosGeneralesComponent</text>
</g>
<!-- VerGastosGeneralesComponent&#45;&gt;GastosGeneralesModule -->
<g id="edge4" class="edge">
<title>VerGastosGeneralesComponent&#45;&gt;GastosGeneralesModule</title>
<path fill="none" stroke="black" d="M517.69,-84.91C517.69,-84.91 517.69,-103.79 517.69,-103.79"/>
<polygon fill="black" stroke="black" points="514.19,-103.79 517.69,-113.79 521.19,-103.79 514.19,-103.79"/>
</g>
<!-- CoreModule -->
<g id="node6" class="node">
<title>CoreModule</title>
<polygon fill="#8dd3c7" stroke="black" points="327.27,-84.8 324.27,-88.8 303.27,-88.8 300.27,-84.8 240.73,-84.8 240.73,-48.8 327.27,-48.8 327.27,-84.8"/>
<text text-anchor="middle" x="284" y="-62.6" font-family="Times,serif" font-size="14.00">CoreModule</text>
</g>
<!-- CoreModule&#45;&gt;GastosGeneralesModule -->
<g id="edge5" class="edge">
<title>CoreModule&#45;&gt;GastosGeneralesModule</title>
<path fill="none" stroke="black" d="M284,-84.82C284,-102.17 284,-125.8 284,-125.8 284,-125.8 478.22,-125.8 478.22,-125.8"/>
<polygon fill="black" stroke="black" points="478.22,-129.3 488.22,-125.8 478.22,-122.3 478.22,-129.3"/>
</g>
<!-- GastosGeneralesRoutingModule -->
<g id="node7" class="node">
<title>GastosGeneralesRoutingModule</title>
<polygon fill="#8dd3c7" stroke="black" points="222.25,-84.8 219.25,-88.8 198.25,-88.8 195.25,-84.8 23.75,-84.8 23.75,-48.8 222.25,-48.8 222.25,-84.8"/>
<text text-anchor="middle" x="123" y="-62.6" font-family="Times,serif" font-size="14.00">GastosGeneralesRoutingModule</text>
</g>
<!-- GastosGeneralesRoutingModule&#45;&gt;GastosGeneralesModule -->
<g id="edge6" class="edge">
<title>GastosGeneralesRoutingModule&#45;&gt;GastosGeneralesModule</title>
<path fill="none" stroke="black" d="M123,-85.08C123,-106.12 123,-137.8 123,-137.8 123,-137.8 478.26,-137.8 478.26,-137.8"/>
<polygon fill="black" stroke="black" points="478.26,-141.3 488.26,-137.8 478.26,-134.3 478.26,-141.3"/>
</g>
</g>
</svg>
