<?xml version="1.0" encoding="UTF-8" standalone="no"?>
<!DOCTYPE svg PUBLIC "-//W3C//DTD SVG 1.1//EN"
 "http://www.w3.org/Graphics/SVG/1.1/DTD/svg11.dtd">
<!-- Generated by graphviz version 5.0.0 (20220707.1540)
 -->
<!-- Title: dependencies Pages: 1 -->
<svg width="1012pt" height="174pt"
 viewBox="0.00 0.00 1012.00 173.80" xmlns="http://www.w3.org/2000/svg" xmlns:xlink="http://www.w3.org/1999/xlink">
<g id="graph0" class="graph" transform="scale(1 1) rotate(0) translate(4 169.8)">
<title>dependencies</title>
<polygon fill="white" stroke="transparent" points="-4,4 -4,-169.8 1008,-169.8 1008,4 -4,4"/>
<text text-anchor="middle" x="502" y="-8.2" font-family="sans-serif" font-size="14.00">dependencies</text>
<g id="clust1" class="cluster">
<title>cluster_GastosGeneralesModule</title>
<polygon fill="none" stroke="black" stroke-dasharray="1,5" points="8,-32.8 8,-157.8 996,-157.8 996,-32.8 8,-32.8"/>
</g>
<g id="clust2" class="cluster">
<title>cluster_GastosGeneralesModule_declarations</title>
<polygon fill="none" stroke="black" points="126,-40.8 126,-92.8 988,-92.8 988,-40.8 126,-40.8"/>
</g>
<g id="clust7" class="cluster">
<title>cluster_GastosGeneralesModule_imports</title>
<polygon fill="none" stroke="black" points="16,-40.8 16,-92.8 118,-92.8 118,-40.8 16,-40.8"/>
</g>
<!-- CrearGastoGeneralComponent -->
<g id="node1" class="node">
<title>CrearGastoGeneralComponent</title>
<polygon fill="#ffffb3" stroke="black" points="979.89,-84.8 790.11,-84.8 790.11,-48.8 979.89,-48.8 979.89,-84.8"/>
<text text-anchor="middle" x="885" y="-62.6" font-family="Times,serif" font-size="14.00">CrearGastoGeneralComponent</text>
</g>
<!-- GastosGeneralesModule -->
<g id="node5" class="node">
<title>GastosGeneralesModule</title>
<polygon fill="#8dd3c7" stroke="black" points="540.63,-149.8 537.63,-153.8 516.63,-153.8 513.63,-149.8 387.37,-149.8 387.37,-113.8 540.63,-113.8 540.63,-149.8"/>
<text text-anchor="middle" x="464" y="-127.6" font-family="Times,serif" font-size="14.00">GastosGeneralesModule</text>
</g>
<!-- CrearGastoGeneralComponent&#45;&gt;GastosGeneralesModule -->
<g id="edge1" class="edge">
<title>CrearGastoGeneralComponent&#45;&gt;GastosGeneralesModule</title>
<path fill="none" stroke="black" d="M885,-85.08C885,-106.12 885,-137.8 885,-137.8 885,-137.8 550.73,-137.8 550.73,-137.8"/>
<polygon fill="black" stroke="black" points="550.73,-134.3 540.73,-137.8 550.73,-141.3 550.73,-134.3"/>
</g>
<!-- GastosGeneralesComponent -->
<g id="node2" class="node">
<title>GastosGeneralesComponent</title>
<polygon fill="#ffffb3" stroke="black" points="772.91,-84.8 597.09,-84.8 597.09,-48.8 772.91,-48.8 772.91,-84.8"/>
<text text-anchor="middle" x="685" y="-62.6" font-family="Times,serif" font-size="14.00">GastosGeneralesComponent</text>
</g>
<!-- GastosGeneralesComponent&#45;&gt;GastosGeneralesModule -->
<g id="edge2" class="edge">
<title>GastosGeneralesComponent&#45;&gt;GastosGeneralesModule</title>
<path fill="none" stroke="black" d="M685,-84.82C685,-102.17 685,-125.8 685,-125.8 685,-125.8 550.67,-125.8 550.67,-125.8"/>
<polygon fill="black" stroke="black" points="550.67,-122.3 540.67,-125.8 550.67,-129.3 550.67,-122.3"/>
</g>
<!-- ModificarGastosGeneralesComponent -->
<g id="node3" class="node">
<title>ModificarGastosGeneralesComponent</title>
<polygon fill="#ffffb3" stroke="black" points="579.89,-84.8 348.11,-84.8 348.11,-48.8 579.89,-48.8 579.89,-84.8"/>
<text text-anchor="middle" x="464" y="-62.6" font-family="Times,serif" font-size="14.00">ModificarGastosGeneralesComponent</text>
</g>
<!-- ModificarGastosGeneralesComponent&#45;&gt;GastosGeneralesModule -->
<g id="edge3" class="edge">
<title>ModificarGastosGeneralesComponent&#45;&gt;GastosGeneralesModule</title>
<path fill="none" stroke="black" d="M464,-84.91C464,-84.91 464,-103.79 464,-103.79"/>
<polygon fill="black" stroke="black" points="460.5,-103.79 464,-113.79 467.5,-103.79 460.5,-103.79"/>
</g>
<!-- VerGastosGeneralesComponent -->
<g id="node4" class="node">
<title>VerGastosGeneralesComponent</title>
<polygon fill="#ffffb3" stroke="black" points="330.39,-84.8 133.61,-84.8 133.61,-48.8 330.39,-48.8 330.39,-84.8"/>
<text text-anchor="middle" x="232" y="-62.6" font-family="Times,serif" font-size="14.00">VerGastosGeneralesComponent</text>
</g>
<!-- VerGastosGeneralesComponent&#45;&gt;GastosGeneralesModule -->
<g id="edge4" class="edge">
<title>VerGastosGeneralesComponent&#45;&gt;GastosGeneralesModule</title>
<path fill="none" stroke="black" d="M232,-84.82C232,-102.17 232,-125.8 232,-125.8 232,-125.8 377.07,-125.8 377.07,-125.8"/>
<polygon fill="black" stroke="black" points="377.07,-129.3 387.07,-125.8 377.07,-122.3 377.07,-129.3"/>
</g>
<!-- CoreModule -->
<g id="node6" class="node">
<title>CoreModule</title>
<polygon fill="#8dd3c7" stroke="black" points="110.27,-84.8 107.27,-88.8 86.27,-88.8 83.27,-84.8 23.73,-84.8 23.73,-48.8 110.27,-48.8 110.27,-84.8"/>
<text text-anchor="middle" x="67" y="-62.6" font-family="Times,serif" font-size="14.00">CoreModule</text>
</g>
<!-- CoreModule&#45;&gt;GastosGeneralesModule -->
<g id="edge5" class="edge">
<title>CoreModule&#45;&gt;GastosGeneralesModule</title>
<path fill="none" stroke="black" d="M67,-85.08C67,-106.12 67,-137.8 67,-137.8 67,-137.8 376.98,-137.8 376.98,-137.8"/>
<polygon fill="black" stroke="black" points="376.98,-141.3 386.98,-137.8 376.98,-134.3 376.98,-141.3"/>
</g>
</g>
</svg>
