<?xml version="1.0" encoding="UTF-8" standalone="no"?>
<!DOCTYPE svg PUBLIC "-//W3C//DTD SVG 1.1//EN"
 "http://www.w3.org/Graphics/SVG/1.1/DTD/svg11.dtd">
<!-- Generated by graphviz version 5.0.0 (20220707.1540)
 -->
<!-- Title: dependencies Pages: 1 -->
<svg width="538pt" height="174pt"
 viewBox="0.00 0.00 538.00 173.80" xmlns="http://www.w3.org/2000/svg" xmlns:xlink="http://www.w3.org/1999/xlink">
<g id="graph0" class="graph" transform="scale(1 1) rotate(0) translate(4 169.8)">
<title>dependencies</title>
<polygon fill="white" stroke="transparent" points="-4,4 -4,-169.8 534,-169.8 534,4 -4,4"/>
<text text-anchor="middle" x="265" y="-8.2" font-family="sans-serif" font-size="14.00">dependencies</text>
<g id="clust1" class="cluster">
<title>cluster_TarifasModule</title>
<polygon fill="none" stroke="black" stroke-dasharray="1,5" points="8,-32.8 8,-157.8 522,-157.8 522,-32.8 8,-32.8"/>
</g>
<g id="clust2" class="cluster">
<title>cluster_TarifasModule_declarations</title>
<polygon fill="none" stroke="black" points="251,-40.8 251,-92.8 514,-92.8 514,-40.8 251,-40.8"/>
</g>
<g id="clust5" class="cluster">
<title>cluster_TarifasModule_imports</title>
<polygon fill="none" stroke="black" points="16,-40.8 16,-92.8 243,-92.8 243,-40.8 16,-40.8"/>
</g>
<!-- CardComponent -->
<g id="node1" class="node">
<title>CardComponent</title>
<polygon fill="#ffffb3" stroke="black" points="506.05,-84.8 397.95,-84.8 397.95,-48.8 506.05,-48.8 506.05,-84.8"/>
<text text-anchor="middle" x="452" y="-62.6" font-family="Times,serif" font-size="14.00">CardComponent</text>
</g>
<!-- TarifasModule -->
<g id="node3" class="node">
<title>TarifasModule</title>
<polygon fill="#8dd3c7" stroke="black" points="304.69,-149.8 301.69,-153.8 280.69,-153.8 277.69,-149.8 205.31,-149.8 205.31,-113.8 304.69,-113.8 304.69,-149.8"/>
<text text-anchor="middle" x="255" y="-127.6" font-family="Times,serif" font-size="14.00">TarifasModule</text>
</g>
<!-- CardComponent&#45;&gt;TarifasModule -->
<g id="edge1" class="edge">
<title>CardComponent&#45;&gt;TarifasModule</title>
<path fill="none" stroke="black" d="M452,-84.91C452,-104.14 452,-131.8 452,-131.8 452,-131.8 314.71,-131.8 314.71,-131.8"/>
<polygon fill="black" stroke="black" points="314.71,-128.3 304.71,-131.8 314.71,-135.3 314.71,-128.3"/>
</g>
<!-- TarifasComponent -->
<g id="node2" class="node">
<title>TarifasComponent</title>
<polygon fill="#ffffb3" stroke="black" points="379.47,-84.8 258.53,-84.8 258.53,-48.8 379.47,-48.8 379.47,-84.8"/>
<text text-anchor="middle" x="319" y="-62.6" font-family="Times,serif" font-size="14.00">TarifasComponent</text>
</g>
<!-- TarifasComponent&#45;&gt;TarifasModule -->
<g id="edge2" class="edge">
<title>TarifasComponent&#45;&gt;TarifasModule</title>
<path fill="none" stroke="black" d="M281.56,-84.91C281.56,-84.91 281.56,-103.79 281.56,-103.79"/>
<polygon fill="black" stroke="black" points="278.06,-103.79 281.56,-113.79 285.06,-103.79 278.06,-103.79"/>
</g>
<!-- CoreModule -->
<g id="node4" class="node">
<title>CoreModule</title>
<polygon fill="#8dd3c7" stroke="black" points="235.27,-84.8 232.27,-88.8 211.27,-88.8 208.27,-84.8 148.73,-84.8 148.73,-48.8 235.27,-48.8 235.27,-84.8"/>
<text text-anchor="middle" x="192" y="-62.6" font-family="Times,serif" font-size="14.00">CoreModule</text>
</g>
<!-- CoreModule&#45;&gt;TarifasModule -->
<g id="edge3" class="edge">
<title>CoreModule&#45;&gt;TarifasModule</title>
<path fill="none" stroke="black" d="M220.39,-84.91C220.39,-84.91 220.39,-103.79 220.39,-103.79"/>
<polygon fill="black" stroke="black" points="216.89,-103.79 220.39,-113.79 223.89,-103.79 216.89,-103.79"/>
</g>
<!-- PrimengModule -->
<g id="node5" class="node">
<title>PrimengModule</title>
<polygon fill="#8dd3c7" stroke="black" points="130.49,-84.8 127.49,-88.8 106.49,-88.8 103.49,-84.8 23.51,-84.8 23.51,-48.8 130.49,-48.8 130.49,-84.8"/>
<text text-anchor="middle" x="77" y="-62.6" font-family="Times,serif" font-size="14.00">PrimengModule</text>
</g>
<!-- PrimengModule&#45;&gt;TarifasModule -->
<g id="edge4" class="edge">
<title>PrimengModule&#45;&gt;TarifasModule</title>
<path fill="none" stroke="black" d="M77,-84.91C77,-104.14 77,-131.8 77,-131.8 77,-131.8 194.94,-131.8 194.94,-131.8"/>
<polygon fill="black" stroke="black" points="194.94,-135.3 204.94,-131.8 194.94,-128.3 194.94,-135.3"/>
</g>
</g>
</svg>
