<?xml version="1.0" encoding="UTF-8" standalone="no"?>
<!DOCTYPE svg PUBLIC "-//W3C//DTD SVG 1.1//EN"
 "http://www.w3.org/Graphics/SVG/1.1/DTD/svg11.dtd">
<!-- Generated by graphviz version 5.0.0 (20220707.1540)
 -->
<!-- Title: dependencies Pages: 1 -->
<svg width="701pt" height="174pt"
 viewBox="0.00 0.00 701.00 173.80" xmlns="http://www.w3.org/2000/svg" xmlns:xlink="http://www.w3.org/1999/xlink">
<g id="graph0" class="graph" transform="scale(1 1) rotate(0) translate(4 169.8)">
<title>dependencies</title>
<polygon fill="white" stroke="transparent" points="-4,4 -4,-169.8 697,-169.8 697,4 -4,4"/>
<text text-anchor="middle" x="346.5" y="-8.2" font-family="sans-serif" font-size="14.00">dependencies</text>
<g id="clust1" class="cluster">
<title>cluster_TarifasModule</title>
<polygon fill="none" stroke="black" stroke-dasharray="1,5" points="8,-32.8 8,-157.8 685,-157.8 685,-32.8 8,-32.8"/>
</g>
<g id="clust2" class="cluster">
<title>cluster_TarifasModule_declarations</title>
<polygon fill="none" stroke="black" points="414,-40.8 414,-92.8 677,-92.8 677,-40.8 414,-40.8"/>
</g>
<g id="clust5" class="cluster">
<title>cluster_TarifasModule_imports</title>
<polygon fill="none" stroke="black" points="16,-40.8 16,-92.8 406,-92.8 406,-40.8 16,-40.8"/>
</g>
<!-- CardComponent -->
<g id="node1" class="node">
<title>CardComponent</title>
<polygon fill="#ffffb3" stroke="black" points="669.05,-84.8 560.95,-84.8 560.95,-48.8 669.05,-48.8 669.05,-84.8"/>
<text text-anchor="middle" x="615" y="-62.6" font-family="Times,serif" font-size="14.00">CardComponent</text>
</g>
<!-- TarifasModule -->
<g id="node3" class="node">
<title>TarifasModule</title>
<polygon fill="#8dd3c7" stroke="black" points="404.69,-149.8 401.69,-153.8 380.69,-153.8 377.69,-149.8 305.31,-149.8 305.31,-113.8 404.69,-113.8 404.69,-149.8"/>
<text text-anchor="middle" x="355" y="-127.6" font-family="Times,serif" font-size="14.00">TarifasModule</text>
</g>
<!-- CardComponent&#45;&gt;TarifasModule -->
<g id="edge1" class="edge">
<title>CardComponent&#45;&gt;TarifasModule</title>
<path fill="none" stroke="black" d="M615,-85.08C615,-106.12 615,-137.8 615,-137.8 615,-137.8 414.82,-137.8 414.82,-137.8"/>
<polygon fill="black" stroke="black" points="414.82,-134.3 404.82,-137.8 414.82,-141.3 414.82,-134.3"/>
</g>
<!-- TarifasComponent -->
<g id="node2" class="node">
<title>TarifasComponent</title>
<polygon fill="#ffffb3" stroke="black" points="542.47,-84.8 421.53,-84.8 421.53,-48.8 542.47,-48.8 542.47,-84.8"/>
<text text-anchor="middle" x="482" y="-62.6" font-family="Times,serif" font-size="14.00">TarifasComponent</text>
</g>
<!-- TarifasComponent&#45;&gt;TarifasModule -->
<g id="edge2" class="edge">
<title>TarifasComponent&#45;&gt;TarifasModule</title>
<path fill="none" stroke="black" d="M482,-84.82C482,-102.17 482,-125.8 482,-125.8 482,-125.8 414.83,-125.8 414.83,-125.8"/>
<polygon fill="black" stroke="black" points="414.83,-122.3 404.83,-125.8 414.83,-129.3 414.83,-122.3"/>
</g>
<!-- CoreModule -->
<g id="node4" class="node">
<title>CoreModule</title>
<polygon fill="#8dd3c7" stroke="black" points="398.27,-84.8 395.27,-88.8 374.27,-88.8 371.27,-84.8 311.73,-84.8 311.73,-48.8 398.27,-48.8 398.27,-84.8"/>
<text text-anchor="middle" x="355" y="-62.6" font-family="Times,serif" font-size="14.00">CoreModule</text>
</g>
<!-- CoreModule&#45;&gt;TarifasModule -->
<g id="edge3" class="edge">
<title>CoreModule&#45;&gt;TarifasModule</title>
<path fill="none" stroke="black" d="M355,-84.91C355,-84.91 355,-103.79 355,-103.79"/>
<polygon fill="black" stroke="black" points="351.5,-103.79 355,-113.79 358.5,-103.79 351.5,-103.79"/>
</g>
<!-- PrimengModule -->
<g id="node5" class="node">
<title>PrimengModule</title>
<polygon fill="#8dd3c7" stroke="black" points="293.49,-84.8 290.49,-88.8 269.49,-88.8 266.49,-84.8 186.51,-84.8 186.51,-48.8 293.49,-48.8 293.49,-84.8"/>
<text text-anchor="middle" x="240" y="-62.6" font-family="Times,serif" font-size="14.00">PrimengModule</text>
</g>
<!-- PrimengModule&#45;&gt;TarifasModule -->
<g id="edge4" class="edge">
<title>PrimengModule&#45;&gt;TarifasModule</title>
<path fill="none" stroke="black" d="M240,-84.82C240,-102.17 240,-125.8 240,-125.8 240,-125.8 295.23,-125.8 295.23,-125.8"/>
<polygon fill="black" stroke="black" points="295.23,-129.3 305.23,-125.8 295.23,-122.3 295.23,-129.3"/>
</g>
<!-- TarifasRoutingModule -->
<g id="node6" class="node">
<title>TarifasRoutingModule</title>
<polygon fill="#8dd3c7" stroke="black" points="168.31,-84.8 165.31,-88.8 144.31,-88.8 141.31,-84.8 23.69,-84.8 23.69,-48.8 168.31,-48.8 168.31,-84.8"/>
<text text-anchor="middle" x="96" y="-62.6" font-family="Times,serif" font-size="14.00">TarifasRoutingModule</text>
</g>
<!-- TarifasRoutingModule&#45;&gt;TarifasModule -->
<g id="edge5" class="edge">
<title>TarifasRoutingModule&#45;&gt;TarifasModule</title>
<path fill="none" stroke="black" d="M96,-85.08C96,-106.12 96,-137.8 96,-137.8 96,-137.8 295.37,-137.8 295.37,-137.8"/>
<polygon fill="black" stroke="black" points="295.37,-141.3 305.37,-137.8 295.37,-134.3 295.37,-141.3"/>
</g>
</g>
</svg>
