<?xml version="1.0" encoding="UTF-8" standalone="no"?>
<!DOCTYPE svg PUBLIC "-//W3C//DTD SVG 1.1//EN"
 "http://www.w3.org/Graphics/SVG/1.1/DTD/svg11.dtd">
<!-- Generated by graphviz version 5.0.0 (20220707.1540)
 -->
<!-- Title: dependencies Pages: 1 -->
<svg width="701pt" height="174pt"
 viewBox="0.00 0.00 701.00 173.80" xmlns="http://www.w3.org/2000/svg" xmlns:xlink="http://www.w3.org/1999/xlink">
<g id="graph0" class="graph" transform="scale(1 1) rotate(0) translate(4 169.8)">
<title>dependencies</title>
<polygon fill="white" stroke="transparent" points="-4,4 -4,-169.8 697,-169.8 697,4 -4,4"/>
<text text-anchor="middle" x="346.5" y="-8.2" font-family="sans-serif" font-size="14.00">dependencies</text>
<g id="clust1" class="cluster">
<title>cluster_TarifasModule</title>
<polygon fill="none" stroke="black" stroke-dasharray="1,5" points="8,-32.8 8,-157.8 685,-157.8 685,-32.8 8,-32.8"/>
</g>
<g id="clust5" class="cluster">
<title>cluster_TarifasModule_imports</title>
<polygon fill="none" stroke="black" points="287,-40.8 287,-92.8 677,-92.8 677,-40.8 287,-40.8"/>
</g>
<g id="clust2" class="cluster">
<title>cluster_TarifasModule_declarations</title>
<polygon fill="none" stroke="black" points="16,-40.8 16,-92.8 279,-92.8 279,-40.8 16,-40.8"/>
</g>
<!-- CardComponent -->
<g id="node1" class="node">
<title>CardComponent</title>
<polygon fill="#ffffb3" stroke="black" points="271.05,-84.8 162.95,-84.8 162.95,-48.8 271.05,-48.8 271.05,-84.8"/>
<text text-anchor="middle" x="217" y="-62.6" font-family="Times,serif" font-size="14.00">CardComponent</text>
</g>
<!-- TarifasModule -->
<g id="node3" class="node">
<title>TarifasModule</title>
<polygon fill="#8dd3c7" stroke="black" points="416.69,-149.8 413.69,-153.8 392.69,-153.8 389.69,-149.8 317.31,-149.8 317.31,-113.8 416.69,-113.8 416.69,-149.8"/>
<text text-anchor="middle" x="367" y="-127.6" font-family="Times,serif" font-size="14.00">TarifasModule</text>
</g>
<!-- CardComponent&#45;&gt;TarifasModule -->
<g id="edge1" class="edge">
<title>CardComponent&#45;&gt;TarifasModule</title>
<path fill="none" stroke="black" d="M217,-84.82C217,-102.17 217,-125.8 217,-125.8 217,-125.8 307.05,-125.8 307.05,-125.8"/>
<polygon fill="black" stroke="black" points="307.05,-129.3 317.05,-125.8 307.05,-122.3 307.05,-129.3"/>
</g>
<!-- TarifasComponent -->
<g id="node2" class="node">
<title>TarifasComponent</title>
<polygon fill="#ffffb3" stroke="black" points="144.47,-84.8 23.53,-84.8 23.53,-48.8 144.47,-48.8 144.47,-84.8"/>
<text text-anchor="middle" x="84" y="-62.6" font-family="Times,serif" font-size="14.00">TarifasComponent</text>
</g>
<!-- TarifasComponent&#45;&gt;TarifasModule -->
<g id="edge2" class="edge">
<title>TarifasComponent&#45;&gt;TarifasModule</title>
<path fill="none" stroke="black" d="M84,-85.08C84,-106.12 84,-137.8 84,-137.8 84,-137.8 307.38,-137.8 307.38,-137.8"/>
<polygon fill="black" stroke="black" points="307.38,-141.3 317.38,-137.8 307.38,-134.3 307.38,-141.3"/>
</g>
<!-- CoreModule -->
<g id="node4" class="node">
<title>CoreModule</title>
<polygon fill="#8dd3c7" stroke="black" points="669.27,-84.8 666.27,-88.8 645.27,-88.8 642.27,-84.8 582.73,-84.8 582.73,-48.8 669.27,-48.8 669.27,-84.8"/>
<text text-anchor="middle" x="626" y="-62.6" font-family="Times,serif" font-size="14.00">CoreModule</text>
</g>
<!-- CoreModule&#45;&gt;TarifasModule -->
<g id="edge3" class="edge">
<title>CoreModule&#45;&gt;TarifasModule</title>
<path fill="none" stroke="black" d="M626,-85.08C626,-106.12 626,-137.8 626,-137.8 626,-137.8 426.63,-137.8 426.63,-137.8"/>
<polygon fill="black" stroke="black" points="426.63,-134.3 416.63,-137.8 426.63,-141.3 426.63,-134.3"/>
</g>
<!-- PrimengModule -->
<g id="node5" class="node">
<title>PrimengModule</title>
<polygon fill="#8dd3c7" stroke="black" points="564.49,-84.8 561.49,-88.8 540.49,-88.8 537.49,-84.8 457.51,-84.8 457.51,-48.8 564.49,-48.8 564.49,-84.8"/>
<text text-anchor="middle" x="511" y="-62.6" font-family="Times,serif" font-size="14.00">PrimengModule</text>
</g>
<!-- PrimengModule&#45;&gt;TarifasModule -->
<g id="edge4" class="edge">
<title>PrimengModule&#45;&gt;TarifasModule</title>
<path fill="none" stroke="black" d="M511,-84.82C511,-102.17 511,-125.8 511,-125.8 511,-125.8 426.96,-125.8 426.96,-125.8"/>
<polygon fill="black" stroke="black" points="426.96,-122.3 416.96,-125.8 426.96,-129.3 426.96,-122.3"/>
</g>
<!-- TarifasRoutingModule -->
<g id="node6" class="node">
<title>TarifasRoutingModule</title>
<polygon fill="#8dd3c7" stroke="black" points="439.31,-84.8 436.31,-88.8 415.31,-88.8 412.31,-84.8 294.69,-84.8 294.69,-48.8 439.31,-48.8 439.31,-84.8"/>
<text text-anchor="middle" x="367" y="-62.6" font-family="Times,serif" font-size="14.00">TarifasRoutingModule</text>
</g>
<!-- TarifasRoutingModule&#45;&gt;TarifasModule -->
<g id="edge5" class="edge">
<title>TarifasRoutingModule&#45;&gt;TarifasModule</title>
<path fill="none" stroke="black" d="M367,-84.91C367,-84.91 367,-103.79 367,-103.79"/>
<polygon fill="black" stroke="black" points="363.5,-103.79 367,-113.79 370.5,-103.79 363.5,-103.79"/>
</g>
</g>
</svg>
