<?xml version="1.0" encoding="UTF-8" standalone="no"?>
<!DOCTYPE svg PUBLIC "-//W3C//DTD SVG 1.1//EN"
 "http://www.w3.org/Graphics/SVG/1.1/DTD/svg11.dtd">
<!-- Generated by graphviz version 5.0.0 (20220707.1540)
 -->
<!-- Title: dependencies Pages: 1 -->
<svg width="639pt" height="174pt"
 viewBox="0.00 0.00 639.00 173.80" xmlns="http://www.w3.org/2000/svg" xmlns:xlink="http://www.w3.org/1999/xlink">
<g id="graph0" class="graph" transform="scale(1 1) rotate(0) translate(4 169.8)">
<title>dependencies</title>
<polygon fill="white" stroke="transparent" points="-4,4 -4,-169.8 635,-169.8 635,4 -4,4"/>
<text text-anchor="middle" x="315.5" y="-8.2" font-family="sans-serif" font-size="14.00">dependencies</text>
<g id="clust1" class="cluster">
<title>cluster_LoginModule</title>
<polygon fill="none" stroke="black" stroke-dasharray="1,5" points="8,-32.8 8,-157.8 623,-157.8 623,-32.8 8,-32.8"/>
</g>
<g id="clust2" class="cluster">
<title>cluster_LoginModule_declarations</title>
<polygon fill="none" stroke="black" points="328,-40.8 328,-92.8 615,-92.8 615,-40.8 328,-40.8"/>
</g>
<g id="clust8" class="cluster">
<title>cluster_LoginModule_providers</title>
<polygon fill="none" stroke="black" points="178,-40.8 178,-92.8 320,-92.8 320,-40.8 178,-40.8"/>
</g>
<g id="clust5" class="cluster">
<title>cluster_LoginModule_imports</title>
<polygon fill="none" stroke="black" points="16,-40.8 16,-92.8 170,-92.8 170,-40.8 16,-40.8"/>
</g>
<!-- LoginComponent -->
<g id="node1" class="node">
<title>LoginComponent</title>
<polygon fill="#ffffb3" stroke="black" points="607.27,-84.8 492.73,-84.8 492.73,-48.8 607.27,-48.8 607.27,-84.8"/>
<text text-anchor="middle" x="550" y="-62.6" font-family="Times,serif" font-size="14.00">LoginComponent</text>
</g>
<!-- LoginModule -->
<g id="node3" class="node">
<title>LoginModule</title>
<polygon fill="#8dd3c7" stroke="black" points="373.49,-149.8 370.49,-153.8 349.49,-153.8 346.49,-149.8 280.51,-149.8 280.51,-113.8 373.49,-113.8 373.49,-149.8"/>
<text text-anchor="middle" x="327" y="-127.6" font-family="Times,serif" font-size="14.00">LoginModule</text>
</g>
<!-- LoginComponent&#45;&gt;LoginModule -->
<g id="edge1" class="edge">
<title>LoginComponent&#45;&gt;LoginModule</title>
<path fill="none" stroke="black" d="M550,-84.91C550,-104.14 550,-131.8 550,-131.8 550,-131.8 383.75,-131.8 383.75,-131.8"/>
<polygon fill="black" stroke="black" points="383.75,-128.3 373.75,-131.8 383.75,-135.3 383.75,-128.3"/>
</g>
<!-- MenuButtonDirective -->
<g id="node2" class="node">
<title>MenuButtonDirective</title>
<polygon fill="#ffffb3" stroke="black" points="474.36,-84.8 335.64,-84.8 335.64,-48.8 474.36,-48.8 474.36,-84.8"/>
<text text-anchor="middle" x="405" y="-62.6" font-family="Times,serif" font-size="14.00">MenuButtonDirective</text>
</g>
<!-- MenuButtonDirective&#45;&gt;LoginModule -->
<g id="edge2" class="edge">
<title>MenuButtonDirective&#45;&gt;LoginModule</title>
<path fill="none" stroke="black" d="M354.53,-84.91C354.53,-84.91 354.53,-103.79 354.53,-103.79"/>
<polygon fill="black" stroke="black" points="351.03,-103.79 354.53,-113.79 358.03,-103.79 351.03,-103.79"/>
</g>
<!-- LoginRoutingModule -->
<g id="node4" class="node">
<title>LoginRoutingModule</title>
<polygon fill="#8dd3c7" stroke="black" points="162.11,-84.8 159.11,-88.8 138.11,-88.8 135.11,-84.8 23.89,-84.8 23.89,-48.8 162.11,-48.8 162.11,-84.8"/>
<text text-anchor="middle" x="93" y="-62.6" font-family="Times,serif" font-size="14.00">LoginRoutingModule</text>
</g>
<!-- LoginRoutingModule&#45;&gt;LoginModule -->
<g id="edge3" class="edge">
<title>LoginRoutingModule&#45;&gt;LoginModule</title>
<path fill="none" stroke="black" d="M93,-84.91C93,-104.14 93,-131.8 93,-131.8 93,-131.8 270.49,-131.8 270.49,-131.8"/>
<polygon fill="black" stroke="black" points="270.49,-135.3 280.49,-131.8 270.49,-128.3 270.49,-135.3"/>
</g>
<!-- LoginService -->
<g id="node5" class="node">
<title>LoginService</title>
<ellipse fill="#fdb462" stroke="black" cx="249" cy="-66.8" rx="63.12" ry="18"/>
<text text-anchor="middle" x="249" y="-62.6" font-family="Times,serif" font-size="14.00">LoginService</text>
</g>
<!-- LoginService&#45;&gt;LoginModule -->
<g id="edge4" class="edge">
<title>LoginService&#45;&gt;LoginModule</title>
<path fill="none" stroke="black" d="M296.28,-78.72C296.28,-78.72 296.28,-103.57 296.28,-103.57"/>
<polygon fill="black" stroke="black" points="292.78,-103.57 296.28,-113.57 299.78,-103.57 292.78,-103.57"/>
</g>
</g>
</svg>
