<?xml version="1.0" encoding="UTF-8" standalone="no"?>
<!DOCTYPE svg PUBLIC "-//W3C//DTD SVG 1.1//EN"
 "http://www.w3.org/Graphics/SVG/1.1/DTD/svg11.dtd">
<!-- Generated by graphviz version 5.0.0 (20220707.1540)
 -->
<!-- Title: dependencies Pages: 1 -->
<svg width="477pt" height="174pt"
 viewBox="0.00 0.00 477.00 173.80" xmlns="http://www.w3.org/2000/svg" xmlns:xlink="http://www.w3.org/1999/xlink">
<g id="graph0" class="graph" transform="scale(1 1) rotate(0) translate(4 169.8)">
<title>dependencies</title>
<polygon fill="white" stroke="transparent" points="-4,4 -4,-169.8 473,-169.8 473,4 -4,4"/>
<text text-anchor="middle" x="234.5" y="-8.2" font-family="sans-serif" font-size="14.00">dependencies</text>
<g id="clust1" class="cluster">
<title>cluster_LoginModule</title>
<polygon fill="none" stroke="black" stroke-dasharray="1,5" points="8,-32.8 8,-157.8 461,-157.8 461,-32.8 8,-32.8"/>
</g>
<g id="clust8" class="cluster">
<title>cluster_LoginModule_providers</title>
<polygon fill="none" stroke="black" points="311,-40.8 311,-92.8 453,-92.8 453,-40.8 311,-40.8"/>
</g>
<g id="clust2" class="cluster">
<title>cluster_LoginModule_declarations</title>
<polygon fill="none" stroke="black" points="16,-40.8 16,-92.8 303,-92.8 303,-40.8 16,-40.8"/>
</g>
<!-- LoginComponent -->
<g id="node1" class="node">
<title>LoginComponent</title>
<polygon fill="#ffffb3" stroke="black" points="295.27,-84.8 180.73,-84.8 180.73,-48.8 295.27,-48.8 295.27,-84.8"/>
<text text-anchor="middle" x="238" y="-62.6" font-family="Times,serif" font-size="14.00">LoginComponent</text>
</g>
<!-- LoginModule -->
<g id="node3" class="node">
<title>LoginModule</title>
<polygon fill="#8dd3c7" stroke="black" points="284.49,-149.8 281.49,-153.8 260.49,-153.8 257.49,-149.8 191.51,-149.8 191.51,-113.8 284.49,-113.8 284.49,-149.8"/>
<text text-anchor="middle" x="238" y="-127.6" font-family="Times,serif" font-size="14.00">LoginModule</text>
</g>
<!-- LoginComponent&#45;&gt;LoginModule -->
<g id="edge1" class="edge">
<title>LoginComponent&#45;&gt;LoginModule</title>
<path fill="none" stroke="black" d="M238,-84.91C238,-84.91 238,-103.79 238,-103.79"/>
<polygon fill="black" stroke="black" points="234.5,-103.79 238,-113.79 241.5,-103.79 234.5,-103.79"/>
</g>
<!-- MenuButtonDirective -->
<g id="node2" class="node">
<title>MenuButtonDirective</title>
<polygon fill="#ffffb3" stroke="black" points="162.36,-84.8 23.64,-84.8 23.64,-48.8 162.36,-48.8 162.36,-84.8"/>
<text text-anchor="middle" x="93" y="-62.6" font-family="Times,serif" font-size="14.00">MenuButtonDirective</text>
</g>
<!-- MenuButtonDirective&#45;&gt;LoginModule -->
<g id="edge2" class="edge">
<title>MenuButtonDirective&#45;&gt;LoginModule</title>
<path fill="none" stroke="black" d="M93,-84.91C93,-104.14 93,-131.8 93,-131.8 93,-131.8 181.32,-131.8 181.32,-131.8"/>
<polygon fill="black" stroke="black" points="181.32,-135.3 191.32,-131.8 181.32,-128.3 181.32,-135.3"/>
</g>
<!-- LoginService -->
<g id="node4" class="node">
<title>LoginService</title>
<ellipse fill="#fdb462" stroke="black" cx="382" cy="-66.8" rx="63.12" ry="18"/>
<text text-anchor="middle" x="382" y="-62.6" font-family="Times,serif" font-size="14.00">LoginService</text>
</g>
<!-- LoginService&#45;&gt;LoginModule -->
<g id="edge3" class="edge">
<title>LoginService&#45;&gt;LoginModule</title>
<path fill="none" stroke="black" d="M382,-84.91C382,-104.14 382,-131.8 382,-131.8 382,-131.8 294.75,-131.8 294.75,-131.8"/>
<polygon fill="black" stroke="black" points="294.75,-128.3 284.75,-131.8 294.75,-135.3 294.75,-128.3"/>
</g>
</g>
</svg>
