<?xml version="1.0" encoding="UTF-8" standalone="no"?>
<!DOCTYPE svg PUBLIC "-//W3C//DTD SVG 1.1//EN"
 "http://www.w3.org/Graphics/SVG/1.1/DTD/svg11.dtd">
<!-- Generated by graphviz version 5.0.0 (20220707.1540)
 -->
<!-- Title: dependencies Pages: 1 -->
<svg width="639pt" height="174pt"
 viewBox="0.00 0.00 639.00 173.80" xmlns="http://www.w3.org/2000/svg" xmlns:xlink="http://www.w3.org/1999/xlink">
<g id="graph0" class="graph" transform="scale(1 1) rotate(0) translate(4 169.8)">
<title>dependencies</title>
<polygon fill="white" stroke="transparent" points="-4,4 -4,-169.8 635,-169.8 635,4 -4,4"/>
<text text-anchor="middle" x="315.5" y="-8.2" font-family="sans-serif" font-size="14.00">dependencies</text>
<g id="clust1" class="cluster">
<title>cluster_LoginModule</title>
<polygon fill="none" stroke="black" stroke-dasharray="1,5" points="8,-32.8 8,-157.8 623,-157.8 623,-32.8 8,-32.8"/>
</g>
<g id="clust5" class="cluster">
<title>cluster_LoginModule_imports</title>
<polygon fill="none" stroke="black" points="461,-40.8 461,-92.8 615,-92.8 615,-40.8 461,-40.8"/>
</g>
<g id="clust2" class="cluster">
<title>cluster_LoginModule_declarations</title>
<polygon fill="none" stroke="black" points="166,-40.8 166,-92.8 453,-92.8 453,-40.8 166,-40.8"/>
</g>
<g id="clust8" class="cluster">
<title>cluster_LoginModule_providers</title>
<polygon fill="none" stroke="black" points="16,-40.8 16,-92.8 158,-92.8 158,-40.8 16,-40.8"/>
</g>
<!-- LoginComponent -->
<g id="node1" class="node">
<title>LoginComponent</title>
<polygon fill="#ffffb3" stroke="black" points="445.27,-84.8 330.73,-84.8 330.73,-48.8 445.27,-48.8 445.27,-84.8"/>
<text text-anchor="middle" x="388" y="-62.6" font-family="Times,serif" font-size="14.00">LoginComponent</text>
</g>
<!-- LoginModule -->
<g id="node3" class="node">
<title>LoginModule</title>
<polygon fill="#8dd3c7" stroke="black" points="361.49,-149.8 358.49,-153.8 337.49,-153.8 334.49,-149.8 268.51,-149.8 268.51,-113.8 361.49,-113.8 361.49,-149.8"/>
<text text-anchor="middle" x="315" y="-127.6" font-family="Times,serif" font-size="14.00">LoginModule</text>
</g>
<!-- LoginComponent&#45;&gt;LoginModule -->
<g id="edge1" class="edge">
<title>LoginComponent&#45;&gt;LoginModule</title>
<path fill="none" stroke="black" d="M346.06,-84.91C346.06,-84.91 346.06,-103.79 346.06,-103.79"/>
<polygon fill="black" stroke="black" points="342.56,-103.79 346.06,-113.79 349.56,-103.79 342.56,-103.79"/>
</g>
<!-- MenuButtonDirective -->
<g id="node2" class="node">
<title>MenuButtonDirective</title>
<polygon fill="#ffffb3" stroke="black" points="312.36,-84.8 173.64,-84.8 173.64,-48.8 312.36,-48.8 312.36,-84.8"/>
<text text-anchor="middle" x="243" y="-62.6" font-family="Times,serif" font-size="14.00">MenuButtonDirective</text>
</g>
<!-- MenuButtonDirective&#45;&gt;LoginModule -->
<g id="edge2" class="edge">
<title>MenuButtonDirective&#45;&gt;LoginModule</title>
<path fill="none" stroke="black" d="M290.47,-84.91C290.47,-84.91 290.47,-103.79 290.47,-103.79"/>
<polygon fill="black" stroke="black" points="286.97,-103.79 290.47,-113.79 293.97,-103.79 286.97,-103.79"/>
</g>
<!-- LoginRoutingModule -->
<g id="node4" class="node">
<title>LoginRoutingModule</title>
<polygon fill="#8dd3c7" stroke="black" points="607.11,-84.8 604.11,-88.8 583.11,-88.8 580.11,-84.8 468.89,-84.8 468.89,-48.8 607.11,-48.8 607.11,-84.8"/>
<text text-anchor="middle" x="538" y="-62.6" font-family="Times,serif" font-size="14.00">LoginRoutingModule</text>
</g>
<!-- LoginRoutingModule&#45;&gt;LoginModule -->
<g id="edge3" class="edge">
<title>LoginRoutingModule&#45;&gt;LoginModule</title>
<path fill="none" stroke="black" d="M538,-84.91C538,-104.14 538,-131.8 538,-131.8 538,-131.8 371.75,-131.8 371.75,-131.8"/>
<polygon fill="black" stroke="black" points="371.75,-128.3 361.75,-131.8 371.75,-135.3 371.75,-128.3"/>
</g>
<!-- LoginService -->
<g id="node5" class="node">
<title>LoginService</title>
<ellipse fill="#fdb462" stroke="black" cx="87" cy="-66.8" rx="63.12" ry="18"/>
<text text-anchor="middle" x="87" y="-62.6" font-family="Times,serif" font-size="14.00">LoginService</text>
</g>
<!-- LoginService&#45;&gt;LoginModule -->
<g id="edge4" class="edge">
<title>LoginService&#45;&gt;LoginModule</title>
<path fill="none" stroke="black" d="M87,-84.91C87,-104.14 87,-131.8 87,-131.8 87,-131.8 258.31,-131.8 258.31,-131.8"/>
<polygon fill="black" stroke="black" points="258.31,-135.3 268.31,-131.8 258.31,-128.3 258.31,-135.3"/>
</g>
</g>
</svg>
