<?xml version="1.0" encoding="UTF-8" standalone="no"?>
<!DOCTYPE svg PUBLIC "-//W3C//DTD SVG 1.1//EN"
 "http://www.w3.org/Graphics/SVG/1.1/DTD/svg11.dtd">
<!-- Generated by graphviz version 5.0.0 (20220707.1540)
 -->
<!-- Title: dependencies Pages: 1 -->
<svg width="1220pt" height="247pt"
 viewBox="0.00 0.00 1220.00 246.80" xmlns="http://www.w3.org/2000/svg" xmlns:xlink="http://www.w3.org/1999/xlink">
<g id="graph0" class="graph" transform="scale(1 1) rotate(0) translate(4 242.8)">
<title>dependencies</title>
<polygon fill="white" stroke="transparent" points="-4,4 -4,-242.8 1216,-242.8 1216,4 -4,4"/>
<text text-anchor="middle" x="606" y="-8.2" font-family="sans-serif" font-size="14.00">dependencies</text>
<g id="clust1" class="cluster">
<title>cluster_CoreModule</title>
<polygon fill="none" stroke="black" stroke-dasharray="1,5" points="8,-32.8 8,-230.8 1204,-230.8 1204,-32.8 8,-32.8"/>
</g>
<g id="clust2" class="cluster">
<title>cluster_CoreModule_declarations</title>
<polygon fill="none" stroke="black" points="146,-40.8 146,-92.8 1196,-92.8 1196,-40.8 146,-40.8"/>
</g>
<g id="clust9" class="cluster">
<title>cluster_CoreModule_imports</title>
<polygon fill="none" stroke="black" points="16,-40.8 16,-92.8 138,-92.8 138,-40.8 16,-40.8"/>
</g>
<g id="clust10" class="cluster">
<title>cluster_CoreModule_exports</title>
<polygon fill="none" stroke="black" points="71,-170.8 71,-222.8 1141,-222.8 1141,-170.8 71,-170.8"/>
</g>
<!-- AuthComponent -->
<g id="node1" class="node">
<title>AuthComponent</title>
<polygon fill="#ffffb3" stroke="black" points="1187.83,-84.8 1078.17,-84.8 1078.17,-48.8 1187.83,-48.8 1187.83,-84.8"/>
<text text-anchor="middle" x="1133" y="-62.6" font-family="Times,serif" font-size="14.00">AuthComponent</text>
</g>
<!-- CoreModule -->
<g id="node7" class="node">
<title>CoreModule</title>
<polygon fill="#8dd3c7" stroke="black" points="648.27,-149.8 645.27,-153.8 624.27,-153.8 621.27,-149.8 561.73,-149.8 561.73,-113.8 648.27,-113.8 648.27,-149.8"/>
<text text-anchor="middle" x="605" y="-127.6" font-family="Times,serif" font-size="14.00">CoreModule</text>
</g>
<!-- AuthComponent&#45;&gt;CoreModule -->
<g id="edge1" class="edge">
<title>AuthComponent&#45;&gt;CoreModule</title>
<path fill="none" stroke="black" d="M1105.88,-84.91C1105.88,-104.14 1105.88,-131.8 1105.88,-131.8 1105.88,-131.8 658.57,-131.8 658.57,-131.8"/>
<polygon fill="black" stroke="black" points="658.57,-128.3 648.57,-131.8 658.57,-135.3 658.57,-128.3"/>
</g>
<!-- InputCustomTextComponent -->
<g id="node2" class="node">
<title>InputCustomTextComponent</title>
<polygon fill="#ffffb3" stroke="black" points="1060.1,-84.8 879.9,-84.8 879.9,-48.8 1060.1,-48.8 1060.1,-84.8"/>
<text text-anchor="middle" x="970" y="-62.6" font-family="Times,serif" font-size="14.00">InputCustomTextComponent</text>
</g>
<!-- InputCustomTextComponent&#45;&gt;CoreModule -->
<g id="edge2" class="edge">
<title>InputCustomTextComponent&#45;&gt;CoreModule</title>
<path fill="none" stroke="black" d="M941.38,-84.82C941.38,-102.17 941.38,-125.8 941.38,-125.8 941.38,-125.8 658.29,-125.8 658.29,-125.8"/>
<polygon fill="black" stroke="black" points="658.29,-122.3 648.29,-125.8 658.29,-129.3 658.29,-122.3"/>
</g>
<!-- InputDropdownComponent -->
<g id="node3" class="node">
<title>InputDropdownComponent</title>
<polygon fill="#ffffb3" stroke="black" points="862.27,-84.8 691.73,-84.8 691.73,-48.8 862.27,-48.8 862.27,-84.8"/>
<text text-anchor="middle" x="777" y="-62.6" font-family="Times,serif" font-size="14.00">InputDropdownComponent</text>
</g>
<!-- InputDropdownComponent&#45;&gt;CoreModule -->
<g id="edge3" class="edge">
<title>InputDropdownComponent&#45;&gt;CoreModule</title>
<path fill="none" stroke="black" d="M746.38,-85.04C746.38,-100.37 746.38,-119.8 746.38,-119.8 746.38,-119.8 658.57,-119.8 658.57,-119.8"/>
<polygon fill="black" stroke="black" points="658.57,-116.3 648.57,-119.8 658.57,-123.3 658.57,-116.3"/>
</g>
<!-- InputTextComponent -->
<g id="node4" class="node">
<title>InputTextComponent</title>
<polygon fill="#ffffb3" stroke="black" points="673.04,-84.8 536.96,-84.8 536.96,-48.8 673.04,-48.8 673.04,-84.8"/>
<text text-anchor="middle" x="605" y="-62.6" font-family="Times,serif" font-size="14.00">InputTextComponent</text>
</g>
<!-- InputTextComponent&#45;&gt;CoreModule -->
<g id="edge4" class="edge">
<title>InputTextComponent&#45;&gt;CoreModule</title>
<path fill="none" stroke="black" d="M605,-84.91C605,-84.91 605,-103.79 605,-103.79"/>
<polygon fill="black" stroke="black" points="601.5,-103.79 605,-113.79 608.5,-103.79 601.5,-103.79"/>
</g>
<!-- LoaderBigComponentComponent -->
<g id="node5" class="node">
<title>LoaderBigComponentComponent</title>
<polygon fill="#ffffb3" stroke="black" points="518.03,-84.8 311.97,-84.8 311.97,-48.8 518.03,-48.8 518.03,-84.8"/>
<text text-anchor="middle" x="415" y="-62.6" font-family="Times,serif" font-size="14.00">LoaderBigComponentComponent</text>
</g>
<!-- LoaderBigComponentComponent&#45;&gt;CoreModule -->
<g id="edge5" class="edge">
<title>LoaderBigComponentComponent&#45;&gt;CoreModule</title>
<path fill="none" stroke="black" d="M493.62,-85.04C493.62,-100.37 493.62,-119.8 493.62,-119.8 493.62,-119.8 551.62,-119.8 551.62,-119.8"/>
<polygon fill="black" stroke="black" points="551.62,-123.3 561.62,-119.8 551.62,-116.3 551.62,-123.3"/>
</g>
<!-- ModalWidthDirective -->
<g id="node6" class="node">
<title>ModalWidthDirective</title>
<polygon fill="#ffffb3" stroke="black" points="293.63,-84.8 154.37,-84.8 154.37,-48.8 293.63,-48.8 293.63,-84.8"/>
<text text-anchor="middle" x="224" y="-62.6" font-family="Times,serif" font-size="14.00">ModalWidthDirective</text>
</g>
<!-- ModalWidthDirective&#45;&gt;CoreModule -->
<g id="edge6" class="edge">
<title>ModalWidthDirective&#45;&gt;CoreModule</title>
<path fill="none" stroke="black" d="M267.4,-84.82C267.4,-102.17 267.4,-125.8 267.4,-125.8 267.4,-125.8 551.56,-125.8 551.56,-125.8"/>
<polygon fill="black" stroke="black" points="551.56,-129.3 561.56,-125.8 551.56,-122.3 551.56,-129.3"/>
</g>
<!-- AuthComponent  -->
<g id="node9" class="node">
<title>AuthComponent </title>
<polygon fill="#fb8072" stroke="black" points="1133.33,-214.8 1020.67,-214.8 1020.67,-178.8 1133.33,-178.8 1133.33,-214.8"/>
<text text-anchor="middle" x="1077" y="-192.6" font-family="Times,serif" font-size="14.00">AuthComponent </text>
</g>
<!-- CoreModule&#45;&gt;AuthComponent  -->
<g id="edge8" class="edge">
<title>CoreModule&#45;&gt;AuthComponent </title>
<path fill="none" stroke="black" stroke-dasharray="5,2" d="M648.33,-137.8C758.44,-137.8 1040.32,-137.8 1040.32,-137.8 1040.32,-137.8 1040.32,-168.78 1040.32,-168.78"/>
<polygon fill="black" stroke="black" points="1036.82,-168.78 1040.32,-178.78 1043.82,-168.78 1036.82,-168.78"/>
</g>
<!-- InputCustomTextComponent  -->
<g id="node10" class="node">
<title>InputCustomTextComponent </title>
<polygon fill="#fb8072" stroke="black" points="1002.6,-214.8 819.4,-214.8 819.4,-178.8 1002.6,-178.8 1002.6,-214.8"/>
<text text-anchor="middle" x="911" y="-192.6" font-family="Times,serif" font-size="14.00">InputCustomTextComponent </text>
</g>
<!-- CoreModule&#45;&gt;InputCustomTextComponent  -->
<g id="edge9" class="edge">
<title>CoreModule&#45;&gt;InputCustomTextComponent </title>
<path fill="none" stroke="black" stroke-dasharray="5,2" d="M648.52,-143.8C716.65,-143.8 840.79,-143.8 840.79,-143.8 840.79,-143.8 840.79,-168.56 840.79,-168.56"/>
<polygon fill="black" stroke="black" points="837.29,-168.56 840.79,-178.56 844.29,-168.56 837.29,-168.56"/>
</g>
<!-- InputDropdownComponent  -->
<g id="node11" class="node">
<title>InputDropdownComponent </title>
<polygon fill="#fb8072" stroke="black" points="801.27,-214.8 626.73,-214.8 626.73,-178.8 801.27,-178.8 801.27,-214.8"/>
<text text-anchor="middle" x="714" y="-192.6" font-family="Times,serif" font-size="14.00">InputDropdownComponent </text>
</g>
<!-- CoreModule&#45;&gt;InputDropdownComponent  -->
<g id="edge10" class="edge">
<title>CoreModule&#45;&gt;InputDropdownComponent </title>
<path fill="none" stroke="black" stroke-dasharray="5,2" d="M637.62,-149.91C637.62,-149.91 637.62,-168.79 637.62,-168.79"/>
<polygon fill="black" stroke="black" points="634.13,-168.79 637.62,-178.79 641.13,-168.79 634.13,-168.79"/>
</g>
<!-- InputTextComponent  -->
<g id="node12" class="node">
<title>InputTextComponent </title>
<polygon fill="#fb8072" stroke="black" points="609.04,-214.8 468.96,-214.8 468.96,-178.8 609.04,-178.8 609.04,-214.8"/>
<text text-anchor="middle" x="539" y="-192.6" font-family="Times,serif" font-size="14.00">InputTextComponent </text>
</g>
<!-- CoreModule&#45;&gt;InputTextComponent  -->
<g id="edge11" class="edge">
<title>CoreModule&#45;&gt;InputTextComponent </title>
<path fill="none" stroke="black" stroke-dasharray="5,2" d="M585.32,-149.91C585.32,-149.91 585.32,-168.79 585.32,-168.79"/>
<polygon fill="black" stroke="black" points="581.82,-168.79 585.32,-178.79 588.82,-168.79 581.82,-168.79"/>
</g>
<!-- LoaderBigComponentComponent  -->
<g id="node13" class="node">
<title>LoaderBigComponentComponent </title>
<polygon fill="#fb8072" stroke="black" points="451.03,-214.8 240.97,-214.8 240.97,-178.8 451.03,-178.8 451.03,-214.8"/>
<text text-anchor="middle" x="346" y="-192.6" font-family="Times,serif" font-size="14.00">LoaderBigComponentComponent </text>
</g>
<!-- CoreModule&#45;&gt;LoaderBigComponentComponent  -->
<g id="edge12" class="edge">
<title>CoreModule&#45;&gt;LoaderBigComponentComponent </title>
<path fill="none" stroke="black" stroke-dasharray="5,2" d="M561.62,-143.8C496.59,-143.8 381.38,-143.8 381.38,-143.8 381.38,-143.8 381.38,-168.56 381.38,-168.56"/>
<polygon fill="black" stroke="black" points="377.88,-168.56 381.38,-178.56 384.88,-168.56 377.88,-168.56"/>
</g>
<!-- ModalWidthDirective  -->
<g id="node14" class="node">
<title>ModalWidthDirective </title>
<polygon fill="#fb8072" stroke="black" points="222.63,-214.8 79.37,-214.8 79.37,-178.8 222.63,-178.8 222.63,-214.8"/>
<text text-anchor="middle" x="151" y="-192.6" font-family="Times,serif" font-size="14.00">ModalWidthDirective </text>
</g>
<!-- CoreModule&#45;&gt;ModalWidthDirective  -->
<g id="edge13" class="edge">
<title>CoreModule&#45;&gt;ModalWidthDirective </title>
<path fill="none" stroke="black" stroke-dasharray="5,2" d="M561.59,-137.8C454.88,-137.8 188.38,-137.8 188.38,-137.8 188.38,-137.8 188.38,-168.78 188.38,-168.78"/>
<polygon fill="black" stroke="black" points="184.88,-168.78 188.38,-178.78 191.88,-168.78 184.88,-168.78"/>
</g>
<!-- PrimengModule -->
<g id="node8" class="node">
<title>PrimengModule</title>
<polygon fill="#8dd3c7" stroke="black" points="130.49,-84.8 127.49,-88.8 106.49,-88.8 103.49,-84.8 23.51,-84.8 23.51,-48.8 130.49,-48.8 130.49,-84.8"/>
<text text-anchor="middle" x="77" y="-62.6" font-family="Times,serif" font-size="14.00">PrimengModule</text>
</g>
<!-- PrimengModule&#45;&gt;CoreModule -->
<g id="edge7" class="edge">
<title>PrimengModule&#45;&gt;CoreModule</title>
<path fill="none" stroke="black" d="M104.97,-84.91C104.97,-104.14 104.97,-131.8 104.97,-131.8 104.97,-131.8 551.5,-131.8 551.5,-131.8"/>
<polygon fill="black" stroke="black" points="551.5,-135.3 561.5,-131.8 551.5,-128.3 551.5,-135.3"/>
</g>
</g>
</svg>
