<?xml version="1.0" encoding="UTF-8" standalone="no"?>
<!DOCTYPE svg PUBLIC "-//W3C//DTD SVG 1.1//EN"
 "http://www.w3.org/Graphics/SVG/1.1/DTD/svg11.dtd">
<!-- Generated by graphviz version 5.0.0 (20220707.1540)
 -->
<!-- Title: dependencies Pages: 1 -->
<svg width="678pt" height="247pt"
 viewBox="0.00 0.00 678.00 246.80" xmlns="http://www.w3.org/2000/svg" xmlns:xlink="http://www.w3.org/1999/xlink">
<g id="graph0" class="graph" transform="scale(1 1) rotate(0) translate(4 242.8)">
<title>dependencies</title>
<polygon fill="white" stroke="transparent" points="-4,4 -4,-242.8 674,-242.8 674,4 -4,4"/>
<text text-anchor="middle" x="335" y="-8.2" font-family="sans-serif" font-size="14.00">dependencies</text>
<g id="clust1" class="cluster">
<title>cluster_CoreModule</title>
<polygon fill="none" stroke="black" stroke-dasharray="1,5" points="8,-32.8 8,-230.8 662,-230.8 662,-32.8 8,-32.8"/>
</g>
<g id="clust6" class="cluster">
<title>cluster_CoreModule_imports</title>
<polygon fill="none" stroke="black" points="532,-40.8 532,-92.8 654,-92.8 654,-40.8 532,-40.8"/>
</g>
<g id="clust2" class="cluster">
<title>cluster_CoreModule_declarations</title>
<polygon fill="none" stroke="black" points="16,-40.8 16,-92.8 524,-92.8 524,-40.8 16,-40.8"/>
</g>
<g id="clust7" class="cluster">
<title>cluster_CoreModule_exports</title>
<polygon fill="none" stroke="black" points="76,-170.8 76,-222.8 594,-222.8 594,-170.8 76,-170.8"/>
</g>
<!-- AuthComponent -->
<g id="node1" class="node">
<title>AuthComponent</title>
<polygon fill="#ffffb3" stroke="black" points="515.83,-84.8 406.17,-84.8 406.17,-48.8 515.83,-48.8 515.83,-84.8"/>
<text text-anchor="middle" x="461" y="-62.6" font-family="Times,serif" font-size="14.00">AuthComponent</text>
</g>
<!-- CoreModule -->
<g id="node4" class="node">
<title>CoreModule</title>
<polygon fill="#8dd3c7" stroke="black" points="394.27,-149.8 391.27,-153.8 370.27,-153.8 367.27,-149.8 307.73,-149.8 307.73,-113.8 394.27,-113.8 394.27,-149.8"/>
<text text-anchor="middle" x="351" y="-127.6" font-family="Times,serif" font-size="14.00">CoreModule</text>
</g>
<!-- AuthComponent&#45;&gt;CoreModule -->
<g id="edge1" class="edge">
<title>AuthComponent&#45;&gt;CoreModule</title>
<path fill="none" stroke="black" d="M431.18,-84.83C431.18,-101.2 431.18,-122.8 431.18,-122.8 431.18,-122.8 404.37,-122.8 404.37,-122.8"/>
<polygon fill="black" stroke="black" points="404.37,-119.3 394.37,-122.8 404.37,-126.3 404.37,-119.3"/>
</g>
<!-- LoaderBigComponentComponent -->
<g id="node2" class="node">
<title>LoaderBigComponentComponent</title>
<polygon fill="#ffffb3" stroke="black" points="388.03,-84.8 181.97,-84.8 181.97,-48.8 388.03,-48.8 388.03,-84.8"/>
<text text-anchor="middle" x="285" y="-62.6" font-family="Times,serif" font-size="14.00">LoaderBigComponentComponent</text>
</g>
<!-- LoaderBigComponentComponent&#45;&gt;CoreModule -->
<g id="edge2" class="edge">
<title>LoaderBigComponentComponent&#45;&gt;CoreModule</title>
<path fill="none" stroke="black" d="M347.94,-84.91C347.94,-84.91 347.94,-103.79 347.94,-103.79"/>
<polygon fill="black" stroke="black" points="344.44,-103.79 347.94,-113.79 351.44,-103.79 344.44,-103.79"/>
</g>
<!-- ModalWidthDirective -->
<g id="node3" class="node">
<title>ModalWidthDirective</title>
<polygon fill="#ffffb3" stroke="black" points="163.63,-84.8 24.37,-84.8 24.37,-48.8 163.63,-48.8 163.63,-84.8"/>
<text text-anchor="middle" x="94" y="-62.6" font-family="Times,serif" font-size="14.00">ModalWidthDirective</text>
</g>
<!-- ModalWidthDirective&#45;&gt;CoreModule -->
<g id="edge3" class="edge">
<title>ModalWidthDirective&#45;&gt;CoreModule</title>
<path fill="none" stroke="black" d="M124.12,-84.82C124.12,-102.17 124.12,-125.8 124.12,-125.8 124.12,-125.8 297.52,-125.8 297.52,-125.8"/>
<polygon fill="black" stroke="black" points="297.52,-129.3 307.52,-125.8 297.52,-122.3 297.52,-129.3"/>
</g>
<!-- AuthComponent  -->
<g id="node6" class="node">
<title>AuthComponent </title>
<polygon fill="#fb8072" stroke="black" points="586.33,-214.8 473.67,-214.8 473.67,-178.8 586.33,-178.8 586.33,-214.8"/>
<text text-anchor="middle" x="530" y="-192.6" font-family="Times,serif" font-size="14.00">AuthComponent </text>
</g>
<!-- CoreModule&#45;&gt;AuthComponent  -->
<g id="edge5" class="edge">
<title>CoreModule&#45;&gt;AuthComponent </title>
<path fill="none" stroke="black" stroke-dasharray="5,2" d="M394.48,-140.8C436.75,-140.8 494.62,-140.8 494.62,-140.8 494.62,-140.8 494.62,-168.77 494.62,-168.77"/>
<polygon fill="black" stroke="black" points="491.13,-168.77 494.62,-178.77 498.13,-168.77 491.13,-168.77"/>
</g>
<!-- LoaderBigComponentComponent  -->
<g id="node7" class="node">
<title>LoaderBigComponentComponent </title>
<polygon fill="#fb8072" stroke="black" points="456.03,-214.8 245.97,-214.8 245.97,-178.8 456.03,-178.8 456.03,-214.8"/>
<text text-anchor="middle" x="351" y="-192.6" font-family="Times,serif" font-size="14.00">LoaderBigComponentComponent </text>
</g>
<!-- CoreModule&#45;&gt;LoaderBigComponentComponent  -->
<g id="edge6" class="edge">
<title>CoreModule&#45;&gt;LoaderBigComponentComponent </title>
<path fill="none" stroke="black" stroke-dasharray="5,2" d="M351,-149.91C351,-149.91 351,-168.79 351,-168.79"/>
<polygon fill="black" stroke="black" points="347.5,-168.79 351,-178.79 354.5,-168.79 347.5,-168.79"/>
</g>
<!-- ModalWidthDirective  -->
<g id="node8" class="node">
<title>ModalWidthDirective </title>
<polygon fill="#fb8072" stroke="black" points="227.63,-214.8 84.37,-214.8 84.37,-178.8 227.63,-178.8 227.63,-214.8"/>
<text text-anchor="middle" x="156" y="-192.6" font-family="Times,serif" font-size="14.00">ModalWidthDirective </text>
</g>
<!-- CoreModule&#45;&gt;ModalWidthDirective  -->
<g id="edge7" class="edge">
<title>CoreModule&#45;&gt;ModalWidthDirective </title>
<path fill="none" stroke="black" stroke-dasharray="5,2" d="M307.49,-137.8C264.35,-137.8 204.65,-137.8 204.65,-137.8 204.65,-137.8 204.65,-168.78 204.65,-168.78"/>
<polygon fill="black" stroke="black" points="201.15,-168.78 204.65,-178.78 208.15,-168.78 201.15,-168.78"/>
</g>
<!-- PrimengModule -->
<g id="node5" class="node">
<title>PrimengModule</title>
<polygon fill="#8dd3c7" stroke="black" points="646.49,-84.8 643.49,-88.8 622.49,-88.8 619.49,-84.8 539.51,-84.8 539.51,-48.8 646.49,-48.8 646.49,-84.8"/>
<text text-anchor="middle" x="593" y="-62.6" font-family="Times,serif" font-size="14.00">PrimengModule</text>
</g>
<!-- PrimengModule&#45;&gt;CoreModule -->
<g id="edge4" class="edge">
<title>PrimengModule&#45;&gt;CoreModule</title>
<path fill="none" stroke="black" d="M562.96,-84.91C562.96,-104.14 562.96,-131.8 562.96,-131.8 562.96,-131.8 404.4,-131.8 404.4,-131.8"/>
<polygon fill="black" stroke="black" points="404.4,-128.3 394.4,-131.8 404.4,-135.3 404.4,-128.3"/>
</g>
</g>
</svg>
