<?xml version="1.0" encoding="UTF-8" standalone="no"?>
<!DOCTYPE svg PUBLIC "-//W3C//DTD SVG 1.1//EN"
 "http://www.w3.org/Graphics/SVG/1.1/DTD/svg11.dtd">
<!-- Generated by graphviz version 5.0.0 (20220707.1540)
 -->
<!-- Title: dependencies Pages: 1 -->
<svg width="433pt" height="174pt"
 viewBox="0.00 0.00 433.00 173.80" xmlns="http://www.w3.org/2000/svg" xmlns:xlink="http://www.w3.org/1999/xlink">
<g id="graph0" class="graph" transform="scale(1 1) rotate(0) translate(4 169.8)">
<title>dependencies</title>
<polygon fill="white" stroke="transparent" points="-4,4 -4,-169.8 429,-169.8 429,4 -4,4"/>
<text text-anchor="middle" x="212.5" y="-8.2" font-family="sans-serif" font-size="14.00">dependencies</text>
<g id="clust1" class="cluster">
<title>cluster_ConfigurarModule</title>
<polygon fill="none" stroke="black" stroke-dasharray="1,5" points="8,-32.8 8,-157.8 417,-157.8 417,-32.8 8,-32.8"/>
</g>
<g id="clust2" class="cluster">
<title>cluster_ConfigurarModule_declarations</title>
<polygon fill="none" stroke="black" points="251,-40.8 251,-92.8 409,-92.8 409,-40.8 251,-40.8"/>
</g>
<g id="clust4" class="cluster">
<title>cluster_ConfigurarModule_imports</title>
<polygon fill="none" stroke="black" points="16,-40.8 16,-92.8 243,-92.8 243,-40.8 16,-40.8"/>
</g>
<!-- ConfigurarComponent -->
<g id="node1" class="node">
<title>ConfigurarComponent</title>
<polygon fill="#ffffb3" stroke="black" points="401.26,-84.8 258.74,-84.8 258.74,-48.8 401.26,-48.8 401.26,-84.8"/>
<text text-anchor="middle" x="330" y="-62.6" font-family="Times,serif" font-size="14.00">ConfigurarComponent</text>
</g>
<!-- ConfigurarModule -->
<g id="node2" class="node">
<title>ConfigurarModule</title>
<polygon fill="#8dd3c7" stroke="black" points="252.48,-149.8 249.48,-153.8 228.48,-153.8 225.48,-149.8 131.52,-149.8 131.52,-113.8 252.48,-113.8 252.48,-149.8"/>
<text text-anchor="middle" x="192" y="-127.6" font-family="Times,serif" font-size="14.00">ConfigurarModule</text>
</g>
<!-- ConfigurarComponent&#45;&gt;ConfigurarModule -->
<g id="edge1" class="edge">
<title>ConfigurarComponent&#45;&gt;ConfigurarModule</title>
<path fill="none" stroke="black" d="M258.54,-66.8C249.83,-66.8 243.94,-66.8 243.94,-66.8 243.94,-66.8 243.94,-103.69 243.94,-103.69"/>
<polygon fill="black" stroke="black" points="240.44,-103.69 243.94,-113.69 247.44,-103.69 240.44,-103.69"/>
</g>
<!-- CoreModule -->
<g id="node3" class="node">
<title>CoreModule</title>
<polygon fill="#8dd3c7" stroke="black" points="235.27,-84.8 232.27,-88.8 211.27,-88.8 208.27,-84.8 148.73,-84.8 148.73,-48.8 235.27,-48.8 235.27,-84.8"/>
<text text-anchor="middle" x="192" y="-62.6" font-family="Times,serif" font-size="14.00">CoreModule</text>
</g>
<!-- CoreModule&#45;&gt;ConfigurarModule -->
<g id="edge2" class="edge">
<title>CoreModule&#45;&gt;ConfigurarModule</title>
<path fill="none" stroke="black" d="M192,-84.91C192,-84.91 192,-103.79 192,-103.79"/>
<polygon fill="black" stroke="black" points="188.5,-103.79 192,-113.79 195.5,-103.79 188.5,-103.79"/>
</g>
<!-- PrimengModule -->
<g id="node4" class="node">
<title>PrimengModule</title>
<polygon fill="#8dd3c7" stroke="black" points="130.49,-84.8 127.49,-88.8 106.49,-88.8 103.49,-84.8 23.51,-84.8 23.51,-48.8 130.49,-48.8 130.49,-84.8"/>
<text text-anchor="middle" x="77" y="-62.6" font-family="Times,serif" font-size="14.00">PrimengModule</text>
</g>
<!-- PrimengModule&#45;&gt;ConfigurarModule -->
<g id="edge3" class="edge">
<title>PrimengModule&#45;&gt;ConfigurarModule</title>
<path fill="none" stroke="black" d="M130.76,-66.8C136.36,-66.8 140.06,-66.8 140.06,-66.8 140.06,-66.8 140.06,-103.69 140.06,-103.69"/>
<polygon fill="black" stroke="black" points="136.56,-103.69 140.06,-113.69 143.56,-103.69 136.56,-103.69"/>
</g>
</g>
</svg>
