<?xml version="1.0" encoding="UTF-8" standalone="no"?>
<!DOCTYPE svg PUBLIC "-//W3C//DTD SVG 1.1//EN"
 "http://www.w3.org/Graphics/SVG/1.1/DTD/svg11.dtd">
<!-- Generated by graphviz version 5.0.0 (20220707.1540)
 -->
<!-- Title: dependencies Pages: 1 -->
<svg width="617pt" height="174pt"
 viewBox="0.00 0.00 617.00 173.80" xmlns="http://www.w3.org/2000/svg" xmlns:xlink="http://www.w3.org/1999/xlink">
<g id="graph0" class="graph" transform="scale(1 1) rotate(0) translate(4 169.8)">
<title>dependencies</title>
<polygon fill="white" stroke="transparent" points="-4,4 -4,-169.8 613,-169.8 613,4 -4,4"/>
<text text-anchor="middle" x="304.5" y="-8.2" font-family="sans-serif" font-size="14.00">dependencies</text>
<g id="clust1" class="cluster">
<title>cluster_ConfigurarModule</title>
<polygon fill="none" stroke="black" stroke-dasharray="1,5" points="8,-32.8 8,-157.8 601,-157.8 601,-32.8 8,-32.8"/>
</g>
<g id="clust2" class="cluster">
<title>cluster_ConfigurarModule_declarations</title>
<polygon fill="none" stroke="black" points="435,-40.8 435,-92.8 593,-92.8 593,-40.8 435,-40.8"/>
</g>
<g id="clust4" class="cluster">
<title>cluster_ConfigurarModule_imports</title>
<polygon fill="none" stroke="black" points="16,-40.8 16,-92.8 427,-92.8 427,-40.8 16,-40.8"/>
</g>
<!-- ConfigurarComponent -->
<g id="node1" class="node">
<title>ConfigurarComponent</title>
<polygon fill="#ffffb3" stroke="black" points="585.26,-84.8 442.74,-84.8 442.74,-48.8 585.26,-48.8 585.26,-84.8"/>
<text text-anchor="middle" x="514" y="-62.6" font-family="Times,serif" font-size="14.00">ConfigurarComponent</text>
</g>
<!-- ConfigurarModule -->
<g id="node2" class="node">
<title>ConfigurarModule</title>
<polygon fill="#8dd3c7" stroke="black" points="324.48,-149.8 321.48,-153.8 300.48,-153.8 297.48,-149.8 203.52,-149.8 203.52,-113.8 324.48,-113.8 324.48,-149.8"/>
<text text-anchor="middle" x="264" y="-127.6" font-family="Times,serif" font-size="14.00">ConfigurarModule</text>
</g>
<!-- ConfigurarComponent&#45;&gt;ConfigurarModule -->
<g id="edge1" class="edge">
<title>ConfigurarComponent&#45;&gt;ConfigurarModule</title>
<path fill="none" stroke="black" d="M514,-84.91C514,-104.14 514,-131.8 514,-131.8 514,-131.8 334.52,-131.8 334.52,-131.8"/>
<polygon fill="black" stroke="black" points="334.52,-128.3 324.52,-131.8 334.52,-135.3 334.52,-128.3"/>
</g>
<!-- ConfigurarRoutingModule -->
<g id="node3" class="node">
<title>ConfigurarRoutingModule</title>
<polygon fill="#8dd3c7" stroke="black" points="419.1,-84.8 416.1,-88.8 395.1,-88.8 392.1,-84.8 252.9,-84.8 252.9,-48.8 419.1,-48.8 419.1,-84.8"/>
<text text-anchor="middle" x="336" y="-62.6" font-family="Times,serif" font-size="14.00">ConfigurarRoutingModule</text>
</g>
<!-- ConfigurarRoutingModule&#45;&gt;ConfigurarModule -->
<g id="edge2" class="edge">
<title>ConfigurarRoutingModule&#45;&gt;ConfigurarModule</title>
<path fill="none" stroke="black" d="M288.72,-84.91C288.72,-84.91 288.72,-103.79 288.72,-103.79"/>
<polygon fill="black" stroke="black" points="285.22,-103.79 288.72,-113.79 292.22,-103.79 285.22,-103.79"/>
</g>
<!-- CoreModule -->
<g id="node4" class="node">
<title>CoreModule</title>
<polygon fill="#8dd3c7" stroke="black" points="235.27,-84.8 232.27,-88.8 211.27,-88.8 208.27,-84.8 148.73,-84.8 148.73,-48.8 235.27,-48.8 235.27,-84.8"/>
<text text-anchor="middle" x="192" y="-62.6" font-family="Times,serif" font-size="14.00">CoreModule</text>
</g>
<!-- CoreModule&#45;&gt;ConfigurarModule -->
<g id="edge3" class="edge">
<title>CoreModule&#45;&gt;ConfigurarModule</title>
<path fill="none" stroke="black" d="M219.45,-84.91C219.45,-84.91 219.45,-103.79 219.45,-103.79"/>
<polygon fill="black" stroke="black" points="215.95,-103.79 219.45,-113.79 222.95,-103.79 215.95,-103.79"/>
</g>
<!-- PrimengModule -->
<g id="node5" class="node">
<title>PrimengModule</title>
<polygon fill="#8dd3c7" stroke="black" points="130.49,-84.8 127.49,-88.8 106.49,-88.8 103.49,-84.8 23.51,-84.8 23.51,-48.8 130.49,-48.8 130.49,-84.8"/>
<text text-anchor="middle" x="77" y="-62.6" font-family="Times,serif" font-size="14.00">PrimengModule</text>
</g>
<!-- PrimengModule&#45;&gt;ConfigurarModule -->
<g id="edge4" class="edge">
<title>PrimengModule&#45;&gt;ConfigurarModule</title>
<path fill="none" stroke="black" d="M77,-84.91C77,-104.14 77,-131.8 77,-131.8 77,-131.8 193.29,-131.8 193.29,-131.8"/>
<polygon fill="black" stroke="black" points="193.29,-135.3 203.29,-131.8 193.29,-128.3 193.29,-135.3"/>
</g>
</g>
</svg>
