<?xml version="1.0" encoding="UTF-8" standalone="no"?>
<!DOCTYPE svg PUBLIC "-//W3C//DTD SVG 1.1//EN"
 "http://www.w3.org/Graphics/SVG/1.1/DTD/svg11.dtd">
<!-- Generated by graphviz version 5.0.0 (20220707.1540)
 -->
<!-- Title: dependencies Pages: 1 -->
<svg width="304pt" height="247pt"
 viewBox="0.00 0.00 304.00 246.80" xmlns="http://www.w3.org/2000/svg" xmlns:xlink="http://www.w3.org/1999/xlink">
<g id="graph0" class="graph" transform="scale(1 1) rotate(0) translate(4 242.8)">
<title>dependencies</title>
<polygon fill="white" stroke="transparent" points="-4,4 -4,-242.8 300,-242.8 300,4 -4,4"/>
<text text-anchor="middle" x="148" y="-8.2" font-family="sans-serif" font-size="14.00">dependencies</text>
<g id="clust1" class="cluster">
<title>cluster_PrimengModule</title>
<polygon fill="none" stroke="black" stroke-dasharray="1,5" points="8,-32.8 8,-230.8 288,-230.8 288,-32.8 8,-32.8"/>
</g>
<g id="clust5" class="cluster">
<title>cluster_PrimengModule_exports</title>
<polygon fill="none" stroke="black" points="16,-170.8 16,-222.8 280,-222.8 280,-170.8 16,-170.8"/>
</g>
<g id="clust2" class="cluster">
<title>cluster_PrimengModule_declarations</title>
<polygon fill="none" stroke="black" points="79,-40.8 79,-92.8 215,-92.8 215,-40.8 79,-40.8"/>
</g>
<!-- NgmodalDirective -->
<g id="node1" class="node">
<title>NgmodalDirective</title>
<polygon fill="#ffffb3" stroke="black" points="207.19,-84.8 86.81,-84.8 86.81,-48.8 207.19,-48.8 207.19,-84.8"/>
<text text-anchor="middle" x="147" y="-62.6" font-family="Times,serif" font-size="14.00">NgmodalDirective</text>
</g>
<!-- PrimengModule -->
<g id="node2" class="node">
<title>PrimengModule</title>
<polygon fill="#8dd3c7" stroke="black" points="200.49,-149.8 197.49,-153.8 176.49,-153.8 173.49,-149.8 93.51,-149.8 93.51,-113.8 200.49,-113.8 200.49,-149.8"/>
<text text-anchor="middle" x="147" y="-127.6" font-family="Times,serif" font-size="14.00">PrimengModule</text>
</g>
<!-- NgmodalDirective&#45;&gt;PrimengModule -->
<g id="edge1" class="edge">
<title>NgmodalDirective&#45;&gt;PrimengModule</title>
<path fill="none" stroke="black" d="M147,-84.91C147,-84.91 147,-103.79 147,-103.79"/>
<polygon fill="black" stroke="black" points="143.5,-103.79 147,-113.79 150.5,-103.79 143.5,-103.79"/>
</g>
<!-- NgmodalDirective  -->
<g id="node3" class="node">
<title>NgmodalDirective </title>
<polygon fill="#fb8072" stroke="black" points="271.69,-214.8 148.31,-214.8 148.31,-178.8 271.69,-178.8 271.69,-214.8"/>
<text text-anchor="middle" x="210" y="-192.6" font-family="Times,serif" font-size="14.00">NgmodalDirective </text>
</g>
<!-- PrimengModule&#45;&gt;NgmodalDirective  -->
<g id="edge2" class="edge">
<title>PrimengModule&#45;&gt;NgmodalDirective </title>
<path fill="none" stroke="black" stroke-dasharray="5,2" d="M174.33,-149.91C174.33,-149.91 174.33,-168.79 174.33,-168.79"/>
<polygon fill="black" stroke="black" points="170.83,-168.79 174.33,-178.79 177.83,-168.79 170.83,-168.79"/>
</g>
<!-- SidebarModule  -->
<g id="node4" class="node">
<title>SidebarModule </title>
<polygon fill="#fb8072" stroke="black" points="129.82,-214.8 24.18,-214.8 24.18,-178.8 129.82,-178.8 129.82,-214.8"/>
<text text-anchor="middle" x="77" y="-192.6" font-family="Times,serif" font-size="14.00">SidebarModule </text>
</g>
<!-- PrimengModule&#45;&gt;SidebarModule  -->
<g id="edge3" class="edge">
<title>PrimengModule&#45;&gt;SidebarModule </title>
<path fill="none" stroke="black" stroke-dasharray="5,2" d="M111.71,-149.91C111.71,-149.91 111.71,-168.79 111.71,-168.79"/>
<polygon fill="black" stroke="black" points="108.21,-168.79 111.71,-178.79 115.21,-168.79 108.21,-168.79"/>
</g>
</g>
</svg>
