<?xml version="1.0" encoding="UTF-8" standalone="no"?>
<!DOCTYPE svg PUBLIC "-//W3C//DTD SVG 1.1//EN"
 "http://www.w3.org/Graphics/SVG/1.1/DTD/svg11.dtd">
<!-- Generated by graphviz version 5.0.0 (20220707.1540)
 -->
<!-- Title: dependencies Pages: 1 -->
<svg width="932pt" height="174pt"
 viewBox="0.00 0.00 932.00 173.80" xmlns="http://www.w3.org/2000/svg" xmlns:xlink="http://www.w3.org/1999/xlink">
<g id="graph0" class="graph" transform="scale(1 1) rotate(0) translate(4 169.8)">
<title>dependencies</title>
<polygon fill="white" stroke="transparent" points="-4,4 -4,-169.8 928,-169.8 928,4 -4,4"/>
<text text-anchor="middle" x="462" y="-8.2" font-family="sans-serif" font-size="14.00">dependencies</text>
<g id="clust1" class="cluster">
<title>cluster_RolesYPermisosModule</title>
<polygon fill="none" stroke="black" stroke-dasharray="1,5" points="8,-32.8 8,-157.8 916,-157.8 916,-32.8 8,-32.8"/>
</g>
<g id="clust2" class="cluster">
<title>cluster_RolesYPermisosModule_declarations</title>
<polygon fill="none" stroke="black" points="342,-40.8 342,-92.8 908,-92.8 908,-40.8 342,-40.8"/>
</g>
<g id="clust6" class="cluster">
<title>cluster_RolesYPermisosModule_imports</title>
<polygon fill="none" stroke="black" points="16,-40.8 16,-92.8 334,-92.8 334,-40.8 16,-40.8"/>
</g>
<!-- AgregarEditarRolComponent -->
<g id="node1" class="node">
<title>AgregarEditarRolComponent</title>
<polygon fill="#ffffb3" stroke="black" points="899.63,-84.8 718.37,-84.8 718.37,-48.8 899.63,-48.8 899.63,-84.8"/>
<text text-anchor="middle" x="809" y="-62.6" font-family="Times,serif" font-size="14.00">AgregarEditarRolComponent</text>
</g>
<!-- RolesYPermisosModule -->
<g id="node4" class="node">
<title>RolesYPermisosModule</title>
<polygon fill="#8dd3c7" stroke="black" points="513.39,-149.8 510.39,-153.8 489.39,-153.8 486.39,-149.8 360.61,-149.8 360.61,-113.8 513.39,-113.8 513.39,-149.8"/>
<text text-anchor="middle" x="437" y="-127.6" font-family="Times,serif" font-size="14.00">RolesYPermisosModule</text>
</g>
<!-- AgregarEditarRolComponent&#45;&gt;RolesYPermisosModule -->
<g id="edge1" class="edge">
<title>AgregarEditarRolComponent&#45;&gt;RolesYPermisosModule</title>
<path fill="none" stroke="black" d="M809,-85.08C809,-106.12 809,-137.8 809,-137.8 809,-137.8 523.63,-137.8 523.63,-137.8"/>
<polygon fill="black" stroke="black" points="523.63,-134.3 513.63,-137.8 523.63,-141.3 523.63,-134.3"/>
</g>
<!-- ListaDeRolesComponent -->
<g id="node2" class="node">
<title>ListaDeRolesComponent</title>
<polygon fill="#ffffb3" stroke="black" points="699.54,-84.8 542.46,-84.8 542.46,-48.8 699.54,-48.8 699.54,-84.8"/>
<text text-anchor="middle" x="621" y="-62.6" font-family="Times,serif" font-size="14.00">ListaDeRolesComponent</text>
</g>
<!-- ListaDeRolesComponent&#45;&gt;RolesYPermisosModule -->
<g id="edge2" class="edge">
<title>ListaDeRolesComponent&#45;&gt;RolesYPermisosModule</title>
<path fill="none" stroke="black" d="M621,-84.82C621,-102.17 621,-125.8 621,-125.8 621,-125.8 523.43,-125.8 523.43,-125.8"/>
<polygon fill="black" stroke="black" points="523.43,-122.3 513.43,-125.8 523.43,-129.3 523.43,-122.3"/>
</g>
<!-- RolesYPermisosComponent -->
<g id="node3" class="node">
<title>RolesYPermisosComponent</title>
<polygon fill="#ffffb3" stroke="black" points="524.17,-84.8 349.83,-84.8 349.83,-48.8 524.17,-48.8 524.17,-84.8"/>
<text text-anchor="middle" x="437" y="-62.6" font-family="Times,serif" font-size="14.00">RolesYPermisosComponent</text>
</g>
<!-- RolesYPermisosComponent&#45;&gt;RolesYPermisosModule -->
<g id="edge3" class="edge">
<title>RolesYPermisosComponent&#45;&gt;RolesYPermisosModule</title>
<path fill="none" stroke="black" d="M437,-84.91C437,-84.91 437,-103.79 437,-103.79"/>
<polygon fill="black" stroke="black" points="433.5,-103.79 437,-113.79 440.5,-103.79 433.5,-103.79"/>
</g>
<!-- CoreModule -->
<g id="node5" class="node">
<title>CoreModule</title>
<polygon fill="#8dd3c7" stroke="black" points="326.27,-84.8 323.27,-88.8 302.27,-88.8 299.27,-84.8 239.73,-84.8 239.73,-48.8 326.27,-48.8 326.27,-84.8"/>
<text text-anchor="middle" x="283" y="-62.6" font-family="Times,serif" font-size="14.00">CoreModule</text>
</g>
<!-- CoreModule&#45;&gt;RolesYPermisosModule -->
<g id="edge4" class="edge">
<title>CoreModule&#45;&gt;RolesYPermisosModule</title>
<path fill="none" stroke="black" d="M283,-84.82C283,-102.17 283,-125.8 283,-125.8 283,-125.8 350.45,-125.8 350.45,-125.8"/>
<polygon fill="black" stroke="black" points="350.45,-129.3 360.45,-125.8 350.45,-122.3 350.45,-129.3"/>
</g>
<!-- RolesYPermisosRoutingModule -->
<g id="node6" class="node">
<title>RolesYPermisosRoutingModule</title>
<polygon fill="#8dd3c7" stroke="black" points="222.01,-84.8 219.01,-88.8 198.01,-88.8 195.01,-84.8 23.99,-84.8 23.99,-48.8 222.01,-48.8 222.01,-84.8"/>
<text text-anchor="middle" x="123" y="-62.6" font-family="Times,serif" font-size="14.00">RolesYPermisosRoutingModule</text>
</g>
<!-- RolesYPermisosRoutingModule&#45;&gt;RolesYPermisosModule -->
<g id="edge5" class="edge">
<title>RolesYPermisosRoutingModule&#45;&gt;RolesYPermisosModule</title>
<path fill="none" stroke="black" d="M123,-85.08C123,-106.12 123,-137.8 123,-137.8 123,-137.8 350.59,-137.8 350.59,-137.8"/>
<polygon fill="black" stroke="black" points="350.59,-141.3 360.59,-137.8 350.59,-134.3 350.59,-141.3"/>
</g>
</g>
</svg>
