<?xml version="1.0" encoding="UTF-8" standalone="no"?>
<!DOCTYPE svg PUBLIC "-//W3C//DTD SVG 1.1//EN"
 "http://www.w3.org/Graphics/SVG/1.1/DTD/svg11.dtd">
<!-- Generated by graphviz version 5.0.0 (20220707.1540)
 -->
<!-- Title: dependencies Pages: 1 -->
<svg width="716pt" height="174pt"
 viewBox="0.00 0.00 716.00 173.80" xmlns="http://www.w3.org/2000/svg" xmlns:xlink="http://www.w3.org/1999/xlink">
<g id="graph0" class="graph" transform="scale(1 1) rotate(0) translate(4 169.8)">
<title>dependencies</title>
<polygon fill="white" stroke="transparent" points="-4,4 -4,-169.8 712,-169.8 712,4 -4,4"/>
<text text-anchor="middle" x="354" y="-8.2" font-family="sans-serif" font-size="14.00">dependencies</text>
<g id="clust1" class="cluster">
<title>cluster_RolesYPermisosModule</title>
<polygon fill="none" stroke="black" stroke-dasharray="1,5" points="8,-32.8 8,-157.8 700,-157.8 700,-32.8 8,-32.8"/>
</g>
<g id="clust2" class="cluster">
<title>cluster_RolesYPermisosModule_declarations</title>
<polygon fill="none" stroke="black" points="126,-40.8 126,-92.8 692,-92.8 692,-40.8 126,-40.8"/>
</g>
<g id="clust6" class="cluster">
<title>cluster_RolesYPermisosModule_imports</title>
<polygon fill="none" stroke="black" points="16,-40.8 16,-92.8 118,-92.8 118,-40.8 16,-40.8"/>
</g>
<!-- AgregarEditarRolComponent -->
<g id="node1" class="node">
<title>AgregarEditarRolComponent</title>
<polygon fill="#ffffb3" stroke="black" points="683.63,-84.8 502.37,-84.8 502.37,-48.8 683.63,-48.8 683.63,-84.8"/>
<text text-anchor="middle" x="593" y="-62.6" font-family="Times,serif" font-size="14.00">AgregarEditarRolComponent</text>
</g>
<!-- RolesYPermisosModule -->
<g id="node4" class="node">
<title>RolesYPermisosModule</title>
<polygon fill="#8dd3c7" stroke="black" points="389.39,-149.8 386.39,-153.8 365.39,-153.8 362.39,-149.8 236.61,-149.8 236.61,-113.8 389.39,-113.8 389.39,-149.8"/>
<text text-anchor="middle" x="313" y="-127.6" font-family="Times,serif" font-size="14.00">RolesYPermisosModule</text>
</g>
<!-- AgregarEditarRolComponent&#45;&gt;RolesYPermisosModule -->
<g id="edge1" class="edge">
<title>AgregarEditarRolComponent&#45;&gt;RolesYPermisosModule</title>
<path fill="none" stroke="black" d="M593,-84.91C593,-104.14 593,-131.8 593,-131.8 593,-131.8 399.51,-131.8 399.51,-131.8"/>
<polygon fill="black" stroke="black" points="399.51,-128.3 389.51,-131.8 399.51,-135.3 399.51,-128.3"/>
</g>
<!-- ListaDeRolesComponent -->
<g id="node2" class="node">
<title>ListaDeRolesComponent</title>
<polygon fill="#ffffb3" stroke="black" points="483.54,-84.8 326.46,-84.8 326.46,-48.8 483.54,-48.8 483.54,-84.8"/>
<text text-anchor="middle" x="405" y="-62.6" font-family="Times,serif" font-size="14.00">ListaDeRolesComponent</text>
</g>
<!-- ListaDeRolesComponent&#45;&gt;RolesYPermisosModule -->
<g id="edge2" class="edge">
<title>ListaDeRolesComponent&#45;&gt;RolesYPermisosModule</title>
<path fill="none" stroke="black" d="M357.84,-84.91C357.84,-84.91 357.84,-103.79 357.84,-103.79"/>
<polygon fill="black" stroke="black" points="354.34,-103.79 357.84,-113.79 361.34,-103.79 354.34,-103.79"/>
</g>
<!-- RolesYPermisosComponent -->
<g id="node3" class="node">
<title>RolesYPermisosComponent</title>
<polygon fill="#ffffb3" stroke="black" points="308.17,-84.8 133.83,-84.8 133.83,-48.8 308.17,-48.8 308.17,-84.8"/>
<text text-anchor="middle" x="221" y="-62.6" font-family="Times,serif" font-size="14.00">RolesYPermisosComponent</text>
</g>
<!-- RolesYPermisosComponent&#45;&gt;RolesYPermisosModule -->
<g id="edge3" class="edge">
<title>RolesYPermisosComponent&#45;&gt;RolesYPermisosModule</title>
<path fill="none" stroke="black" d="M272.44,-84.91C272.44,-84.91 272.44,-103.79 272.44,-103.79"/>
<polygon fill="black" stroke="black" points="268.94,-103.79 272.44,-113.79 275.94,-103.79 268.94,-103.79"/>
</g>
<!-- CoreModule -->
<g id="node5" class="node">
<title>CoreModule</title>
<polygon fill="#8dd3c7" stroke="black" points="110.27,-84.8 107.27,-88.8 86.27,-88.8 83.27,-84.8 23.73,-84.8 23.73,-48.8 110.27,-48.8 110.27,-84.8"/>
<text text-anchor="middle" x="67" y="-62.6" font-family="Times,serif" font-size="14.00">CoreModule</text>
</g>
<!-- CoreModule&#45;&gt;RolesYPermisosModule -->
<g id="edge4" class="edge">
<title>CoreModule&#45;&gt;RolesYPermisosModule</title>
<path fill="none" stroke="black" d="M67,-84.91C67,-104.14 67,-131.8 67,-131.8 67,-131.8 226.51,-131.8 226.51,-131.8"/>
<polygon fill="black" stroke="black" points="226.51,-135.3 236.51,-131.8 226.51,-128.3 226.51,-135.3"/>
</g>
</g>
</svg>
