<?xml version="1.0" encoding="UTF-8" standalone="no"?>
<!DOCTYPE svg PUBLIC "-//W3C//DTD SVG 1.1//EN"
 "http://www.w3.org/Graphics/SVG/1.1/DTD/svg11.dtd">
<!-- Generated by graphviz version 5.0.0 (20220707.1540)
 -->
<!-- Title: dependencies Pages: 1 -->
<svg width="296pt" height="174pt"
 viewBox="0.00 0.00 296.00 173.80" xmlns="http://www.w3.org/2000/svg" xmlns:xlink="http://www.w3.org/1999/xlink">
<g id="graph0" class="graph" transform="scale(1 1) rotate(0) translate(4 169.8)">
<title>dependencies</title>
<polygon fill="white" stroke="transparent" points="-4,4 -4,-169.8 292,-169.8 292,4 -4,4"/>
<text text-anchor="middle" x="144" y="-8.2" font-family="sans-serif" font-size="14.00">dependencies</text>
<g id="clust1" class="cluster">
<title>cluster_ListaModule</title>
<polygon fill="none" stroke="black" stroke-dasharray="1,5" points="8,-32.8 8,-157.8 280,-157.8 280,-32.8 8,-32.8"/>
</g>
<g id="clust4" class="cluster">
<title>cluster_ListaModule_imports</title>
<polygon fill="none" stroke="black" points="150,-40.8 150,-92.8 272,-92.8 272,-40.8 150,-40.8"/>
</g>
<g id="clust2" class="cluster">
<title>cluster_ListaModule_declarations</title>
<polygon fill="none" stroke="black" points="16,-40.8 16,-92.8 142,-92.8 142,-40.8 16,-40.8"/>
</g>
<!-- ListaComponent -->
<g id="node1" class="node">
<title>ListaComponent</title>
<polygon fill="#ffffb3" stroke="black" points="133.82,-84.8 24.18,-84.8 24.18,-48.8 133.82,-48.8 133.82,-84.8"/>
<text text-anchor="middle" x="79" y="-62.6" font-family="Times,serif" font-size="14.00">ListaComponent</text>
</g>
<!-- ListaModule -->
<g id="node2" class="node">
<title>ListaModule</title>
<polygon fill="#8dd3c7" stroke="black" points="188.55,-149.8 185.55,-153.8 164.55,-153.8 161.55,-149.8 101.45,-149.8 101.45,-113.8 188.55,-113.8 188.55,-149.8"/>
<text text-anchor="middle" x="145" y="-127.6" font-family="Times,serif" font-size="14.00">ListaModule</text>
</g>
<!-- ListaComponent&#45;&gt;ListaModule -->
<g id="edge1" class="edge">
<title>ListaComponent&#45;&gt;ListaModule</title>
<path fill="none" stroke="black" d="M117.44,-84.91C117.44,-84.91 117.44,-103.79 117.44,-103.79"/>
<polygon fill="black" stroke="black" points="113.94,-103.79 117.44,-113.79 120.94,-103.79 113.94,-103.79"/>
</g>
<!-- PrimengModule -->
<g id="node3" class="node">
<title>PrimengModule</title>
<polygon fill="#8dd3c7" stroke="black" points="264.49,-84.8 261.49,-88.8 240.49,-88.8 237.49,-84.8 157.51,-84.8 157.51,-48.8 264.49,-48.8 264.49,-84.8"/>
<text text-anchor="middle" x="211" y="-62.6" font-family="Times,serif" font-size="14.00">PrimengModule</text>
</g>
<!-- PrimengModule&#45;&gt;ListaModule -->
<g id="edge2" class="edge">
<title>PrimengModule&#45;&gt;ListaModule</title>
<path fill="none" stroke="black" d="M173.14,-84.91C173.14,-84.91 173.14,-103.79 173.14,-103.79"/>
<polygon fill="black" stroke="black" points="169.64,-103.79 173.14,-113.79 176.64,-103.79 169.64,-103.79"/>
</g>
</g>
</svg>
