<?xml version="1.0" encoding="UTF-8" standalone="no"?>
<!DOCTYPE svg PUBLIC "-//W3C//DTD SVG 1.1//EN"
 "http://www.w3.org/Graphics/SVG/1.1/DTD/svg11.dtd">
<!-- Generated by graphviz version 5.0.0 (20220707.1540)
 -->
<!-- Title: dependencies Pages: 1 -->
<svg width="447pt" height="174pt"
 viewBox="0.00 0.00 447.00 173.80" xmlns="http://www.w3.org/2000/svg" xmlns:xlink="http://www.w3.org/1999/xlink">
<g id="graph0" class="graph" transform="scale(1 1) rotate(0) translate(4 169.8)">
<title>dependencies</title>
<polygon fill="white" stroke="transparent" points="-4,4 -4,-169.8 443,-169.8 443,4 -4,4"/>
<text text-anchor="middle" x="219.5" y="-8.2" font-family="sans-serif" font-size="14.00">dependencies</text>
<g id="clust1" class="cluster">
<title>cluster_ListaModule</title>
<polygon fill="none" stroke="black" stroke-dasharray="1,5" points="8,-32.8 8,-157.8 431,-157.8 431,-32.8 8,-32.8"/>
</g>
<g id="clust2" class="cluster">
<title>cluster_ListaModule_declarations</title>
<polygon fill="none" stroke="black" points="297,-40.8 297,-92.8 423,-92.8 423,-40.8 297,-40.8"/>
</g>
<g id="clust4" class="cluster">
<title>cluster_ListaModule_imports</title>
<polygon fill="none" stroke="black" points="16,-40.8 16,-92.8 289,-92.8 289,-40.8 16,-40.8"/>
</g>
<!-- ListaComponent -->
<g id="node1" class="node">
<title>ListaComponent</title>
<polygon fill="#ffffb3" stroke="black" points="414.82,-84.8 305.18,-84.8 305.18,-48.8 414.82,-48.8 414.82,-84.8"/>
<text text-anchor="middle" x="360" y="-62.6" font-family="Times,serif" font-size="14.00">ListaComponent</text>
</g>
<!-- ListaModule -->
<g id="node2" class="node">
<title>ListaModule</title>
<polygon fill="#8dd3c7" stroke="black" points="258.55,-149.8 255.55,-153.8 234.55,-153.8 231.55,-149.8 171.45,-149.8 171.45,-113.8 258.55,-113.8 258.55,-149.8"/>
<text text-anchor="middle" x="215" y="-127.6" font-family="Times,serif" font-size="14.00">ListaModule</text>
</g>
<!-- ListaComponent&#45;&gt;ListaModule -->
<g id="edge1" class="edge">
<title>ListaComponent&#45;&gt;ListaModule</title>
<path fill="none" stroke="black" d="M360,-84.91C360,-104.14 360,-131.8 360,-131.8 360,-131.8 268.9,-131.8 268.9,-131.8"/>
<polygon fill="black" stroke="black" points="268.9,-128.3 258.9,-131.8 268.9,-135.3 268.9,-128.3"/>
</g>
<!-- ListaRoutingModule -->
<g id="node3" class="node">
<title>ListaRoutingModule</title>
<polygon fill="#8dd3c7" stroke="black" points="281.16,-84.8 278.16,-88.8 257.16,-88.8 254.16,-84.8 148.84,-84.8 148.84,-48.8 281.16,-48.8 281.16,-84.8"/>
<text text-anchor="middle" x="215" y="-62.6" font-family="Times,serif" font-size="14.00">ListaRoutingModule</text>
</g>
<!-- ListaRoutingModule&#45;&gt;ListaModule -->
<g id="edge2" class="edge">
<title>ListaRoutingModule&#45;&gt;ListaModule</title>
<path fill="none" stroke="black" d="M215,-84.91C215,-84.91 215,-103.79 215,-103.79"/>
<polygon fill="black" stroke="black" points="211.5,-103.79 215,-113.79 218.5,-103.79 211.5,-103.79"/>
</g>
<!-- PrimengModule -->
<g id="node4" class="node">
<title>PrimengModule</title>
<polygon fill="#8dd3c7" stroke="black" points="130.49,-84.8 127.49,-88.8 106.49,-88.8 103.49,-84.8 23.51,-84.8 23.51,-48.8 130.49,-48.8 130.49,-84.8"/>
<text text-anchor="middle" x="77" y="-62.6" font-family="Times,serif" font-size="14.00">PrimengModule</text>
</g>
<!-- PrimengModule&#45;&gt;ListaModule -->
<g id="edge3" class="edge">
<title>PrimengModule&#45;&gt;ListaModule</title>
<path fill="none" stroke="black" d="M77,-84.91C77,-104.14 77,-131.8 77,-131.8 77,-131.8 161.34,-131.8 161.34,-131.8"/>
<polygon fill="black" stroke="black" points="161.34,-135.3 171.34,-131.8 161.34,-128.3 161.34,-135.3"/>
</g>
</g>
</svg>
