<?xml version="1.0" encoding="UTF-8" standalone="no"?>
<!DOCTYPE svg PUBLIC "-//W3C//DTD SVG 1.1//EN"
 "http://www.w3.org/Graphics/SVG/1.1/DTD/svg11.dtd">
<!-- Generated by graphviz version 5.0.0 (20220707.1540)
 -->
<!-- Title: dependencies Pages: 1 -->
<svg width="447pt" height="174pt"
 viewBox="0.00 0.00 447.00 173.80" xmlns="http://www.w3.org/2000/svg" xmlns:xlink="http://www.w3.org/1999/xlink">
<g id="graph0" class="graph" transform="scale(1 1) rotate(0) translate(4 169.8)">
<title>dependencies</title>
<polygon fill="white" stroke="transparent" points="-4,4 -4,-169.8 443,-169.8 443,4 -4,4"/>
<text text-anchor="middle" x="219.5" y="-8.2" font-family="sans-serif" font-size="14.00">dependencies</text>
<g id="clust1" class="cluster">
<title>cluster_ListaModule</title>
<polygon fill="none" stroke="black" stroke-dasharray="1,5" points="8,-32.8 8,-157.8 431,-157.8 431,-32.8 8,-32.8"/>
</g>
<g id="clust4" class="cluster">
<title>cluster_ListaModule_imports</title>
<polygon fill="none" stroke="black" points="150,-40.8 150,-92.8 423,-92.8 423,-40.8 150,-40.8"/>
</g>
<g id="clust2" class="cluster">
<title>cluster_ListaModule_declarations</title>
<polygon fill="none" stroke="black" points="16,-40.8 16,-92.8 142,-92.8 142,-40.8 16,-40.8"/>
</g>
<!-- ListaComponent -->
<g id="node1" class="node">
<title>ListaComponent</title>
<polygon fill="#ffffb3" stroke="black" points="133.82,-84.8 24.18,-84.8 24.18,-48.8 133.82,-48.8 133.82,-84.8"/>
<text text-anchor="middle" x="79" y="-62.6" font-family="Times,serif" font-size="14.00">ListaComponent</text>
</g>
<!-- ListaModule -->
<g id="node2" class="node">
<title>ListaModule</title>
<polygon fill="#8dd3c7" stroke="black" points="254.55,-149.8 251.55,-153.8 230.55,-153.8 227.55,-149.8 167.45,-149.8 167.45,-113.8 254.55,-113.8 254.55,-149.8"/>
<text text-anchor="middle" x="211" y="-127.6" font-family="Times,serif" font-size="14.00">ListaModule</text>
</g>
<!-- ListaComponent&#45;&gt;ListaModule -->
<g id="edge1" class="edge">
<title>ListaComponent&#45;&gt;ListaModule</title>
<path fill="none" stroke="black" d="M79,-84.91C79,-104.14 79,-131.8 79,-131.8 79,-131.8 157.41,-131.8 157.41,-131.8"/>
<polygon fill="black" stroke="black" points="157.41,-135.3 167.41,-131.8 157.41,-128.3 157.41,-135.3"/>
</g>
<!-- ListaRoutingModule -->
<g id="node3" class="node">
<title>ListaRoutingModule</title>
<polygon fill="#8dd3c7" stroke="black" points="415.16,-84.8 412.16,-88.8 391.16,-88.8 388.16,-84.8 282.84,-84.8 282.84,-48.8 415.16,-48.8 415.16,-84.8"/>
<text text-anchor="middle" x="349" y="-62.6" font-family="Times,serif" font-size="14.00">ListaRoutingModule</text>
</g>
<!-- ListaRoutingModule&#45;&gt;ListaModule -->
<g id="edge2" class="edge">
<title>ListaRoutingModule&#45;&gt;ListaModule</title>
<path fill="none" stroke="black" d="M349,-84.91C349,-104.14 349,-131.8 349,-131.8 349,-131.8 264.66,-131.8 264.66,-131.8"/>
<polygon fill="black" stroke="black" points="264.66,-128.3 254.66,-131.8 264.66,-135.3 264.66,-128.3"/>
</g>
<!-- PrimengModule -->
<g id="node4" class="node">
<title>PrimengModule</title>
<polygon fill="#8dd3c7" stroke="black" points="264.49,-84.8 261.49,-88.8 240.49,-88.8 237.49,-84.8 157.51,-84.8 157.51,-48.8 264.49,-48.8 264.49,-84.8"/>
<text text-anchor="middle" x="211" y="-62.6" font-family="Times,serif" font-size="14.00">PrimengModule</text>
</g>
<!-- PrimengModule&#45;&gt;ListaModule -->
<g id="edge3" class="edge">
<title>PrimengModule&#45;&gt;ListaModule</title>
<path fill="none" stroke="black" d="M211,-84.91C211,-84.91 211,-103.79 211,-103.79"/>
<polygon fill="black" stroke="black" points="207.5,-103.79 211,-113.79 214.5,-103.79 207.5,-103.79"/>
</g>
</g>
</svg>
